<?xml version="1.0" standalone="no"?>
<!DOCTYPE svg PUBLIC "-//W3C//DTD SVG 1.1//EN" "http://www.w3.org/Graphics/SVG/1.1/DTD/svg11.dtd" >
<svg xmlns="http://www.w3.org/2000/svg" xmlns:xlink="http://www.w3.org/1999/xlink" version="1.1">
<metadata>
Created by FontForge 20170731 at Wed Aug  3 17:50:10 2022
 By Aleksey,,,
Copyright (c) 2015 Indian Type Foundry (info@indiantypefoundry.com)
</metadata>
<defs>
<font id="HindMadurai-Light" horiz-adv-x="1083" >
  <font-face 
    font-family="Hind Madurai Light"
    font-weight="300"
    font-stretch="normal"
    units-per-em="2048"
    panose-1="2 0 0 0 0 0 0 0 0 0"
    ascent="1638"
    descent="-410"
    x-height="1038"
    cap-height="1380"
    bbox="-639 -788 4788 1876"
    underline-thickness="102"
    underline-position="-307"
    unicode-range="U+0020-FB02"
  />
<missing-glyph horiz-adv-x="1536" 
d="M1167 0h-798v1436h798v-1436zM479 1333v-1231h578v1231h-578z" />
    <glyph glyph-name=".notdef" horiz-adv-x="1536" 
d="M1167 0h-798v1436h798v-1436zM479 1333v-1231h578v1231h-578z" />
    <glyph glyph-name=".null" horiz-adv-x="0" 
 />
    <glyph glyph-name="nonmarkingreturn" horiz-adv-x="682" 
 />
    <glyph glyph-name="space" unicode=" " horiz-adv-x="495" 
 />
    <glyph glyph-name="exclam" unicode="!" horiz-adv-x="493" 
d="M309 401h-125v979h125v-979zM350 86q0 -44 -30.5 -73t-75.5 -29q-44 0 -73.5 29t-29.5 73q0 43 29.5 73.5t73.5 30.5t75 -30.5t31 -73.5z" />
    <glyph glyph-name="quotedbl" unicode="&#x22;" horiz-adv-x="555" 
d="M463 924h-117v471h117v-471zM209 924h-117v471h117v-471z" />
    <glyph glyph-name="numbersign" unicode="#" horiz-adv-x="1427" 
d="M893 0h-121l76 356h-389l-76 -356h-117l74 356h-227v105h249l97 459h-226v104h248l74 356h121l-76 -356h389l76 356h117l-74 -356h207v-104h-230l-96 -459h209v-105h-231zM870 461l97 459h-389l-97 -459h389z" />
    <glyph glyph-name="dollar" unicode="$" horiz-adv-x="1028" 
d="M522 -219h-112v209q-162 12 -287 86v141q62 -47 159 -77.5t197 -30.5q145 0 226 62.5t81 182.5q0 55 -23.5 98.5t-70 76t-93 55.5t-114.5 52q-21 8 -32 13q-49 21 -83 38t-76.5 42.5t-70.5 53t-53.5 63t-38 80.5t-12.5 98q0 165 113.5 262t281.5 107v206h113v-210
q124 -13 209 -58v-141q-48 33 -129 55.5t-156 22.5q-137 0 -219 -65t-82 -171q0 -45 17.5 -82.5t41.5 -63.5t68.5 -53t78 -43t91.5 -41q25 -11 37 -16q59 -26 99 -46t88 -54t76.5 -70.5t48 -90t19.5 -116.5q0 -171 -109 -266t-284 -104v-205z" />
    <glyph glyph-name="percent" unicode="%" horiz-adv-x="1667" 
d="M535 -2h-125l720 1341h127zM717 1044q0 -127 -90.5 -217t-216.5 -90q-128 0 -218 90t-90 217q0 126 90.5 217t217.5 91q126 0 216.5 -91t90.5 -217zM217 1044q0 -79 56.5 -135.5t136.5 -56.5t136 56t56 136t-56.5 136.5t-135.5 56.5q-80 0 -136.5 -56.5t-56.5 -136.5z
M1565 293q0 -127 -91 -217t-217 -90q-127 0 -217 90t-90 217q0 126 90 216.5t217 90.5q126 0 217 -90.5t91 -216.5zM1065 293q0 -80 56.5 -136.5t135.5 -56.5t136 57t57 136t-56.5 135.5t-136.5 56.5q-79 0 -135.5 -56.5t-56.5 -135.5z" />
    <glyph glyph-name="ampersand" unicode="&#x26;" horiz-adv-x="1419" 
d="M408 1079q0 -71 35 -135.5t143 -177.5q154 69 224.5 139t70.5 166q0 92 -62.5 156.5t-179.5 64.5q-101 0 -166 -56.5t-65 -156.5zM1417 0h-180l-158 145q-161 -161 -440 -161q-220 0 -359 103.5t-139 268.5q0 121 83.5 205.5t246.5 151.5q-109 116 -153 197.5t-44 170.5
q0 147 100 240.5t269 93.5q162 0 265.5 -101.5t103.5 -244.5q0 -119 -78 -213.5t-260 -173.5l389 -356q49 85 61 204h125q-19 -167 -94 -288zM633 106q222 0 354 123l-430 400q-144 -61 -214.5 -121.5t-70.5 -151.5q0 -115 101 -182.5t260 -67.5z" />
    <glyph glyph-name="quotesingle" unicode="'" horiz-adv-x="301" 
d="M209 924h-117v471h117v-471z" />
    <glyph glyph-name="parenleft" unicode="(" horiz-adv-x="620" 
d="M635 -401h-143q-161 204 -244.5 447t-83.5 491q0 243 84 482t227 429h146q-166 -228 -245 -451.5t-79 -470.5q0 -482 338 -927z" />
    <glyph glyph-name="parenright" unicode=")" horiz-adv-x="620" 
d="M129 -401h-143q338 445 338 927q0 247 -79 470.5t-245 451.5h145q144 -190 228 -429t84 -482q0 -248 -83.5 -491t-244.5 -447z" />
    <glyph glyph-name="asterisk" unicode="*" horiz-adv-x="780" 
d="M625 815l-82 -61l-117 159q-31 42 -37 80q-3 -39 -35 -82l-116 -157l-84 59l116 160q31 41 66 59q-8 -2 -27 -2q-32 0 -63 10l-187 62l31 98l189 -61q49 -17 75 -43q-18 41 -18 88v196h102v-196q0 -49 -14 -84q30 30 74 43l188 59l33 -96l-189 -64q-31 -10 -67 -10h-17
q35 -15 64 -57z" />
    <glyph glyph-name="plus" unicode="+" horiz-adv-x="1114" 
d="M991 639h-385v-393h-117v393h-366v115h366v393h117v-393h385v-115z" />
    <glyph glyph-name="comma" unicode="," horiz-adv-x="423" 
d="M94 -250h-110l186 438h184z" />
    <glyph glyph-name="hyphen" unicode="-" horiz-adv-x="706" 
d="M584 498h-461v112h461v-112z" />
    <glyph glyph-name="period" unicode="." horiz-adv-x="290" 
d="M250 88q0 -44 -30.5 -74t-74.5 -30t-74 30t-30 74t30 74.5t74 30.5t74.5 -30.5t30.5 -74.5z" />
    <glyph glyph-name="slash" unicode="/" horiz-adv-x="792" 
d="M102 -209h-125l750 1657h127z" />
    <glyph glyph-name="zero" unicode="0" horiz-adv-x="1112" 
d="M1020 674q0 -312 -123.5 -501t-345.5 -189q-204 0 -331.5 189.5t-127.5 500.5q0 312 129.5 495t329.5 183q209 0 339 -182t130 -496zM221 674q0 -266 96.5 -417t233.5 -151q155 0 247.5 148t92.5 420q0 137 -27.5 245t-75 174.5t-108 101t-129.5 34.5q-61 0 -118.5 -34.5
t-105.5 -100.5t-77 -175t-29 -245z" />
    <glyph glyph-name="one" unicode="1" horiz-adv-x="630" 
d="M467 0h-125v1202l-301 -188v141l301 184h125v-1339z" />
    <glyph glyph-name="two" unicode="2" horiz-adv-x="1007" 
d="M915 0h-833v113q655 500 655 835q0 138 -79.5 211.5t-211.5 73.5q-71 0 -155.5 -32t-159.5 -87v127q66 53 151.5 82t168.5 29q81 0 154.5 -25t133 -72.5t94.5 -125t35 -175.5q0 -356 -608 -841h655v-113z" />
    <glyph glyph-name="three" unicode="3" horiz-adv-x="944" 
d="M831 369q0 -78 -27 -146t-78 -121t-133 -83.5t-185 -30.5q-79 0 -170 18t-156 49v127q146 -76 328 -76q138 0 215 74t77 193q0 121 -85 184.5t-236 63.5h-90v112h90q115 0 196.5 71t81.5 189q0 120 -72.5 180t-199.5 60q-67 0 -139.5 -23t-128.5 -59v127q45 30 118.5 52
t147.5 22q100 0 179.5 -29t128 -77.5t73.5 -110t25 -129.5q0 -108 -53.5 -194t-159.5 -132q115 -27 184 -109t69 -202z" />
    <glyph glyph-name="four" unicode="4" horiz-adv-x="1093" 
d="M221 449h492v819zM836 0h-123v336h-621v113l537 890h207v-890h206v-113h-206v-336z" />
    <glyph glyph-name="five" unicode="5" horiz-adv-x="1048" 
d="M946 410q0 -196 -127 -311t-346 -115q-197 0 -340 67v127q60 -35 149.5 -55.5t170.5 -20.5q362 0 362 314q0 129 -85.5 198.5t-217.5 69.5q-149 0 -311 -72v727h651v-112h-524v-447q104 23 178 23q199 0 319.5 -106.5t120.5 -286.5z" />
    <glyph glyph-name="six" unicode="6" horiz-adv-x="1071" 
d="M991 436q0 -205 -112.5 -328.5t-294.5 -123.5q-149 0 -256 82t-159 220t-52 318q0 159 38.5 298.5t111.5 247t189 170t261 62.5q97 0 182 -30v-127q-83 39 -184 39q-105 0 -190.5 -45t-142 -122.5t-91 -175t-45.5 -208.5q65 69 159.5 109t188.5 40q186 0 291.5 -117
t105.5 -309zM584 100q127 0 201.5 94t74.5 246q0 140 -74.5 221.5t-193.5 81.5q-102 0 -196 -45.5t-156 -115.5q6 -235 100 -358.5t244 -123.5z" />
    <glyph glyph-name="seven" unicode="7" horiz-adv-x="907" 
d="M324 0h-136l566 1227h-734v112h867v-112z" />
    <glyph glyph-name="eight" unicode="8" horiz-adv-x="1091" 
d="M979 342q0 -162 -127 -260t-313 -98q-116 0 -212 41t-155 121.5t-59 185.5q0 126 70.5 212.5t191.5 121.5q-114 36 -177 117.5t-63 197.5q0 72 23 133t62.5 104t91.5 74t109.5 45.5t117.5 14.5q77 0 147.5 -23t129 -67.5t93.5 -118.5t35 -166q0 -109 -62.5 -190.5
t-172.5 -116.5q126 -32 198 -114.5t72 -213.5zM242 340q0 -101 78 -169.5t221 -68.5q149 0 229 74.5t80 183.5q0 105 -76.5 177t-232.5 71q-77 -1 -136 -23.5t-94 -60.5t-52 -84.5t-17 -99.5zM264 981q0 -127 79 -190.5t204 -63.5q118 0 193 68t75 190q0 107 -72.5 177.5
t-203.5 70.5q-125 0 -200 -73.5t-75 -178.5z" />
    <glyph glyph-name="nine" unicode="9" horiz-adv-x="1015" 
d="M514 600q92 0 166 38t123 101v39q0 70 -8.5 131.5t-30 123t-55.5 105.5t-89.5 71.5t-127.5 27.5q-127 0 -203 -85t-76 -230q0 -156 81 -239t220 -83zM926 778q0 -141 -19.5 -259.5t-63 -218t-109 -169t-161 -108.5t-215.5 -39q-119 0 -229 39v127q111 -48 229 -48
q387 0 437 508q-57 -67 -130.5 -97t-181.5 -30q-76 0 -147.5 30.5t-128 85t-91 139t-34.5 184.5q0 188 109.5 311t297.5 123q92 0 166.5 -32t124.5 -86.5t83.5 -129t48 -157t14.5 -173.5z" />
    <glyph glyph-name="colon" unicode=":" horiz-adv-x="454" 
d="M332 756q0 -44 -31 -73.5t-76 -29.5q-44 0 -73 29.5t-29 73.5q0 43 29 73.5t73 30.5t75.5 -30.5t31.5 -73.5zM332 100q0 -44 -31 -73t-76 -29q-44 0 -73 29t-29 73q0 43 29 74t73 31t75.5 -31t31.5 -74z" />
    <glyph glyph-name="semicolon" unicode=";" horiz-adv-x="423" 
d="M94 -250h-110l186 438h184zM350 754q0 -44 -30.5 -73.5t-75.5 -29.5q-44 0 -73.5 29.5t-29.5 73.5q0 43 29.5 73.5t73.5 30.5t75 -30.5t31 -73.5z" />
    <glyph glyph-name="less" unicode="&#x3c;" horiz-adv-x="1044" 
d="M942 379v-133l-819 391v123l819 391v-133l-682 -318z" />
    <glyph glyph-name="equal" unicode="=" horiz-adv-x="1114" 
d="M991 840h-868v112h868v-112zM991 440h-868v115h868v-115z" />
    <glyph glyph-name="greater" unicode="&#x3e;" horiz-adv-x="1044" 
d="M922 637l-820 -391v133l682 321l-682 318v133l820 -391v-123z" />
    <glyph glyph-name="question" unicode="?" horiz-adv-x="921" 
d="M420 401h-125v349q192 0 303 68t111 206q0 113 -74 183.5t-221 70.5q-169 0 -332 -104v133q55 37 146 63.5t184 26.5q197 0 312.5 -98t115.5 -277q0 -90 -35.5 -162t-96 -116.5t-133 -70.5t-155.5 -34v-238zM461 86q0 -44 -31 -73t-76 -29q-44 0 -73 29t-29 73
q0 43 29 73.5t73 30.5t75.5 -30.5t31.5 -73.5z" />
    <glyph glyph-name="at" unicode="@" horiz-adv-x="1814" 
d="M1167 -252q-123 -65 -348 -65q-209 0 -366 92.5t-238.5 254t-81.5 369.5q0 177 68 331.5t184 262t273.5 169t332.5 61.5q148 0 279.5 -48.5t229.5 -136t155 -218.5t57 -288q0 -98 -21.5 -179.5t-56 -135.5t-80.5 -92t-94 -55t-96 -17q-176 0 -223 164
q-113 -170 -299 -170q-147 0 -232.5 102t-85.5 259q0 176 111 301t278 125q164 0 242 -127q3 53 6 114h109l-37 -346q-6 -58 -6 -113q0 -98 32 -151t113 -53q94 0 158.5 104t64.5 264q0 139 -47 251.5t-129.5 185.5t-193 112t-238.5 39q-139 0 -270 -52.5t-232.5 -143.5
t-163 -226.5t-61.5 -290.5q0 -150 47.5 -269t127.5 -191t179 -109t209 -37q208 0 353 86zM852 158q86 0 163.5 60t114.5 165q0 16 9 113q-16 110 -70 167.5t-162 57.5q-115 0 -186.5 -95.5t-71.5 -226.5q0 -109 55.5 -175t147.5 -66z" />
    <glyph glyph-name="A" unicode="A" horiz-adv-x="1304" 
d="M418 582l-31 -86h535l-31 88l-234 690q-26 -81 -239 -692zM215 0h-137l487 1380h185l477 -1380h-137l-132 383h-610z" />
    <glyph glyph-name="B" unicode="B" horiz-adv-x="1150" 
d="M643 0h-479v1380h385q209 0 339 -95.5t130 -262.5q0 -122 -69 -210t-177 -110q55 -6 104.5 -29.5t91.5 -63.5t66.5 -102.5t24.5 -139.5q0 -165 -107.5 -266t-308.5 -101zM563 1268h-272v-514h248q92 0 160.5 21.5t108 60.5t58.5 86t19 104q0 103 -81.5 172.5t-240.5 69.5
zM604 641h-313v-528h352q134 0 208.5 66t74.5 192q0 130 -85 200t-237 70z" />
    <glyph glyph-name="C" unicode="C" horiz-adv-x="1226" 
d="M1145 72q-60 -42 -152 -65t-192 -23q-154 0 -283 48.5t-221 138.5t-143.5 225t-51.5 302q0 155 54.5 287t147.5 222t219.5 141t269.5 51q203 0 348 -74v-133q-90 47 -160 66.5t-193 19.5q-116 0 -218 -42t-176.5 -116.5t-117.5 -183.5t-43 -238q0 -270 157.5 -432
t416.5 -162q98 0 187.5 29.5t150.5 77.5v-139z" />
    <glyph glyph-name="D" unicode="D" horiz-adv-x="1341" 
d="M567 0h-403v1380h393q149 0 277 -49.5t219.5 -137.5t143.5 -216t52 -279q0 -109 -26 -210t-81 -190t-134 -155t-192.5 -104.5t-248.5 -38.5zM557 1264h-266v-1147h276q113 0 206 32.5t155.5 87.5t105.5 130t62.5 158t19.5 173q0 115 -40.5 218t-112.5 180t-177.5 122.5
t-228.5 45.5z" />
    <glyph glyph-name="E" unicode="E" horiz-adv-x="1003" 
d="M911 0h-747v1380h735v-116h-608v-516h536v-117h-536v-514h620v-117z" />
    <glyph glyph-name="F" unicode="F" horiz-adv-x="991" 
d="M827 621h-536v-621h-127v1380h735v-116h-608v-527h536v-116z" />
    <glyph glyph-name="G" unicode="G" horiz-adv-x="1353" 
d="M1210 102q-75 -55 -184 -86.5t-225 -31.5q-207 0 -364.5 83.5t-246 245t-88.5 379.5q0 205 85.5 368t237 254t339.5 91q243 0 401 -96v-142q-79 55 -180.5 83t-204.5 28q-242 0 -394.5 -161t-152.5 -425q0 -273 152 -427t418 -154q160 0 280 63v473h-325v113h452v-658z
" />
    <glyph glyph-name="H" unicode="H" horiz-adv-x="1294" 
d="M1130 0h-126v645h-713v-645h-127v1380h127v-618h713v618h126v-1380z" />
    <glyph glyph-name="I" unicode="I" horiz-adv-x="475" 
d="M301 0h-127v1380h127v-1380z" />
    <glyph glyph-name="J" unicode="J" horiz-adv-x="714" 
d="M551 338q0 -338 -301 -338q-46 0 -99.5 12.5t-89.5 34.5v129q82 -55 177 -55q186 0 186 196v1063h127v-1042z" />
    <glyph glyph-name="K" unicode="K" horiz-adv-x="1124" 
d="M1063 0h-168l-567 680l546 700h160l-545 -700zM291 0h-127v1380h127v-1380z" />
    <glyph glyph-name="L" unicode="L" horiz-adv-x="970" 
d="M899 0h-735v1380h127v-1263h608v-117z" />
    <glyph glyph-name="M" unicode="M" horiz-adv-x="1736" 
d="M281 0h-127l96 1380h174l180 -506l244 -702q141 390 258 702l188 506h174l117 -1380h-127l-47 547l-55 667q-123 -342 -244 -667l-190 -512h-150l-180 512l-230 653q-18 -310 -43 -653z" />
    <glyph glyph-name="N" unicode="N" horiz-adv-x="1366" 
d="M291 0h-127v1380h174l352 -583l389 -647q-4 214 -4 645v585h127v-1380h-174l-350 580l-391 651q4 -222 4 -647v-584z" />
    <glyph glyph-name="O" unicode="O" horiz-adv-x="1415" 
d="M1313 696q0 -327 -161.5 -519.5t-440.5 -192.5q-275 0 -442 194t-167 518q0 326 163.5 519.5t441.5 193.5q286 0 446 -192t160 -521zM233 696q0 -273 130.5 -431.5t347.5 -158.5q225 0 348 156t123 434t-123.5 434t-351.5 156q-222 0 -348 -157t-126 -433z" />
    <glyph glyph-name="P" unicode="P" horiz-adv-x="1105" 
d="M518 524h-227v-524h-127v1380h332q243 0 380.5 -122t137.5 -320q0 -172 -134.5 -293t-361.5 -121zM510 1268h-219v-631h241q162 0 257.5 86t95.5 215q0 151 -98.5 240.5t-276.5 89.5z" />
    <glyph glyph-name="Q" unicode="Q" horiz-adv-x="1435" 
d="M1313 696q0 -243 -91.5 -415t-258.5 -246l405 -262l-133 -58l-414 277q-47 -8 -110 -8q-275 0 -442 194t-167 518q0 326 163.5 519.5t441.5 193.5q286 0 446 -192t160 -521zM233 696q0 -273 130.5 -431.5t347.5 -158.5q225 0 348 156t123 434t-123.5 434t-351.5 156
q-222 0 -348 -157t-126 -433z" />
    <glyph glyph-name="R" unicode="R" horiz-adv-x="1087" 
d="M489 1268h-198v-594h223q151 0 233 83.5t82 209.5q0 301 -340 301zM500 561h-209v-561h-127v1380h311q242 0 361.5 -109.5t119.5 -309.5q-5 -139 -77.5 -239.5t-208.5 -137.5l366 -584h-151l-346 563q-12 -2 -39 -2z" />
    <glyph glyph-name="S" unicode="S" horiz-adv-x="1079" 
d="M946 356q0 -121 -58.5 -206t-154 -124.5t-217.5 -39.5q-213 0 -362 90v141q62 -47 159 -77.5t197 -30.5q145 0 226 62.5t81 182.5q0 48 -18 87t-54.5 69.5t-73.5 51.5t-93 46q-19 9 -58 25.5t-61 26t-58 27t-57.5 31t-51.5 34t-47.5 39.5t-38 45.5t-31 53.5t-18 61.5
t-7.5 72.5q0 89 35.5 160.5t95.5 116t136.5 68.5t162.5 24q171 0 286 -62v-141q-48 33 -128.5 55.5t-155.5 22.5q-137 0 -219 -65t-82 -171q0 -33 9.5 -62t21.5 -50.5t39 -44t45 -36t57.5 -33.5t59.5 -28.5t67 -29.5q39 -17 59.5 -26t57 -27t57.5 -31t50.5 -34t47 -40
t38 -45.5t31 -54t18 -62t7.5 -72.5z" />
    <glyph glyph-name="T" unicode="T" horiz-adv-x="952" 
d="M922 1264h-383v-1264h-127v1264h-381v116h891v-116z" />
    <glyph glyph-name="U" unicode="U" horiz-adv-x="1308" 
d="M1145 522q0 -265 -129.5 -401.5t-364.5 -136.5q-232 0 -359.5 133t-127.5 389v874h127v-872q0 -207 97.5 -304.5t262.5 -97.5q367 0 367 412v862h127v-858z" />
    <glyph glyph-name="V" unicode="V" horiz-adv-x="1292" 
d="M725 0h-174l-469 1380h137l182 -546l238 -721q92 271 246 721l188 546h137z" />
    <glyph glyph-name="W" unicode="W" horiz-adv-x="1902" 
d="M614 0h-174l-358 1380h133l129 -512l186 -739q137 489 211 739l144 492h149l154 -494l229 -745q113 524 162 743l115 516h127l-314 -1380h-174l-137 436q-67 211 -125 400.5t-83 273.5l-25 84q-79 -284 -220 -758z" />
    <glyph glyph-name="X" unicode="X" horiz-adv-x="1228" 
d="M233 0h-147l446 696l-419 684h147l342 -569l342 569h148l-418 -684l469 -696h-148l-391 588z" />
    <glyph glyph-name="Y" unicode="Y" horiz-adv-x="1187" 
d="M655 516v-516h-127v516l-467 864h146l108 -202q116 -220 185.5 -353t80.5 -157l11 -23q17 40 280 533l109 202h145z" />
    <glyph glyph-name="Z" unicode="Z" horiz-adv-x="1136" 
d="M1034 0h-932v113l758 1155h-749v112h893v-112l-758 -1155h788v-113z" />
    <glyph glyph-name="bracketleft" unicode="[" horiz-adv-x="606" 
d="M606 -367h-442v1815h442v-113h-315v-1587h315v-115z" />
    <glyph glyph-name="backslash" unicode="\" horiz-adv-x="790" 
d="M815 -211h-127l-749 1659h127z" />
    <glyph glyph-name="bracketright" unicode="]" horiz-adv-x="606" 
d="M442 -367h-442v115h315v1587h-315v113h442v-1815z" />
    <glyph glyph-name="asciicircum" unicode="^" horiz-adv-x="927" 
d="M229 680h-131l287 537h168l276 -537h-131l-231 463z" />
    <glyph glyph-name="underscore" unicode="_" horiz-adv-x="1157" 
d="M1096 -168h-1035v113h1035v-113z" />
    <glyph glyph-name="grave" unicode="`" horiz-adv-x="819" 
d="M600 1327h-113l-262 307h166z" />
    <glyph glyph-name="a" unicode="a" horiz-adv-x="995" 
d="M457 104q123 0 196.5 68t73.5 172v150h-203q-145 0 -216.5 -56.5t-71.5 -140.5q0 -86 56.5 -139.5t164.5 -53.5zM727 121q-34 -52 -107.5 -91.5t-191.5 -39.5q-144 0 -235 85t-91 218q0 149 115 232t307 83h203v47q0 139 -59 210t-199 71q-72 0 -152.5 -24t-138.5 -64
v135q54 32 135 52t158 20q199 0 290 -102.5t91 -297.5v-655h-125v121z" />
    <glyph glyph-name="b" unicode="b" horiz-adv-x="1144" 
d="M289 0h-125v1448h125v-565q116 172 317 172q197 0 322 -153t125 -394q0 -105 -29 -198.5t-83 -166.5t-139.5 -116t-191.5 -43q-213 0 -321 168v-152zM289 524q0 -119 29 -205t78 -131.5t103 -65.5t115 -20q133 0 220.5 113t87.5 291q0 208 -90.5 319t-229.5 111
q-39 0 -78.5 -11.5t-82.5 -41t-76 -74t-54.5 -118.5t-21.5 -167z" />
    <glyph glyph-name="c" unicode="c" horiz-adv-x="966" 
d="M854 35q-38 -26 -103.5 -43t-123.5 -17q-128 0 -231.5 45t-168.5 121t-100 172.5t-35 202.5q0 103 35.5 199t101.5 172.5t169.5 123t228.5 46.5q126 0 227 -56v-127q-43 29 -105.5 45.5t-109.5 16.5q-127 0 -223.5 -60.5t-144.5 -155t-48 -206.5q0 -83 26 -157t76 -133
t131.5 -93.5t184.5 -34.5q58 0 117 19t96 47v-127z" />
    <glyph glyph-name="d" unicode="d" horiz-adv-x="1136" 
d="M223 506q0 -179 87 -291.5t220 -112.5q48 0 92 11.5t87.5 41.5t75 76.5t51.5 121.5t20 171q0 93 -21.5 167t-54.5 118.5t-76 74t-82.5 41t-78.5 11.5q-139 0 -229.5 -111t-90.5 -319zM981 0h-125v152q-108 -168 -321 -168q-106 0 -191.5 43t-139.5 116t-83 166.5
t-29 198.5q0 241 125 394t322 153q201 0 317 -172v565h125v-1448z" />
    <glyph glyph-name="e" unicode="e" horiz-adv-x="1062" 
d="M899 51q-56 -28 -137 -44.5t-150 -16.5q-230 0 -375 144t-145 380q0 249 127 393t330 144q190 0 303 -125.5t113 -352.5q0 -63 -9 -110h-733q13 -172 118 -263t277 -91q71 0 150.5 17.5t130.5 51.5v-127zM545 934q-131 0 -219 -91.5t-103 -264.5h613v47q0 142 -79 225.5
t-212 83.5z" />
    <glyph glyph-name="f" unicode="f" horiz-adv-x="665" 
d="M614 932h-237v-932h-125v932h-191v106h191v111q0 141 73 225t207 84q38 0 84 -12v-123q-43 16 -90 16q-62 0 -105.5 -48t-43.5 -144v-109h237v-106z" />
    <glyph glyph-name="g" unicode="g" horiz-adv-x="1103" 
d="M961 80q0 -120 -35.5 -212t-98 -147.5t-143.5 -83.5t-178 -28q-179 0 -303 59v123q126 -63 293 -63q156 0 248 85.5t92 266.5v135q-49 -89 -128.5 -139.5t-183.5 -50.5q-86 0 -163.5 33t-137.5 94t-95.5 156t-35.5 210q0 234 115.5 385.5t304.5 151.5q224 0 324 -199v182
h125v-958zM223 524q0 -97 29 -173.5t75 -120t97 -65.5t102 -22t102.5 19.5t99.5 60.5t78 116.5t30 174.5q0 112 -28 197t-73.5 132t-95.5 70t-102 23q-145 0 -229.5 -114.5t-84.5 -297.5z" />
    <glyph glyph-name="h" unicode="h" 
d="M940 0h-125v686q0 120 -62 184t-161 64q-126 0 -218.5 -97.5t-92.5 -263.5v-573h-125v1448h125v-588q94 195 329 195q150 0 240 -91.5t90 -238.5v-725z" />
    <glyph glyph-name="i" unicode="i" horiz-adv-x="452" 
d="M289 0h-125v1038h125v-1038zM313 1370q0 -37 -25.5 -61.5t-62.5 -24.5t-61.5 24.5t-24.5 61.5t24.5 62.5t61.5 25.5t62.5 -25.5t25.5 -62.5z" />
    <glyph glyph-name="j" unicode="j" horiz-adv-x="442" 
d="M289 -131q0 -128 -64.5 -197t-179.5 -69q-68 0 -141 28v123q70 -33 143 -33q117 0 117 152v1165h125v-1169zM311 1370q0 -37 -25.5 -61.5t-62.5 -24.5t-61.5 24.5t-24.5 61.5t24.5 62.5t61.5 25.5t62.5 -25.5t25.5 -62.5z" />
    <glyph glyph-name="k" unicode="k" horiz-adv-x="946" 
d="M281 0h-125v1448h125v-1448zM463 545l438 -545h-156l-434 545l422 493h154z" />
    <glyph glyph-name="l" unicode="l" horiz-adv-x="452" 
d="M289 0h-125v1448h125v-1448z" />
    <glyph glyph-name="m" unicode="m" horiz-adv-x="1652" 
d="M1509 0h-125v686q0 248 -217 248q-105 0 -188.5 -98t-83.5 -263v-573h-125v686q0 248 -217 248q-105 0 -188.5 -98t-83.5 -263v-573h-125v1038h125v-170q87 187 290 187q127 0 204 -54.5t104 -150.5q48 102 128.5 153.5t178.5 51.5q164 0 243.5 -91t79.5 -239v-725z" />
    <glyph glyph-name="n" unicode="n" 
d="M940 0h-125v686q0 120 -62 184t-161 64q-126 0 -218.5 -97.5t-92.5 -263.5v-573h-125v1038h125v-178q97 195 329 195q150 0 240 -91.5t90 -238.5v-725z" />
    <glyph glyph-name="o" unicode="o" horiz-adv-x="1148" 
d="M1057 514q0 -150 -56 -269.5t-168.5 -191t-263.5 -71.5q-146 0 -255.5 71.5t-165.5 191.5t-56 269q0 148 58.5 270.5t168.5 195.5t250 73q118 0 212 -42.5t153.5 -116t91 -170.5t31.5 -210zM223 514q0 -110 41.5 -204t121.5 -152t183 -58q87 0 156 33.5t112 91.5t66 132
t23 157q0 85 -20.5 158.5t-61.5 133t-111.5 94t-163.5 34.5q-108 0 -188.5 -60t-119 -154t-38.5 -206z" />
    <glyph glyph-name="p" unicode="p" horiz-adv-x="1136" 
d="M281 -410h-125v1448h125v-151q108 168 321 168q106 0 191.5 -43t139.5 -116.5t82.5 -167t28.5 -198.5q0 -241 -124.5 -393.5t-321.5 -152.5q-201 0 -317 172v-566zM281 514q0 -93 21.5 -167t54.5 -118.5t76 -74t82.5 -41t78.5 -11.5q139 0 229 111t90 319
q0 179 -87 291.5t-220 112.5q-61 0 -115 -20t-103 -65.5t-78 -131.5t-29 -205z" />
    <glyph glyph-name="q" unicode="q" horiz-adv-x="1136" 
d="M223 532q0 -208 90.5 -319t229.5 -111q39 0 78.5 11.5t82.5 41t76 74t54.5 118.5t21.5 167q0 96 -20 171t-51.5 121.5t-75 76.5t-87.5 41.5t-92 11.5q-133 0 -220 -112.5t-87 -291.5zM981 -410h-125v566q-116 -172 -317 -172q-197 0 -322 152.5t-125 393.5q0 142 49 259
t151.5 191.5t242.5 74.5q213 0 321 -168v151h125v-1448z" />
    <glyph glyph-name="r" unicode="r" horiz-adv-x="643" 
d="M281 0h-125v1038h125v-176q85 189 290 189q16 0 52 -4v-127q-40 12 -82 12q-75 0 -136 -53.5t-92.5 -133.5t-31.5 -165v-580z" />
    <glyph glyph-name="s" unicode="s" horiz-adv-x="831" 
d="M760 266q0 -128 -89 -203t-245 -75q-90 0 -172.5 17.5t-130.5 43.5v129q138 -78 295 -78q104 0 158.5 43.5t54.5 112.5q0 81 -56.5 127t-185.5 96q-58 22 -99.5 44.5t-84.5 57.5t-65.5 83.5t-22.5 109.5q0 126 92 200.5t231 74.5q168 0 258 -48v-124q-43 25 -113.5 40
t-146.5 15q-89 0 -141.5 -42.5t-52.5 -109.5q0 -24 7 -45t15.5 -36.5t28.5 -32t32.5 -25.5t42.5 -23t43.5 -19.5t49.5 -20.5q67 -27 113.5 -52t92 -62t68.5 -86.5t23 -111.5z" />
    <glyph glyph-name="t" unicode="t" horiz-adv-x="745" 
d="M653 29q-25 -17 -66 -28t-71 -11q-295 0 -295 303v639h-170v106h170v260h127v-260h297v-106h-297v-645q0 -178 166 -178q82 0 139 47v-127z" />
    <glyph glyph-name="u" unicode="u" 
d="M928 0h-125v186q-81 -200 -330 -200q-151 0 -240.5 91t-89.5 240v721h125v-686q0 -119 62.5 -182.5t165.5 -63.5q137 0 222 99t85 256v577h125v-1038z" />
    <glyph glyph-name="v" unicode="v" horiz-adv-x="1017" 
d="M588 0h-168l-359 1038h132l145 -436l166 -502q20 77 170 502l151 436h131z" />
    <glyph glyph-name="w" unicode="w" horiz-adv-x="1613" 
d="M547 0h-168l-318 1038h138l102 -344q58 -193 98 -335t51 -188l11 -46q37 134 164 571l98 342h147l103 -342l168 -575q33 121 174 575l106 342h131l-327 -1038h-168l-101 340l-159 553q-35 -130 -154 -553z" />
    <glyph glyph-name="x" unicode="x" horiz-adv-x="952" 
d="M197 0h-142l342 535l-321 505h147l254 -409l252 409h145l-325 -508l348 -532h-149l-273 436z" />
    <glyph glyph-name="y" unicode="y" horiz-adv-x="987" 
d="M571 27q-33 -88 -73 -154.5t-80 -107t-87.5 -65.5t-91 -34.5t-94.5 -9.5q-39 0 -77 10v123q38 -10 69 -10q105 0 184 63.5t121 186.5l-424 1009h144l141 -348l201 -500q14 48 178 500l127 348h139z" />
    <glyph glyph-name="z" unicode="z" horiz-adv-x="913" 
d="M821 0h-729v104l545 814h-524v120h680v-94l-553 -821h581v-123z" />
    <glyph glyph-name="braceleft" unicode="{" horiz-adv-x="659" 
d="M639 -365q-41 -14 -86 -14q-103 0 -176.5 78.5t-73.5 210.5q0 58 23.5 159.5t23.5 149.5q0 211 -182 256q-16 4 -66 4v125q43 0 66 4q90 17 136 85t46 167q0 48 -23.5 149.5t-23.5 159.5q0 132 73.5 210.5t176.5 78.5q45 0 86 -14v-127q-35 18 -70 18q-68 0 -101.5 -45.5
t-33.5 -115.5q0 -62 23.5 -172.5t23.5 -174.5q0 -110 -63 -187.5t-189 -98.5q126 -21 189 -99.5t63 -189.5q0 -64 -23.5 -174t-23.5 -172q0 -70 33.5 -116t101.5 -46q35 0 70 18v-127z" />
    <glyph glyph-name="bar" unicode="|" horiz-adv-x="438" 
d="M274 -397h-110v1820h110v-1820z" />
    <glyph glyph-name="braceright" unicode="}" horiz-adv-x="659" 
d="M356 -90q0 -132 -73.5 -210.5t-176.5 -78.5q-45 0 -86 14v127q35 -18 70 -18q68 0 101.5 46t33.5 116q0 62 -23.5 172t-23.5 174q0 111 63 189.5t189 99.5q-126 21 -189 98.5t-63 187.5q0 64 23.5 174.5t23.5 172.5q0 70 -33.5 115.5t-101.5 45.5q-36 0 -70 -18v127
q41 14 86 14q103 0 176.5 -78.5t73.5 -210.5q0 -58 -23.5 -159.5t-23.5 -149.5q0 -98 46.5 -166.5t136.5 -85.5q23 -4 65 -4v-125q-49 0 -65 -4q-183 -45 -183 -256q0 -48 23.5 -149.5t23.5 -159.5z" />
    <glyph glyph-name="asciitilde" unicode="~" horiz-adv-x="1198" 
d="M403 565q-143 0 -243 -147l-82 76q133 186 311 186q65 0 131.5 -25.5t112 -56.5t102.5 -56.5t107 -25.5q57 0 103.5 33t76.5 90l96 -66q-56 -89 -120.5 -131.5t-155.5 -42.5q-57 0 -123.5 26t-115.5 57t-105 57t-95 26z" />
    <glyph glyph-name="exclamdown" unicode="&#xa1;" horiz-adv-x="493" 
d="M309 -338h-125v979h125v-979zM350 956q0 -43 -31 -73.5t-75 -30.5t-73.5 30.5t-29.5 73.5q0 44 29.5 73.5t73.5 29.5q45 0 75.5 -29.5t30.5 -73.5z" />
    <glyph glyph-name="cent" unicode="&#xa2;" horiz-adv-x="911" 
d="M829 23q-81 -34 -159 -37v-213h-113v215q-215 27 -335 176.5t-120 351.5q0 127 51 238.5t156.5 191.5t247.5 98v213h113v-210q77 -3 159 -39v-127q-86 47 -180 47q-127 0 -223.5 -58.5t-144.5 -151.5t-48 -204q0 -83 26 -156t76.5 -130t131.5 -90.5t184 -33.5
q97 0 178 46v-127z" />
    <glyph glyph-name="sterling" unicode="&#xa3;" horiz-adv-x="1058" 
d="M977 0h-844v106q126 58 171.5 143.5t45.5 260.5q0 46 -6 102h-197v105h187q-19 185 -19 219q0 200 106.5 307t295.5 107q109 0 207 -50v-126q-55 31 -100.5 43t-104.5 12q-281 0 -281 -281q0 -41 19 -231h377v-105h-365q4 -70 4 -100q0 -94 -14 -165t-41 -115.5
t-53.5 -70.5t-63.5 -48h676v-113z" />
    <glyph glyph-name="currency" unicode="&#xa4;" horiz-adv-x="1097" 
d="M279 285l-121 -121l-84 84l119 119q-82 111 -82 266q0 152 88 270l-125 127l84 84l125 -127q120 90 274 90q148 0 264 -82l119 119l84 -84l-119 -119q82 -116 82 -264q0 -153 -92 -272l129 -127l-84 -84l-129 127q-116 -86 -270 -86q-152 0 -262 80zM221 641
q0 -143 93 -236.5t235 -93.5q143 0 235.5 92.5t92.5 235.5t-93 237.5t-235 94.5t-235 -93.5t-93 -236.5z" />
    <glyph glyph-name="yen" unicode="&#xa5;" horiz-adv-x="1171" 
d="M1010 342h-367v-342h-127v342h-366v102h366v72l-65 123h-301v102h247l-315 598h139l359 -702l362 702h139l-317 -598h246v-102h-301l-66 -123v-72h367v-102z" />
    <glyph glyph-name="brokenbar" unicode="&#xa6;" horiz-adv-x="438" 
d="M274 750h-110v673h110v-673zM274 -397h-110v673h110v-673z" />
    <glyph glyph-name="section" unicode="&#xa7;" horiz-adv-x="1001" 
d="M532 334q138 -61 181 -86q61 64 61 170q0 39 -13.5 72.5t-34.5 58.5t-55 49t-65.5 40.5t-75.5 35.5q-30 13 -114 46t-127 54q-60 -60 -60 -156q0 -44 17 -81.5t41 -63t66.5 -51.5t77 -42.5t89.5 -40.5q8 -3 12 -5zM899 418q0 -150 -88 -244q88 -91 88 -227
q0 -121 -58.5 -206.5t-154 -125t-217.5 -39.5q-99 0 -195 23.5t-168 66.5v141q62 -47 159.5 -77.5t197.5 -30.5q145 0 226 63t81 183q0 48 -18 87t-54.5 69.5t-74 51.5t-93.5 46q-20 9 -58.5 25.5t-60.5 26t-58 27t-57.5 30.5t-51 33.5t-47.5 39.5t-38.5 45.5t-31 54
t-18 61.5t-7.5 72q0 137 82 232q-82 79 -82 198q0 88 35 156.5t96 110t136.5 62t162.5 20.5q172 0 287 -62v-141q-48 33 -128.5 55.5t-155.5 22.5q-141 0 -221.5 -55.5t-80.5 -159.5q0 -38 12.5 -68t29.5 -49t50 -38t59 -29.5t73 -29t75 -30.5q40 -17 59.5 -26t57 -27
t57.5 -30.5t50.5 -34t48 -40t38 -45t31 -54t18 -62t7.5 -72.5z" />
    <glyph glyph-name="dieresis" unicode="&#xa8;" horiz-adv-x="819" 
d="M686 1487q0 -37 -25 -62.5t-63 -25.5q-37 0 -62.5 25.5t-25.5 62.5q0 38 25.5 63t62.5 25q38 0 63 -25t25 -63zM309 1487q0 -37 -25.5 -62.5t-62.5 -25.5q-38 0 -63 25.5t-25 62.5q0 38 25 63t63 25q37 0 62.5 -25t25.5 -63z" />
    <glyph glyph-name="copyright" unicode="&#xa9;" horiz-adv-x="1597" 
d="M1018 332q-27 -20 -75 -32.5t-91 -12.5q-124 0 -215.5 57.5t-134.5 146t-43 193.5q0 76 26 146.5t74 127.5t124 91t169 34q96 0 166 -41v-116q-32 22 -77.5 34.5t-80.5 12.5q-127 0 -204.5 -81.5t-77.5 -209.5q0 -122 77.5 -203.5t204.5 -81.5q44 0 88.5 15t69.5 37v-117
zM1505 688q0 -142 -56.5 -272.5t-151.5 -225.5t-225.5 -151.5t-272.5 -56.5t-272.5 56.5t-225.5 151.5t-152 225.5t-57 272.5t57 273t152 226.5t225.5 152.5t272.5 57t272.5 -57t225.5 -152.5t151.5 -226.5t56.5 -273zM213 688q0 -119 47 -227.5t126 -187.5t187.5 -126
t227.5 -47t227.5 47t187.5 126t126 187.5t47 227.5q0 158 -79 294t-215 216t-294 80t-294 -80t-215 -216t-79 -294z" />
    <glyph glyph-name="ordfeminine" unicode="&#xaa;" horiz-adv-x="690" 
d="M297 895q97 0 162 55.5t65 128.5v135h-141q-274 0 -274 -163q0 -70 48.5 -113t139.5 -43zM524 913q-44 -54 -109.5 -86t-140.5 -32q-122 0 -198 68t-76 186q0 127 97.5 197.5t260.5 70.5h166v37q0 117 -49 177t-168 60q-61 0 -128 -20t-116 -53v108q45 28 113.5 46
t132.5 18q168 0 244 -86t76 -250v-551h-105v110z" />
    <glyph glyph-name="guillemotleft" unicode="&#xab;" horiz-adv-x="921" 
d="M567 518l301 -332h-143l-307 332l307 332h143zM506 186h-144l-307 332l307 332h144l-301 -332z" />
    <glyph glyph-name="logicalnot" unicode="&#xac;" horiz-adv-x="1095" 
d="M1024 340h-125v383h-858v121h983v-504z" />
    <glyph glyph-name="uni00AD" unicode="&#xad;" horiz-adv-x="706" 
d="M584 498h-461v112h461v-112z" />
    <glyph glyph-name="registered" unicode="&#xae;" horiz-adv-x="897" 
d="M401 987h-84v426h121q162 0 162 -135q0 -88 -72 -119l107 -172h-98l-93 156h-43v-156zM449 1343h-48v-133h54q61 0 61 68q0 35 -16.5 50t-50.5 15zM877 1186q0 -186 -121 -306t-307 -120t-307.5 120t-121.5 306t121.5 307t307.5 121t307 -121t121 -307zM113 1186
q0 -151 92.5 -244.5t245.5 -93.5q152 0 244.5 93.5t92.5 244.5t-92.5 245.5t-244.5 94.5q-153 0 -245.5 -94t-92.5 -246z" />
    <glyph glyph-name="macron" unicode="&#xaf;" horiz-adv-x="819" 
d="M678 1442h-539v92h539v-92z" />
    <glyph glyph-name="degree" unicode="&#xb0;" horiz-adv-x="679" 
d="M618 1112q0 -121 -80 -198.5t-202 -77.5t-198.5 73.5t-76.5 194.5t80.5 198.5t202.5 77.5t198 -73.5t76 -194.5zM170 1108q0 -74 50.5 -125t123.5 -51t119.5 50.5t46.5 125.5q0 74 -50.5 125t-123.5 51t-119.5 -50.5t-46.5 -125.5z" />
    <glyph glyph-name="plusminus" unicode="&#xb1;" horiz-adv-x="1114" 
d="M991 680h-385v-363h-117v363h-366v115h366v362h117v-362h385v-115zM991 63h-868v115h868v-115z" />
    <glyph glyph-name="twosuperior" unicode="&#xb2;" horiz-adv-x="747" 
d="M666 803h-564v84q420 321 420 534q0 86 -46.5 128t-119.5 42q-112 0 -223 -90v121q111 68 219 68q115 0 199 -69.5t84 -195.5q0 -119 -103.5 -259t-269.5 -269h404v-94z" />
    <glyph glyph-name="threesuperior" unicode="&#xb3;" horiz-adv-x="651" 
d="M580 1038q0 -108 -74 -175.5t-209 -67.5q-125 0 -225 49v104q102 -55 225 -55q80 0 126 39t46 108q0 75 -55.5 117.5t-151.5 42.5h-55v94h55q74 0 126 42t52 114q0 71 -42 106t-117 35q-90 0 -187 -63v108q33 21 84.5 37.5t100.5 16.5q133 0 202.5 -67t69.5 -167
q0 -81 -43 -133.5t-117 -71.5q76 -6 132.5 -67t56.5 -146z" />
    <glyph glyph-name="acute" unicode="&#xb4;" horiz-adv-x="819" 
d="M338 1327h-113l209 307h166z" />
    <glyph glyph-name="uni00B5" unicode="&#xb5;" horiz-adv-x="1095" 
d="M281 -367h-125v1405h125v-686q0 -116 80 -181t188 -65q122 0 194 98t72 257v577h125v-1038h-125v166q-73 -180 -289 -180q-156 0 -245 98v-451z" />
    <glyph glyph-name="paragraph" unicode="&#xb6;" horiz-adv-x="1091" 
d="M565 -303h-123v1014q-181 0 -281 93t-100 234q0 64 25 124.5t71 109.5t119.5 78.5t163.5 29.5h125v-1683zM936 -303h-123v1683h123v-1683z" />
    <glyph glyph-name="periodcentered" unicode="&#xb7;" horiz-adv-x="454" 
d="M332 690q0 -44 -30.5 -74t-74.5 -30t-74 30t-30 74t30 74.5t74 30.5t74.5 -30.5t30.5 -74.5z" />
    <glyph glyph-name="cedilla" unicode="&#xb8;" horiz-adv-x="819" 
d="M555 -248q0 -106 -76 -180t-217 -80v100q178 18 178 150q0 77 -47 154h125q16 -24 26.5 -66t10.5 -78z" />
    <glyph glyph-name="onesuperior" unicode="&#xb9;" horiz-adv-x="495" 
d="M340 803h-107v749l-213 -118v116l232 131h88v-878z" />
    <glyph glyph-name="ordmasculine" unicode="&#xba;" horiz-adv-x="733" 
d="M754 1241q0 -128 -44 -228.5t-134.5 -161t-213.5 -60.5q-119 0 -206.5 60.5t-131.5 161.5t-44 228q0 124 46 227t134.5 164.5t201.5 61.5q188 0 290 -128.5t102 -324.5zM88 1241q0 -147 75.5 -249.5t198.5 -102.5q91 0 156 49.5t95 127.5t30 175q0 57 -9 107t-30 96
t-52.5 79t-80 52.5t-109.5 19.5q-128 0 -201 -104t-73 -250z" />
    <glyph glyph-name="guillemotright" unicode="&#xbb;" horiz-adv-x="927" 
d="M866 518l-307 -332h-143l301 332l-301 332h143zM197 186h-144l301 332l-301 332h144l307 -332z" />
    <glyph glyph-name="onequarter" unicode="&#xbc;" horiz-adv-x="1705" 
d="M432 0h-125l934 1458h127zM483 578h-106v749l-213 -119v117l231 131h88v-878zM1061 295h297v496zM1460 0h-102v209h-406v86l355 584h153v-584h133v-86h-133v-209z" />
    <glyph glyph-name="onehalf" unicode="&#xbd;" horiz-adv-x="1705" 
d="M432 0h-125l934 1458h127zM483 578h-106v749l-213 -119v117l231 131h88v-878zM1612 0h-563v84q419 320 419 534q0 86 -46 128t-119 42q-113 0 -224 -90v121q111 68 219 68q73 0 136 -28t105 -89.5t42 -146.5q0 -119 -103.5 -259.5t-269.5 -269.5h404v-94z" />
    <glyph glyph-name="threequarters" unicode="&#xbe;" horiz-adv-x="1757" 
d="M549 0h-125l934 1458h127zM682 813q0 -108 -74 -176t-209 -68q-125 0 -225 49v105q102 -55 225 -55q80 0 126 39t46 108q0 75 -55 117.5t-151 42.5h-56v94h56q74 0 126 42t52 114q0 71 -42.5 106t-117.5 35q-89 0 -186 -63v108q33 21 84 37t100 16q133 0 202.5 -66.5
t69.5 -166.5q0 -81 -42.5 -133.5t-116.5 -71.5q76 -6 132 -67t56 -146zM1178 295h297v496zM1577 0h-102v209h-406v86l354 584h154v-584h133v-86h-133v-209z" />
    <glyph glyph-name="questiondown" unicode="&#xbf;" horiz-adv-x="921" 
d="M840 -264q-55 -37 -146 -63.5t-184 -26.5q-197 0 -312.5 97.5t-115.5 276.5q0 90 35.5 162t96 116.5t133 70.5t155.5 34v238h125v-348q-192 0 -303 -68.5t-111 -206.5q0 -113 74 -183.5t221 -70.5q168 0 332 105v-133zM670 956q0 -43 -29.5 -73.5t-73.5 -30.5t-75 30.5
t-31 73.5q0 44 30.5 73.5t75.5 29.5q44 0 73.5 -29.5t29.5 -73.5z" />
    <glyph glyph-name="Agrave" unicode="&#xc0;" horiz-adv-x="1304" 
d="M418 582l-31 -86h535l-31 88l-234 690q-26 -81 -239 -692zM215 0h-137l487 1380h185l477 -1380h-137l-132 383h-610zM698 1493h-112l-262 307h165z" />
    <glyph glyph-name="Aacute" unicode="&#xc1;" horiz-adv-x="1304" 
d="M418 582l-31 -86h535l-31 88l-234 690q-26 -81 -239 -692zM215 0h-137l487 1380h185l477 -1380h-137l-132 383h-610zM727 1493h-113l209 307h166z" />
    <glyph glyph-name="Acircumflex" unicode="&#xc2;" horiz-adv-x="1304" 
d="M418 582l-31 -86h535l-31 88l-234 690q-26 -81 -239 -692zM215 0h-137l487 1380h185l477 -1380h-137l-132 383h-610zM481 1493h-131l244 307h129l244 -307h-131l-179 219z" />
    <glyph glyph-name="Atilde" unicode="&#xc3;" horiz-adv-x="1304" 
d="M418 582l-31 -86h535l-31 88l-234 690q-26 -81 -239 -692zM215 0h-137l487 1380h185l477 -1380h-137l-132 383h-610zM539 1655q-85 0 -138 -101l-73 62q28 60 81.5 99.5t116.5 39.5q46 0 97.5 -23.5t97 -47t78.5 -23.5q38 0 60.5 23.5t41.5 64.5l86 -57
q-30 -64 -78 -97.5t-104 -33.5q-51 0 -142 47t-124 47z" />
    <glyph glyph-name="Adieresis" unicode="&#xc4;" horiz-adv-x="1304" 
d="M418 582l-31 -86h535l-31 88l-234 690q-26 -81 -239 -692zM215 0h-137l487 1380h185l477 -1380h-137l-132 383h-610zM934 1649q0 -37 -25 -62.5t-63 -25.5q-37 0 -62.5 25.5t-25.5 62.5q0 38 25.5 63t62.5 25q38 0 63 -25t25 -63zM557 1649q0 -37 -25.5 -62.5
t-62.5 -25.5q-38 0 -63 25.5t-25 62.5q0 38 25 63t63 25q37 0 62.5 -25t25.5 -63z" />
    <glyph glyph-name="Aring" unicode="&#xc5;" horiz-adv-x="1304" 
d="M418 582l-31 -86h535l-31 88l-234 690q-26 -81 -239 -692zM215 0h-137l487 1380h185l477 -1380h-137l-132 383h-610zM860 1673q0 -83 -59 -141.5t-144 -58.5q-83 0 -141.5 58.5t-58.5 141.5q0 85 58.5 144t141.5 59q85 0 144 -59t59 -144zM549 1673q0 -44 32 -76t76 -32
q46 0 78.5 32t32.5 76q0 46 -32.5 78.5t-78.5 32.5q-44 0 -76 -32.5t-32 -78.5z" />
    <glyph glyph-name="AE" unicode="&#xc6;" horiz-adv-x="1767" 
d="M193 0h-138l815 1380h793v-116h-608v-516h536v-117h-536v-514h620v-117h-747v383h-508zM539 582l-52 -86h441v757q-144 -258 -389 -671z" />
    <glyph glyph-name="Ccedilla" unicode="&#xc7;" horiz-adv-x="1226" 
d="M1145 72q-60 -42 -152 -65t-192 -23q-154 0 -283 48.5t-221 138.5t-143.5 225t-51.5 302q0 155 54.5 287t147.5 222t219.5 141t269.5 51q203 0 348 -74v-133q-90 47 -160 66.5t-193 19.5q-116 0 -218 -42t-176.5 -116.5t-117.5 -183.5t-43 -238q0 -270 157.5 -432
t416.5 -162q98 0 187.5 29.5t150.5 77.5v-139zM850 -248q0 -106 -76 -180t-217 -80v100q178 18 178 150q0 77 -47 154h125q16 -24 26.5 -66t10.5 -78z" />
    <glyph glyph-name="Egrave" unicode="&#xc8;" horiz-adv-x="1003" 
d="M911 0h-747v1380h735v-116h-608v-516h536v-117h-536v-514h620v-117zM641 1491h-113l-262 307h166z" />
    <glyph glyph-name="Eacute" unicode="&#xc9;" horiz-adv-x="1003" 
d="M911 0h-747v1380h735v-116h-608v-516h536v-117h-536v-514h620v-117zM625 1493h-113l209 307h166z" />
    <glyph glyph-name="Ecircumflex" unicode="&#xca;" horiz-adv-x="1003" 
d="M911 0h-747v1380h735v-116h-608v-516h536v-117h-536v-514h620v-117zM383 1493h-131l244 307h129l243 -307h-131l-178 219z" />
    <glyph glyph-name="Edieresis" unicode="&#xcb;" horiz-adv-x="1003" 
d="M911 0h-747v1380h735v-116h-608v-516h536v-117h-536v-514h620v-117zM823 1645q0 -37 -25 -63t-63 -26q-37 0 -62.5 26t-25.5 63q0 38 25.5 63t62.5 25q38 0 63 -25t25 -63zM446 1645q0 -37 -25.5 -63t-62.5 -26q-38 0 -63 26t-25 63q0 38 25 63t63 25q37 0 62.5 -25
t25.5 -63z" />
    <glyph glyph-name="Igrave" unicode="&#xcc;" horiz-adv-x="475" 
d="M301 0h-127v1380h127v-1380zM285 1493h-113l-262 307h166z" />
    <glyph glyph-name="Iacute" unicode="&#xcd;" horiz-adv-x="475" 
d="M301 0h-127v1380h127v-1380zM303 1493h-113l209 307h166z" />
    <glyph glyph-name="Icircumflex" unicode="&#xce;" horiz-adv-x="475" 
d="M301 0h-127v1380h127v-1380zM61 1493h-131l244 307h129l244 -307h-131l-178 219z" />
    <glyph glyph-name="Idieresis" unicode="&#xcf;" horiz-adv-x="475" 
d="M301 0h-127v1380h127v-1380zM516 1647q0 -37 -25 -62.5t-63 -25.5q-37 0 -62.5 25.5t-25.5 62.5q0 38 25.5 63t62.5 25q38 0 63 -25t25 -63zM139 1647q0 -37 -25.5 -62.5t-62.5 -25.5q-38 0 -63 25.5t-25 62.5q0 38 25 63t63 25q37 0 62.5 -25t25.5 -63z" />
    <glyph glyph-name="Eth" unicode="&#xd0;" horiz-adv-x="1484" 
d="M711 0h-404v641h-184v109h184v630h393q199 0 356.5 -84t247 -240t89.5 -358q0 -109 -26 -210t-81 -190t-134 -155t-192.5 -104.5t-248.5 -38.5zM811 641h-377v-524h277q113 0 206 32.5t155.5 87.5t105.5 130t62.5 158t19.5 173q0 154 -69 282.5t-198 206t-293 77.5h-266
v-514h377v-109z" />
    <glyph glyph-name="Ntilde" unicode="&#xd1;" horiz-adv-x="1366" 
d="M291 0h-127v1380h174l352 -583l389 -647q-4 214 -4 645v585h127v-1380h-174l-350 580l-391 651q4 -222 4 -647v-584zM584 1653q-85 0 -138 -101l-73 62q28 60 81.5 99.5t116.5 39.5q46 0 97.5 -23.5t97 -47t78.5 -23.5q38 0 60.5 23.5t41.5 64.5l86 -57
q-30 -64 -78 -97.5t-104 -33.5q-51 0 -142 47t-124 47z" />
    <glyph glyph-name="Ograve" unicode="&#xd2;" horiz-adv-x="1415" 
d="M1313 696q0 -327 -161.5 -519.5t-440.5 -192.5q-275 0 -442 194t-167 518q0 326 163.5 519.5t441.5 193.5q286 0 446 -192t160 -521zM233 696q0 -273 130.5 -431.5t347.5 -158.5q225 0 348 156t123 434t-123.5 434t-351.5 156q-222 0 -348 -157t-126 -433zM782 1493h-112
l-262 307h165z" />
    <glyph glyph-name="Oacute" unicode="&#xd3;" horiz-adv-x="1415" 
d="M1313 696q0 -327 -161.5 -519.5t-440.5 -192.5q-275 0 -442 194t-167 518q0 326 163.5 519.5t441.5 193.5q286 0 446 -192t160 -521zM233 696q0 -273 130.5 -431.5t347.5 -158.5q225 0 348 156t123 434t-123.5 434t-351.5 156q-222 0 -348 -157t-126 -433zM782 1493h-112
l209 307h165z" />
    <glyph glyph-name="Ocircumflex" unicode="&#xd4;" horiz-adv-x="1415" 
d="M1313 696q0 -327 -161.5 -519.5t-440.5 -192.5q-275 0 -442 194t-167 518q0 326 163.5 519.5t441.5 193.5q286 0 446 -192t160 -521zM233 696q0 -273 130.5 -431.5t347.5 -158.5q225 0 348 156t123 434t-123.5 434t-351.5 156q-222 0 -348 -157t-126 -433zM547 1493h-131
l243 307h129l244 -307h-131l-178 219z" />
    <glyph glyph-name="Otilde" unicode="&#xd5;" horiz-adv-x="1415" 
d="M1313 696q0 -327 -161.5 -519.5t-440.5 -192.5q-275 0 -442 194t-167 518q0 326 163.5 519.5t441.5 193.5q286 0 446 -192t160 -521zM233 696q0 -273 130.5 -431.5t347.5 -158.5q225 0 348 156t123 434t-123.5 434t-351.5 156q-222 0 -348 -157t-126 -433zM594 1657
q-84 0 -137 -101l-74 62q27 60 81 99.5t118 39.5q46 0 97 -23.5t96.5 -47t78.5 -23.5q38 0 60.5 23.5t41.5 64.5l86 -57q-30 -64 -78 -97.5t-104 -33.5q-51 0 -142 47t-124 47z" />
    <glyph glyph-name="Odieresis" unicode="&#xd6;" horiz-adv-x="1415" 
d="M1313 696q0 -327 -161.5 -519.5t-440.5 -192.5q-275 0 -442 194t-167 518q0 326 163.5 519.5t441.5 193.5q286 0 446 -192t160 -521zM233 696q0 -273 130.5 -431.5t347.5 -158.5q225 0 348 156t123 434t-123.5 434t-351.5 156q-222 0 -348 -157t-126 -433zM989 1649
q0 -37 -25 -62.5t-63 -25.5q-37 0 -62.5 25.5t-25.5 62.5q0 38 25.5 63t62.5 25q38 0 63 -25t25 -63zM612 1649q0 -37 -25.5 -62.5t-62.5 -25.5q-38 0 -63 25.5t-25 62.5q0 38 25 63t63 25q37 0 62.5 -25t25.5 -63z" />
    <glyph glyph-name="multiply" unicode="&#xd7;" horiz-adv-x="985" 
d="M844 430l-82 -82l-270 268l-271 -268l-82 82l271 268l-281 277l82 82l281 -277l280 279l82 -82l-281 -279z" />
    <glyph glyph-name="Oslash" unicode="&#xd8;" horiz-adv-x="1359" 
d="M1296 696q0 -327 -161.5 -519.5t-440.5 -192.5q-214 0 -370 125l-95 -127h-145l158 211q-156 192 -156 503q0 326 163 519.5t441 193.5q221 0 371 -119l90 119h147l-151 -203q149 -194 149 -510zM217 696q0 -243 105 -397l663 889q-118 98 -295 98q-222 0 -347.5 -157
t-125.5 -433zM694 106q225 0 348 156t123 434q0 250 -100 402l-664 -887q120 -105 293 -105z" />
    <glyph glyph-name="Ugrave" unicode="&#xd9;" horiz-adv-x="1308" 
d="M1145 522q0 -265 -129.5 -401.5t-364.5 -136.5q-232 0 -359.5 133t-127.5 389v874h127v-872q0 -207 97.5 -304.5t262.5 -97.5q367 0 367 412v862h127v-858zM715 1493h-113l-262 307h166z" />
    <glyph glyph-name="Uacute" unicode="&#xda;" horiz-adv-x="1308" 
d="M1145 522q0 -265 -129.5 -401.5t-364.5 -136.5q-232 0 -359.5 133t-127.5 389v874h127v-872q0 -207 97.5 -304.5t262.5 -97.5q367 0 367 412v862h127v-858zM735 1493h-112l208 307h166z" />
    <glyph glyph-name="Ucircumflex" unicode="&#xdb;" horiz-adv-x="1308" 
d="M1145 522q0 -265 -129.5 -401.5t-364.5 -136.5q-232 0 -359.5 133t-127.5 389v874h127v-872q0 -207 97.5 -304.5t262.5 -97.5q367 0 367 412v862h127v-858zM483 1493h-131l244 307h129l244 -307h-131l-179 219z" />
    <glyph glyph-name="Udieresis" unicode="&#xdc;" horiz-adv-x="1308" 
d="M1145 522q0 -265 -129.5 -401.5t-364.5 -136.5q-232 0 -359.5 133t-127.5 389v874h127v-872q0 -207 97.5 -304.5t262.5 -97.5q367 0 367 412v862h127v-858zM932 1649q0 -37 -25 -62.5t-63 -25.5q-37 0 -62.5 25.5t-25.5 62.5q0 38 25.5 63t62.5 25q38 0 63 -25t25 -63z
M555 1649q0 -37 -25.5 -62.5t-62.5 -25.5q-38 0 -63 25.5t-25 62.5q0 38 25 63t63 25q37 0 62.5 -25t25.5 -63z" />
    <glyph glyph-name="Yacute" unicode="&#xdd;" horiz-adv-x="1187" 
d="M655 516v-516h-127v516l-467 864h146l108 -202q116 -220 185.5 -353t80.5 -157l11 -23q17 40 280 533l109 202h145zM686 1491h-113l209 307h166z" />
    <glyph glyph-name="Thorn" unicode="&#xde;" 
d="M498 262h-207v-262h-127v1380h127v-262h184q254 0 386 -120.5t132 -321.5q0 -84 -31 -157.5t-90 -131.5t-155.5 -91.5t-218.5 -33.5zM489 1006h-198v-631h221q174 0 263 84t89 217q0 155 -93 242.5t-282 87.5z" />
    <glyph glyph-name="germandbls" unicode="&#xdf;" horiz-adv-x="1077" 
d="M1012 268q0 -124 -88 -203t-248 -79q-94 0 -160 20v131q74 -35 166 -35t147.5 43.5t55.5 112.5q0 40 -17 76t-44.5 64.5t-60.5 55.5t-66 55t-60.5 58t-44.5 69.5t-17 84.5q0 48 18.5 89.5t44.5 73t52.5 63t45 73t18.5 88.5q0 84 -62 134t-160 50q-241 0 -241 -258v-1034
h-127v1034q0 191 104 285t275 94q152 0 245 -88t93 -217q0 -60 -17.5 -111t-42.5 -85t-50 -63t-42.5 -59.5t-17.5 -60.5q0 -36 22.5 -70t55.5 -60t72.5 -60.5t72.5 -69.5t55.5 -87.5t22.5 -113.5z" />
    <glyph glyph-name="agrave" unicode="&#xe0;" horiz-adv-x="995" 
d="M457 104q123 0 196.5 68t73.5 172v150h-203q-145 0 -216.5 -56.5t-71.5 -140.5q0 -86 56.5 -139.5t164.5 -53.5zM727 121q-34 -52 -107.5 -91.5t-191.5 -39.5q-144 0 -235 85t-91 218q0 149 115 232t307 83h203v47q0 139 -59 210t-199 71q-72 0 -152.5 -24t-138.5 -64
v135q54 32 135 52t158 20q199 0 290 -102.5t91 -297.5v-655h-125v121zM578 1151h-113l-262 307h166z" />
    <glyph glyph-name="aacute" unicode="&#xe1;" horiz-adv-x="995" 
d="M457 104q123 0 196.5 68t73.5 172v150h-203q-145 0 -216.5 -56.5t-71.5 -140.5q0 -86 56.5 -139.5t164.5 -53.5zM727 121q-34 -52 -107.5 -91.5t-191.5 -39.5q-144 0 -235 85t-91 218q0 149 115 232t307 83h203v47q0 139 -59 210t-199 71q-72 0 -152.5 -24t-138.5 -64
v135q54 32 135 52t158 20q199 0 290 -102.5t91 -297.5v-655h-125v121zM586 1151h-113l209 307h166z" />
    <glyph glyph-name="acircumflex" unicode="&#xe2;" horiz-adv-x="995" 
d="M457 104q123 0 196.5 68t73.5 172v150h-203q-145 0 -216.5 -56.5t-71.5 -140.5q0 -86 56.5 -139.5t164.5 -53.5zM727 121q-34 -52 -107.5 -91.5t-191.5 -39.5q-144 0 -235 85t-91 218q0 149 115 232t307 83h203v47q0 139 -59 210t-199 71q-72 0 -152.5 -24t-138.5 -64
v135q54 32 135 52t158 20q199 0 290 -102.5t91 -297.5v-655h-125v121zM342 1149h-131l244 307h129l243 -307h-131l-178 219z" />
    <glyph glyph-name="atilde" unicode="&#xe3;" horiz-adv-x="995" 
d="M457 104q123 0 196.5 68t73.5 172v150h-203q-145 0 -216.5 -56.5t-71.5 -140.5q0 -86 56.5 -139.5t164.5 -53.5zM727 121q-34 -52 -107.5 -91.5t-191.5 -39.5q-144 0 -235 85t-91 218q0 149 115 232t307 83h203v47q0 139 -59 210t-199 71q-72 0 -152.5 -24t-138.5 -64
v135q54 32 135 52t158 20q199 0 290 -102.5t91 -297.5v-655h-125v121zM391 1313q-84 0 -137 -101l-74 62q27 60 81 99.5t118 39.5q46 0 97 -23.5t96.5 -47t78.5 -23.5q38 0 61 23.5t42 64.5l86 -57q-30 -64 -78.5 -97.5t-104.5 -33.5q-51 0 -142 47t-124 47z" />
    <glyph glyph-name="adieresis" unicode="&#xe4;" horiz-adv-x="995" 
d="M457 104q123 0 196.5 68t73.5 172v150h-203q-145 0 -216.5 -56.5t-71.5 -140.5q0 -86 56.5 -139.5t164.5 -53.5zM727 121q-34 -52 -107.5 -91.5t-191.5 -39.5q-144 0 -235 85t-91 218q0 149 115 232t307 83h203v47q0 139 -59 210t-199 71q-72 0 -152.5 -24t-138.5 -64
v135q54 32 135 52t158 20q199 0 290 -102.5t91 -297.5v-655h-125v121zM786 1298q0 -37 -25 -62.5t-63 -25.5q-37 0 -62.5 25.5t-25.5 62.5q0 38 25.5 63t62.5 25q38 0 63 -25t25 -63zM410 1298q0 -37 -25.5 -62.5t-62.5 -25.5q-38 0 -63.5 25.5t-25.5 62.5q0 38 25.5 63
t63.5 25q37 0 62.5 -25t25.5 -63z" />
    <glyph glyph-name="aring" unicode="&#xe5;" horiz-adv-x="995" 
d="M457 104q123 0 196.5 68t73.5 172v150h-203q-145 0 -216.5 -56.5t-71.5 -140.5q0 -86 56.5 -139.5t164.5 -53.5zM727 121q-34 -52 -107.5 -91.5t-191.5 -39.5q-144 0 -235 85t-91 218q0 149 115 232t307 83h203v47q0 139 -59 210t-199 71q-72 0 -152.5 -24t-138.5 -64
v135q54 32 135 52t158 20q199 0 290 -102.5t91 -297.5v-655h-125v121zM721 1331q0 -83 -59 -142t-144 -59q-83 0 -142 59t-59 142q0 85 59 144t142 59q85 0 144 -59t59 -144zM410 1331q0 -44 32 -76t76 -32q46 0 78.5 32t32.5 76q0 46 -32.5 78.5t-78.5 32.5
q-44 0 -76 -32.5t-32 -78.5z" />
    <glyph glyph-name="ae" unicode="&#xe6;" horiz-adv-x="1683" 
d="M813 209q-41 -100 -139.5 -159.5t-235.5 -59.5q-144 0 -234.5 81t-90.5 220q0 151 117 235t311 84h196v45q0 139 -59 210t-199 71q-73 0 -153 -23.5t-138 -62.5v129q54 34 135.5 55t157.5 21q270 0 346 -195q61 93 155.5 142t211.5 49q199 0 303.5 -127t104.5 -361
q0 -53 -9 -100h-729q15 -171 121 -262.5t266 -91.5q70 0 146.5 17.5t128.5 51.5v-127q-57 -28 -134.5 -44.5t-146.5 -16.5q-139 0 -254 60t-178 159zM244 295q0 -85 57 -134.5t166 -49.5q113 0 191.5 69.5t78.5 184.5v124h-168q-325 0 -325 -194zM1190 934
q-128 0 -219 -89.5t-107 -266.5h609v47q0 150 -79 229.5t-204 79.5z" />
    <glyph glyph-name="ccedilla" unicode="&#xe7;" horiz-adv-x="966" 
d="M854 35q-38 -26 -103.5 -43t-123.5 -17q-128 0 -231.5 45t-168.5 121t-100 172.5t-35 202.5q0 103 35.5 199t101.5 172.5t169.5 123t228.5 46.5q126 0 227 -56v-127q-43 29 -105.5 45.5t-109.5 16.5q-127 0 -223.5 -60.5t-144.5 -155t-48 -206.5q0 -83 26 -157t76 -133
t131.5 -93.5t184.5 -34.5q58 0 117 19t96 47v-127zM678 -248q0 -106 -76 -180t-217 -80v100q178 18 178 150q0 77 -47 154h125q16 -24 26.5 -66t10.5 -78z" />
    <glyph glyph-name="egrave" unicode="&#xe8;" horiz-adv-x="1062" 
d="M899 51q-56 -28 -137 -44.5t-150 -16.5q-230 0 -375 144t-145 380q0 249 127 393t330 144q190 0 303 -125.5t113 -352.5q0 -63 -9 -110h-733q13 -172 118 -263t277 -91q71 0 150.5 17.5t130.5 51.5v-127zM545 934q-131 0 -219 -91.5t-103 -264.5h613v47q0 142 -79 225.5
t-212 83.5zM643 1151h-113l-262 307h166z" />
    <glyph glyph-name="eacute" unicode="&#xe9;" horiz-adv-x="1062" 
d="M899 51q-56 -28 -137 -44.5t-150 -16.5q-230 0 -375 144t-145 380q0 249 127 393t330 144q190 0 303 -125.5t113 -352.5q0 -63 -9 -110h-733q13 -172 118 -263t277 -91q71 0 150.5 17.5t130.5 51.5v-127zM545 934q-131 0 -219 -91.5t-103 -264.5h613v47q0 142 -79 225.5
t-212 83.5zM641 1151h-113l209 307h166z" />
    <glyph glyph-name="ecircumflex" unicode="&#xea;" horiz-adv-x="1062" 
d="M899 51q-56 -28 -137 -44.5t-150 -16.5q-230 0 -375 144t-145 380q0 249 127 393t330 144q190 0 303 -125.5t113 -352.5q0 -63 -9 -110h-733q13 -172 118 -263t277 -91q71 0 150.5 17.5t130.5 51.5v-127zM545 934q-131 0 -219 -91.5t-103 -264.5h613v47q0 142 -79 225.5
t-212 83.5zM406 1151h-132l244 307h129l244 -307h-131l-178 219z" />
    <glyph glyph-name="edieresis" unicode="&#xeb;" horiz-adv-x="1062" 
d="M899 51q-56 -28 -137 -44.5t-150 -16.5q-230 0 -375 144t-145 380q0 249 127 393t330 144q190 0 303 -125.5t113 -352.5q0 -63 -9 -110h-733q13 -172 118 -263t277 -91q71 0 150.5 17.5t130.5 51.5v-127zM545 934q-131 0 -219 -91.5t-103 -264.5h613v47q0 142 -79 225.5
t-212 83.5zM852 1305q0 -37 -25 -62.5t-63 -25.5q-37 0 -62.5 25.5t-25.5 62.5q0 38 25.5 63t62.5 25q38 0 63 -25t25 -63zM475 1305q0 -37 -25.5 -62.5t-62.5 -25.5q-38 0 -63 25.5t-25 62.5q0 38 25 63t63 25q37 0 62.5 -25t25.5 -63z" />
    <glyph glyph-name="igrave" unicode="&#xec;" horiz-adv-x="452" 
d="M289 0h-125v1038h125v-1038zM274 1149h-112l-262 307h166z" />
    <glyph glyph-name="iacute" unicode="&#xed;" horiz-adv-x="452" 
d="M289 0h-125v1038h125v-1038zM295 1151h-113l209 307h166z" />
    <glyph glyph-name="icircumflex" unicode="&#xee;" horiz-adv-x="452" 
d="M289 0h-125v1038h125v-1038zM51 1151h-131l244 307h129l244 -307h-131l-179 219z" />
    <glyph glyph-name="idieresis" unicode="&#xef;" horiz-adv-x="452" 
d="M289 0h-125v1038h125v-1038zM504 1309q0 -37 -25 -62.5t-63 -25.5q-37 0 -62.5 25.5t-25.5 62.5q0 38 25.5 63t62.5 25q38 0 63 -25t25 -63zM127 1309q0 -37 -25.5 -62.5t-62.5 -25.5q-38 0 -63 25.5t-25 62.5q0 38 25 63t63 25q37 0 62.5 -25t25.5 -63z" />
    <glyph glyph-name="eth" unicode="&#xf0;" horiz-adv-x="1036" 
d="M944 541q0 -278 -118.5 -418.5t-319.5 -140.5q-125 0 -223.5 60.5t-150.5 158.5t-52 213q0 102 35.5 184.5t95 134.5t133.5 79.5t154 27.5q93 0 176 -39t141 -111q-39 227 -199 420l-284 -147v114l213 111q-131 125 -275 192h222q89 -55 163 -135l254 131v-114l-184 -95
q219 -279 219 -626zM506 100q65 0 121.5 26t102 77t71.5 137t26 197q-57 81 -144 130.5t-191 49.5q-120 0 -200.5 -80t-80.5 -223q0 -146 83 -230t212 -84z" />
    <glyph glyph-name="ntilde" unicode="&#xf1;" 
d="M940 0h-125v686q0 120 -62 184t-161 64q-126 0 -218.5 -97.5t-92.5 -263.5v-573h-125v1038h125v-178q97 195 329 195q150 0 240 -91.5t90 -238.5v-725zM449 1311q-85 0 -138 -101l-73 62q28 60 81.5 99.5t116.5 39.5q46 0 97.5 -23.5t97 -47t78.5 -23.5q38 0 60.5 23.5
t41.5 64.5l86 -57q-30 -64 -78 -97.5t-104 -33.5q-51 0 -142 47t-124 47z" />
    <glyph glyph-name="ograve" unicode="&#xf2;" horiz-adv-x="1148" 
d="M1057 514q0 -150 -56 -269.5t-168.5 -191t-263.5 -71.5q-146 0 -255.5 71.5t-165.5 191.5t-56 269q0 148 58.5 270.5t168.5 195.5t250 73q118 0 212 -42.5t153.5 -116t91 -170.5t31.5 -210zM223 514q0 -110 41.5 -204t121.5 -152t183 -58q87 0 156 33.5t112 91.5t66 132
t23 157q0 85 -20.5 158.5t-61.5 133t-111.5 94t-163.5 34.5q-108 0 -188.5 -60t-119 -154t-38.5 -206zM633 1151h-113l-262 307h166z" />
    <glyph glyph-name="oacute" unicode="&#xf3;" horiz-adv-x="1148" 
d="M1057 514q0 -150 -56 -269.5t-168.5 -191t-263.5 -71.5q-146 0 -255.5 71.5t-165.5 191.5t-56 269q0 148 58.5 270.5t168.5 195.5t250 73q118 0 212 -42.5t153.5 -116t91 -170.5t31.5 -210zM223 514q0 -110 41.5 -204t121.5 -152t183 -58q87 0 156 33.5t112 91.5t66 132
t23 157q0 85 -20.5 158.5t-61.5 133t-111.5 94t-163.5 34.5q-108 0 -188.5 -60t-119 -154t-38.5 -206zM653 1151h-112l209 307h165z" />
    <glyph glyph-name="ocircumflex" unicode="&#xf4;" horiz-adv-x="1148" 
d="M1057 514q0 -150 -56 -269.5t-168.5 -191t-263.5 -71.5q-146 0 -255.5 71.5t-165.5 191.5t-56 269q0 148 58.5 270.5t168.5 195.5t250 73q118 0 212 -42.5t153.5 -116t91 -170.5t31.5 -210zM223 514q0 -110 41.5 -204t121.5 -152t183 -58q87 0 156 33.5t112 91.5t66 132
t23 157q0 85 -20.5 158.5t-61.5 133t-111.5 94t-163.5 34.5q-108 0 -188.5 -60t-119 -154t-38.5 -206zM403 1149h-131l244 307h129l244 -307h-131l-178 219z" />
    <glyph glyph-name="otilde" unicode="&#xf5;" horiz-adv-x="1148" 
d="M1057 514q0 -150 -56 -269.5t-168.5 -191t-263.5 -71.5q-146 0 -255.5 71.5t-165.5 191.5t-56 269q0 148 58.5 270.5t168.5 195.5t250 73q118 0 212 -42.5t153.5 -116t91 -170.5t31.5 -210zM223 514q0 -110 41.5 -204t121.5 -152t183 -58q87 0 156 33.5t112 91.5t66 132
t23 157q0 85 -20.5 158.5t-61.5 133t-111.5 94t-163.5 34.5q-108 0 -188.5 -60t-119 -154t-38.5 -206zM461 1311q-84 0 -137 -101l-74 62q27 60 81 99.5t118 39.5q46 0 97 -23.5t96.5 -47t78.5 -23.5q38 0 60.5 23.5t41.5 64.5l86 -57q-30 -64 -78 -97.5t-104 -33.5
q-51 0 -142 47t-124 47z" />
    <glyph glyph-name="odieresis" unicode="&#xf6;" horiz-adv-x="1148" 
d="M1057 514q0 -150 -56 -269.5t-168.5 -191t-263.5 -71.5q-146 0 -255.5 71.5t-165.5 191.5t-56 269q0 148 58.5 270.5t168.5 195.5t250 73q118 0 212 -42.5t153.5 -116t91 -170.5t31.5 -210zM223 514q0 -110 41.5 -204t121.5 -152t183 -58q87 0 156 33.5t112 91.5t66 132
t23 157q0 85 -20.5 158.5t-61.5 133t-111.5 94t-163.5 34.5q-108 0 -188.5 -60t-119 -154t-38.5 -206zM866 1300q0 -37 -25 -62.5t-63 -25.5q-37 0 -62.5 25.5t-25.5 62.5q0 38 25.5 63.5t62.5 25.5q38 0 63 -25.5t25 -63.5zM489 1300q0 -37 -25.5 -62.5t-62.5 -25.5
q-38 0 -63 25.5t-25 62.5q0 38 25 63.5t63 25.5q37 0 62.5 -25.5t25.5 -63.5z" />
    <glyph glyph-name="divide" unicode="&#xf7;" horiz-adv-x="1114" 
d="M991 639h-868v115h868v-115zM651 330q0 -38 -28 -66t-66 -28t-66 28t-28 66t28 66t66 28t66 -28t28 -66zM651 1063q0 -38 -28 -66t-66 -28t-66 28t-28 66t28 66t66 28t66 -28t28 -66z" />
    <glyph glyph-name="oslash" unicode="&#xf8;" horiz-adv-x="1153" 
d="M1092 514q0 -150 -56 -269.5t-168.5 -191t-263.5 -71.5q-157 0 -270 81l-62 -81h-145l123 159q-123 148 -123 373q0 148 58.5 270.5t168.5 195.5t250 73q163 0 279 -80l61 80h148l-123 -160q123 -144 123 -379zM252 514q0 -153 76 -268l485 635q-85 59 -209 59
q-83 0 -151 -35t-111.5 -94.5t-66.5 -135.5t-23 -161zM604 94q88 0 158.5 34t114.5 92.5t67 133.5t23 160q0 169 -72 281l-487 -635q89 -66 196 -66z" />
    <glyph glyph-name="ugrave" unicode="&#xf9;" 
d="M928 0h-125v186q-81 -200 -330 -200q-151 0 -240.5 91t-89.5 240v721h125v-686q0 -119 62.5 -182.5t165.5 -63.5q137 0 222 99t85 256v577h125v-1038zM598 1149h-113l-262 307h166z" />
    <glyph glyph-name="uacute" unicode="&#xfa;" 
d="M928 0h-125v186q-81 -200 -330 -200q-151 0 -240.5 91t-89.5 240v721h125v-686q0 -119 62.5 -182.5t165.5 -63.5q137 0 222 99t85 256v577h125v-1038zM606 1151h-112l208 307h166z" />
    <glyph glyph-name="ucircumflex" unicode="&#xfb;" 
d="M928 0h-125v186q-81 -200 -330 -200q-151 0 -240.5 91t-89.5 240v721h125v-686q0 -119 62.5 -182.5t165.5 -63.5q137 0 222 99t85 256v577h125v-1038zM362 1151h-131l244 307h129l244 -307h-131l-178 219z" />
    <glyph glyph-name="udieresis" unicode="&#xfc;" 
d="M928 0h-125v186q-81 -200 -330 -200q-151 0 -240.5 91t-89.5 240v721h125v-686q0 -119 62.5 -182.5t165.5 -63.5q137 0 222 99t85 256v577h125v-1038zM821 1300q0 -37 -25 -62.5t-63 -25.5q-37 0 -62.5 25.5t-25.5 62.5q0 38 25.5 63.5t62.5 25.5q38 0 63 -25.5t25 -63.5
zM444 1300q0 -37 -25.5 -62.5t-62.5 -25.5q-38 0 -63 25.5t-25 62.5q0 38 25 63.5t63 25.5q37 0 62.5 -25.5t25.5 -63.5z" />
    <glyph glyph-name="yacute" unicode="&#xfd;" horiz-adv-x="987" 
d="M571 27q-33 -88 -73 -154.5t-80 -107t-87.5 -65.5t-91 -34.5t-94.5 -9.5q-39 0 -77 10v123q38 -10 69 -10q105 0 184 63.5t121 186.5l-424 1009h144l141 -348l201 -500q14 48 178 500l127 348h139zM567 1151h-112l209 307h165z" />
    <glyph glyph-name="thorn" unicode="&#xfe;" horiz-adv-x="1136" 
d="M281 -410h-125v1858h125v-561q108 168 321 168q106 0 191.5 -43t139.5 -116.5t82.5 -167t28.5 -198.5q0 -241 -124.5 -393.5t-321.5 -152.5q-201 0 -317 172v-566zM281 514q0 -93 21.5 -167t54.5 -118.5t76 -74t82.5 -41t78.5 -11.5q139 0 229 111t90 319
q0 179 -87 291.5t-220 112.5q-61 0 -115 -20t-103 -65.5t-78 -131.5t-29 -205z" />
    <glyph glyph-name="ydieresis" unicode="&#xff;" horiz-adv-x="987" 
d="M571 27q-33 -88 -73 -154.5t-80 -107t-87.5 -65.5t-91 -34.5t-94.5 -9.5q-39 0 -77 10v123q38 -10 69 -10q105 0 184 63.5t121 186.5l-424 1009h144l141 -348l201 -500q14 48 178 500l127 348h139zM788 1300q0 -37 -25 -62.5t-63 -25.5q-37 0 -62.5 25.5t-25.5 62.5
q0 38 25.5 63.5t62.5 25.5q38 0 63 -25.5t25 -63.5zM412 1300q0 -37 -25.5 -62.5t-62.5 -25.5q-38 0 -63 25.5t-25 62.5q0 38 25 63.5t63 25.5q37 0 62.5 -25.5t25.5 -63.5z" />
    <glyph glyph-name="Amacron" unicode="&#x100;" horiz-adv-x="1304" 
d="M418 582l-31 -86h535l-31 88l-234 690q-26 -81 -239 -692zM215 0h-137l487 1380h185l477 -1380h-137l-132 383h-610zM928 1599h-539v93h539v-93z" />
    <glyph glyph-name="amacron" unicode="&#x101;" horiz-adv-x="995" 
d="M457 104q123 0 196.5 68t73.5 172v150h-203q-145 0 -216.5 -56.5t-71.5 -140.5q0 -86 56.5 -139.5t164.5 -53.5zM727 121q-34 -52 -107.5 -91.5t-191.5 -39.5q-144 0 -235 85t-91 218q0 149 115 232t307 83h203v47q0 139 -59 210t-199 71q-72 0 -152.5 -24t-138.5 -64
v135q54 32 135 52t158 20q199 0 290 -102.5t91 -297.5v-655h-125v121zM770 1257h-539v93h539v-93z" />
    <glyph glyph-name="Abreve" unicode="&#x102;" horiz-adv-x="1304" 
d="M418 582l-31 -86h535l-31 88l-234 690q-26 -81 -239 -692zM215 0h-137l487 1380h185l477 -1380h-137l-132 383h-610zM975 1798q0 -67 -17 -121.5t-53 -98.5t-99 -68.5t-149 -24.5t-149 24.5t-98.5 68.5t-52.5 98.5t-17 121.5h106q0 -95 49 -155t162 -60t162 60t49 155
h107z" />
    <glyph glyph-name="abreve" unicode="&#x103;" horiz-adv-x="995" 
d="M457 104q123 0 196.5 68t73.5 172v150h-203q-145 0 -216.5 -56.5t-71.5 -140.5q0 -86 56.5 -139.5t164.5 -53.5zM727 121q-34 -52 -107.5 -91.5t-191.5 -39.5q-144 0 -235 85t-91 218q0 149 115 232t307 83h203v47q0 139 -59 210t-199 71q-72 0 -152.5 -24t-138.5 -64
v135q54 32 135 52t158 20q199 0 290 -102.5t91 -297.5v-655h-125v121zM823 1456q0 -67 -17 -121.5t-52.5 -98.5t-98.5 -68.5t-149 -24.5t-149 24.5t-99 68.5t-53 98.5t-17 121.5h107q0 -95 49 -155t162 -60t162 60t49 155h106z" />
    <glyph glyph-name="Aogonek" unicode="&#x104;" horiz-adv-x="1304" 
d="M418 582l-31 -86h535l-31 88l-234 690q-26 -81 -239 -692zM1274 -449q-55 -36 -146 -36q-114 0 -178.5 62t-64.5 159q0 87 55 163t141 124l-123 360h-610l-133 -383h-137l487 1380h185l477 -1380q-103 -46 -165.5 -110.5t-62.5 -143.5q0 -64 39 -98.5t105 -34.5
q33 0 70 12t61 29v-103z" />
    <glyph glyph-name="aogonek" unicode="&#x105;" horiz-adv-x="995" 
d="M457 111q116 0 193 65t77 152v161h-168q-326 0 -326 -194q0 -84 57.5 -134t166.5 -50zM899 -449q-55 -36 -145 -36q-114 0 -179 62t-65 159q0 92 61 171t156 126v96q-53 -64 -131 -101.5t-168 -37.5q-144 0 -235 81.5t-91 219.5q0 151 117 235t311 84h197v45
q0 139 -59 210t-199 71q-73 0 -153 -23.5t-138 -62.5v129q54 34 135.5 55t157.5 21q199 0 290 -102.5t91 -297.5v-655q-103 -46 -165 -110.5t-62 -143.5q0 -65 38.5 -99t104.5 -34q33 0 70 12t61 29v-103z" />
    <glyph glyph-name="Cacute" unicode="&#x106;" horiz-adv-x="1226" 
d="M1145 72q-60 -42 -152 -65t-192 -23q-154 0 -283 48.5t-221 138.5t-143.5 225t-51.5 302q0 155 54.5 287t147.5 222t219.5 141t269.5 51q203 0 348 -74v-133q-90 47 -160 66.5t-193 19.5q-116 0 -218 -42t-176.5 -116.5t-117.5 -183.5t-43 -238q0 -270 157.5 -432
t416.5 -162q98 0 187.5 29.5t150.5 77.5v-139zM803 1493h-113l209 307h166z" />
    <glyph glyph-name="cacute" unicode="&#x107;" horiz-adv-x="966" 
d="M854 35q-38 -26 -103.5 -43t-123.5 -17q-128 0 -231.5 45t-168.5 121t-100 172.5t-35 202.5q0 103 35.5 199t101.5 172.5t169.5 123t228.5 46.5q126 0 227 -56v-127q-43 29 -105.5 45.5t-109.5 16.5q-127 0 -223.5 -60.5t-144.5 -155t-48 -206.5q0 -83 26 -157t76 -133
t131.5 -93.5t184.5 -34.5q58 0 117 19t96 47v-127zM655 1149h-112l209 307h166z" />
    <glyph glyph-name="Ccaron" unicode="&#x10c;" horiz-adv-x="1226" 
d="M1145 72q-60 -42 -152 -65t-192 -23q-154 0 -283 48.5t-221 138.5t-143.5 225t-51.5 302q0 155 54.5 287t147.5 222t219.5 141t269.5 51q203 0 348 -74v-133q-90 47 -160 66.5t-193 19.5q-116 0 -218 -42t-176.5 -116.5t-117.5 -183.5t-43 -238q0 -270 157.5 -432
t416.5 -162q98 0 187.5 29.5t150.5 77.5v-139zM850 1493h-129l-244 307h131l178 -219l177 219h131z" />
    <glyph glyph-name="ccaron" unicode="&#x10d;" horiz-adv-x="966" 
d="M854 35q-38 -26 -103.5 -43t-123.5 -17q-128 0 -231.5 45t-168.5 121t-100 172.5t-35 202.5q0 103 35.5 199t101.5 172.5t169.5 123t228.5 46.5q126 0 227 -56v-127q-43 29 -105.5 45.5t-109.5 16.5q-127 0 -223.5 -60.5t-144.5 -155t-48 -206.5q0 -83 26 -157t76 -133
t131.5 -93.5t184.5 -34.5q58 0 117 19t96 47v-127zM629 1151h-129l-244 307h131l178 -219l176 219h131z" />
    <glyph glyph-name="Dcaron" unicode="&#x10e;" horiz-adv-x="1341" 
d="M567 0h-403v1380h393q149 0 277 -49.5t219.5 -137.5t143.5 -216t52 -279q0 -109 -26 -210t-81 -190t-134 -155t-192.5 -104.5t-248.5 -38.5zM557 1264h-266v-1147h276q113 0 206 32.5t155.5 87.5t105.5 130t62.5 158t19.5 173q0 115 -40.5 218t-112.5 180t-177.5 122.5
t-228.5 45.5zM684 1491h-129l-244 307h131l179 -219l176 219h131z" />
    <glyph glyph-name="dcaron" unicode="&#x10f;" horiz-adv-x="1304" 
d="M223 506q0 -179 87 -291.5t220 -112.5q48 0 92 11.5t87.5 41.5t75 76.5t51.5 121.5t20 171q0 93 -21.5 167t-54.5 118.5t-76 74t-82.5 41t-78.5 11.5q-139 0 -229.5 -111t-90.5 -319zM981 0h-125v152q-108 -168 -321 -168q-106 0 -191.5 43t-139.5 116t-83 166.5
t-29 198.5q0 241 125 394t322 153q201 0 317 -172v565h125v-1448zM1214 1065h-110l180 383h156z" />
    <glyph glyph-name="Dcroat" unicode="&#x110;" horiz-adv-x="1484" 
d="M711 0h-404v641h-184v109h184v630h393q199 0 356.5 -84t247 -240t89.5 -358q0 -109 -26 -210t-81 -190t-134 -155t-192.5 -104.5t-248.5 -38.5zM811 641h-377v-524h277q113 0 206 32.5t155.5 87.5t105.5 130t62.5 158t19.5 173q0 154 -69 282.5t-198 206t-293 77.5h-266
v-514h377v-109z" />
    <glyph glyph-name="dcroat" unicode="&#x111;" horiz-adv-x="1136" 
d="M223 506q0 -179 87 -291.5t220 -112.5q48 0 92 11.5t87.5 41.5t75 76.5t51.5 121.5t20 171q0 93 -21.5 167t-54.5 118.5t-76 74t-82.5 41t-78.5 11.5q-139 0 -229.5 -111t-90.5 -319zM981 0h-125v152q-108 -168 -321 -168q-106 0 -191.5 43t-139.5 116t-83 166.5
t-29 198.5q0 241 125 394t322 153q201 0 317 -172v331h-420v99h420v135h125v-135h154v-99h-154v-1214z" />
    <glyph glyph-name="Emacron" unicode="&#x112;" horiz-adv-x="1003" 
d="M911 0h-747v1380h735v-116h-608v-516h536v-117h-536v-514h620v-117zM803 1599h-539v93h539v-93z" />
    <glyph glyph-name="emacron" unicode="&#x113;" horiz-adv-x="1062" 
d="M899 51q-56 -28 -137 -44.5t-150 -16.5q-230 0 -375 144t-145 380q0 249 127 393t330 144q190 0 303 -125.5t113 -352.5q0 -63 -9 -110h-733q13 -172 118 -263t277 -91q71 0 150.5 17.5t130.5 51.5v-127zM545 934q-131 0 -219 -91.5t-103 -264.5h613v47q0 142 -79 225.5
t-212 83.5zM838 1257h-539v93h539v-93z" />
    <glyph glyph-name="Edotaccent" unicode="&#x116;" horiz-adv-x="1003" 
d="M911 0h-747v1380h735v-116h-608v-516h536v-117h-536v-514h620v-117zM647 1651q0 -37 -25 -62.5t-63 -25.5q-37 0 -62.5 25.5t-25.5 62.5q0 38 25.5 63t62.5 25q38 0 63 -25t25 -63z" />
    <glyph glyph-name="edotaccent" unicode="&#x117;" horiz-adv-x="1062" 
d="M899 51q-56 -28 -137 -44.5t-150 -16.5q-230 0 -375 144t-145 380q0 249 127 393t330 144q190 0 303 -125.5t113 -352.5q0 -63 -9 -110h-733q13 -172 118 -263t277 -91q71 0 150.5 17.5t130.5 51.5v-127zM545 934q-131 0 -219 -91.5t-103 -264.5h613v47q0 142 -79 225.5
t-212 83.5zM666 1307q0 -37 -25 -62.5t-63 -25.5q-37 0 -63 25.5t-26 62.5q0 38 26 63t63 25q38 0 63 -25t25 -63z" />
    <glyph glyph-name="Eogonek" unicode="&#x118;" horiz-adv-x="1003" 
d="M727 -449q-55 -36 -145 -36q-114 0 -179 62t-65 159q0 76 44.5 145t117.5 119h-336v1380h735v-116h-608v-516h536v-117h-536v-514h620v-117h-231q-103 -46 -165 -110.5t-62 -143.5q0 -65 38.5 -99t104.5 -34q33 0 70 12t61 29v-103z" />
    <glyph glyph-name="eogonek" unicode="&#x119;" horiz-adv-x="1062" 
d="M545 934q-131 0 -219 -91.5t-103 -264.5h613v47q0 142 -79 225.5t-212 83.5zM754 -451q-55 -36 -146 -36q-114 0 -178.5 62t-64.5 159q0 76 43 144t114 118q-194 28 -312 167.5t-118 350.5q0 249 127 393t330 144q190 0 303 -125.5t113 -352.5q0 -63 -9 -110h-733
q13 -172 118 -263t277 -91q71 0 150.5 17.5t130.5 51.5v-127q-73 -37 -197 -55q-101 -46 -162 -110.5t-61 -141.5q0 -64 39 -98.5t105 -34.5q33 0 70 12t61 29v-103z" />
    <glyph glyph-name="Ecaron" unicode="&#x11a;" horiz-adv-x="1003" 
d="M911 0h-747v1380h735v-116h-608v-516h536v-117h-536v-514h620v-117zM616 1491h-129l-243 307h131l178 -219l176 219h131z" />
    <glyph glyph-name="ecaron" unicode="&#x11b;" horiz-adv-x="1062" 
d="M899 51q-56 -28 -137 -44.5t-150 -16.5q-230 0 -375 144t-145 380q0 249 127 393t330 144q190 0 303 -125.5t113 -352.5q0 -63 -9 -110h-733q13 -172 118 -263t277 -91q71 0 150.5 17.5t130.5 51.5v-127zM545 934q-131 0 -219 -91.5t-103 -264.5h613v47q0 142 -79 225.5
t-212 83.5zM627 1151h-129l-244 307h131l178 -219l176 219h131z" />
    <glyph glyph-name="Gbreve" unicode="&#x11e;" horiz-adv-x="1353" 
d="M1210 102q-75 -55 -184 -86.5t-225 -31.5q-207 0 -364.5 83.5t-246 245t-88.5 379.5q0 205 85.5 368t237 254t339.5 91q243 0 401 -96v-142q-79 55 -180.5 83t-204.5 28q-242 0 -394.5 -161t-152.5 -425q0 -273 152 -427t418 -154q160 0 280 63v473h-325v113h452v-658z
M1067 1800q0 -67 -17 -121.5t-52.5 -98.5t-98.5 -68.5t-149 -24.5t-149 24.5t-99 68.5t-53 98.5t-17 121.5h107q0 -95 49 -155t162 -60t162 60t49 155h106z" />
    <glyph glyph-name="gbreve" unicode="&#x11f;" horiz-adv-x="1103" 
d="M961 80q0 -120 -35.5 -212t-98 -147.5t-143.5 -83.5t-178 -28q-179 0 -303 59v123q126 -63 293 -63q156 0 248 85.5t92 266.5v135q-49 -89 -128.5 -139.5t-183.5 -50.5q-86 0 -163.5 33t-137.5 94t-95.5 156t-35.5 210q0 234 115.5 385.5t304.5 151.5q224 0 324 -199v182
h125v-958zM223 524q0 -97 29 -173.5t75 -120t97 -65.5t102 -22t102.5 19.5t99.5 60.5t78 116.5t30 174.5q0 112 -28 197t-73.5 132t-95.5 70t-102 23q-145 0 -229.5 -114.5t-84.5 -297.5zM903 1458q0 -67 -17 -121.5t-52.5 -98.5t-98.5 -68.5t-149 -24.5t-149 24.5t-99 68.5
t-53 98.5t-17 121.5h107q0 -95 49 -155t162 -60t162 60t49 155h106z" />
    <glyph glyph-name="uni0122" unicode="&#x122;" horiz-adv-x="1353" 
d="M1210 102q-75 -55 -184 -86.5t-225 -31.5q-207 0 -364.5 83.5t-246 245t-88.5 379.5q0 205 85.5 368t237 254t339.5 91q243 0 401 -96v-142q-79 55 -180.5 83t-204.5 28q-242 0 -394.5 -161t-152.5 -425q0 -273 152 -427t418 -154q160 0 280 63v473h-325v113h452v-658z
M621 -487h-111l180 383h156z" />
    <glyph glyph-name="uni0123" unicode="&#x123;" horiz-adv-x="1103" 
d="M961 80q0 -120 -35.5 -212t-98 -147.5t-143.5 -83.5t-178 -28q-179 0 -303 59v123q126 -63 293 -63q156 0 248 85.5t92 266.5v135q-49 -89 -128.5 -139.5t-183.5 -50.5q-86 0 -163.5 33t-137.5 94t-95.5 156t-35.5 210q0 234 115.5 385.5t304.5 151.5q224 0 324 -199v182
h125v-958zM223 524q0 -97 29 -173.5t75 -120t97 -65.5t102 -22t102.5 19.5t99.5 60.5t78 116.5t30 174.5q0 112 -28 197t-73.5 132t-95.5 70t-102 23q-145 0 -229.5 -114.5t-84.5 -297.5zM698 1149h-155l225 383h111z" />
    <glyph glyph-name="Imacron" unicode="&#x12a;" horiz-adv-x="475" 
d="M301 0h-127v1380h127v-1380zM508 1599h-539v93h539v-93z" />
    <glyph glyph-name="imacron" unicode="&#x12b;" horiz-adv-x="452" 
d="M289 0h-125v1038h125v-1038zM498 1257h-539v93h539v-93z" />
    <glyph glyph-name="Iogonek" unicode="&#x12e;" horiz-adv-x="475" 
d="M348 -449q-55 -36 -145 -36q-114 0 -179 62t-65 159q0 91 60.5 169.5t154.5 127.5v1347h127v-1380q-103 -46 -165 -110.5t-62 -143.5q0 -65 38.5 -99t104.5 -34q33 0 70 12t61 29v-103z" />
    <glyph glyph-name="iogonek" unicode="&#x12f;" horiz-adv-x="452" 
d="M313 1370q0 -37 -25.5 -61.5t-62.5 -24.5t-61.5 24.5t-24.5 61.5t24.5 62.5t61.5 25.5t62.5 -25.5t25.5 -62.5zM336 -449q-55 -36 -146 -36q-114 0 -178.5 62t-64.5 159q0 92 61 171t156 126v1005h125v-1038q-103 -46 -165.5 -110.5t-62.5 -143.5q0 -64 39 -98.5
t105 -34.5q33 0 70 12t61 29v-103z" />
    <glyph glyph-name="Idotaccent" unicode="&#x130;" horiz-adv-x="475" 
d="M301 0h-127v1380h127v-1380zM328 1653q0 -37 -25 -62.5t-63 -25.5q-37 0 -62.5 25.5t-25.5 62.5q0 38 25.5 63t62.5 25q38 0 63 -25t25 -63z" />
    <glyph glyph-name="dotlessi" unicode="&#x131;" horiz-adv-x="452" 
d="M289 0h-125v1038h125v-1038z" />
    <glyph glyph-name="uni0136" unicode="&#x136;" horiz-adv-x="1124" 
d="M1063 0h-168l-567 680l546 700h160l-545 -700zM436 -487h-110l180 383h156zM291 0h-127v1380h127v-1380z" />
    <glyph glyph-name="uni0137" unicode="&#x137;" horiz-adv-x="946" 
d="M281 0h-125v1448h125v-1448zM463 545l438 -545h-156l-434 545l422 493h154zM334 -487h-111l180 383h156z" />
    <glyph glyph-name="Lacute" unicode="&#x139;" horiz-adv-x="970" 
d="M899 0h-735v1380h127v-1263h608v-117zM635 1493h-113l209 307h166z" />
    <glyph glyph-name="lacute" unicode="&#x13a;" horiz-adv-x="452" 
d="M289 0h-125v1448h125v-1448zM289 1561h-113l209 307h166z" />
    <glyph glyph-name="uni013B" unicode="&#x13b;" horiz-adv-x="970" 
d="M395 -487h-110l180 383h156zM899 0h-735v1380h127v-1263h608v-117z" />
    <glyph glyph-name="uni013C" unicode="&#x13c;" horiz-adv-x="452" 
d="M289 0h-125v1448h125v-1448zM82 -487h-111l181 383h155z" />
    <glyph glyph-name="Lcaron" unicode="&#x13d;" horiz-adv-x="970" 
d="M899 0h-735v1380h127v-1263h608v-117zM602 1055h-110l180 383h155z" />
    <glyph glyph-name="lcaron" unicode="&#x13e;" horiz-adv-x="520" 
d="M289 0h-125v1448h125v-1448zM543 1065h-111l180 383h156z" />
    <glyph glyph-name="Lslash" unicode="&#x141;" horiz-adv-x="989" 
d="M608 840l-299 -222v-501h609v-117h-736v524l-131 -98v135l131 98v721h127v-626l299 221v-135z" />
    <glyph glyph-name="lslash" unicode="&#x142;" horiz-adv-x="569" 
d="M332 0h-125v645l-135 -96v135l135 96v668h125v-578l166 119v-135l-166 -119v-735z" />
    <glyph glyph-name="Nacute" unicode="&#x143;" horiz-adv-x="1366" 
d="M291 0h-127v1380h174l352 -583l389 -647q-4 214 -4 645v585h127v-1380h-174l-350 580l-391 651q4 -222 4 -647v-584zM793 1491h-113l209 307h166z" />
    <glyph glyph-name="nacute" unicode="&#x144;" 
d="M940 0h-125v686q0 120 -62 184t-161 64q-126 0 -218.5 -97.5t-92.5 -263.5v-573h-125v1038h125v-178q97 195 329 195q150 0 240 -91.5t90 -238.5v-725zM662 1151h-113l209 307h166z" />
    <glyph glyph-name="uni0145" unicode="&#x145;" horiz-adv-x="1366" 
d="M291 0h-127v1380h174l352 -583l389 -647q-4 214 -4 645v585h127v-1380h-174l-350 580l-391 651q4 -222 4 -647v-584zM561 -487h-110l180 383h155z" />
    <glyph glyph-name="uni0146" unicode="&#x146;" 
d="M940 0h-125v686q0 120 -62 184t-161 64q-126 0 -218.5 -97.5t-92.5 -263.5v-573h-125v1038h125v-178q97 195 329 195q150 0 240 -91.5t90 -238.5v-725zM416 -487h-111l180 383h156z" />
    <glyph glyph-name="Ncaron" unicode="&#x147;" horiz-adv-x="1366" 
d="M291 0h-127v1380h174l352 -583l389 -647q-4 214 -4 645v585h127v-1380h-174l-350 580l-391 651q4 -222 4 -647v-584zM786 1493h-129l-243 307h131l178 -219l176 219h131z" />
    <glyph glyph-name="ncaron" unicode="&#x148;" 
d="M940 0h-125v686q0 120 -62 184t-161 64q-126 0 -218.5 -97.5t-92.5 -263.5v-573h-125v1038h125v-178q97 195 329 195q150 0 240 -91.5t90 -238.5v-725zM647 1151h-129l-244 307h132l178 -219l176 219h131z" />
    <glyph glyph-name="Omacron" unicode="&#x14c;" horiz-adv-x="1415" 
d="M1313 696q0 -327 -161.5 -519.5t-440.5 -192.5q-275 0 -442 194t-167 518q0 326 163.5 519.5t441.5 193.5q286 0 446 -192t160 -521zM233 696q0 -273 130.5 -431.5t347.5 -158.5q225 0 348 156t123 434t-123.5 434t-351.5 156q-222 0 -348 -157t-126 -433zM981 1599h-539
v93h539v-93z" />
    <glyph glyph-name="omacron" unicode="&#x14d;" horiz-adv-x="1148" 
d="M1057 514q0 -150 -56 -269.5t-168.5 -191t-263.5 -71.5q-146 0 -255.5 71.5t-165.5 191.5t-56 269q0 148 58.5 270.5t168.5 195.5t250 73q118 0 212 -42.5t153.5 -116t91 -170.5t31.5 -210zM223 514q0 -110 41.5 -204t121.5 -152t183 -58q87 0 156 33.5t112 91.5t66 132
t23 157q0 85 -20.5 158.5t-61.5 133t-111.5 94t-163.5 34.5q-108 0 -188.5 -60t-119 -154t-38.5 -206zM850 1257h-539v93h539v-93z" />
    <glyph glyph-name="Ohungarumlaut" unicode="&#x150;" horiz-adv-x="1415" 
d="M1313 696q0 -327 -161.5 -519.5t-440.5 -192.5q-275 0 -442 194t-167 518q0 326 163.5 519.5t441.5 193.5q286 0 446 -192t160 -521zM233 696q0 -273 130.5 -431.5t347.5 -158.5q225 0 348 156t123 434t-123.5 434t-351.5 156q-222 0 -348 -157t-126 -433zM944 1493h-100
l211 307h166zM641 1493h-100l202 307h166z" />
    <glyph glyph-name="ohungarumlaut" unicode="&#x151;" horiz-adv-x="1148" 
d="M1057 514q0 -150 -56 -269.5t-168.5 -191t-263.5 -71.5q-146 0 -255.5 71.5t-165.5 191.5t-56 269q0 148 58.5 270.5t168.5 195.5t250 73q118 0 212 -42.5t153.5 -116t91 -170.5t31.5 -210zM223 514q0 -110 41.5 -204t121.5 -152t183 -58q87 0 156 33.5t112 91.5t66 132
t23 157q0 85 -20.5 158.5t-61.5 133t-111.5 94t-163.5 34.5q-108 0 -188.5 -60t-119 -154t-38.5 -206zM821 1151h-100l211 307h166zM518 1151h-100l203 307h165z" />
    <glyph glyph-name="OE" unicode="&#x152;" horiz-adv-x="2004" 
d="M233 696q0 -274 125.5 -432t341.5 -158q225 0 345 156t120 434q0 279 -121 434.5t-348 155.5q-221 0 -342 -156.5t-121 -433.5zM1913 0h-748v217q-76 -113 -194 -173t-271 -60q-274 0 -436 193t-162 519q0 328 158.5 520.5t435.5 192.5q311 0 469 -229v200h736v-116h-609
v-516h537v-117h-537v-514h621v-117z" />
    <glyph glyph-name="oe" unicode="&#x153;" horiz-adv-x="1835" 
d="M223 514q0 -112 36 -204.5t111.5 -151t178.5 -58.5q86 0 150.5 33.5t101.5 92t55 130.5t18 158q0 420 -325 420q-108 0 -183.5 -60.5t-109 -153t-33.5 -206.5zM1333 934q-128 0 -218.5 -89.5t-106.5 -266.5h608v47q0 150 -79 229.5t-204 79.5zM1669 51
q-57 -28 -134.5 -44.5t-145.5 -16.5q-144 0 -260 61t-183 174q-54 -114 -154.5 -178.5t-242.5 -64.5q-145 0 -250 71.5t-156 190.5t-51 270q0 150 53.5 271.5t159 194.5t244.5 73q141 0 239.5 -62t153.5 -172q59 113 162 172.5t233 59.5q199 0 303.5 -127t104.5 -361
q0 -59 -8 -100h-729q15 -171 121 -262.5t266 -91.5q70 0 146 17.5t128 51.5v-127z" />
    <glyph glyph-name="Racute" unicode="&#x154;" horiz-adv-x="1087" 
d="M489 1268h-198v-594h223q151 0 233 83.5t82 209.5q0 301 -340 301zM500 561h-209v-561h-127v1380h311q242 0 361.5 -109.5t119.5 -309.5q-5 -139 -77.5 -239.5t-208.5 -137.5l366 -584h-151l-346 563q-12 -2 -39 -2zM596 1493h-113l209 307h166z" />
    <glyph glyph-name="racute" unicode="&#x155;" horiz-adv-x="643" 
d="M281 0h-125v1038h125v-176q85 189 290 189q16 0 52 -4v-127q-40 12 -82 12q-75 0 -136 -53.5t-92.5 -133.5t-31.5 -165v-580zM461 1151h-113l209 307h166z" />
    <glyph glyph-name="uni0156" unicode="&#x156;" horiz-adv-x="1087" 
d="M489 1268h-198v-594h223q151 0 233 83.5t82 209.5q0 301 -340 301zM500 561h-209v-561h-127v1380h311q242 0 361.5 -109.5t119.5 -309.5q-5 -139 -77.5 -239.5t-208.5 -137.5l366 -584h-151l-346 563q-12 -2 -39 -2zM428 -487h-111l181 383h155z" />
    <glyph glyph-name="uni0157" unicode="&#x157;" horiz-adv-x="643" 
d="M70 -487h-111l180 383h156zM281 0h-125v1038h125v-176q85 189 290 189q16 0 52 -4v-127q-40 12 -82 12q-75 0 -136 -53.5t-92.5 -133.5t-31.5 -165v-580z" />
    <glyph glyph-name="Rcaron" unicode="&#x158;" horiz-adv-x="1087" 
d="M489 1268h-198v-594h223q151 0 233 83.5t82 209.5q0 301 -340 301zM500 561h-209v-561h-127v1380h311q242 0 361.5 -109.5t119.5 -309.5q-5 -139 -77.5 -239.5t-208.5 -137.5l366 -584h-151l-346 563q-12 -2 -39 -2zM614 1491h-129l-243 307h131l178 -219l176 219h131z
" />
    <glyph glyph-name="rcaron" unicode="&#x159;" horiz-adv-x="643" 
d="M281 0h-125v1038h125v-176q85 189 290 189q16 0 52 -4v-127q-40 12 -82 12q-75 0 -136 -53.5t-92.5 -133.5t-31.5 -165v-580zM473 1149h-129l-244 307h131l179 -219l176 219h131z" />
    <glyph glyph-name="Sacute" unicode="&#x15a;" horiz-adv-x="1079" 
d="M946 356q0 -121 -58.5 -206t-154 -124.5t-217.5 -39.5q-213 0 -362 90v141q62 -47 159 -77.5t197 -30.5q145 0 226 62.5t81 182.5q0 48 -18 87t-54.5 69.5t-73.5 51.5t-93 46q-19 9 -58 25.5t-61 26t-58 27t-57.5 31t-51.5 34t-47.5 39.5t-38 45.5t-31 53.5t-18 61.5
t-7.5 72.5q0 89 35.5 160.5t95.5 116t136.5 68.5t162.5 24q171 0 286 -62v-141q-48 33 -128.5 55.5t-155.5 22.5q-137 0 -219 -65t-82 -171q0 -33 9.5 -62t21.5 -50.5t39 -44t45 -36t57.5 -33.5t59.5 -28.5t67 -29.5q39 -17 59.5 -26t57 -27t57.5 -31t50.5 -34t47 -40
t38 -45.5t31 -54t18 -62t7.5 -72.5zM643 1491h-113l209 307h166z" />
    <glyph glyph-name="sacute" unicode="&#x15b;" horiz-adv-x="831" 
d="M760 266q0 -128 -89 -203t-245 -75q-90 0 -172.5 17.5t-130.5 43.5v129q138 -78 295 -78q104 0 158.5 43.5t54.5 112.5q0 81 -56.5 127t-185.5 96q-58 22 -99.5 44.5t-84.5 57.5t-65.5 83.5t-22.5 109.5q0 126 92 200.5t231 74.5q168 0 258 -48v-124q-43 25 -113.5 40
t-146.5 15q-89 0 -141.5 -42.5t-52.5 -109.5q0 -24 7 -45t15.5 -36.5t28.5 -32t32.5 -25.5t42.5 -23t43.5 -19.5t49.5 -20.5q67 -27 113.5 -52t92 -62t68.5 -86.5t23 -111.5zM502 1151h-113l209 307h166z" />
    <glyph glyph-name="uni015E" unicode="&#x15e;" horiz-adv-x="1079" 
d="M946 356q0 -121 -58.5 -206t-154 -124.5t-217.5 -39.5q-213 0 -362 90v141q62 -47 159 -77.5t197 -30.5q145 0 226 62.5t81 182.5q0 48 -18 87t-54.5 69.5t-73.5 51.5t-93 46q-19 9 -58 25.5t-61 26t-58 27t-57.5 31t-51.5 34t-47.5 39.5t-38 45.5t-31 53.5t-18 61.5
t-7.5 72.5q0 89 35.5 160.5t95.5 116t136.5 68.5t162.5 24q171 0 286 -62v-141q-48 33 -128.5 55.5t-155.5 22.5q-137 0 -219 -65t-82 -171q0 -33 9.5 -62t21.5 -50.5t39 -44t45 -36t57.5 -33.5t59.5 -28.5t67 -29.5q39 -17 59.5 -26t57 -27t57.5 -31t50.5 -34t47 -40
t38 -45.5t31 -54t18 -62t7.5 -72.5zM627 -248q0 -106 -76 -180t-217 -80v100q178 18 178 150q0 77 -47 154h125q16 -24 26.5 -66t10.5 -78z" />
    <glyph glyph-name="uni015F" unicode="&#x15f;" horiz-adv-x="831" 
d="M760 266q0 -128 -89 -203t-245 -75q-90 0 -172.5 17.5t-130.5 43.5v129q138 -78 295 -78q104 0 158.5 43.5t54.5 112.5q0 81 -56.5 127t-185.5 96q-58 22 -99.5 44.5t-84.5 57.5t-65.5 83.5t-22.5 109.5q0 126 92 200.5t231 74.5q168 0 258 -48v-124q-43 25 -113.5 40
t-146.5 15q-89 0 -141.5 -42.5t-52.5 -109.5q0 -24 7 -45t15.5 -36.5t28.5 -32t32.5 -25.5t42.5 -23t43.5 -19.5t49.5 -20.5q67 -27 113.5 -52t92 -62t68.5 -86.5t23 -111.5zM555 -248q0 -106 -76 -180t-217 -80v100q178 18 178 150q0 77 -47 154h125q16 -24 26.5 -66
t10.5 -78z" />
    <glyph glyph-name="Scaron" unicode="&#x160;" horiz-adv-x="1079" 
d="M946 356q0 -121 -58.5 -206t-154 -124.5t-217.5 -39.5q-213 0 -362 90v141q62 -47 159 -77.5t197 -30.5q145 0 226 62.5t81 182.5q0 48 -18 87t-54.5 69.5t-73.5 51.5t-93 46q-19 9 -58 25.5t-61 26t-58 27t-57.5 31t-51.5 34t-47.5 39.5t-38 45.5t-31 53.5t-18 61.5
t-7.5 72.5q0 89 35.5 160.5t95.5 116t136.5 68.5t162.5 24q171 0 286 -62v-141q-48 33 -128.5 55.5t-155.5 22.5q-137 0 -219 -65t-82 -171q0 -33 9.5 -62t21.5 -50.5t39 -44t45 -36t57.5 -33.5t59.5 -28.5t67 -29.5q39 -17 59.5 -26t57 -27t57.5 -31t50.5 -34t47 -40
t38 -45.5t31 -54t18 -62t7.5 -72.5zM602 1491h-129l-244 307h131l179 -219l176 219h131z" />
    <glyph glyph-name="scaron" unicode="&#x161;" horiz-adv-x="831" 
d="M760 266q0 -128 -89 -203t-245 -75q-90 0 -172.5 17.5t-130.5 43.5v129q138 -78 295 -78q104 0 158.5 43.5t54.5 112.5q0 81 -56.5 127t-185.5 96q-58 22 -99.5 44.5t-84.5 57.5t-65.5 83.5t-22.5 109.5q0 126 92 200.5t231 74.5q168 0 258 -48v-124q-43 25 -113.5 40
t-146.5 15q-89 0 -141.5 -42.5t-52.5 -109.5q0 -24 7 -45t15.5 -36.5t28.5 -32t32.5 -25.5t42.5 -23t43.5 -19.5t49.5 -20.5q67 -27 113.5 -52t92 -62t68.5 -86.5t23 -111.5zM532 1151h-129l-243 307h131l178 -219l176 219h131z" />
    <glyph glyph-name="uni0162" unicode="&#x162;" horiz-adv-x="952" 
d="M922 1264h-383v-1264h-127v1264h-381v116h891v-116zM575 -248q0 -106 -75.5 -180t-216.5 -80v100q178 18 178 150q0 77 -47 154h125q16 -23 26 -65.5t10 -78.5z" />
    <glyph glyph-name="uni0163" unicode="&#x163;" horiz-adv-x="745" 
d="M653 29q-25 -17 -66 -28t-71 -11q-295 0 -295 303v639h-170v106h170v260h127v-260h297v-106h-297v-645q0 -178 166 -178q82 0 139 47v-127zM494 -248q0 -106 -76 -180t-217 -80v100q178 18 178 150q0 77 -47 154h125q16 -24 26.5 -66t10.5 -78z" />
    <glyph glyph-name="Tcaron" unicode="&#x164;" horiz-adv-x="952" 
d="M922 1264h-383v-1264h-127v1264h-381v116h891v-116zM543 1493h-129l-244 307h131l178 -219l176 219h131z" />
    <glyph glyph-name="tcaron" unicode="&#x165;" horiz-adv-x="745" 
d="M653 29q-25 -17 -66 -28t-71 -11q-295 0 -295 303v639h-170v106h170v260h127v-260h297v-106h-297v-645q0 -178 166 -178q82 0 139 47v-127zM584 1151h-111l180 383h156z" />
    <glyph glyph-name="Umacron" unicode="&#x16a;" horiz-adv-x="1308" 
d="M1145 522q0 -265 -129.5 -401.5t-364.5 -136.5q-232 0 -359.5 133t-127.5 389v874h127v-872q0 -207 97.5 -304.5t262.5 -97.5q367 0 367 412v862h127v-858zM928 1599h-539v93h539v-93z" />
    <glyph glyph-name="umacron" unicode="&#x16b;" 
d="M928 0h-125v186q-81 -200 -330 -200q-151 0 -240.5 91t-89.5 240v721h125v-686q0 -119 62.5 -182.5t165.5 -63.5q137 0 222 99t85 256v577h125v-1038zM805 1257h-539v93h539v-93z" />
    <glyph glyph-name="Uring" unicode="&#x16e;" horiz-adv-x="1308" 
d="M1145 522q0 -265 -129.5 -401.5t-364.5 -136.5q-232 0 -359.5 133t-127.5 389v874h127v-872q0 -207 97.5 -304.5t262.5 -97.5q367 0 367 412v862h127v-858zM862 1671q0 -83 -59 -142t-144 -59q-83 0 -141.5 59t-58.5 142q0 85 58.5 144t141.5 59q85 0 144 -59t59 -144z
M551 1671q0 -44 32 -76t76 -32q46 0 78.5 32t32.5 76q0 46 -32.5 78.5t-78.5 32.5q-44 0 -76 -32.5t-32 -78.5z" />
    <glyph glyph-name="uring" unicode="&#x16f;" 
d="M928 0h-125v186q-81 -200 -330 -200q-151 0 -240.5 91t-89.5 240v721h125v-686q0 -119 62.5 -182.5t165.5 -63.5q137 0 222 99t85 256v577h125v-1038zM756 1331q0 -83 -59 -142t-144 -59q-83 0 -142 59t-59 142q0 85 59 144t142 59q85 0 144 -59t59 -144zM444 1331
q0 -44 32.5 -76t76.5 -32q46 0 78.5 32t32.5 76q0 46 -32.5 78.5t-78.5 32.5q-44 0 -76.5 -32.5t-32.5 -78.5z" />
    <glyph glyph-name="Uhungarumlaut" unicode="&#x170;" horiz-adv-x="1308" 
d="M1145 522q0 -265 -129.5 -401.5t-364.5 -136.5q-232 0 -359.5 133t-127.5 389v874h127v-872q0 -207 97.5 -304.5t262.5 -97.5q367 0 367 412v862h127v-858zM846 1493h-101l211 307h166zM543 1493h-101l203 307h166z" />
    <glyph glyph-name="uhungarumlaut" unicode="&#x171;" 
d="M928 0h-125v186q-81 -200 -330 -200q-151 0 -240.5 91t-89.5 240v721h125v-686q0 -119 62.5 -182.5t165.5 -63.5q137 0 222 99t85 256v577h125v-1038zM741 1151h-100l211 307h166zM438 1151h-100l203 307h166z" />
    <glyph glyph-name="Uogonek" unicode="&#x172;" horiz-adv-x="1308" 
d="M1145 522q0 -206 -78 -334t-225 -176q-102 -46 -164 -111t-62 -143q0 -64 39 -98.5t105 -34.5q33 0 70 12t61 29v-102q-56 -37 -146 -37q-114 0 -178.5 62t-64.5 159q0 133 125 236q-221 8 -342 140.5t-121 381.5v874h127v-872q0 -207 97.5 -304.5t262.5 -97.5
q367 0 367 412v862h127v-858z" />
    <glyph glyph-name="uogonek" unicode="&#x173;" 
d="M975 -449q-55 -36 -146 -36q-114 0 -178.5 62t-64.5 159q0 92 61 171t156 126v153q-81 -200 -330 -200q-151 0 -240.5 91t-89.5 240v721h125v-686q0 -119 62.5 -182.5t165.5 -63.5q137 0 222 99t85 256v577h125v-1038q-103 -46 -165.5 -110.5t-62.5 -143.5
q0 -64 39 -98.5t105 -34.5q33 0 70 12t61 29v-103z" />
    <glyph glyph-name="Ydieresis" unicode="&#x178;" horiz-adv-x="1187" 
d="M655 516v-516h-127v516l-467 864h146l108 -202q116 -220 185.5 -353t80.5 -157l11 -23q17 40 280 533l109 202h145zM868 1647q0 -37 -25 -62.5t-63 -25.5q-37 0 -62.5 25.5t-25.5 62.5q0 38 25.5 63t62.5 25q38 0 63 -25t25 -63zM492 1647q0 -37 -26 -62.5t-63 -25.5
q-38 0 -63 25.5t-25 62.5q0 38 25 63t63 25q37 0 63 -25t26 -63z" />
    <glyph glyph-name="Zacute" unicode="&#x179;" horiz-adv-x="1136" 
d="M1034 0h-932v113l758 1155h-749v112h893v-112l-758 -1155h788v-113zM647 1493h-112l208 307h166z" />
    <glyph glyph-name="zacute" unicode="&#x17a;" horiz-adv-x="913" 
d="M821 0h-729v104l545 814h-524v120h680v-94l-553 -821h581v-123zM522 1151h-112l208 307h166z" />
    <glyph glyph-name="Zdotaccent" unicode="&#x17b;" horiz-adv-x="1136" 
d="M1034 0h-932v113l758 1155h-749v112h893v-112l-758 -1155h788v-113zM666 1653q0 -37 -25 -62.5t-63 -25.5q-37 0 -63 25.5t-26 62.5q0 38 26 63t63 25q38 0 63 -25t25 -63z" />
    <glyph glyph-name="zdotaccent" unicode="&#x17c;" horiz-adv-x="913" 
d="M821 0h-729v104l545 814h-524v120h680v-94l-553 -821h581v-123zM580 1305q0 -37 -25 -62.5t-63 -25.5q-37 0 -63 25.5t-26 62.5q0 38 26 63t63 25q38 0 63 -25t25 -63z" />
    <glyph glyph-name="Zcaron" unicode="&#x17d;" horiz-adv-x="1136" 
d="M1034 0h-932v113l758 1155h-749v112h893v-112l-758 -1155h788v-113zM625 1493h-129l-244 307h131l178 -219l176 219h131z" />
    <glyph glyph-name="zcaron" unicode="&#x17e;" horiz-adv-x="913" 
d="M821 0h-729v104l545 814h-524v120h680v-94l-553 -821h581v-123zM551 1151h-129l-244 307h131l178 -219l177 219h131z" />
    <glyph glyph-name="florin" unicode="&#x192;" horiz-adv-x="731" 
d="M276 -184q-30 -173 -102 -257.5t-205 -84.5q-75 0 -125 16v123q58 -21 117 -21q77 0 124 59t69 179l145 815h-205v107h223l54 301q30 173 102 257.5t205 84.5q72 0 125 -17v-123q-58 21 -117 21q-77 0 -123.5 -59t-68.5 -179l-52 -286h205v-107h-223z" />
    <glyph glyph-name="uni0218" unicode="&#x218;" horiz-adv-x="1079" 
d="M946 356q0 -121 -58.5 -206t-154 -124.5t-217.5 -39.5q-213 0 -362 90v141q62 -47 159 -77.5t197 -30.5q145 0 226 62.5t81 182.5q0 48 -18 87t-54.5 69.5t-73.5 51.5t-93 46q-19 9 -58 25.5t-61 26t-58 27t-57.5 31t-51.5 34t-47.5 39.5t-38 45.5t-31 53.5t-18 61.5
t-7.5 72.5q0 89 35.5 160.5t95.5 116t136.5 68.5t162.5 24q171 0 286 -62v-141q-48 33 -128.5 55.5t-155.5 22.5q-137 0 -219 -65t-82 -171q0 -33 9.5 -62t21.5 -50.5t39 -44t45 -36t57.5 -33.5t59.5 -28.5t67 -29.5q39 -17 59.5 -26t57 -27t57.5 -31t50.5 -34t47 -40
t38 -45.5t31 -54t18 -62t7.5 -72.5zM397 -487h-110l180 383h156z" />
    <glyph glyph-name="uni0219" unicode="&#x219;" horiz-adv-x="831" 
d="M760 266q0 -128 -89 -203t-245 -75q-90 0 -172.5 17.5t-130.5 43.5v129q138 -78 295 -78q104 0 158.5 43.5t54.5 112.5q0 81 -56.5 127t-185.5 96q-58 22 -99.5 44.5t-84.5 57.5t-65.5 83.5t-22.5 109.5q0 126 92 200.5t231 74.5q168 0 258 -48v-124q-43 25 -113.5 40
t-146.5 15q-89 0 -141.5 -42.5t-52.5 -109.5q0 -24 7 -45t15.5 -36.5t28.5 -32t32.5 -25.5t42.5 -23t43.5 -19.5t49.5 -20.5q67 -27 113.5 -52t92 -62t68.5 -86.5t23 -111.5zM293 -487h-111l180 383h156z" />
    <glyph glyph-name="uni021A" unicode="&#x21a;" horiz-adv-x="952" 
d="M322 -487h-111l180 383h156zM922 1264h-383v-1264h-127v1264h-381v116h891v-116z" />
    <glyph glyph-name="uni021B" unicode="&#x21b;" horiz-adv-x="745" 
d="M653 29q-25 -17 -66 -28t-71 -11q-295 0 -295 303v639h-170v106h170v260h127v-260h297v-106h-297v-645q0 -178 166 -178q82 0 139 47v-127zM342 -487h-111l181 383h155z" />
    <glyph glyph-name="circumflex" unicode="&#x2c6;" horiz-adv-x="819" 
d="M231 1327h-131l244 307h129l244 -307h-131l-178 219z" />
    <glyph glyph-name="caron" unicode="&#x2c7;" horiz-adv-x="819" 
d="M473 1327h-129l-244 307h131l179 -219l176 219h131z" />
    <glyph glyph-name="uni02C9" unicode="&#x2c9;" horiz-adv-x="819" 
d="M678 1442h-539v92h539v-92z" />
    <glyph glyph-name="breve" unicode="&#x2d8;" horiz-adv-x="819" 
d="M727 1634q0 -67 -17 -121.5t-52.5 -98.5t-98.5 -68.5t-149 -24.5t-149 24.5t-99 68.5t-53 98.5t-17 121.5h107q0 -95 49 -155t162 -60t162 60t49 155h106z" />
    <glyph glyph-name="dotaccent" unicode="&#x2d9;" horiz-adv-x="819" 
d="M498 1489q0 -37 -25 -62.5t-63 -25.5q-37 0 -62.5 25.5t-25.5 62.5q0 38 25.5 63t62.5 25q38 0 63 -25t25 -63z" />
    <glyph glyph-name="ring" unicode="&#x2da;" horiz-adv-x="819" 
d="M610 1481q0 -83 -59 -142t-143 -59q-83 0 -142 59t-59 142q0 85 58.5 143.5t142.5 58.5q85 0 143.5 -58.5t58.5 -143.5zM299 1481q0 -44 32.5 -76.5t76.5 -32.5q46 0 78 32t32 77q0 46 -32 78t-78 32q-44 0 -76.5 -32.5t-32.5 -77.5z" />
    <glyph glyph-name="ogonek" unicode="&#x2db;" horiz-adv-x="819" 
d="M604 -428q-56 -37 -145 -37q-114 0 -179 62t-65 159q0 109 85 198.5t204 129.5l53 -64q-103 -46 -165 -110t-62 -143q0 -65 38.5 -99.5t104.5 -34.5q33 0 70 12t61 29v-102z" />
    <glyph glyph-name="tilde" unicode="&#x2dc;" horiz-adv-x="819" 
d="M313 1462q-84 0 -137 -100l-74 61q28 60 82 100t117 40q46 0 97 -23.5t96.5 -47.5t78.5 -24q38 0 61 23.5t42 64.5l86 -57q-30 -64 -78 -97.5t-104 -33.5q-51 0 -142.5 47t-124.5 47z" />
    <glyph glyph-name="hungarumlaut" unicode="&#x2dd;" horiz-adv-x="819" 
d="M473 1327h-100l211 307h166zM170 1327h-100l202 307h166z" />
    <glyph glyph-name="pi" unicode="&#x3c0;" horiz-adv-x="1179" 
d="M1139 932h-205v-932h-125v932h-428v-621q0 -89 -22 -151.5t-64 -96.5t-93 -48.5t-118 -14.5v115q97 0 134.5 39.5t37.5 154.5v623h-205v106h1088v-106z" />
    <glyph glyph-name="tmAnusvara" unicode="&#xb82;" horiz-adv-x="0" 
d="M238 1640q0 -100 -67 -167.5t-171 -67.5q-106 0 -173 67.5t-67 167.5q0 99 67.5 166.5t172.5 67.5q104 0 171 -68t67 -166zM-141 1640q0 -64 38 -102.5t103 -38.5q64 0 101.5 38.5t37.5 102.5q0 62 -37.5 101t-101.5 39q-65 0 -103 -39t-38 -101z" />
    <glyph glyph-name="tmVisarga" unicode="&#xb83;" horiz-adv-x="1398" 
d="M950 887q0 -104 -70.5 -175t-179.5 -71q-111 0 -181 70.5t-70 175.5q0 103 70.5 174.5t180.5 71.5q109 0 179.5 -71.5t70.5 -174.5zM553 887q0 -67 39.5 -109.5t107.5 -42.5q67 0 106.5 42.5t39.5 109.5q0 66 -40 107.5t-106 41.5q-68 0 -107.5 -41.5t-39.5 -107.5z
M1329 227q0 -104 -70.5 -175.5t-179.5 -71.5q-111 0 -181.5 71t-70.5 176q0 103 70.5 173.5t181.5 70.5q109 0 179.5 -70.5t70.5 -173.5zM932 227q0 -67 39.5 -110t107.5 -43q66 0 106 43t40 110q0 66 -40 108t-106 42q-68 0 -107.5 -42t-39.5 -108zM571 227
q0 -104 -70 -175.5t-179 -71.5q-111 0 -181.5 71t-70.5 176q0 103 70.5 173.5t181.5 70.5q109 0 179 -70.5t70 -173.5zM174 227q0 -67 40 -110t108 -43q66 0 105.5 43t39.5 110q0 66 -39.5 108t-105.5 42q-68 0 -108 -42t-40 -108z" />
    <glyph glyph-name="tmA" unicode="&#xb85;" horiz-adv-x="2019" 
d="M61 313v136h1180q16 69 16 139q0 189 -98.5 310.5t-267.5 121.5q-95 0 -146 -44.5t-51 -121.5q0 -71 48 -112.5t147 -41.5q112 0 198 48v-117q-32 -18 -89 -30.5t-111 -12.5q-141 0 -230.5 68.5t-89.5 197.5q0 122 89 200.5t235 78.5q116 0 211 -45.5t155.5 -122
t93.5 -173.5t33 -204q0 -72 -12 -139h326v663h127v-1112h-127v340h-359q-67 -167 -224.5 -263.5t-397.5 -96.5q-122 0 -230.5 29.5t-188.5 80t-138 106t-99 117.5zM717 92q180 0 302.5 65t182.5 183l-1009 -2q73 -100 212 -173t312 -73z" />
    <glyph glyph-name="tmAA" unicode="&#xb86;" horiz-adv-x="2547" 
d="M1194 -293v113q263 -103 553 -103q582 0 582 549q0 157 -61 254.5t-191 97.5q-113 0 -182.5 -77t-69.5 -195v-346h-127v340h-359q-67 -167 -224.5 -263.5t-397.5 -96.5q-122 0 -230.5 29.5t-188.5 80t-138 106t-99 117.5v136h1180q16 69 16 139q0 189 -98.5 310.5
t-267.5 121.5q-95 0 -146 -44.5t-51 -121.5q0 -71 48 -112.5t147 -41.5q112 0 198 48v-117q-32 -18 -89 -30.5t-111 -12.5q-141 0 -230.5 68.5t-89.5 197.5q0 122 89 200.5t235 78.5q116 0 211 -45.5t155.5 -122t93.5 -173.5t33 -204q0 -72 -12 -139h326v663h127v-537
q33 62 104.5 109t169.5 47q86 0 155.5 -38.5t112.5 -104t66 -148.5t23 -176q0 -311 -190.5 -485t-520.5 -174q-326 0 -551 102zM717 92q180 0 302.5 65t182.5 183l-1009 -2q73 -100 212 -173t312 -73z" />
    <glyph glyph-name="tmI" unicode="&#xb87;" horiz-adv-x="2234" 
d="M1049 477q256 0 473 -67q43 130 43 268q0 188 -101 298.5t-288 110.5q-126 0 -196.5 -64t-70.5 -173q0 -60 21 -133h-127q-21 65 -21 133q0 151 108 250.5t286 99.5q127 0 225.5 -41.5t159 -113.5t91.5 -164.5t31 -200.5q0 -154 -51 -309q178 -74 280.5 -187.5
t102.5 -249.5q0 -154 -118.5 -244.5t-323.5 -90.5q-257 0 -498 125q-237 -123 -514 -123q-223 0 -351 91t-128 249q0 151 103.5 262.5t283.5 179.5q-82 200 -82 401q0 185 53.5 336t156 258.5t259.5 166.5t356 59q178 0 322.5 -47t243 -129.5t165.5 -198.5t97.5 -250.5
t30.5 -288.5v-328h-127v328q0 142 -25.5 261.5t-82 220t-141 171t-207.5 109.5t-276 39q-177 0 -312 -51.5t-220 -146.5t-127.5 -223t-42.5 -286q0 -188 70 -364q206 57 469 57zM1049 365q-230 0 -422 -50q77 -144 193.5 -262.5t256.5 -197.5q133 79 237.5 195t166.5 253
q-208 62 -432 62zM561 -287q205 0 395 80q-139 92 -252 217.5t-188 270.5q-145 -53 -228 -139.5t-83 -200.5q0 -113 96 -170.5t260 -57.5zM1573 -289q159 0 239 61t80 162q0 100 -80.5 184.5t-220.5 145.5q-133 -291 -395 -471q190 -82 377 -82z" />
    <glyph glyph-name="tmII" unicode="&#xb88;" horiz-adv-x="1433" 
d="M993 1001v-1001h-127v1001h-544v-1001h-127v1112h1003v-111h-205zM592 442q-41 0 -67.5 27t-26.5 68q0 40 26.5 68t67.5 28t69.5 -28t28.5 -68q0 -41 -28 -68t-70 -27zM1264 442q-41 0 -68 27t-27 68q0 40 27 68t68 28t69.5 -28t28.5 -68q0 -41 -28 -68t-70 -27z" />
    <glyph glyph-name="tmU" unicode="&#xb89;" horiz-adv-x="1775" 
d="M442 426q203 0 298.5 85.5t95.5 231.5q0 130 -92 203.5t-246 73.5q-98 0 -157.5 -42.5t-59.5 -123.5q0 -80 55 -117t145 -37q99 0 193 37v-110q-70 -39 -195 -39q-86 0 -157.5 27t-119.5 89t-48 150q0 126 98 202.5t246 76.5q211 0 338 -113t127 -277
q0 -193 -135.5 -311.5t-372.5 -118.5h-103q-143 0 -143 -100q0 -47 35.5 -73.5t107.5 -26.5h1383v-113h-1389q-137 0 -200.5 59.5t-63.5 153.5q0 90 68 151.5t202 61.5h90z" />
    <glyph glyph-name="tmUU" unicode="&#xb8a;" horiz-adv-x="2777" 
d="M1491 256q-134 0 -218.5 103.5t-84.5 261.5q0 223 122 362t322 139q108 0 195.5 -46.5t128.5 -114.5v151h760v-102h-195v-744h-119v744h-327v-744h-119v441q0 139 -92.5 226t-229.5 87q-156 0 -243.5 -102t-100.5 -269q24 56 81.5 89.5t125.5 33.5q111 0 188.5 -73
t77.5 -185q0 -107 -76 -182.5t-196 -75.5zM1335 514q0 -70 44 -113t114 -43t114 43t44 113q0 69 -44.5 112.5t-113.5 43.5t-113.5 -43.5t-44.5 -112.5zM442 426q203 0 298.5 85.5t95.5 231.5q0 130 -92 203.5t-246 73.5q-98 0 -157.5 -42.5t-59.5 -123.5q0 -80 55 -117
t145 -37q99 0 193 37v-110q-70 -39 -195 -39q-86 0 -157.5 27t-119.5 89t-48 150q0 126 98 202.5t246 76.5q211 0 338 -113t127 -277q0 -193 -135.5 -311.5t-372.5 -118.5h-103q-143 0 -143 -100q0 -47 35.5 -73.5t107.5 -26.5h2364v-113h-2370q-137 0 -200.5 59.5
t-63.5 153.5q0 90 68 151.5t202 61.5h90z" />
    <glyph glyph-name="tmE" unicode="&#xb8e;" horiz-adv-x="1458" 
d="M831 311q0 -142 -96 -236.5t-248 -94.5q-176 0 -275 122.5t-99 335.5q0 323 180.5 498.5t501.5 175.5h622v-113h-205v-999h-127v999h-292q-278 0 -419 -137t-153 -391q28 80 107.5 126t169.5 46q137 0 235 -91.5t98 -240.5zM262 311q0 -100 61 -160.5t162 -60.5
q100 0 162 61t62 160t-62 160t-162 61q-101 0 -162 -60.5t-61 -160.5z" />
    <glyph glyph-name="tmEE" unicode="&#xb8f;" horiz-adv-x="1458" 
d="M262 311q0 -100 61 -160.5t162 -60.5q100 0 162 61t62 160t-62 160t-162 61q-101 0 -162 -60.5t-61 -160.5zM823 -373l262 492v880h-292q-278 0 -419 -137t-153 -391q28 80 107.5 126t169.5 46q137 0 235 -91.5t98 -240.5q0 -142 -96 -236.5t-248 -94.5
q-176 0 -275 122.5t-99 335.5q0 323 180.5 498.5t501.5 175.5h622v-113h-205v-907l-247 -465h-142z" />
    <glyph glyph-name="tmAI" unicode="&#xb90;" horiz-adv-x="1753" 
d="M1411 264h131q68 -136 68 -280q0 -73 -21.5 -137.5t-65 -116t-116 -81.5t-166.5 -30q-129 0 -227.5 71t-124.5 191q-30 -124 -124 -194t-245 -70q-104 0 -194 44.5t-146.5 130t-56.5 194.5q0 107 43 187.5t125 130.5t194 74.5t256 24.5h285q216 0 336.5 98.5t120.5 276.5
q0 105 -58.5 173.5t-169.5 68.5q-132 0 -204 -91.5t-72 -262.5v-78h-127v53q0 185 -96 280.5t-260 98.5q-115 0 -176.5 -47t-61.5 -137q0 -84 57.5 -130.5t165.5 -46.5q72 0 178 25v-111q-79 -26 -180 -26q-152 0 -250 73t-98 216q0 132 96 214.5t258 82.5q167 0 279 -78.5
t147 -208.5q33 131 120 209t229 78q154 0 252 -103t98 -252q0 -236 -155 -361.5t-411 -125.5h-276q-259 0 -388.5 -70t-129.5 -235q0 -120 79 -188t197 -68q147 0 222 83t75 240v86h127v-86q0 -154 76.5 -237.5t212.5 -83.5q121 0 183.5 68t62.5 184q0 136 -74 280z" />
    <glyph glyph-name="tmO" unicode="&#xb92;" horiz-adv-x="1816" 
d="M330 -260v129q105 -67 196.5 -103t196.5 -36q152 0 332 73q151 59 219 72q-138 29 -215.5 137.5t-77.5 268.5q0 100 35.5 202t79.5 164h123q-37 -90 -37 -172q0 -93 55 -153t147 -60q97 0 149 62.5t52 162.5q0 161 -92.5 283.5t-247 186t-344.5 63.5q-176 0 -315 -45.5
t-235.5 -146.5t-123.5 -250q32 72 105 115.5t160 43.5q141 0 236 -93t95 -234q0 -142 -93 -235t-247 -93q-168 0 -269 117.5t-101 306.5q0 125 42.5 229t116.5 177t174.5 123.5t215 74t239.5 23.5q156 0 289 -36.5t226 -99.5t159 -146t97.5 -176.5t31.5 -191.5
q0 -137 -85 -234t-228 -97q-110 0 -189 66t-92 181q-14 -72 -14 -123q0 -358 379 -358h73v-111h-32q-73 0 -146 -15t-119 -31t-118 -46q-229 -96 -410 -96q-226 0 -393 121zM258 410q0 -97 58.5 -157t164.5 -60q105 0 164.5 60.5t59.5 156.5t-59.5 156.5t-164.5 60.5
t-164 -62t-59 -155z" />
    <glyph glyph-name="tmOO" unicode="&#xb93;" horiz-adv-x="1816" 
d="M727 -45v-109q-32 4 -68 4q-62 0 -100.5 -33t-38.5 -93q0 -59 45.5 -92t120.5 -33q44 0 85 7t85 25t67 29t73 38.5t61 33.5q6 3 25.5 13.5t25.5 14t23 12l24 12l22 11t23 10.5t21 8.5t22.5 8.5t20.5 6.5t22 5.5q-136 34 -220.5 156.5t-84.5 285.5q0 169 115 371h123
q-37 -90 -37 -172q0 -93 53 -152t145 -59q98 0 151.5 62t53.5 161q0 161 -92.5 283.5t-247 186t-344.5 63.5q-176 0 -315 -45.5t-235.5 -146.5t-123.5 -250q32 72 105 115.5t160 43.5q140 0 235.5 -93.5t95.5 -233.5q0 -142 -93 -235t-247 -93q-168 0 -269 117.5t-101 306.5
q0 125 42.5 229t116.5 177t174.5 123.5t215 74t239.5 23.5q156 0 289 -36.5t226 -99.5t159 -146t97.5 -176.5t31.5 -191.5q0 -137 -85 -234t-228 -97q-110 0 -189 66t-92 181q-14 -72 -14 -123q0 -66 14 -124t44.5 -109t75.5 -87.5t111 -57.5t148 -21h59v-110h-32
q-55 0 -107.5 -10t-105 -31.5t-84 -37t-84.5 -44.5q-3 -2 -36.5 -20.5t-41 -22.5t-39.5 -20.5t-44 -22t-42 -19t-47 -18t-46 -13.5t-51 -12.5t-49 -6.5t-53 -3q-127 0 -209 65.5t-82 172.5q0 113 72 176t184 63q43 0 76 -8zM258 410q0 -97 58.5 -157t164.5 -60
q105 0 164.5 60.5t59.5 156.5t-59.5 156.5t-164.5 60.5t-164 -62t-59 -155z" />
    <glyph glyph-name="tmAU" unicode="&#xb94;" horiz-adv-x="3842" 
d="M330 -260v129q105 -67 196.5 -103t196.5 -36q152 0 332 73q151 59 219 72q-138 29 -215.5 137.5t-77.5 268.5q0 100 35.5 202t79.5 164h123q-37 -90 -37 -172q0 -93 55 -153t147 -60q97 0 149 62.5t52 162.5q0 161 -92.5 283.5t-247 186t-344.5 63.5q-176 0 -315 -45.5
t-235.5 -146.5t-123.5 -250q32 72 105 115.5t160 43.5q141 0 236 -93t95 -234q0 -142 -93 -235t-247 -93q-168 0 -269 117.5t-101 306.5q0 125 42.5 229t116.5 177t174.5 123.5t215 74t239.5 23.5q156 0 289 -36.5t226 -99.5t159 -146t97.5 -176.5t31.5 -191.5
q0 -137 -85 -234t-228 -97q-110 0 -189 66t-92 181q-14 -72 -14 -123q0 -358 379 -358h73v-111h-32q-73 0 -146 -15t-119 -31t-118 -46q-229 -96 -410 -96q-226 0 -393 121zM258 410q0 -97 58.5 -157t164.5 -60q105 0 164.5 60.5t59.5 156.5t-59.5 156.5t-164.5 60.5
t-164 -62t-59 -155zM2331 -20q-179 0 -287.5 141t-108.5 362q0 299 148 474.5t411 175.5q139 0 249 -61t157 -150v190h922v-111h-205v-1001h-127v1001h-463v-1001h-127v588q0 200 -107.5 316t-300.5 116q-91 0 -167 -31t-127 -83t-86.5 -121.5t-51.5 -145t-16 -154.5v-39
q27 90 105.5 143.5t191.5 53.5q139 0 236.5 -91.5t97.5 -240.5q0 -142 -96 -236.5t-248 -94.5zM2105 311q0 -100 61.5 -160.5t162.5 -60.5q100 0 161.5 60.5t61.5 160.5t-61.5 160.5t-161.5 60.5q-101 0 -162.5 -60.5t-61.5 -160.5z" />
    <glyph glyph-name="tmKA" unicode="&#xb95;" horiz-adv-x="1529" 
d="M1051 664q183 0 279.5 -96t96.5 -246q0 -151 -101.5 -253t-283.5 -102q-39 0 -53 2v113q16 -2 53 -2q132 0 199.5 65.5t67.5 180.5q0 106 -64 166.5t-196 60.5h-74v-78q0 -103 -31 -192t-90 -157t-153.5 -107t-213.5 -39q-186 0 -285.5 95.5t-99.5 239.5q0 125 65 214.5
t189 119.5v463h824v-111h-205v-337h76zM479 664h377v337h-381v-337h4zM487 90q184 0 276.5 105t92.5 278v80h-377q-128 0 -193 -62t-65 -176q0 -104 73 -164.5t193 -60.5z" />
    <glyph glyph-name="tmNGA" unicode="&#xb99;" horiz-adv-x="2086" 
d="M1765 1112h127v-1112h-1136v113h137q208 0 317 88.5t109 263.5q0 98 -61 160.5t-162 62.5q-104 0 -163 -64.5t-59 -170.5v-21h-118v569h-443v-1001h-118v1112h884v-111h-205v-337q29 60 95.5 98.5t142.5 38.5q148 0 241 -95t93 -241q0 -255 -213 -352h532v999z" />
    <glyph glyph-name="tmCA" unicode="&#xb9a;" horiz-adv-x="1378" 
d="M1337 664v-111h-362v-78q0 -103 -31 -192t-90 -157t-153.5 -107t-213.5 -39q-186 0 -285.5 95.5t-99.5 239.5q0 125 65 214.5t189 119.5v463h824v-111h-205v-337h362zM479 664h377v337h-381v-337h4zM487 90q184 0 276.5 105t92.5 278v80h-377q-128 0 -193 -62t-65 -176
q0 -104 73 -164.5t193 -60.5z" />
    <glyph glyph-name="tmJA" unicode="&#xb9c;" horiz-adv-x="1714" 
d="M1251 121q-69 0 -126 -28t-98 -72t-79.5 -98t-80.5 -108t-90 -98t-119 -72t-158 -28q-169 0 -278 105.5t-109 279.5q0 91 29 163.5t80.5 121.5t126 81.5t162 47t191.5 14.5h314q215 0 336 95t121 263q0 103 -64.5 167.5t-179.5 64.5q-129 0 -194.5 -86t-65.5 -242v-74
h-127v74q0 151 -85.5 238t-242.5 90q-132 0 -198 -56.5t-66 -152.5q0 -97 62.5 -143.5t162.5 -46.5q113 0 184 26v-112q-86 -27 -180 -27q-149 0 -253.5 79t-104.5 224q0 136 99.5 229t283.5 93q166 0 267 -72t130 -199q24 128 106 199.5t226 71.5q158 0 262 -98.5
t104 -246.5q0 -151 -73 -258.5t-199 -160t-293 -52.5h-305q-116 0 -200.5 -14.5t-152 -49t-102 -97.5t-34.5 -154q0 -129 72 -200.5t188 -71.5q54 0 101 17t82.5 46.5t67.5 67t62.5 79t61.5 83.5t69 79.5t81 67t102 46.5t128 17q147 0 247 -84.5t100 -216.5
q0 -144 -94.5 -228.5t-272.5 -84.5q-78 0 -139 21l2 112q64 -22 139 -22q118 0 178 48.5t60 153.5q0 89 -61 139t-163 50z" />
    <glyph glyph-name="tmNYA" unicode="&#xb9e;" horiz-adv-x="2443" 
d="M1985 731q158 0 257 -111t99 -303q0 -181 -81 -337t-223 -266t-342 -173t-431 -63q-190 0 -360 41t-309 122t-240 195.5t-156.5 269t-55.5 334.5q0 193 60.5 373.5t148.5 298.5h137q-219 -286 -219 -672q0 -203 76.5 -365.5t211 -267.5t315 -161t391.5 -56
q277 0 493.5 91.5t336.5 258t120 379.5q0 152 -70 227t-184 75q-105 0 -177.5 -78.5t-72.5 -194.5v-348h-119v1001h-293q-280 0 -420 -140.5t-151 -399.5q25 84 105.5 133t171.5 49q137 0 233 -91.5t96 -240.5q0 -142 -94.5 -236.5t-245.5 -94.5q-176 0 -275.5 122.5
t-99.5 335.5q0 323 180.5 498.5t501.5 175.5h615v-111h-205v-426q33 62 105 109t170 47zM768 311q0 -100 61 -162.5t162 -62.5q100 0 161.5 62.5t61.5 162.5t-62 163t-161 63q-101 0 -162 -63t-61 -163z" />
    <glyph glyph-name="tmTTA" unicode="&#xb9f;" horiz-adv-x="1601" 
d="M1561 0h-1366v1112h127v-999h1239v-113z" />
    <glyph glyph-name="tmNNA" unicode="&#xba3;" horiz-adv-x="3282" 
d="M489 -20q-177 0 -276.5 120t-99.5 332q0 198 103 359t282 251.5t397 90.5q265 0 473 -127q202 127 455 127q257 0 461 -132q193 111 444 111h514v-111h-205v-1001h-127v1001h-178q-201 0 -350 -73q115 -102 178 -237t63 -277q0 -191 -90 -312.5t-252 -121.5
q-159 0 -252.5 116t-93.5 314q0 159 63 292t179 228q-164 90 -354 90q-189 0 -353 -90q115 -101 177.5 -235t62.5 -285q0 -198 -93 -314t-251 -116q-109 0 -187.5 57t-117.5 154t-39 221q0 147 65 282.5t183 237.5q-163 88 -379 88q-139 0 -260 -43.5t-206 -118.5
t-137.5 -173.5t-64.5 -209.5q29 78 108 123t167 45q137 0 235 -91.5t98 -240.5q0 -142 -95 -236.5t-247 -94.5zM2281 92q108 0 164 89t56 233q0 129 -60 245t-166 203q-105 -81 -161 -198.5t-56 -253.5q0 -147 58 -232.5t165 -85.5zM1366 92q107 0 164 85t57 233
q0 127 -55.5 245.5t-159.5 206.5q-107 -87 -167 -203t-60 -247q0 -143 56.5 -231.5t164.5 -88.5zM262 311q0 -100 62 -160.5t163 -60.5q100 0 161 60.5t61 160.5q0 99 -62 160t-162 61q-101 0 -162 -60.5t-61 -160.5z" />
    <glyph glyph-name="tmTA" unicode="&#xba4;" horiz-adv-x="1531" 
d="M459 1001v-337h28h369v337h-397zM496 90q183 0 271.5 104t88.5 279v80h-369q-128 0 -193 -62t-65 -176q0 -104 73.5 -164.5t193.5 -60.5zM1409 178q0 -286 -163 -452t-466 -166q-99 0 -236.5 11t-205.5 11q-160 0 -287 -51v121q127 43 289 43q84 0 216.5 -12.5
t223.5 -12.5q256 0 383 133.5t127 376.5q0 158 -76 256t-231 115v-76q0 -139 -52.5 -249t-164.5 -178t-270 -68q-186 0 -285.5 95.5t-99.5 239.5q0 117 56.5 203t164.5 123v471h856v-111h-205v-339q210 -17 318 -149.5t108 -334.5z" />
    <glyph glyph-name="tmNA" unicode="&#xba8;" horiz-adv-x="1648" 
d="M895 1001v-426q33 62 104.5 109t169.5 47q87 0 157 -39t112.5 -104.5t65 -145t22.5 -166.5q0 -346 -204.5 -530t-565.5 -184q-99 0 -231.5 10t-200.5 10q-160 0 -287 -51v121q127 43 289 43q84 0 211.5 -11.5t218.5 -11.5q314 0 478.5 151t164.5 456q0 69 -13.5 127
t-41.5 107t-78.5 77t-118.5 28q-113 0 -182.5 -77t-69.5 -195v-346h-127v1001h-463v-1001h-127v1112h922v-111h-205z" />
    <glyph glyph-name="tmNNNA" unicode="&#xba9;" horiz-adv-x="2375" 
d="M1374 -20q-159 0 -252.5 113t-93.5 310q0 159 63.5 293.5t178.5 231.5q-168 92 -367 92q-143 0 -266.5 -43.5t-209.5 -118.5t-139 -173.5t-65 -209.5q29 78 108 123t167 45q137 0 235 -91.5t98 -240.5q0 -142 -95 -236.5t-247 -94.5q-177 0 -276.5 120t-99.5 332
q0 199 103 359.5t284 251t405 90.5q269 0 473 -132q193 111 443 111h514v-111h-205v-1001h-127v1001h-178q-199 0 -348 -73q115 -103 177 -239.5t62 -280.5q0 -191 -89.5 -309.5t-252.5 -118.5zM1374 92q108 0 163.5 86.5t55.5 229.5q0 131 -59 249t-166 203
q-105 -83 -161 -202t-56 -255q0 -146 57.5 -228.5t165.5 -82.5zM262 311q0 -100 62 -160.5t163 -60.5q100 0 161 60.5t61 160.5q0 99 -62 160t-162 61q-101 0 -162 -60.5t-61 -160.5z" />
    <glyph glyph-name="tmPA" unicode="&#xbaa;" horiz-adv-x="1579" 
d="M1384 0l-1189 -2v1112l127 2v-1001h935v1001h127v-1112z" />
    <glyph glyph-name="tmMA" unicode="&#xbae;" horiz-adv-x="1814" 
d="M1130 0h-935v1112h127v-1001h544v673q0 63 17.5 121.5t54 111.5t103 84.5t155.5 31.5q109 0 200.5 -49.5t150.5 -132.5t91.5 -189t32.5 -221q0 -253 -136 -397t-405 -144zM991 784l2 -673h117q221 0 327.5 106t106.5 324q0 90 -20 172.5t-60 152.5t-109 112t-157 42
q-104 0 -155.5 -62t-51.5 -174z" />
    <glyph glyph-name="tmYA" unicode="&#xbaf;" horiz-adv-x="1882" 
d="M1688 0h-916v111q-97 -131 -258 -131q-164 0 -252 105t-88 284v743h119v-743q0 -134 57 -206.5t174 -72.5q116 0 178 73.5t62 205.5v743h127v-1001h670v1001h127v-1112z" />
    <glyph glyph-name="tmRA" unicode="&#xbb0;" horiz-adv-x="1157" 
d="M195 0v1112h921v-111h-205v-909l-247 -465h-150l270 500v874h-462v-1001h-127z" />
    <glyph glyph-name="tmRRA" unicode="&#xbb1;" horiz-adv-x="1687" 
d="M131 -463v117q112 41 240 41q84 0 221.5 -11.5t228.5 -11.5q138 0 242.5 46t169.5 123t106 189.5t56.5 232t15.5 263.5q0 82 -6.5 148.5t-24.5 133.5t-47 112t-78.5 73.5t-115.5 28.5q-111 0 -169.5 -80t-58.5 -199v-743h-118v743q0 132 -62 205.5t-178 73.5
q-117 0 -174 -72.5t-57 -206.5v-743h-119v743q0 179 88 284.5t252 105.5q126 0 205 -59.5t104 -151.5q27 92 104 151.5t183 59.5t184 -47t123 -131.5t66.5 -191t21.5 -237.5q0 -159 -22.5 -296.5t-75 -262.5t-133 -213t-203.5 -140t-279 -52q-99 0 -241.5 10t-210.5 10
q-120 0 -238 -45z" />
    <glyph glyph-name="tmLA" unicode="&#xbb2;" horiz-adv-x="1935" 
d="M113 483q0 298 151 474t424 176q131 0 230.5 -40.5t160 -113t91 -167t30.5 -208.5v-258q0 -123 53 -188.5t152 -65.5q73 0 125.5 36t81 100t41 138t12.5 164q0 306 -156 582h133q150 -289 150 -582q0 -90 -12 -168t-40.5 -149.5t-72 -122t-111 -80.5t-153.5 -30
q-148 0 -240 91.5t-92 276.5l2 256q0 201 -97.5 308.5t-289.5 107.5q-97 0 -176.5 -31t-132 -83t-88.5 -121.5t-52 -144.5t-16 -155v-39q27 90 105.5 143.5t191.5 53.5q139 0 236.5 -91.5t97.5 -240.5q0 -142 -96 -236.5t-248 -94.5q-179 0 -287 141t-108 362zM283 311
q0 -100 61 -160.5t162 -60.5q100 0 161.5 60.5t61.5 160.5t-61.5 160.5t-161.5 60.5q-101 0 -162 -60.5t-61 -160.5z" />
    <glyph glyph-name="tmLLA" unicode="&#xbb3;" horiz-adv-x="2039" 
d="M508 -20q-179 0 -287 141t-108 362q0 299 148 474.5t411 175.5q139 0 248.5 -61t156.5 -150v190h922v-111h-205v-1001h-127v1001h-463v-1001h-127v588q0 200 -107 316t-300 116q-91 0 -167 -31t-127.5 -83t-87 -121.5t-51.5 -145t-16 -154.5v-39q27 90 105.5 143.5
t191.5 53.5q139 0 236.5 -91.5t97.5 -240.5q0 -142 -96 -236.5t-248 -94.5zM283 311q0 -100 61 -160.5t162 -60.5q100 0 161.5 60.5t61.5 160.5t-61.5 160.5t-161.5 60.5q-101 0 -162 -60.5t-61 -160.5z" />
    <glyph glyph-name="tmLLLA" unicode="&#xbb4;" horiz-adv-x="1814" 
d="M260 -434v131q196 -125 371 -125q131 0 303 70q10 4 46.5 19t51.5 20.5t42 14t50 13.5q-125 23 -195.5 101.5t-70.5 189.5h-663v1112h127v-1001h544v673q0 63 17.5 121.5t54 111.5t103 84.5t155.5 31.5q109 0 200.5 -49.5t150.5 -132.5t91.5 -189t32.5 -221
q0 -253 -136 -397t-405 -144h-145q9 -244 369 -244h53v-110h-33q-72 0 -141.5 -15t-106.5 -29.5t-114 -47.5q-104 -46 -191 -69.5t-190 -23.5q-204 0 -371 105zM991 784l2 -673h117q221 0 327.5 106t106.5 324q0 90 -20 172.5t-60 152.5t-109 112t-157 42q-104 0 -155.5 -62
t-51.5 -174z" />
    <glyph glyph-name="tmVA" unicode="&#xbb5;" horiz-adv-x="2000" 
d="M1679 1112h127v-1112h-774v100q65 82 109.5 200t44.5 249q0 215 -128 343t-351 128q-120 0 -216 -47t-153 -124.5t-87 -170.5t-30 -193v-39q27 90 105.5 143.5t191.5 53.5q139 0 236.5 -91.5t97.5 -240.5q0 -142 -95 -236.5t-247 -94.5q-179 0 -288 141t-109 362
q0 295 160.5 472.5t435.5 177.5q116 0 214.5 -30.5t169.5 -84.5t121 -127.5t74.5 -160t24.5 -181.5q0 -121 -36.5 -240.5t-92.5 -195.5h495v999zM283 311q0 -100 62 -160.5t163 -60.5q100 0 160.5 60.5t60.5 160.5t-61.5 160.5t-161.5 60.5q-101 0 -162 -60.5t-61 -160.5z
" />
    <glyph glyph-name="tmSHA" unicode="&#xbb6;" horiz-adv-x="2275" 
d="M1671 92q71 0 123 19t94.5 64.5t64 129t21.5 203.5v491h-514v-702q0 -104 58 -154.5t153 -50.5zM2101 1112v-606q0 -141 -31.5 -244t-90 -164t-134.5 -89.5t-172 -28.5q-157 0 -248.5 84.5t-91.5 222.5v712h-381v-493q0 -141 -31.5 -244t-90 -164t-134.5 -89.5
t-172 -28.5q-157 0 -248.5 84.5t-91.5 222.5v825h127v-815q0 -104 58 -154.5t153 -50.5q56 0 100 11t83 40t65 75t40.5 119.5t14.5 170.5v604h1276z" />
    <glyph glyph-name="tmSSA" unicode="&#xbb7;" horiz-adv-x="2621" 
d="M2519 0h-244v-422h-127v422h-1075v100q55 89 95 208t40 235q0 215 -128 346t-351 131q-120 0 -215.5 -47t-153 -124.5t-87 -170.5t-29.5 -193v-39q27 90 105.5 143.5t191.5 53.5q138 0 235.5 -91.5t97.5 -240.5q0 -142 -95 -236.5t-247 -94.5q-179 0 -288 141t-109 362
q0 295 160.5 472.5t435.5 177.5q144 0 260.5 -47.5t190.5 -129.5t113.5 -188t39.5 -225q0 -120 -35.5 -238t-85.5 -192h533q-207 109 -207 362q0 198 117 325.5t299 127.5q85 0 149.5 -30t100 -79.5t52.5 -104.5t17 -114v-487h244v-113zM2081 113h69v487q0 103 -49 159
t-147 56q-135 0 -211 -96.5t-76 -243.5q0 -175 105 -268.5t309 -93.5zM305 311q0 -100 62 -160.5t163 -60.5q100 0 161 60.5t61 160.5q0 99 -62 160t-162 61q-101 0 -162 -60.5t-61 -160.5z" />
    <glyph glyph-name="tmSA" unicode="&#xbb8;" horiz-adv-x="2560" 
d="M1481 1133q165 0 258.5 -106.5t93.5 -283.5v-397q0 -122 54 -188t153 -66q73 0 125.5 36t81 100t41 138t12.5 164q0 306 -156 582h133q150 -289 150 -582q0 -90 -12 -168t-40.5 -149.5t-72 -122t-111 -80.5t-153.5 -30q-148 0 -240 91.5t-92 276.5v395q0 134 -57 206.5
t-174 72.5q-116 0 -178 -73.5t-62 -205.5v-743h-127l2 645q0 177 -99.5 276t-279.5 99q-97 0 -177 -31t-134 -83t-91.5 -121.5t-54 -144.5t-16.5 -155v-39q27 90 105.5 143.5t191.5 53.5q139 0 236.5 -91.5t97.5 -240.5q0 -142 -96 -236.5t-248 -94.5q-179 0 -287 141
t-108 362q0 297 155 473.5t428 176.5q154 0 264.5 -65.5t163.5 -182.5q32 119 116 183.5t204 64.5zM319 311q0 -100 61.5 -160.5t162.5 -60.5q100 0 161.5 60.5t61.5 160.5t-61.5 160.5t-161.5 60.5q-101 0 -162.5 -60.5t-61.5 -160.5z" />
    <glyph glyph-name="tmHA" unicode="&#xbb9;" horiz-adv-x="3172" 
d="M113 483q0 295 160.5 472.5t435.5 177.5q116 0 214.5 -30.5t169.5 -84.5t121 -127.5t74.5 -160t24.5 -181.5q0 -121 -36.5 -240.5t-92.5 -195.5h504v630q0 179 88 284.5t252 105.5q126 0 205 -59.5t104 -151.5q27 93 104 152t182 59q106 0 184 -47t123.5 -131.5t67 -191
t21.5 -237.5q0 -476 -231 -730.5t-687 -254.5q-407 0 -883.5 20.5t-852.5 20.5q-181 0 -299 -45v117q112 41 301 41q391 0 863 -21.5t871 -21.5q409 0 602 220t193 654q0 81 -6.5 148t-24.5 134t-47.5 112t-79 73.5t-115.5 28.5q-111 0 -169 -80t-58 -199v-743h-119v743
q0 132 -61.5 205.5t-177.5 73.5q-117 0 -174.5 -72.5t-57.5 -206.5v-743h-774v100q65 82 109.5 200t44.5 249q0 215 -128 343t-351 128q-120 0 -216 -47t-153 -124.5t-87 -170.5t-30 -193v-39q27 90 105.5 143.5t191.5 53.5q139 0 236.5 -91.5t97.5 -240.5
q0 -142 -95 -236.5t-247 -94.5q-179 0 -288 141t-109 362zM283 311q0 -100 62 -160.5t163 -60.5q100 0 160.5 60.5t60.5 160.5t-61.5 160.5t-161.5 60.5q-101 0 -162 -60.5t-61 -160.5z" />
    <glyph glyph-name="tmmAA" unicode="&#xbbe;" horiz-adv-x="1157" 
d="M911 0h-127v1001h-462v-1001h-127v1112h921v-111h-205v-1001z" />
    <glyph glyph-name="tmmI" unicode="&#xbbf;" horiz-adv-x="507" 
d="M313 0h-118v1128q0 160 -103.5 255.5t-275.5 95.5q-106 0 -173 -50t-67 -145q0 -81 44.5 -126.5t131.5 -45.5v-88q-141 3 -218 74.5t-77 191.5q0 135 101 217t258 82q217 0 357 -128t140 -331v-1130z" />
    <glyph glyph-name="tmmII" unicode="&#xbc0;" horiz-adv-x="0" 
d="M-12 1536q0 66 -46 109t-147 43q-11 0 -61 -5q-8 -58 -8 -92q0 -90 37.5 -135t105.5 -45q53 0 86 34t33 91zM-252 1112l-35 -53q-69 0 -131 21t-112 61.5t-79.5 107t-29.5 150.5q0 176 124.5 284.5t307.5 108.5q147 0 228 -70.5t81 -187.5q0 -100 -62 -164.5t-173 -64.5
q-113 0 -180.5 72t-67.5 188q0 36 10 84q-69 -36 -109 -101t-40 -149q0 -132 74.5 -209.5t193.5 -77.5z" />
    <glyph glyph-name="tmmU" unicode="&#xbc1;" horiz-adv-x="0" 
d="M51 770q0 63 23.5 125.5t70.5 105.5h-669v111h909q159 0 262 -92t103 -244q0 -90 -39 -168t-120 -129t-188 -51q-157 0 -254.5 93.5t-97.5 248.5zM176 772q0 -102 61 -166.5t164 -64.5t164.5 65t61.5 166t-61.5 166.5t-164.5 65.5q-102 0 -163.5 -65t-61.5 -167z" />
    <glyph glyph-name="tmmUU" unicode="&#xbc2;" horiz-adv-x="0" 
d="M1008 496h-136q50 108 76.5 199.5t26.5 195.5q0 161 -105 261.5t-284 100.5q-207 0 -310 -141h52q99 0 181 -33t134.5 -103t52.5 -167q0 -130 -80.5 -219.5t-220.5 -89.5q-141 0 -231 96.5t-90 251.5q0 82 18 153h-493v111h534q63 122 181.5 188t273.5 66q98 0 182 -26
t144.5 -71t103 -105.5t63.5 -129.5t21 -143q0 -195 -94 -395zM393 610q86 0 133 56t47 143q0 95 -65 143.5t-180 48.5h-107q-20 -75 -20 -153q0 -108 50.5 -173t141.5 -65z" />
    <glyph glyph-name="tmmE" unicode="&#xbc6;" horiz-adv-x="1587" 
d="M1393 0h-127v1118q0 201 -98.5 311.5t-278.5 110.5q-120 0 -221 -46t-172.5 -126t-121.5 -188t-74 -231.5t-24 -256.5q0 -137 27 -252q22 104 113.5 170t214.5 66q144 0 246 -96t102 -252q0 -148 -101 -248t-260 -100q-102 0 -183 43t-132.5 113t-86 165t-48.5 191.5
t-14 199.5q0 141 26 275.5t84 260t141.5 219t209 150t276.5 56.5q126 0 223 -41.5t157.5 -115t91 -169.5t30.5 -209v-1118zM383 328q0 -105 64 -169.5t171 -64.5q104 0 169 65t65 169t-65 168.5t-169 64.5q-107 0 -171 -64t-64 -169z" />
    <glyph glyph-name="tmmEE" unicode="&#xbc7;" horiz-adv-x="1320" 
d="M844 -23q-153 0 -284.5 60.5t-225.5 168.5t-147.5 266t-53.5 345q0 241 89 431.5t251.5 297.5t370.5 107q163 0 263.5 -95t100.5 -237q0 -149 -99.5 -240.5t-242.5 -91.5q-156 0 -251 92.5t-95 237.5q0 76 29 129q-135 -89 -212 -254.5t-77 -376.5q0 -224 79.5 -387.5
t211.5 -249.5q-33 54 -33 135q0 139 96.5 232.5t251.5 93.5q143 0 242.5 -91.5t99.5 -240.5q0 -142 -100.5 -237t-263.5 -95zM639 309q0 -100 60.5 -160.5t164.5 -60.5q100 0 160.5 60.5t60.5 160.5t-61.5 160.5t-161.5 60.5q-101 0 -162 -60.5t-61 -160.5zM1085 1321
q0 100 -60.5 160.5t-160.5 60.5q-104 0 -164.5 -60.5t-60.5 -160.5t61 -160.5t162 -60.5q100 0 161.5 60.5t61.5 160.5z" />
    <glyph glyph-name="tmmAI" unicode="&#xbc8;" horiz-adv-x="2398" 
d="M1700 412q0 -189 -91 -310.5t-251 -121.5q-157 0 -253.5 121.5t-96.5 328.5q0 153 49 290.5t143 235.5q-153 64 -354 64q-145 0 -266 -47t-198 -124t-119 -171.5t-42 -192.5v-39q27 90 105.5 143.5t191.5 53.5q139 0 236.5 -91.5t97.5 -240.5q0 -142 -95 -236.5
t-247 -94.5q-179 0 -288 141t-109 362q0 193 93 341t260.5 228.5t383.5 80.5q246 0 446 -99q153 99 346 99q131 0 241 -39.5t191 -115t126 -192.5t45 -264q0 -278 -136 -522h-135q148 263 148 522q0 223 -124 360.5t-356 137.5q-128 0 -231 -53q137 -98 213 -241t76 -314z
M1577 412q0 149 -68 276t-196 209q-89 -81 -136 -202.5t-47 -264.5q0 -158 63 -248t165 -90q106 0 162.5 88t56.5 232zM283 311q0 -100 62 -160.5t163 -60.5q100 0 160.5 60.5t60.5 160.5t-61.5 160.5t-161.5 60.5q-101 0 -162 -60.5t-61 -160.5z" />
    <glyph glyph-name="tmmO" unicode="&#xbca;" horiz-adv-x="3878" 
d="M2015 184q0 -40 -26 -67t-64 -27q-40 0 -66 27t-26 67q0 37 26.5 63.5t65.5 26.5q38 0 64 -26.5t26 -63.5zM1806 338q0 -39 -25.5 -64.5t-64.5 -25.5q-40 0 -65 25t-25 65q0 39 25.5 64.5t64.5 25.5q38 0 64 -26t26 -64zM1700 575q0 -38 -25 -63t-65 -25q-38 0 -64 25
t-26 63q0 40 26 66.5t64 26.5q39 0 64.5 -26.5t25.5 -66.5zM2275 152q0 -40 -26 -65.5t-66 -25.5t-65 25.5t-25 65.5t25 65t65 25t66 -25t26 -65zM1731 834q0 -38 -27 -64.5t-64 -26.5q-40 0 -67 26.5t-27 64.5t27 64t67 26q37 0 64 -26t27 -64zM2523 260q0 -39 -26.5 -64.5
t-65.5 -25.5t-64.5 25.5t-25.5 64.5q0 38 26 64t64 26t65 -26t27 -64zM1894 1059q0 -40 -25 -66t-65 -26t-65 26t-25 66q0 39 25.5 64.5t64.5 25.5t64.5 -25.5t25.5 -64.5zM2671 461q0 -38 -25.5 -64t-62.5 -26q-40 0 -66.5 26t-26.5 64q0 40 26.5 66t66.5 26
q37 0 62.5 -26.5t25.5 -65.5zM2136 1147q0 -40 -25 -65t-65 -25t-65 25t-25 65t25 65t65 25t65 -25t25 -65zM2691 735q0 -39 -25.5 -64.5t-64.5 -25.5q-40 0 -65 25t-25 65t25 65t65 25q39 0 64.5 -25.5t25.5 -64.5zM2394 1116q0 -37 -25 -63.5t-63 -26.5q-39 0 -65.5 26.5
t-26.5 63.5q0 40 26 66t66 26q38 0 63 -26t25 -66zM2589 977q0 -39 -25.5 -64.5t-64.5 -25.5q-38 0 -64.5 26t-26.5 64q0 39 26 65.5t65 26.5q40 0 65 -26t25 -66zM1393 0h-127v1118q0 201 -98.5 311.5t-278.5 110.5q-120 0 -221 -46t-172.5 -126t-121.5 -188t-74 -231.5
t-24 -256.5q0 -137 27 -252q22 104 113.5 170t214.5 66q144 0 246 -96t102 -252q0 -148 -101 -248t-260 -100q-102 0 -183 43t-132.5 113t-86 165t-48.5 191.5t-14 199.5q0 141 26 275.5t84 260t141.5 219t209 150t276.5 56.5q126 0 223 -41.5t157.5 -115t91 -169.5
t30.5 -209v-1118zM383 328q0 -105 64 -169.5t171 -64.5q104 0 169 65t65 169t-65 168.5t-169 64.5q-107 0 -171 -64t-64 -169zM3621 0h-127v1001h-463v-1001h-127v1112h922v-111h-205v-1001z" />
    <glyph glyph-name="tmmOO" unicode="&#xbcb;" horiz-adv-x="3659" 
d="M1796 184q0 -40 -26 -67t-64 -27q-40 0 -66 27t-26 67q0 37 26.5 63.5t65.5 26.5q38 0 64 -26.5t26 -63.5zM1587 338q0 -39 -25.5 -64.5t-64.5 -25.5q-40 0 -65 25t-25 65q0 39 25.5 64.5t64.5 25.5q38 0 64 -26t26 -64zM1481 575q0 -38 -25 -63t-65 -25q-39 0 -65 25
t-26 63q0 40 26.5 66.5t64.5 26.5q39 0 64.5 -26.5t25.5 -66.5zM2056 152q0 -40 -26 -65.5t-66 -25.5t-65 25.5t-25 65.5t25 65t65 25t66 -25t26 -65zM1511 834q0 -38 -26.5 -64.5t-63.5 -26.5q-40 0 -67 26.5t-27 64.5t27 64t67 26q37 0 63.5 -26t26.5 -64zM2304 260
q0 -39 -26.5 -64.5t-65.5 -25.5t-64.5 25.5t-25.5 64.5q0 38 26 64t64 26t65 -26t27 -64zM1675 1059q0 -40 -25 -66t-65 -26t-65 26t-25 66q0 39 25.5 64.5t64.5 25.5t64.5 -25.5t25.5 -64.5zM2451 461q0 -38 -25.5 -64t-62.5 -26q-40 0 -66 26t-26 64q0 40 26 66t66 26
q37 0 62.5 -26.5t25.5 -65.5zM1917 1147q0 -40 -25 -65t-65 -25t-65 25t-25 65t25 65t65 25t65 -25t25 -65zM2472 735q0 -39 -25.5 -64.5t-64.5 -25.5q-40 0 -65 25t-25 65t25 65t65 25q39 0 64.5 -25.5t25.5 -64.5zM2175 1116q0 -37 -25 -63.5t-63 -26.5q-39 0 -65.5 26.5
t-26.5 63.5q0 40 26 66t66 26q38 0 63 -26t25 -66zM2370 977q0 -39 -26 -64.5t-65 -25.5q-38 0 -64 26t-26 64q0 40 26 66t64 26q40 0 65.5 -26t25.5 -66zM844 -23q-153 0 -284.5 60.5t-225.5 168.5t-147.5 266t-53.5 345q0 241 89 431.5t251.5 297.5t370.5 107
q163 0 263.5 -95t100.5 -237q0 -149 -99.5 -240.5t-242.5 -91.5q-156 0 -251 92.5t-95 237.5q0 76 29 129q-135 -89 -212 -254.5t-77 -376.5q0 -224 79.5 -387.5t211.5 -249.5q-33 54 -33 135q0 139 96.5 232.5t251.5 93.5q143 0 242.5 -91.5t99.5 -240.5
q0 -142 -100.5 -237t-263.5 -95zM639 309q0 -100 60.5 -160.5t164.5 -60.5q100 0 160.5 60.5t60.5 160.5t-61.5 160.5t-161.5 60.5q-101 0 -162 -60.5t-61 -160.5zM1085 1321q0 100 -60.5 160.5t-160.5 60.5q-104 0 -164.5 -60.5t-60.5 -160.5t61 -160.5t162 -60.5
q100 0 161.5 60.5t61.5 160.5zM3402 0h-127v1001h-463v-1001h-127v1112h922v-111h-205v-1001z" />
    <glyph glyph-name="tmmAU" unicode="&#xbcc;" horiz-adv-x="4788" 
d="M2015 184q0 -40 -26 -67t-64 -27q-40 0 -66 27t-26 67q0 37 26.5 63.5t65.5 26.5q38 0 64 -26.5t26 -63.5zM1806 338q0 -39 -25.5 -64.5t-64.5 -25.5q-40 0 -65 25t-25 65q0 39 25.5 64.5t64.5 25.5q38 0 64 -26t26 -64zM1700 575q0 -38 -25 -63t-65 -25q-38 0 -64 25
t-26 63q0 40 26 66.5t64 26.5q39 0 64.5 -26.5t25.5 -66.5zM2275 152q0 -40 -26 -65.5t-66 -25.5t-65 25.5t-25 65.5t25 65t65 25t66 -25t26 -65zM1731 834q0 -38 -27 -64.5t-64 -26.5q-40 0 -67 26.5t-27 64.5t27 64t67 26q37 0 64 -26t27 -64zM2523 260q0 -39 -26.5 -64.5
t-65.5 -25.5t-64.5 25.5t-25.5 64.5q0 38 26 64t64 26t65 -26t27 -64zM1894 1059q0 -40 -25 -66t-65 -26t-65 26t-25 66q0 39 25.5 64.5t64.5 25.5t64.5 -25.5t25.5 -64.5zM2671 461q0 -38 -25.5 -64t-62.5 -26q-40 0 -66.5 26t-26.5 64q0 40 26.5 66t66.5 26
q37 0 62.5 -26.5t25.5 -65.5zM2136 1147q0 -40 -25 -65t-65 -25t-65 25t-25 65t25 65t65 25t65 -25t25 -65zM2691 735q0 -39 -25.5 -64.5t-64.5 -25.5q-40 0 -65 25t-25 65t25 65t65 25q39 0 64.5 -25.5t25.5 -64.5zM2394 1116q0 -37 -25 -63.5t-63 -26.5q-39 0 -65.5 26.5
t-26.5 63.5q0 40 26 66t66 26q38 0 63 -26t25 -66zM2589 977q0 -39 -25.5 -64.5t-64.5 -25.5q-38 0 -64.5 26t-26.5 64q0 39 26 65.5t65 26.5q40 0 65 -26t25 -66zM1393 0h-127v1118q0 201 -98.5 311.5t-278.5 110.5q-120 0 -221 -46t-172.5 -126t-121.5 -188t-74 -231.5
t-24 -256.5q0 -137 27 -252q22 104 113.5 170t214.5 66q144 0 246 -96t102 -252q0 -148 -101 -248t-260 -100q-102 0 -183 43t-132.5 113t-86 165t-48.5 191.5t-14 199.5q0 141 26 275.5t84 260t141.5 219t209 150t276.5 56.5q126 0 223 -41.5t157.5 -115t91 -169.5
t30.5 -209v-1118zM383 328q0 -105 64 -169.5t171 -64.5q104 0 169 65t65 169t-65 168.5t-169 64.5q-107 0 -171 -64t-64 -169zM3256 -20q-179 0 -287 141t-108 362q0 299 148 474.5t411 175.5q139 0 249 -61t157 -150v190h921v-111h-205v-1001h-127v1001h-462v-1001h-127
v588q0 200 -107.5 316t-300.5 116q-91 0 -167 -31t-127 -83t-86.5 -121.5t-51.5 -145t-16 -154.5v-39q27 90 105.5 143.5t191.5 53.5q138 0 235.5 -91.5t97.5 -240.5q0 -142 -96 -236.5t-248 -94.5zM3031 311q0 -100 61 -160.5t162 -60.5q100 0 162 61t62 160t-62 160
t-162 61q-101 0 -162 -60.5t-61 -160.5z" />
    <glyph glyph-name="tmVirama" unicode="&#xbcd;" horiz-adv-x="0" 
d="M94 1354q0 -38 -27.5 -66t-64.5 -28q-38 0 -66 28t-28 66q0 37 28 64.5t66 27.5q37 0 64.5 -27.5t27.5 -64.5z" />
    <glyph glyph-name="tmOm" unicode="&#xbd0;" horiz-adv-x="2166" 
d="M1784 -264q-77 -86 -132.5 -141t-136 -116.5t-159 -96t-186 -57.5t-232.5 -23q-342 0 -546 164t-204 430q0 236 144 323q-72 50 -112 134t-40 190q0 97 39 181t107.5 144.5t157.5 108t192.5 76t209 43t210.5 14.5q158 0 302 -33t253 -90t189.5 -131.5t122.5 -160
t42 -173.5q0 -124 -80.5 -212.5t-210.5 -88.5q-98 0 -170 60t-84 163q-12 -56 -12 -110q0 -84 41 -149t112 -103t159.5 -57t191.5 -19h94v-100h-29q-25 0 -50 -9.5t-43 -20.5t-46.5 -39t-43 -44t-50.5 -57zM967 -211v340q0 49 11 92t35.5 83t73 63.5t115.5 23.5
q79 0 141 -35q7 149 105 314h111q-33 -78 -33 -156q0 -85 48.5 -137.5t131.5 -52.5q89 0 134.5 55t45.5 145q0 87 -43.5 164.5t-119.5 134t-176 98t-215.5 62.5t-235.5 21q-129 0 -251.5 -21.5t-232.5 -64.5t-190.5 -115t-112.5 -164q36 52 99 82.5t131 30.5q127 0 214 -85
t87 -212q0 -92 -44 -163t-122 -106q74 -77 74 -206v-193zM1075 129l2 -338h88q226 0 226 262q0 100 -46 170t-141 70q-71 0 -100 -39.5t-29 -124.5zM938 -596q109 0 202 19t166.5 50.5t146 86t130.5 112.5t131 144q65 78 117 104q-198 10 -330 109q-3 -64 -21 -120
t-53 -105.5t-97.5 -79t-145.5 -29.5l-547 -4v289q0 81 -36.5 129.5t-115.5 48.5q-80 0 -132 -66t-52 -192q0 -218 166.5 -357t470.5 -139zM326 455q0 -87 53 -139t149 -52t146.5 52t50.5 139t-50.5 138.5t-146.5 51.5t-149 -53t-53 -137zM1219 745q0 -47 -33.5 -80.5
t-79.5 -33.5q-47 0 -81 33.5t-34 80.5q0 46 34 79.5t81 33.5q46 0 79.5 -33.5t33.5 -79.5z" />
    <glyph glyph-name="tmAUlengthmark" unicode="&#xbd7;" horiz-adv-x="2039" 
d="M508 -20q-179 0 -287 141t-108 362q0 299 148 474.5t411 175.5q139 0 248.5 -61t156.5 -150v190h922v-111h-205v-1001h-127v1001h-463v-1001h-127v588q0 200 -107 316t-300 116q-91 0 -167 -31t-127.5 -83t-87 -121.5t-51.5 -145t-16 -154.5v-39q27 90 105.5 143.5
t191.5 53.5q139 0 236.5 -91.5t97.5 -240.5q0 -142 -96 -236.5t-248 -94.5zM283 311q0 -100 61 -160.5t162 -60.5q100 0 161.5 60.5t61.5 160.5t-61.5 160.5t-161.5 60.5q-101 0 -162 -60.5t-61 -160.5z" />
    <glyph glyph-name="tmZero" unicode="&#xbe6;" horiz-adv-x="1187" 
d="M1034 557q0 -167 -49.5 -296t-150.5 -205t-240 -76t-240 76t-150.5 205t-49.5 296q0 166 49.5 295t150.5 205t240 76t240 -76t150.5 -205t49.5 -295zM272 557q0 -100 19 -183.5t56.5 -149t100.5 -102t146 -36.5t145.5 36.5t100.5 102t56.5 149t18.5 183.5
q0 99 -18.5 182.5t-56.5 148.5t-100.5 101.5t-145.5 36.5t-146 -36.5t-100.5 -101.5t-56.5 -148.5t-19 -182.5z" />
    <glyph glyph-name="tmOne" unicode="&#xbe7;" horiz-adv-x="1529" 
d="M1051 664q183 0 279.5 -96t96.5 -246q0 -151 -101.5 -253t-283.5 -102q-39 0 -53 2v113q16 -2 53 -2q132 0 199.5 65.5t67.5 180.5q0 106 -64 166.5t-196 60.5h-74v-78q0 -103 -31 -192t-90 -157t-153.5 -107t-213.5 -39q-186 0 -285.5 95.5t-99.5 239.5q0 125 65 214.5
t189 119.5v463h824v-111h-205v-337h76zM479 664h377v337h-381v-337h4zM487 90q184 0 276.5 105t92.5 278v80h-377q-128 0 -193 -62t-65 -176q0 -104 73 -164.5t193 -60.5z" />
    <glyph glyph-name="tmTwo" unicode="&#xbe8;" horiz-adv-x="1775" 
d="M442 426q203 0 298.5 85.5t95.5 231.5q0 130 -92 203.5t-246 73.5q-98 0 -157.5 -42.5t-59.5 -123.5q0 -80 55 -117t145 -37q99 0 193 37v-110q-70 -39 -195 -39q-86 0 -157.5 27t-119.5 89t-48 150q0 126 98 202.5t246 76.5q211 0 338 -113t127 -277
q0 -193 -135.5 -311.5t-372.5 -118.5h-103q-143 0 -143 -100q0 -47 35.5 -73.5t107.5 -26.5h1383v-113h-1389q-137 0 -200.5 59.5t-63.5 153.5q0 90 68 151.5t202 61.5h90z" />
    <glyph glyph-name="tmThree" unicode="&#xbe9;" horiz-adv-x="1878" 
d="M874 1001v-337q29 60 95.5 98.5t142.5 38.5q148 0 241 -95t93 -241q0 -255 -213 -352h584v-113h-1061v113h137q208 0 317 88.5t109 263.5q0 98 -61 160.5t-162 62.5q-104 0 -163 -64.5t-59 -170.5v-21h-118v569h-443v-1001h-118v1112h884v-111h-205z" />
    <glyph glyph-name="tmFour" unicode="&#xbea;" horiz-adv-x="1597" 
d="M1376 1112h119v-559h-520v-78q0 -103 -31 -192t-90 -157t-153.5 -107t-213.5 -39q-186 0 -285.5 95.5t-99.5 239.5q0 125 65 214.5t189 119.5v463h803v-111h-184v-337h401v448zM479 664h377v337h-381v-337h4zM487 90q184 0 276.5 105t92.5 278v80h-377q-128 0 -193 -62
t-65 -176q0 -104 73 -164.5t193 -60.5z" />
    <glyph glyph-name="tmFive" unicode="&#xbeb;" horiz-adv-x="2289" 
d="M1536 0h-127v1001h-463v-1001h-127v1112h922v-111h-205v-426q33 62 104.5 109t169.5 47q158 0 257.5 -111.5t99.5 -302.5q0 -176 -64.5 -329t-183 -266.5t-299 -178.5t-401.5 -65q-241 0 -441.5 79t-336.5 218.5t-211.5 334t-75.5 422.5q0 178 43 339t130.5 295.5
t210.5 233t292.5 153.5t367.5 55q283 0 543 -92v-119q-239 98 -543 98q-176 0 -325 -49t-257.5 -137t-184 -208.5t-113 -264.5t-37.5 -304q0 -206 66 -380t186 -298.5t296.5 -194t389.5 -69.5q198 0 355.5 55.5t258.5 154.5t154 231t53 288q0 152 -70 227t-184 75
q-105 0 -177.5 -78.5t-72.5 -194.5v-348z" />
    <glyph glyph-name="tmSix" unicode="&#xbec;" horiz-adv-x="2514" 
d="M2454 0h-556v100q121 167 121 334q0 131 -75.5 208t-210.5 77q-129 0 -210 -89.5t-81 -250.5v-379h-127l2 387q0 166 -166 166h-176v-78q0 -103 -31 -192t-90 -157t-153.5 -107t-213.5 -39q-186 0 -285.5 95.5t-99.5 239.5q0 125 65 214.5t189 119.5v463h824v-111h-205
v-337h184q148 0 209 -91q45 123 144 190.5t223 67.5q97 0 176.5 -33t130 -89t77.5 -126.5t27 -148.5q0 -85 -28 -171t-72 -150h408v-113zM479 664h377v337h-381v-337h4zM487 90q184 0 276.5 105t92.5 278v80h-377q-128 0 -193 -62t-65 -176q0 -104 73 -164.5t193 -60.5z" />
    <glyph glyph-name="tmSeven" unicode="&#xbed;" horiz-adv-x="1458" 
d="M831 311q0 -142 -96 -236.5t-248 -94.5q-176 0 -275 122.5t-99 335.5q0 323 180.5 498.5t501.5 175.5h622v-113h-205v-999h-127v999h-292q-278 0 -419 -137t-153 -391q28 80 107.5 126t169.5 46q137 0 235 -91.5t98 -240.5zM262 311q0 -100 61 -160.5t162 -60.5
q100 0 162 61t62 160t-62 160t-162 61q-101 0 -162 -60.5t-61 -160.5z" />
    <glyph glyph-name="tmEight" unicode="&#xbee;" horiz-adv-x="2019" 
d="M719 778q0 -120 63 -190h473q2 18 2 57q0 106 -31.5 188.5t-101.5 134.5t-172 52q-109 0 -171 -68t-62 -174zM764 152q400 0 475 327l-1051 -2q83 -140 236.5 -232.5t339.5 -92.5zM1825 0h-127v479h-330q-41 -204 -189 -322t-415 -118q-244 0 -429.5 115.5t-273.5 289.5
v144h592q-61 69 -61 192q0 68 25 131t69.5 112.5t114 79.5t151.5 30q87 0 159.5 -28t122 -75t84 -110t50.5 -132t16 -143q0 -39 -2 -57h316v524h127v-1112z" />
    <glyph glyph-name="tmNine" unicode="&#xbef;" horiz-adv-x="2557" 
d="M479 664h377v337h-381v-337h4zM1939 328q0 -91 -35 -168.5t-110.5 -128.5t-179.5 -51q-166 0 -269.5 109t-103.5 292q0 82 23 172h-289v-78q0 -103 -31 -192t-90 -157t-153.5 -107t-213.5 -39q-186 0 -285.5 95.5t-99.5 239.5q0 125 65 214.5t189 119.5v463h824v-111
h-205v-337h328q69 149 203 237t317 88q130 0 240 -43t184 -116.5t115.5 -172t41.5 -208.5q0 -247 -110 -449h-129q112 232 112 449q0 193 -129 310.5t-327 117.5q-135 0 -231.5 -57t-151.5 -156h96q81 0 152 -19.5t128.5 -58.5t91 -105.5t33.5 -152.5zM1612 90
q102 0 153.5 68.5t51.5 169.5q0 225 -283 225h-143q-23 -90 -23 -172q0 -129 65 -210t179 -81zM487 90q184 0 276.5 105t92.5 278v80h-377q-128 0 -193 -62t-65 -176q0 -104 73 -164.5t193 -60.5z" />
    <glyph glyph-name="tmTen" unicode="&#xbf0;" horiz-adv-x="1687" 
d="M1122 1470h140q66 -100 124 -228.5t103 -308t45 -347.5q0 -131 -21.5 -237.5t-66.5 -191t-123 -131t-184 -46.5t-183 59t-104 151q-25 -92 -104 -151t-205 -59q-164 0 -252 105t-88 284v743h119v-743q0 -134 57 -206.5t174 -72.5q116 0 178 73.5t62 205.5v743h118v-743
q0 -119 58.5 -199t169.5 -80q66 0 115.5 28.5t78.5 73.5t47 112t24.5 133.5t6.5 148.5q0 122 -25.5 250t-69.5 243t-92 210.5t-102 180.5z" />
    <glyph glyph-name="tmOnehundred" unicode="&#xbf1;" horiz-adv-x="1783" 
d="M1722 1112v-111h-204v-1001h-119v1001h-248q-112 0 -169.5 -71t-57.5 -187v-743h-119v743q0 131 -66.5 205t-183.5 74q-118 0 -180 -73.5t-62 -205.5v-743h-118v743q0 178 92.5 284t257.5 106q127 0 210.5 -60t108.5 -151q26 89 102 139.5t185 50.5h571z" />
    <glyph glyph-name="tmOnethousand" unicode="&#xbf2;" horiz-adv-x="2193" 
d="M479 664h377v337h-381v-337h4zM487 90q184 0 276.5 105t92.5 278v80h-377q-128 0 -193 -62t-65 -176q0 -104 73 -164.5t193 -60.5zM1952 664v-111h-189v-197q157 -20 245.5 -118t88.5 -248q0 -207 -121.5 -326t-349.5 -119q-79 0 -188.5 12.5t-157.5 12.5
q-155 0 -262 -43v117q100 39 264 39q63 0 168 -13.5t176 -13.5q356 0 356 336q0 106 -57.5 172.5t-161.5 83.5q-1 -91 -18 -164.5t-55.5 -137.5t-110 -100t-170.5 -36q-155 0 -235 75.5t-80 192.5q0 126 91 204t247 78h208v193h-665v-78q0 -103 -31 -192t-90 -157
t-153.5 -107t-213.5 -39q-186 0 -285.5 95.5t-99.5 239.5q0 125 65 214.5t189 119.5v463h824v-111h-205v-337h977zM1409 -80q57 0 99 18.5t67 48.5t40 75t20 90t5 102h-208q-103 0 -161.5 -44.5t-58.5 -131.5q0 -79 53.5 -118.5t143.5 -39.5z" />
    <glyph glyph-name="tmDay" unicode="&#xbf3;" horiz-adv-x="1794" 
d="M1733 0h-701v100q65 82 109.5 200t44.5 249q0 215 -128 343t-351 128q-120 0 -216 -47t-153 -124.5t-87 -170.5t-30 -193v-39q27 90 105.5 143.5t191.5 53.5q139 0 236.5 -91.5t97.5 -240.5q0 -142 -95 -236.5t-247 -94.5q-179 0 -288 141t-109 362q0 295 160.5 472.5
t435.5 177.5q116 0 214.5 -30.5t169.5 -84.5t121 -127.5t74.5 -160t24.5 -181.5q0 -121 -36.5 -240.5t-92.5 -195.5h549v-113zM283 311q0 -100 62 -160.5t163 -60.5q100 0 160.5 60.5t60.5 160.5t-61.5 160.5t-161.5 60.5q-101 0 -162 -60.5t-61 -160.5z" />
    <glyph glyph-name="tmMonth" unicode="&#xbf4;" horiz-adv-x="2367" 
d="M1634 1223q54 0 84.5 34t30.5 93q0 68 -50.5 117.5t-137.5 64.5q-52 -65 -52 -160q0 -75 35.5 -112t89.5 -37zM1395 1372q0 92 41 166q-98 -10 -149.5 -66.5t-51.5 -138.5q0 -122 80 -217q165 -46 260.5 -208.5t95.5 -366.5q0 -253 -136 -397t-405 -144h-935v1112h127
v-1001h544v673q0 61 16 117.5t50 108.5t95.5 85.5t143.5 37.5q-55 83 -55 198q0 144 100 226.5t265 82.5q27 0 39 -2q105 84 252 84q224 0 303 -178q26 75 93.5 122.5t178.5 47.5v-104h-27q-93 0 -137.5 -60.5t-44.5 -160.5v-250h-115v250q0 100 -68 166.5t-186 66.5
q-55 0 -98 -14q91 -34 142 -101.5t51 -156.5q0 -99 -61 -166.5t-171 -67.5t-173.5 73.5t-63.5 182.5zM991 784l2 -673h117q221 0 327.5 106t106.5 324q0 90 -20 172.5t-60 152.5t-109 112t-157 42q-104 0 -155.5 -62t-51.5 -174z" />
    <glyph glyph-name="tmYear" unicode="&#xbf5;" horiz-adv-x="4603" 
d="M590 483q0 295 160.5 472.5t435.5 177.5q116 0 214.5 -30.5t169.5 -84.5t121 -127.5t74.5 -160t24.5 -181.5q0 -121 -36.5 -240.5t-92.5 -195.5h493v999h922v-111h-205v-426q33 62 105 109t170 47q158 0 257 -112t99 -304q0 -150 -62.5 -284t-195.5 -249t-325 -199
t-466 -131.5t-604 -47.5q-398 0 -721.5 71.5t-557 209.5t-361 351.5t-127.5 485.5q0 196 77 367t229 307.5t367.5 234.5t503.5 150.5t627 52.5q892 0 1379.5 -260.5t560.5 -750.5l28 -191q13 -87 30.5 -147t46 -108.5t72 -71.5t103.5 -23q234 0 242 496q1 117 -35 272
t-82 262h121q52 -115 80.5 -262t28.5 -275t-21 -234.5t-63 -189.5t-111.5 -129.5t-161.5 -46.5q-305 0 -362 433l-23 170q-24 180 -105.5 326t-229.5 262.5t-358.5 195t-497.5 120.5t-642 42q-322 0 -593.5 -48t-471.5 -137t-340 -213t-210 -276.5t-70 -327.5
q0 -152 43 -282.5t121.5 -232.5t192.5 -184t253.5 -139t306 -95t348.5 -56t383 -18q226 0 423.5 23t350.5 64t278.5 98.5t212.5 127t146.5 150t87 166t27.5 175.5q0 152 -70 227t-184 75q-105 0 -177.5 -78.5t-72.5 -194.5v-348h-127v1001h-463v-1001h-772v100
q65 82 109.5 200t44.5 249q0 215 -128 343t-351 128q-120 0 -216 -47t-153 -124.5t-87 -170.5t-30 -193v-39q27 90 105.5 143.5t191.5 53.5q139 0 236.5 -91.5t97.5 -240.5q0 -142 -95 -236.5t-247 -94.5q-179 0 -288 141t-109 362zM760 311q0 -100 62 -160.5t163 -60.5
q100 0 160.5 60.5t60.5 160.5t-61.5 160.5t-161.5 60.5q-101 0 -162 -60.5t-61 -160.5z" />
    <glyph glyph-name="tmDebit" unicode="&#xbf6;" horiz-adv-x="2197" 
d="M2003 -336h-33h-618q-56 -168 -201 -264t-356 -96q-116 0 -215.5 28t-172 77t-124 105.5t-88.5 123.5v135h1056q6 47 6 98v129l-1062 -2v1112l127 2v-1001h935v1001h127v-1241q0 -51 -6 -98h498v1339h127v-1448zM795 -584q163 0 271.5 63.5t154.5 184.5l-895 -2
q67 -108 187.5 -177t281.5 -69z" />
    <glyph glyph-name="tmCredit" unicode="&#xbf7;" horiz-adv-x="3196" 
d="M3135 0h-667v100q125 176 125 379q0 179 -127 288.5t-326 109.5q-133 0 -234.5 -59.5t-156.5 -164.5q37 6 78 6q191 0 315.5 -90.5t124.5 -249.5q0 -138 -94.5 -238.5t-245.5 -100.5q-170 0 -266 114t-96 318q0 23 4 69q-144 -76 -244.5 -209.5t-112.5 -271.5h-127v999
h-292q-278 0 -419 -137t-153 -391q28 80 107.5 126t169.5 46q137 0 235 -91.5t98 -240.5q0 -142 -96 -236.5t-248 -94.5q-176 0 -275 122.5t-99 335.5q0 323 180.5 498.5t501.5 175.5h622v-113h-205v-694q58 100 160.5 182.5t224.5 128.5q60 170 208 271.5t337 101.5
q130 0 240 -41t183 -111t114 -162.5t41 -195.5q0 -109 -30.5 -204t-78.5 -162h524v-113zM1927 90q99 0 158 66.5t59 162.5q0 110 -82.5 170t-234.5 60q-53 0 -123 -17q-12 -56 -12 -120q0 -152 58 -237t177 -85zM262 311q0 -100 61 -160.5t162 -60.5q100 0 162 61t62 160
t-62 160t-162 61q-101 0 -162 -60.5t-61 -160.5z" />
    <glyph glyph-name="tmAsabove" unicode="&#xbf8;" horiz-adv-x="3577" 
d="M3516 0h-241v-422h-127v422h-1057v100q104 147 104 318q0 155 -91 258.5t-242 130.5q30 -126 30 -268q0 -86 -13.5 -165.5t-43.5 -151.5t-73.5 -125.5t-107.5 -85t-141 -31.5q-159 0 -251.5 111t-92.5 280q0 226 145.5 378t379.5 175q-89 204 -270.5 318t-426.5 114
q-215 0 -386 -88.5t-268 -249.5t-97 -367q0 -134 35 -241q15 116 109 191t231 75q144 0 246 -96t102 -252q0 -148 -101 -248t-260 -100q-122 0 -217.5 58.5t-152.5 155.5t-86 213.5t-29 243.5q0 164 61 311.5t171 260t277 179t367 66.5q305 0 518 -145.5t308 -396.5
q149 -12 263 -84.5t173 -183t59 -240.5q0 -82 -24 -163t-64 -142h514q-206 108 -206 362q0 198 117 325.5t298 127.5q85 0 149.5 -30t100.5 -79.5t53 -104.5t17 -114v-487h241v-113zM373 328q0 -105 64 -169.5t171 -64.5q104 0 169 65t65 169t-65 168.5t-169 64.5
q-107 0 -171 -64t-64 -169zM1511 90q70 0 122 37.5t80.5 103t42 142.5t13.5 166q0 152 -36 276q-205 -10 -321 -132t-116 -312q0 -122 55.5 -201.5t159.5 -79.5zM3080 113h70v487q0 103 -49.5 159t-147.5 56q-135 0 -211 -96.5t-76 -243.5q0 -175 105 -268.5t309 -93.5z" />
    <glyph glyph-name="tmRupee" unicode="&#xbf9;" horiz-adv-x="2467" 
d="M1536 0h-127v1001h-463v-1001h-127v1112h901v-111h-184v-426q33 62 104.5 109t169.5 47q158 0 257.5 -111.5t99.5 -302.5q0 -176 -64.5 -329t-183 -266.5t-299 -178.5t-401.5 -65q-241 0 -441.5 79t-336.5 218.5t-211.5 334t-75.5 422.5q0 178 43 339t130.5 295.5
t210.5 233t292.5 153.5t367.5 55q170 0 313 -31q40 94 127.5 145.5t210.5 51.5q178 0 279.5 -102.5t101.5 -260.5q0 -84 -27 -163t-73 -136h276v-111h-446v99q143 136 143 311q0 115 -65.5 182.5t-190.5 67.5q-106 0 -171.5 -58.5t-86.5 -158.5q-183 51 -391 51
q-176 0 -325 -49t-257.5 -137t-184 -208.5t-113 -264.5t-37.5 -304q0 -206 66 -380t186 -298.5t296.5 -194t389.5 -69.5q198 0 355.5 55.5t258.5 154.5t154 231t53 288q0 152 -70 227t-184 75q-105 0 -177.5 -78.5t-72.5 -194.5v-348z" />
    <glyph glyph-name="tmNumber" unicode="&#xbfa;" horiz-adv-x="1648" 
d="M895 1001v-426q33 62 104.5 109t169.5 47q87 0 157 -39t112.5 -104.5t65 -145t22.5 -166.5q0 -346 -204.5 -530t-565.5 -184q-99 0 -231.5 10t-200.5 10q-160 0 -287 -51v121q127 43 289 43q84 0 211.5 -11.5t218.5 -11.5q314 0 478.5 151t164.5 456q0 69 -13.5 127
t-41.5 107t-78.5 77t-118.5 28q-113 0 -182.5 -77t-69.5 -195v-346h-127v1001h-463v-1001h-127v1112h922v-111h-205z" />
    <glyph glyph-name="zerowidthnonjoiner" unicode="&#x200c;" horiz-adv-x="0" 
d="M49 -471h-96v2132h96v-2132z" />
    <glyph glyph-name="zerowidthjoiner" unicode="&#x200d;" horiz-adv-x="0" 
d="M49 -471h-96v1771l-141 -149l-68 68l190 190l-194 195l67 67l195 -194l197 194l65 -65l-196 -197l196 -195l-67 -67l-148 153v-1771z" />
    <glyph glyph-name="endash" unicode="&#x2013;" horiz-adv-x="1097" 
d="M975 498h-852v112h852v-112z" />
    <glyph glyph-name="emdash" unicode="&#x2014;" horiz-adv-x="1677" 
d="M1554 502h-1431v112h1431v-112z" />
    <glyph glyph-name="quoteleft" unicode="&#x2018;" horiz-adv-x="321" 
d="M180 985h-166l236 438h92z" />
    <glyph glyph-name="quoteright" unicode="&#x2019;" horiz-adv-x="323" 
d="M109 985h-93l162 438h166z" />
    <glyph glyph-name="quotesinglbase" unicode="&#x201a;" horiz-adv-x="323" 
d="M100 -250h-92l162 438h166z" />
    <glyph glyph-name="quotedblleft" unicode="&#x201c;" horiz-adv-x="593" 
d="M182 985h-166l236 438h92zM453 985h-166l235 438h92z" />
    <glyph glyph-name="quotedblright" unicode="&#x201d;" horiz-adv-x="591" 
d="M109 985h-93l162 438h166zM379 985h-92l162 438h165z" />
    <glyph glyph-name="quotedblbase" unicode="&#x201e;" horiz-adv-x="591" 
d="M100 -250h-92l162 438h166zM371 -250h-92l161 438h166z" />
    <glyph glyph-name="dagger" unicode="&#x2020;" horiz-adv-x="1052" 
d="M961 905h-386v-905h-116v905h-367v115h367v360h116v-360h386v-115z" />
    <glyph glyph-name="daggerdbl" unicode="&#x2021;" horiz-adv-x="1052" 
d="M961 387h-386v-387h-116v387h-367v115h367v403h-367v115h367v360h116v-360h386v-115h-386v-403h386v-115z" />
    <glyph glyph-name="bullet" unicode="&#x2022;" horiz-adv-x="931" 
d="M737 729q0 -115 -78 -193.5t-192 -78.5q-118 0 -195 78t-77 194t77 194t193 78q115 0 193.5 -78.5t78.5 -193.5z" />
    <glyph glyph-name="ellipsis" unicode="&#x2026;" horiz-adv-x="1355" 
d="M270 88q0 -44 -30 -74t-74 -30t-74.5 30t-30.5 74t30.5 74.5t74.5 30.5t74 -30.5t30 -74.5zM782 88q0 -44 -30 -74t-74 -30t-74.5 30t-30.5 74t30.5 74.5t74.5 30.5t74 -30.5t30 -74.5zM1294 88q0 -44 -30 -74t-74 -30t-74.5 30t-30.5 74t30.5 74.5t74.5 30.5t74 -30.5
t30 -74.5z" />
    <glyph glyph-name="perthousand" unicode="&#x2030;" horiz-adv-x="2373" 
d="M524 -2h-125l721 1341h127zM707 1044q0 -127 -91 -217t-217 -90q-127 0 -217 89.5t-90 217.5q0 126 90 217t217 91q126 0 217 -91t91 -217zM207 1044q0 -80 56.5 -136t135.5 -56q80 0 136.5 56.5t56.5 135.5q0 80 -57 136.5t-136 56.5t-135.5 -56.5t-56.5 -136.5z
M1554 293q0 -127 -90.5 -217t-216.5 -90q-127 0 -217 90t-90 217q0 126 90 216.5t217 90.5q126 0 216.5 -90.5t90.5 -216.5zM1055 293q0 -80 56.5 -136.5t135.5 -56.5t136 57t57 136t-56.5 135.5t-136.5 56.5q-79 0 -135.5 -56.5t-56.5 -135.5zM2322 293q0 -127 -90.5 -217
t-216.5 -90q-127 0 -217 90t-90 217q0 126 90 216.5t217 90.5q126 0 216.5 -90.5t90.5 -216.5zM1823 293q0 -80 56.5 -136.5t135.5 -56.5t136 57t57 136t-56.5 135.5t-136.5 56.5q-79 0 -135.5 -56.5t-56.5 -135.5z" />
    <glyph glyph-name="guilsinglleft" unicode="&#x2039;" horiz-adv-x="573" 
d="M211 518l301 -332h-143l-308 332l308 332h143z" />
    <glyph glyph-name="guilsinglright" unicode="&#x203a;" horiz-adv-x="567" 
d="M512 518l-307 -332h-144l301 332l-301 332h144z" />
    <glyph glyph-name="fraction" unicode="&#x2044;" horiz-adv-x="663" 
d="M-18 0h-125l934 1458h127z" />
    <glyph glyph-name="Euro" unicode="&#x20ac;" horiz-adv-x="1191" 
d="M1110 27q-84 -43 -240 -43q-197 0 -345.5 128.5t-198.5 350.5h-213v100h198q-6 49 -6 103q0 70 8 122h-200v101h217q54 217 202.5 339t352.5 122q148 0 225 -39v-121q-74 39 -213 39q-159 0 -273 -87.5t-159 -252.5h416v-101h-437q-8 -52 -8 -122q0 -54 6 -103h439v-100
h-420q45 -171 160.5 -265t265.5 -94q146 0 223 43v-120z" />
    <glyph glyph-name="indianrupee" unicode="&#x20b9;" horiz-adv-x="1097" 
d="M340 541h-57l426 -541h-158l-418 541v112h207q157 0 244 67.5t96 190.5h-547v117h539q-24 112 -107 174t-225 62h-207v116h862v-116h-342q123 -75 148 -236h194v-117h-188q-11 -167 -136.5 -268.5t-330.5 -101.5z" />
    <glyph glyph-name="uni20BA" unicode="&#x20ba;" horiz-adv-x="1183" 
d="M418 0h-90v608l-195 -102v125l195 102v172l-195 -102v125l195 102v311h125v-245l237 125v-125l-237 -125v-172l237 125v-125l-237 -125v-559q146 9 261.5 99t176.5 229.5t61 299.5h121q0 -219 -86 -389t-234.5 -262t-334.5 -92z" />
    <glyph glyph-name="uni20BD" unicode="&#x20bd;" horiz-adv-x="1216" 
d="M612 1229h-178v-592h201q166 0 259 72t93 209q0 150 -97 230.5t-278 80.5zM856 186h-422v-186h-127v186h-229v113h229v225h-229v113h229v704h291q245 0 381.5 -111.5t136.5 -307.5q0 -182 -130.5 -290t-364.5 -108h-187v-225h422v-113z" />
    <glyph glyph-name="uni2113" unicode="&#x2113;" horiz-adv-x="1015" 
d="M461 979v-412q148 54 227.5 179t79.5 288q0 105 -40.5 174.5t-113.5 69.5q-78 0 -115.5 -81t-37.5 -218zM920 55q-98 -65 -234 -65q-161 0 -255.5 96t-94.5 281v53q-46 -6 -96 -6q-89 0 -148 22v119q77 -25 146 -25q44 0 98 7v448q0 118 26.5 206.5t89.5 144t158 55.5
q73 0 128.5 -29t88.5 -80.5t49.5 -115t16.5 -138.5q0 -200 -116 -361t-316 -223v-12q0 -166 52 -248t181 -82q119 0 226 64v-111z" />
    <glyph glyph-name="trademark" unicode="&#x2122;" horiz-adv-x="1388" 
d="M631 678h-109l56 702h147l129 -368l64 -201q32 101 69 201l137 368h152l47 -702h-106l-23 342l-10 231q-18 -53 -84 -231l-123 -326h-117l-115 326l-79 231q-7 -55 -17 -231zM285 676h-105v610h-180v94h459v-94h-174v-610z" />
    <glyph glyph-name="uni2126" unicode="&#x2126;" horiz-adv-x="1593" 
d="M705 0h-592v117h338q-132 82 -200.5 235t-68.5 355q0 206 73 365t210.5 248t320.5 89q189 0 327.5 -89.5t209 -247t70.5 -365.5q0 -429 -252 -590h340v-117h-592v117q126 21 211.5 105t123.5 206.5t38 278.5q0 265 -125 422t-351 157q-220 0 -346.5 -158t-126.5 -421
q0 -233 105.5 -396.5t286.5 -193.5v-117z" />
    <glyph glyph-name="partialdiff" unicode="&#x2202;" horiz-adv-x="1036" 
d="M946 586q0 -174 -50.5 -307.5t-158 -214t-260.5 -80.5q-76 0 -141 24.5t-111 66t-78.5 97.5t-48.5 119.5t-16 130.5q0 102 37 186t98 137t136 82t155 29q178 0 295 -129q-31 136 -117 272t-183.5 231t-191.5 150h181q76 -46 155 -129.5t146.5 -187.5t110 -231t42.5 -246z
M494 102q81 0 144 38t101 104t58 148t22 177q-56 78 -137 125t-180 47q-128 0 -208.5 -86t-80.5 -233q0 -138 76 -229t205 -91z" />
    <glyph glyph-name="uni2206" unicode="&#x2206;" horiz-adv-x="1230" 
d="M61 0v117l467 1263h185l456 -1263v-117h-1108zM348 532l-149 -419h835l-147 422q-95 271 -161.5 457.5t-85.5 237.5l-19 50q-54 -139 -273 -748z" />
    <glyph glyph-name="product" unicode="&#x220f;" horiz-adv-x="1187" 
d="M332 -35q0 -342 -299 -342q-69 0 -125 23v123q52 -25 112 -25q185 0 185 201v1435h827v-1749h-127v1633h-573v-1299z" />
    <glyph glyph-name="summation" unicode="&#x2211;" horiz-adv-x="880" 
d="M209 -293h764v-117h-912v117l385 793l-385 764v116h912v-116h-764l385 -764z" />
    <glyph glyph-name="minus" unicode="&#x2212;" horiz-adv-x="1114" 
d="M991 639h-868v115h868v-115z" />
    <glyph glyph-name="uni2215" unicode="&#x2215;" horiz-adv-x="663" 
d="M-18 0h-125l934 1458h127z" />
    <glyph glyph-name="uni2219" unicode="&#x2219;" horiz-adv-x="454" 
d="M332 690q0 -44 -30.5 -74t-74.5 -30t-74 30t-30 74t30 74.5t74 30.5t74.5 -30.5t30.5 -74.5z" />
    <glyph glyph-name="radical" unicode="&#x221a;" horiz-adv-x="1507" 
d="M932 -410h-197l-418 1137h-247l22 115h322l233 -639l184 -518q60 242 148 532l491 1616h132z" />
    <glyph glyph-name="infinity" unicode="&#x221e;" horiz-adv-x="1712" 
d="M852 629q-91 -116 -189.5 -183t-220.5 -67q-161 0 -250.5 91t-89.5 239q0 146 95.5 240.5t257.5 94.5q64 0 122 -19.5t108 -57.5t89.5 -79.5t83.5 -99.5q94 124 189.5 191.5t218.5 67.5q161 0 252.5 -90.5t91.5 -235.5q0 -149 -95.5 -245.5t-257.5 -96.5
q-66 0 -123.5 18.5t-107.5 56t-88 76.5t-86 99zM225 719q0 -96 62 -164t170 -68q156 0 315 224q-28 38 -50 65t-54.5 59.5t-63 52.5t-69.5 34t-80 14q-109 0 -169.5 -60.5t-60.5 -156.5zM940 711q39 -53 68 -86t68.5 -68t84.5 -51.5t96 -16.5q110 0 169 62.5t59 161.5
q0 93 -63 158t-171 65q-49 0 -95 -19.5t-86 -55t-69.5 -70.5t-60.5 -80z" />
    <glyph glyph-name="integral" unicode="&#x222b;" horiz-adv-x="636" 
d="M377 -14q0 -141 -73.5 -225.5t-207.5 -84.5q-34 0 -84 13v123q46 -17 90 -17q62 0 106 48.5t44 144.5v1149q0 141 73 225t207 84q38 0 84 -12v-123q-43 16 -90 16q-62 0 -105.5 -48t-43.5 -144v-1149z" />
    <glyph glyph-name="approxequal" unicode="&#x2248;" horiz-adv-x="1280" 
d="M444 924q-143 0 -243 -148l-82 76q133 186 311 186q65 0 131.5 -25.5t112 -56.5t102.5 -56.5t107 -25.5q57 0 103.5 33t76.5 90l96 -65q-56 -89 -120.5 -131.5t-155.5 -42.5q-57 0 -123.5 26t-115.5 57t-105 57t-95 26zM444 516q-143 0 -243 -147l-82 75q134 187 311 187
q65 0 131.5 -25.5t112 -56.5t102.5 -56.5t107 -25.5q57 0 103.5 33t76.5 90l96 -66q-56 -89 -120.5 -131.5t-155.5 -42.5q-57 0 -123.5 26t-115.5 57t-105 57t-95 26z" />
    <glyph glyph-name="notequal" unicode="&#x2260;" horiz-adv-x="1114" 
d="M991 440h-493l-82 -184h-105l82 184h-270v115h319l125 285h-444v112h493l82 185h105l-82 -185h270v-112h-319l-125 -285h444v-115z" />
    <glyph glyph-name="lessequal" unicode="&#x2264;" horiz-adv-x="1103" 
d="M981 1001l-827 -182l827 -184v-123l-868 207v199l868 206v-123zM981 266h-868v113h868v-113z" />
    <glyph glyph-name="greaterequal" unicode="&#x2265;" horiz-adv-x="1103" 
d="M991 918v-199l-868 -207v123l827 184l-827 182v123zM991 266h-868v113h868v-113z" />
    <glyph glyph-name="lozenge" unicode="&#x25ca;" horiz-adv-x="1132" 
d="M266 690l101 -194l198 -385q66 130 201 385l100 194l-100 195l-201 385q-65 -128 -198 -385zM645 0h-168l-358 690l358 690h168l369 -690z" />
    <glyph glyph-name="dottedcircle" unicode="&#x25cc;" horiz-adv-x="1351" 
d="M586 184q0 -40 -26 -67t-64 -27q-40 0 -66.5 27t-26.5 67q0 37 27 63.5t66 26.5q38 0 64 -26.5t26 -63.5zM377 338q0 -39 -25.5 -64.5t-64.5 -25.5q-40 0 -65 25t-25 65q0 39 25.5 64.5t64.5 25.5q38 0 64 -26t26 -64zM270 575q0 -38 -25 -63t-65 -25q-38 0 -64 25
t-26 63q0 40 26 66.5t64 26.5q39 0 64.5 -26.5t25.5 -66.5zM846 152q0 -40 -26 -65.5t-66 -25.5t-65 25.5t-25 65.5t25 65t65 25t66 -25t26 -65zM301 834q0 -38 -26.5 -64.5t-63.5 -26.5q-40 0 -67 26.5t-27 64.5t27 64t67 26q37 0 63.5 -26t26.5 -64zM1094 260
q0 -39 -27 -64.5t-66 -25.5t-64.5 25.5t-25.5 64.5q0 38 26 64t64 26q39 0 66 -26t27 -64zM465 1059q0 -40 -25 -66t-65 -26t-65 26t-25 66q0 39 25.5 64.5t64.5 25.5t64.5 -25.5t25.5 -64.5zM1241 461q0 -38 -25.5 -64t-62.5 -26q-40 0 -66 26t-26 64q0 40 26 66t66 26
q37 0 62.5 -26.5t25.5 -65.5zM707 1147q0 -40 -25.5 -65t-65.5 -25t-65 25t-25 65t25 65t65 25t65.5 -25t25.5 -65zM1262 735q0 -39 -26 -64.5t-65 -25.5q-40 0 -65 25t-25 65t25 65t65 25q39 0 65 -25.5t26 -64.5zM965 1116q0 -37 -25 -63.5t-63 -26.5q-39 0 -66 26.5
t-27 63.5q0 40 26.5 66t66.5 26q38 0 63 -26t25 -66zM1159 977q0 -39 -25.5 -64.5t-64.5 -25.5q-38 0 -64 26t-26 64q0 40 26 66t64 26q40 0 65 -26t25 -66z" />
    <glyph glyph-name="fi" unicode="&#xfb01;" horiz-adv-x="1019" 
d="M377 0h-125v932h-191v106h191v111q0 142 75 225.5t216 83.5q136 0 256 -65v-123q-132 69 -262 69q-74 0 -117 -47t-43 -145v-109h487v-1038h-125v932h-362v-932z" />
    <glyph glyph-name="fl" unicode="&#xfb02;" horiz-adv-x="999" 
d="M614 932h-237v-932h-125v932h-191v106h191v111q0 143 75 226t214 83q78 0 160 -26.5t143 -65.5v-1366h-125v1300q-93 39 -172 39q-170 0 -170 -192v-109h237v-106z" />
    <glyph glyph-name="tmKSSA" horiz-adv-x="3731" 
d="M3629 0h-244v-422h-127v422h-1075v100q54 87 94.5 212.5t40.5 242.5q0 214 -127.5 339.5t-351.5 125.5q-185 0 -297.5 -95t-150.5 -261h184q81 0 152 -19.5t128.5 -58.5t91 -105.5t33.5 -152.5q0 -90 -37.5 -168t-115.5 -129t-182 -51q-126 0 -219 65.5t-139 174.5
t-46 247q0 28 4 86h-282v-78q0 -103 -31 -192t-90 -157t-153.5 -107t-213.5 -39q-186 0 -285.5 95.5t-99.5 239.5q0 125 65 214.5t189 119.5v463h823v-111h-204v-337h299q48 215 199.5 342t379.5 127q144 0 260.5 -46t190.5 -125t113.5 -183.5t39.5 -223.5t-36 -241.5
t-85 -200.5h533q-207 109 -207 362q0 198 117 325.5t299 127.5q85 0 149.5 -30t100 -79.5t52.5 -104.5t17 -114v-487h244v-113zM3191 113h69v487q0 103 -49 159t-147 56q-135 0 -211 -96.5t-76 -243.5q0 -175 105 -268.5t309 -93.5zM467 664h377v337h-381v-337h4zM1642 90
q103 0 159.5 69.5t56.5 168.5q0 225 -283 225h-203q-4 -58 -4 -86q0 -76 15.5 -141.5t47 -119.5t86 -85t125.5 -31zM475 90q184 0 276.5 105t92.5 278v80h-377q-128 0 -193 -62t-65 -176q0 -104 73 -164.5t193 -60.5z" />
    <glyph glyph-name="ITF" horiz-adv-x="3323" 
d="M2646 0h-426v1380h426v-1380zM590 0h-426v1380h426v-1380zM1104 977h-426v403h426v-403zM1618 0h-426v1380h426v-1380zM2132 977h-426v403h426v-403zM3160 487h-428v404h428v-404zM3160 977h-428v403h428v-403z" />
    <glyph glyph-name="tmKI" horiz-adv-x="1996" 
d="M1282 1112v-111h-307v-337h76q183 0 279.5 -96t96.5 -246q0 -151 -101.5 -253t-283.5 -102q-39 0 -53 2v113q16 -2 53 -2q132 0 199.5 65.5t67.5 180.5q0 106 -64 166.5t-196 60.5h-74v-78q0 -103 -31 -192t-90 -157t-153.5 -107t-213.5 -39q-186 0 -285.5 95.5
t-99.5 239.5q0 125 65 214.5t189 119.5v463h734q-45 27 -72 76.5t-27 111.5q0 124 97 206.5t245 82.5q209 0 329 -129.5t120 -329.5v-1130h-119v1128q0 154 -83 252.5t-247 98.5q-99 0 -163 -49t-64 -138q0 -82 44.5 -131t131.5 -49zM479 664h377v337h-381v-337h4zM487 90
q184 0 276.5 105t92.5 278v80h-377q-128 0 -193 -62t-65 -176q0 -104 73 -164.5t193 -60.5z" />
    <glyph glyph-name="tmNGI" horiz-adv-x="2594" 
d="M1839 1112h53v-1112h-1136v113h137q208 0 317 88.5t109 263.5q0 98 -61 160.5t-162 62.5q-104 0 -163 -64.5t-59 -170.5v-21h-118v569h-443v-1001h-118v1112h884v-111h-205v-337q29 60 95.5 98.5t142.5 38.5q148 0 241 -95t93 -241q0 -255 -213 -352h532v907
q-103 22 -162 94.5t-59 175.5q0 135 101 217t258 82q217 0 357 -128t140 -331v-1130h-119v1128q0 160 -103 255.5t-275 95.5q-106 0 -173 -50t-67 -145q0 -81 44.5 -126.5t131.5 -45.5z" />
    <glyph glyph-name="tmCI" horiz-adv-x="1792" 
d="M1296 664v-111h-321v-78q0 -103 -31 -192t-90 -157t-153.5 -107t-213.5 -39q-186 0 -285.5 95.5t-99.5 239.5q0 125 65 214.5t189 119.5v463h498q-45 27 -71.5 76.5t-26.5 111.5q0 124 98 206.5t252 82.5q211 0 341 -131t130 -328v-1130h-119v1128q0 151 -93 251
t-259 100q-105 0 -170.5 -49t-65.5 -138q0 -82 45 -131t132 -49h92v-111h-164v-337h321zM479 664h377v337h-381v-337h4zM487 90q184 0 276.5 105t92.5 278v80h-377q-128 0 -193 -62t-65 -176q0 -104 73 -164.5t193 -60.5z" />
    <glyph glyph-name="tmNYI" horiz-adv-x="2938" 
d="M2021 1112v-111h-311v-426q33 62 105 109t170 47q158 0 257 -111t99 -303q0 -181 -81 -337t-223 -266t-342 -173t-431 -63q-190 0 -360 41t-309 122t-240 195.5t-156.5 269t-55.5 334.5q0 193 60.5 373.5t148.5 298.5h137q-219 -286 -219 -672q0 -203 76.5 -365.5
t211 -267.5t315 -161t391.5 -56q277 0 493.5 91.5t336.5 258t120 379.5q0 152 -70 227t-184 75q-105 0 -177.5 -78.5t-72.5 -194.5v-348h-119v1001h-293q-280 0 -420 -140.5t-151 -399.5q25 84 105.5 133t171.5 49q137 0 233 -91.5t96 -240.5q0 -142 -94.5 -236.5
t-245.5 -94.5q-176 0 -275.5 122.5t-99.5 335.5q0 323 180.5 498.5t501.5 175.5h529q-45 27 -71.5 75.5t-26.5 110.5q0 128 109 209.5t280 81.5q172 0 310 -72t216 -200t78 -289v-1028h-119v1026q0 201 -134 327t-351 126q-124 0 -199.5 -48t-75.5 -141q0 -79 45 -128.5
t131 -49.5zM768 311q0 -100 61 -162.5t162 -62.5q100 0 161.5 62.5t61.5 162.5t-62 163t-161 63q-101 0 -162 -63t-61 -163z" />
    <glyph glyph-name="tmTTI" horiz-adv-x="1765" 
d="M1704 0h-244v-422h-127v422h-1138v1112h127v-999h610q-207 109 -207 362q0 198 117 325.5t299 127.5q85 0 149.5 -30t100 -79.5t52.5 -104.5t17 -114v-487h244v-113zM1266 113h69v487q0 103 -49 159t-147 56q-135 0 -211 -96.5t-76 -243.5q0 -175 105 -268.5t309 -93.5z
" />
    <glyph glyph-name="tmNNI" horiz-adv-x="3749" 
d="M489 -20q-177 0 -276.5 120t-99.5 332q0 198 103 359t282 251.5t397 90.5q265 0 473 -127q202 127 455 127q257 0 461 -132q193 111 444 111h145q-45 27 -71.5 76.5t-26.5 111.5q0 119 94.5 204t241.5 85q102 0 183.5 -37t133.5 -100.5t79.5 -146t27.5 -175.5v-1130h-119
v1128q0 70 -17 131t-52 111.5t-95.5 79.5t-140.5 29q-98 0 -159.5 -51.5t-61.5 -135.5q0 -82 44.5 -131t131.5 -49h135v-111h-164v-1001h-127v1001h-178q-201 0 -350 -73q115 -102 178 -237t63 -277q0 -191 -90 -312.5t-252 -121.5q-159 0 -252.5 116t-93.5 314
q0 159 63 292t179 228q-164 90 -354 90q-189 0 -353 -90q115 -101 177.5 -235t62.5 -285q0 -198 -93 -314t-251 -116q-109 0 -187.5 57t-117.5 154t-39 221q0 147 65 282.5t183 237.5q-163 88 -379 88q-139 0 -260 -43.5t-206 -118.5t-137.5 -173.5t-64.5 -209.5
q29 78 108 123t167 45q137 0 235 -91.5t98 -240.5q0 -142 -95 -236.5t-247 -94.5zM2281 92q108 0 164 89t56 233q0 129 -60 245t-166 203q-105 -81 -161 -198.5t-56 -253.5q0 -147 58 -232.5t165 -85.5zM1366 92q107 0 164 85t57 233q0 127 -55.5 245.5t-159.5 206.5
q-107 -87 -167 -203t-60 -247q0 -143 56.5 -231.5t164.5 -88.5zM262 311q0 -100 62 -160.5t163 -60.5q100 0 161 60.5t61 160.5q0 99 -62 160t-162 61q-101 0 -162 -60.5t-61 -160.5z" />
    <glyph glyph-name="tmTI" horiz-adv-x="1966" 
d="M1751 0h-119v1128q0 152 -89.5 251.5t-254.5 99.5q-106 0 -169.5 -48.5t-63.5 -138.5q0 -82 44.5 -131t131.5 -49v-111h-248v-339q210 -17 318 -149.5t108 -334.5q0 -286 -163 -452t-466 -166q-99 0 -236.5 11t-205.5 11q-160 0 -287 -51v121q127 43 289 43
q84 0 216.5 -12.5t223.5 -12.5q256 0 383 133.5t127 376.5q0 158 -76 256t-231 115v-76q0 -139 -52.5 -249t-164.5 -178t-270 -68q-186 0 -285.5 95.5t-99.5 239.5q0 117 56.5 203t164.5 123v471h706q-45 27 -71.5 76.5t-26.5 111.5q0 125 96.5 207t251.5 82
q211 0 337 -130.5t126 -328.5v-1130zM459 1001v-337h28h369v337h-397zM496 90q183 0 271.5 104t88.5 279v80h-369q-128 0 -193 -62t-65 -176q0 -104 73.5 -164.5t193.5 -60.5z" />
    <glyph glyph-name="tmNI" horiz-adv-x="2088" 
d="M1190 1112v-111h-295v-426q33 62 104.5 109t169.5 47q87 0 157 -39t112.5 -104.5t65 -145t22.5 -166.5q0 -346 -204.5 -530t-565.5 -184q-99 0 -231.5 10t-200.5 10q-160 0 -287 -51v121q127 43 289 43q84 0 211.5 -11.5t218.5 -11.5q314 0 478.5 151t164.5 456
q0 69 -13.5 127t-41.5 107t-78.5 77t-118.5 28q-113 0 -182.5 -77t-69.5 -195v-346h-127v1001h-463v-1001h-127v1112h819q-45 27 -71.5 76.5t-26.5 111.5q0 124 104 206.5t267 82.5q168 0 305.5 -67.5t218 -192t80.5 -280.5v-1049h-119v1047q0 191 -134 311.5t-351 120.5
q-114 0 -185 -48.5t-71 -138.5q0 -82 44.5 -131t131.5 -49z" />
    <glyph glyph-name="tmPI" horiz-adv-x="2086" 
d="M1384 0l-1189 -2v1112l127 2v-1001h935v905q-110 18 -165.5 91t-55.5 183q0 135 101 217t258 82q217 0 357 -128t140 -331v-1130h-118v1128q0 160 -103.5 255.5t-275.5 95.5q-106 0 -173 -50t-67 -145q0 -81 44.5 -126.5t131.5 -45.5h53v-1112z" />
    <glyph glyph-name="tmMI" horiz-adv-x="2252" 
d="M1671 541q0 -253 -136 -397t-405 -144h-935v1112h127v-1001h544v673q0 63 17.5 121.5t54 111.5t103 84.5t155.5 31.5q33 0 68 -7q-39 66 -39 148q0 137 107 226t276 89q212 0 331 -125.5t119 -333.5v-1130h-119v1128q0 165 -82 258t-249 93q-120 0 -192.5 -56.5
t-72.5 -154.5q0 -128 103 -215q107 -78 166 -216t59 -296zM991 784l2 -673h117q221 0 327.5 106t106.5 324q0 90 -20 172.5t-60 152.5t-109 112t-157 42q-104 0 -155.5 -62t-51.5 -174z" />
    <glyph glyph-name="tmYI" horiz-adv-x="2390" 
d="M2195 0h-118v1128q0 160 -103.5 255.5t-275.5 95.5q-106 0 -173 -50t-67 -145q0 -81 44.5 -126.5t131.5 -45.5h54v-1112h-916v111q-97 -131 -258 -131q-164 0 -252 105t-88 284v743h119v-743q0 -134 57 -206.5t174 -72.5q116 0 178 73.5t62 205.5v743h127v-1001h670v905
q-110 18 -166 91t-56 183q0 135 101 217t258 82q217 0 357 -128t140 -331v-1130z" />
    <glyph glyph-name="tmRI" horiz-adv-x="1603" 
d="M195 0v1112h553q-45 27 -72 76.5t-27 111.5q0 119 94.5 204t241.5 85q102 0 183.5 -37t133.5 -100.5t79.5 -146t27.5 -175.5v-1130h-119v1128q0 70 -17 131t-52 111.5t-95.5 79.5t-140.5 29q-98 0 -159.5 -51.5t-61.5 -135.5q0 -82 44.5 -131t131.5 -49h135v-111h-164
v-909l-247 -465h-150l270 500v874h-462v-1001h-127z" />
    <glyph glyph-name="tmLI" horiz-adv-x="2469" 
d="M1456 1255q0 149 100 241.5t269 92.5q212 0 331 -125.5t119 -333.5v-1130h-118v1128q0 165 -82.5 258t-249.5 93q-117 0 -183.5 -60.5t-66.5 -169.5q0 -65 24 -142.5t58.5 -151.5t68.5 -151t58 -167t24 -174q0 -96 -21 -180t-64 -153.5t-117.5 -109.5t-173.5 -40
q-71 0 -132 21.5t-109.5 64.5t-76 115.5t-27.5 166.5l3 277q0 206 -70 300.5t-244 94.5q-123 0 -220.5 -44t-160 -120.5t-97.5 -174t-42 -210.5q28 81 107 126.5t169 45.5q137 0 235.5 -91.5t98.5 -240.5q0 -142 -96 -236.5t-248 -94.5q-177 0 -276 127t-99 352
q0 196 77.5 349t221.5 239t332 86q439 0 439 -508v-279q0 -121 58.5 -187.5t158.5 -66.5q119 0 183 104.5t64 266.5q0 79 -23 165t-56.5 162t-66.5 151t-56 157.5t-23 156.5zM743 311q0 100 -61.5 160.5t-161.5 60.5q-101 0 -162 -60.5t-61 -160.5t61 -160.5t162 -60.5
q100 0 161.5 60.5t61.5 160.5z" />
    <glyph glyph-name="tmVI" horiz-adv-x="2508" 
d="M2314 0h-119v1128q0 160 -103 255.5t-275 95.5q-106 0 -173 -50t-67 -145q0 -81 44.5 -126.5t131.5 -45.5h53v-1112h-774v100q65 82 109.5 200t44.5 249q0 215 -128 343t-351 128q-120 0 -216 -47t-153 -124.5t-87 -170.5t-30 -193v-39q27 90 105.5 143.5t191.5 53.5
q139 0 236.5 -91.5t97.5 -240.5q0 -142 -95 -236.5t-247 -94.5q-179 0 -288 141t-109 362q0 295 160.5 472.5t435.5 177.5q116 0 214.5 -30.5t169.5 -84.5t121 -127.5t74.5 -160t24.5 -181.5q0 -121 -36.5 -240.5t-92.5 -195.5h495v903q-110 18 -165.5 91t-55.5 183
q0 135 101 217t258 82q217 0 357 -128t140 -331v-1130zM283 311q0 -100 62 -160.5t163 -60.5q100 0 160.5 60.5t60.5 160.5t-61.5 160.5t-161.5 60.5q-101 0 -162 -60.5t-61 -160.5z" />
    <glyph glyph-name="tmLLLI" horiz-adv-x="2260" 
d="M1427 1065q116 -75 180 -217t64 -307q0 -253 -136 -397t-405 -144h-145q9 -244 369 -244h53v-110h-33q-72 0 -141.5 -15t-106.5 -29.5t-114 -47.5q-104 -46 -191 -69.5t-190 -23.5q-204 0 -371 105v131q196 -125 371 -125q131 0 303 70q10 4 46.5 19t51.5 20.5t42 14
t50 13.5q-125 23 -195.5 101.5t-70.5 189.5h-663v1112h127v-1001h544v673q0 63 17.5 121.5t54 111.5t103 84.5t155.5 31.5q20 0 41 -3q-47 63 -47 150q0 99 56 170.5t143.5 105t193.5 33.5q225 0 354 -126t129 -333v-1130h-118v1128q0 165 -92 258t-273 93
q-53 0 -99.5 -10.5t-87 -33t-64 -64t-23.5 -97.5q0 -70 28 -118.5t90 -90.5zM991 784l2 -673h117q221 0 327.5 106t106.5 324q0 90 -20 172.5t-60 152.5t-109 112t-157 42q-104 0 -155.5 -62t-51.5 -174z" />
    <glyph glyph-name="tmLLI" horiz-adv-x="2547" 
d="M508 -20q-179 0 -287 141t-108 362q0 299 148 474.5t411 175.5q139 0 248.5 -61t156.5 -150v190h553q-45 27 -71.5 76.5t-26.5 111.5q0 119 94.5 204t241.5 85q102 0 183.5 -37t133.5 -100.5t79.5 -146t27.5 -175.5v-1130h-119v1128q0 70 -17 131t-52 111.5t-95.5 79.5
t-140.5 29q-98 0 -159.5 -51.5t-61.5 -135.5q0 -82 44.5 -131t131.5 -49h135v-111h-164v-1001h-127v1001h-463v-1001h-127v588q0 200 -107 316t-300 116q-91 0 -167 -31t-127.5 -83t-87 -121.5t-51.5 -145t-16 -154.5v-39q27 90 105.5 143.5t191.5 53.5q139 0 236.5 -91.5
t97.5 -240.5q0 -142 -96 -236.5t-248 -94.5zM283 311q0 -100 61 -160.5t162 -60.5q100 0 161.5 60.5t61.5 160.5t-61.5 160.5t-161.5 60.5q-101 0 -162 -60.5t-61 -160.5z" />
    <glyph glyph-name="tmRRI" horiz-adv-x="2193" 
d="M1978 0h-118v1128q0 165 -92 258t-273 93q-53 0 -97.5 -10.5t-83 -33t-60 -64t-21.5 -97.5q0 -65 23.5 -110.5t74.5 -84.5q104 -68 153.5 -212.5t49.5 -340.5q0 -159 -22.5 -296.5t-75 -262.5t-133 -213t-203.5 -140t-279 -52q-99 0 -241.5 10t-210.5 10q-120 0 -238 -45
v117q112 41 240 41q84 0 221.5 -11.5t228.5 -11.5q138 0 242.5 46t169.5 123t106 189.5t56.5 232t15.5 263.5q0 82 -6.5 148.5t-24.5 133.5t-47 112t-78.5 73.5t-115.5 28.5q-111 0 -169.5 -80t-58.5 -199v-743h-118v743q0 132 -62 205.5t-178 73.5q-117 0 -174 -72.5
t-57 -206.5v-743h-119v743q0 179 88 284.5t252 105.5q126 0 205 -59.5t104 -151.5q27 92 104 151.5t183 59.5h12q-37 56 -37 147q0 147 108.5 228t272.5 81q225 0 354 -126t129 -333v-1130z" />
    <glyph glyph-name="tmNNNI" horiz-adv-x="2822" 
d="M1374 -20q-159 0 -252.5 113t-93.5 310q0 159 63.5 293.5t178.5 231.5q-168 92 -367 92q-143 0 -266.5 -43.5t-209.5 -118.5t-139 -173.5t-65 -209.5q29 78 108 123t167 45q137 0 235 -91.5t98 -240.5q0 -142 -95 -236.5t-247 -94.5q-177 0 -276.5 120t-99.5 332
q0 199 103 359.5t284 251t405 90.5q269 0 473 -132q193 111 443 111h145q-45 27 -71.5 76.5t-26.5 111.5q0 119 94.5 204t241.5 85q102 0 183.5 -37t133.5 -100.5t79.5 -146t27.5 -175.5v-1130h-119v1128q0 70 -17 131t-52 111.5t-95.5 79.5t-140.5 29q-98 0 -160 -51.5
t-62 -135.5q0 -82 45 -131t132 -49h135v-111h-164v-1001h-127v1001h-178q-199 0 -348 -73q115 -103 177 -239.5t62 -280.5q0 -191 -89.5 -309.5t-252.5 -118.5zM1374 92q108 0 163.5 86.5t55.5 229.5q0 131 -59 249t-166 203q-105 -83 -161 -202t-56 -255
q0 -146 57.5 -228.5t165.5 -82.5zM262 311q0 -100 62 -160.5t163 -60.5q100 0 161 60.5t61 160.5q0 99 -62 160t-162 61q-101 0 -162 -60.5t-61 -160.5z" />
    <glyph glyph-name="tmSHI" horiz-adv-x="2762" 
d="M2568 0h-119v1128q0 70 -17 131t-52 111.5t-95.5 79.5t-140.5 29q-98 0 -159.5 -51.5t-61.5 -135.5q0 -82 44.5 -131t131.5 -49h2v-606q0 -141 -31.5 -244t-90 -164t-134.5 -89.5t-172 -28.5q-157 0 -248.5 84.5t-91.5 222.5v712h-381v-493q0 -141 -31.5 -244t-90 -164
t-134.5 -89.5t-172 -28.5q-157 0 -248.5 84.5t-91.5 222.5v825h127v-815q0 -104 58 -154.5t153 -50.5q56 0 100 11t83 40t65 75t40.5 119.5t14.5 170.5v604h1082q-45 27 -72 76.5t-27 111.5q0 119 94.5 204t241.5 85q102 0 183.5 -37t133.5 -100.5t79.5 -146t27.5 -175.5
v-1130zM1671 92q71 0 123 19t94.5 64.5t64 129t21.5 203.5v491h-514v-702q0 -104 58 -154.5t153 -50.5z" />
    <glyph glyph-name="tmJI" horiz-adv-x="2193" 
d="M1413 1092q86 -43 136 -123.5t50 -180.5q0 -151 -73 -258.5t-199 -160t-293 -52.5h-305q-116 0 -200.5 -14.5t-152 -49t-102 -97.5t-34.5 -154q0 -129 72 -200.5t188 -71.5q54 0 101 17t82.5 46.5t67.5 67t62.5 79t61.5 83.5t69 79.5t81 67t102 46.5t128 17
q147 0 247 -84.5t100 -216.5q0 -144 -94.5 -228.5t-272.5 -84.5q-78 0 -139 21l2 112q64 -22 139 -22q118 0 178 48.5t60 153.5q0 89 -61 139t-163 50q-69 0 -126 -28t-98 -72t-79.5 -98t-80.5 -108t-90 -98t-119 -72t-158 -28q-169 0 -278 105.5t-109 279.5q0 91 29 163.5
t80.5 121.5t126 81.5t162 47t191.5 14.5h314q215 0 336 95t121 263q0 103 -64.5 167.5t-179.5 64.5q-129 0 -194.5 -86t-65.5 -242v-74h-127v74q0 151 -85.5 238t-242.5 90q-132 0 -198 -56.5t-66 -152.5q0 -97 62.5 -143.5t162.5 -46.5q113 0 184 26v-112q-86 -27 -180 -27
q-149 0 -253.5 79t-104.5 224q0 136 99.5 229t283.5 93q166 0 267 -72t130 -199q23 123 99 194t210 77q-45 60 -45 153q0 139 106.5 221t266.5 82q148 0 254 -67t156.5 -176t50.5 -248v-1098h-119v1096q0 83 -19 150.5t-58.5 120.5t-107 82.5t-157.5 29.5
q-70 0 -125.5 -19.5t-92 -66t-36.5 -113.5q0 -128 129 -188z" />
    <glyph glyph-name="tmSSI" horiz-adv-x="2985" 
d="M2478 0h-203v-422h-127v422h-1075v100q55 89 95 208t40 235q0 215 -128 346t-351 131q-120 0 -215.5 -47t-153 -124.5t-87 -170.5t-29.5 -193v-39q27 90 105.5 143.5t191.5 53.5q138 0 235.5 -91.5t97.5 -240.5q0 -142 -95 -236.5t-247 -94.5q-179 0 -288 141t-109 362
q0 295 160.5 472.5t435.5 177.5q144 0 260.5 -47.5t190.5 -129.5t113.5 -188t39.5 -225q0 -120 -35.5 -238t-85.5 -192h533q-207 109 -207 362q0 198 117 325.5t299 127.5q40 0 74 -6q-64 108 -64 254q0 187 110.5 300t303.5 113q108 0 189.5 -38t128.5 -106t70 -151.5
t23 -183.5v-1110h-118v1108q0 77 -14.5 140t-46.5 117t-91 84t-141 30q-140 0 -217.5 -81.5t-77.5 -228.5q0 -113 30.5 -193.5t94.5 -162.5q65 -87 65 -213v-487h203v-113zM2081 113h69v487q0 103 -49 159t-147 56q-135 0 -211 -96.5t-76 -243.5q0 -175 105 -268.5
t309 -93.5zM305 311q0 -100 62 -160.5t163 -60.5q100 0 161 60.5t61 160.5q0 99 -62 160t-162 61q-101 0 -162 -60.5t-61 -160.5z" />
    <glyph glyph-name="tmSI" horiz-adv-x="3067" 
d="M150 483q0 297 155 473.5t428 176.5q154 0 264.5 -65.5t163.5 -182.5q32 119 116 183.5t204 64.5q165 0 258.5 -106.5t93.5 -283.5v-397q0 -121 58.5 -187.5t158.5 -66.5q68 0 117.5 26t77.5 73.5t41.5 106t13.5 130.5q0 92 -29 175t-70 148t-82.5 130.5t-70.5 150.5
t-29 180q0 166 109.5 271.5t290.5 105.5q130 0 230 -62.5t152 -166t52 -230.5v-1130h-119v1128q0 153 -81.5 252t-233.5 99q-128 0 -204.5 -73t-76.5 -200q0 -75 30 -151t72 -143t84.5 -137.5t72.5 -160.5t30 -186t-20.5 -174.5t-64 -141t-118.5 -97.5t-176 -35
q-149 0 -245.5 92t-96.5 276v395q0 134 -57 206.5t-174 72.5q-116 0 -178 -73.5t-62 -205.5v-743h-127l2 645q0 177 -99.5 276t-279.5 99q-97 0 -177 -31t-134 -83t-91.5 -121.5t-54 -144.5t-16.5 -155v-39q27 90 105.5 143.5t191.5 53.5q139 0 236.5 -91.5t97.5 -240.5
q0 -142 -96 -236.5t-248 -94.5q-179 0 -287 141t-108 362zM319 311q0 -100 61.5 -160.5t162.5 -60.5q100 0 161.5 60.5t61.5 160.5t-61.5 160.5t-161.5 60.5q-101 0 -162.5 -60.5t-61.5 -160.5z" />
    <glyph glyph-name="tmHI" horiz-adv-x="3661" 
d="M113 483q0 295 160.5 472.5t435.5 177.5q116 0 214.5 -30.5t169.5 -84.5t121 -127.5t74.5 -160t24.5 -181.5q0 -121 -36.5 -240.5t-92.5 -195.5h504v630q0 179 88 284.5t252 105.5q126 0 205 -59.5t104 -151.5q27 93 104 152t182 59h15q-37 56 -37 147q0 99 52 170.5
t136.5 105t190.5 33.5q224 0 355.5 -135t131.5 -344v-1110h-119v1108q0 167 -94 269t-274 102q-113 0 -186.5 -48.5t-73.5 -156.5q0 -119 98 -195q103 -68 152 -213t49 -340q0 -476 -231 -730.5t-687 -254.5q-407 0 -883.5 20.5t-852.5 20.5q-181 0 -299 -45v117
q112 41 301 41q391 0 863 -21.5t871 -21.5q409 0 602 220t193 654q0 81 -6.5 148t-24.5 134t-47.5 112t-79 73.5t-115.5 28.5q-111 0 -169 -80t-58 -199v-743h-119v743q0 132 -61.5 205.5t-177.5 73.5q-117 0 -174.5 -72.5t-57.5 -206.5v-743h-774v100q65 82 109.5 200
t44.5 249q0 215 -128 343t-351 128q-120 0 -216 -47t-153 -124.5t-87 -170.5t-30 -193v-39q27 90 105.5 143.5t191.5 53.5q139 0 236.5 -91.5t97.5 -240.5q0 -142 -95 -236.5t-247 -94.5q-179 0 -288 141t-109 362zM283 311q0 -100 62 -160.5t163 -60.5q100 0 160.5 60.5
t60.5 160.5t-61.5 160.5t-161.5 60.5q-101 0 -162 -60.5t-61 -160.5z" />
    <glyph glyph-name="tmKSSI" horiz-adv-x="4096" 
d="M3588 0h-203v-422h-127v422h-1075v100q54 87 94.5 212.5t40.5 242.5q0 214 -127.5 339.5t-351.5 125.5q-185 0 -297.5 -95t-150.5 -261h184q81 0 152 -19.5t128.5 -58.5t91 -105.5t33.5 -152.5q0 -90 -37.5 -168t-115.5 -129t-182 -51q-126 0 -219 65.5t-139 174.5
t-46 247q0 28 4 86h-282v-78q0 -103 -31 -192t-90 -157t-153.5 -107t-213.5 -39q-186 0 -285.5 95.5t-99.5 239.5q0 125 65 214.5t189 119.5v463h823v-111h-204v-337h299q48 215 199.5 342t379.5 127q144 0 260.5 -46t190.5 -125t113.5 -183.5t39.5 -223.5t-36 -241.5
t-85 -200.5h533q-207 109 -207 362q0 198 117 325.5t299 127.5q40 0 74 -6q-64 108 -64 254q0 187 110.5 300t303.5 113q108 0 189.5 -38t128.5 -106t70 -151.5t23 -183.5v-1110h-118v1108q0 77 -14.5 140t-46.5 117t-91 84t-141 30q-140 0 -217.5 -81.5t-77.5 -228.5
q0 -113 30.5 -193.5t94.5 -162.5q65 -87 65 -213v-487h203v-113zM3191 113h69v487q0 103 -49 159t-147 56q-135 0 -211 -96.5t-76 -243.5q0 -175 105 -268.5t309 -93.5zM467 664h377v337h-381v-337h4zM1642 90q103 0 159.5 69.5t56.5 168.5q0 225 -283 225h-203
q-4 -58 -4 -86q0 -76 15.5 -141.5t47 -119.5t86 -85t125.5 -31zM475 90q184 0 276.5 105t92.5 278v80h-377q-128 0 -193 -62t-65 -176q0 -104 73 -164.5t193 -60.5z" />
    <glyph glyph-name="tmKII" horiz-adv-x="1556" 
d="M1051 664q183 0 279.5 -96t96.5 -246q0 -151 -101.5 -253t-283.5 -102q-39 0 -53 2v113q16 -2 53 -2q132 0 199.5 65.5t67.5 180.5q0 106 -64 166.5t-196 60.5h-74v-78q0 -103 -31 -192t-90 -157t-153.5 -107t-213.5 -39q-186 0 -285.5 95.5t-99.5 239.5q0 125 65 214.5
t189 119.5v463h471q-149 90 -149 287q0 176 124.5 284.5t307.5 108.5q147 0 228 -70.5t81 -187.5q0 -100 -62 -164.5t-173 -64.5q-113 0 -180.5 72t-67.5 188q0 36 10 84q-69 -36 -109 -101t-40 -149q0 -132 74.5 -209.5t193.5 -77.5h115v-111h-205v-337h76zM479 664h377
v337h-381v-337h4zM487 90q184 0 276.5 105t92.5 278v80h-377q-128 0 -193 -62t-65 -176q0 -104 73 -164.5t193 -60.5zM1305 1536q0 66 -46 109t-147 43q-11 0 -61 -5q-9 -65 -9 -92q0 -90 38 -135t106 -45q53 0 86 34t33 91z" />
    <glyph glyph-name="tmNGII" horiz-adv-x="2080" 
d="M1956 1411q53 0 86 34t33 91q0 66 -46 109t-147 43q-11 0 -61 -5q-9 -65 -9 -92q0 -90 38 -135t106 -45zM874 1001v-337q29 60 95.5 98.5t142.5 38.5q148 0 241 -95t93 -241q0 -255 -213 -352h532v899q-142 20 -229.5 116t-87.5 256q0 184 124 296t308 112
q147 0 228 -70.5t81 -187.5q0 -100 -62 -164.5t-173 -64.5q-113 0 -180.5 72t-67.5 188q0 34 10 82q-69 -36 -109 -104.5t-40 -158.5q0 -130 73.5 -201t194.5 -71h57v-1112h-1136v113h137q208 0 317 88.5t109 263.5q0 98 -61 160.5t-162 62.5q-104 0 -163 -64.5t-59 -170.5
v-21h-118v569h-443v-1001h-118v1112h884v-111h-205z" />
    <glyph glyph-name="tmCII" horiz-adv-x="1474" 
d="M1337 664v-111h-362v-78q0 -103 -31 -192t-90 -157t-153.5 -107t-213.5 -39q-186 0 -285.5 95.5t-99.5 239.5q0 125 65 214.5t189 119.5v463h451q-69 42 -109.5 114.5t-40.5 172.5q0 176 125 284.5t308 108.5q147 0 228 -70.5t81 -187.5q0 -99 -62 -164t-174 -65
q-113 0 -180.5 72t-67.5 188q0 31 11 84q-69 -36 -109.5 -101t-40.5 -149q0 -132 74.5 -209.5t193.5 -77.5h136v-111h-205v-337h362zM479 664h377v337h-381v-337h4zM487 90q184 0 276.5 105t92.5 278v80h-377q-128 0 -193 -62t-65 -176q0 -104 73 -164.5t193 -60.5z
M1284 1536q0 66 -45.5 109t-146.5 43q-12 0 -62 -5q-8 -58 -8 -92q0 -90 37.5 -135t105.5 -45q53 0 86 34t33 91z" />
    <glyph glyph-name="tmNYII" horiz-adv-x="2463" 
d="M1985 731q158 0 257 -111t99 -303q0 -181 -81 -337t-223 -266t-342 -173t-431 -63q-190 0 -360 41t-309 122t-240 195.5t-156.5 269t-55.5 334.5q0 193 60.5 373.5t148.5 298.5h137q-219 -286 -219 -672q0 -203 76.5 -365.5t211 -267.5t315 -161t391.5 -56
q277 0 493.5 91.5t336.5 258t120 379.5q0 152 -70 227t-184 75q-105 0 -177.5 -78.5t-72.5 -194.5v-348h-119v1001h-293q-280 0 -420 -140.5t-151 -399.5q25 84 105.5 133t171.5 49q137 0 233 -91.5t96 -240.5q0 -142 -94.5 -236.5t-245.5 -94.5q-176 0 -275.5 122.5
t-99.5 335.5q0 323 180.5 498.5t501.5 175.5h224q-69 42 -109.5 114.5t-40.5 172.5q0 176 124.5 284.5t307.5 108.5q147 0 228.5 -70.5t81.5 -187.5q0 -99 -62 -164t-174 -65q-113 0 -180.5 72t-67.5 188q0 36 10 84q-69 -36 -109 -101t-40 -149q0 -132 74.5 -209.5
t193.5 -77.5h154v-111h-205v-426q33 62 105 109t170 47zM768 311q0 -100 61 -162.5t162 -62.5q100 0 161.5 62.5t61.5 162.5t-62 163t-161 63q-101 0 -162 -63t-61 -163zM2001 1536q0 66 -46 109t-147 43q-11 0 -61 -5q-8 -58 -8 -92q0 -90 37.5 -135t105.5 -45q53 0 86 34
t33 91z" />
    <glyph glyph-name="tmTTII" horiz-adv-x="1642" 
d="M1380 872q0 76 -54.5 118t-147.5 42q-102 0 -193 -45q-2 -12 -2 -37q0 -115 58 -185.5t163 -70.5q81 0 128.5 49t47.5 129zM1581 0h-1386v1112h127v-999h643q-156 75 -236 212.5t-80 309.5q0 105 32.5 191t85 142t122.5 94.5t142.5 55.5t146.5 17q147 0 232 -74t85 -191
q0 -127 -79.5 -205.5t-209.5 -78.5q-153 0 -238 91t-85 222v19q-115 -112 -115 -283q0 -240 163 -381t435 -141h215v-113z" />
    <glyph glyph-name="tmNNII" horiz-adv-x="3356" 
d="M489 -20q-177 0 -276.5 120t-99.5 332q0 198 103 359t282 251.5t397 90.5q265 0 473 -127q202 127 455 127q257 0 461 -132q193 111 444 111h145q-149 90 -149 287q0 176 124.5 284.5t307.5 108.5q147 0 228 -70.5t81 -187.5q0 -100 -62 -164.5t-173 -64.5
q-113 0 -180.5 72t-67.5 188q0 36 10 84q-69 -36 -109 -101t-40 -149q0 -132 74.5 -209.5t193.5 -77.5h131v-111h-205v-1001h-127v1001h-178q-201 0 -350 -73q115 -102 178 -237t63 -277q0 -191 -90 -312.5t-252 -121.5q-159 0 -252.5 116t-93.5 314q0 159 63 292t179 228
q-164 90 -354 90q-189 0 -353 -90q115 -101 177.5 -235t62.5 -285q0 -198 -93 -314t-251 -116q-109 0 -187.5 57t-117.5 154t-39 221q0 147 65 282.5t183 237.5q-163 88 -379 88q-139 0 -260 -43.5t-206 -118.5t-137.5 -173.5t-64.5 -209.5q29 78 108 123t167 45
q137 0 235 -91.5t98 -240.5q0 -142 -95 -236.5t-247 -94.5zM2281 92q108 0 164 89t56 233q0 129 -60 245t-166 203q-105 -81 -161 -198.5t-56 -253.5q0 -147 58 -232.5t165 -85.5zM1366 92q107 0 164 85t57 233q0 127 -55.5 245.5t-159.5 206.5q-107 -87 -167 -203t-60 -247
q0 -143 56.5 -231.5t164.5 -88.5zM262 311q0 -100 62 -160.5t163 -60.5q100 0 161 60.5t61 160.5q0 99 -62 160t-162 61q-101 0 -162 -60.5t-61 -160.5zM3351 1536q0 66 -46 109t-147 43q-11 0 -61 -5q-9 -65 -9 -92q0 -90 38 -135t106 -45q53 0 86 34t33 91z" />
    <glyph glyph-name="tmTII" horiz-adv-x="1531" 
d="M459 1001v-337h28h369v337h-397zM496 90q183 0 271.5 104t88.5 279v80h-369q-128 0 -193 -62t-65 -176q0 -104 73.5 -164.5t193.5 -60.5zM1409 178q0 -286 -163 -452t-466 -166q-99 0 -236.5 11t-205.5 11q-160 0 -287 -51v121q127 43 289 43q84 0 216.5 -12.5
t223.5 -12.5q256 0 383 133.5t127 376.5q0 158 -76 256t-231 115v-76q0 -139 -52.5 -249t-164.5 -178t-270 -68q-186 0 -285.5 95.5t-99.5 239.5q0 117 56.5 203t164.5 123v471h467q-69 42 -109.5 114.5t-40.5 172.5q0 176 124.5 284.5t307.5 108.5q147 0 228.5 -70.5
t81.5 -187.5q0 -99 -62 -164t-174 -65q-113 0 -180.5 72t-67.5 188q0 31 11 84q-69 -36 -109.5 -101t-40.5 -149q0 -132 74.5 -209.5t193.5 -77.5h152v-111h-205v-339q210 -17 318 -149.5t108 -334.5zM1276 1536q0 66 -46 109t-147 43q-11 0 -61 -5q-8 -58 -8 -92
q0 -90 37.5 -135t105.5 -45q53 0 86 34t33 91z" />
    <glyph glyph-name="tmNII" horiz-adv-x="1648" 
d="M895 1001v-426q33 62 104.5 109t169.5 47q87 0 157 -39t112.5 -104.5t65 -145t22.5 -166.5q0 -346 -204.5 -530t-565.5 -184q-99 0 -231.5 10t-200.5 10q-160 0 -287 -51v121q127 43 289 43q84 0 211.5 -11.5t218.5 -11.5q314 0 478.5 151t164.5 456q0 69 -13.5 127
t-41.5 107t-78.5 77t-118.5 28q-113 0 -182.5 -77t-69.5 -195v-346h-127v1001h-463v-1001h-127v1112h553q-149 90 -149 287q0 176 124.5 284.5t307.5 108.5q147 0 228 -70.5t81 -187.5q0 -99 -62 -164t-174 -65q-113 0 -180 71.5t-67 188.5q0 36 10 84q-69 -36 -109.5 -101
t-40.5 -149q0 -131 75 -209t194 -78h131v-111h-205zM1208 1536q0 66 -45.5 109t-146.5 43q-12 0 -62 -5q-8 -58 -8 -92q0 -90 38 -135t106 -45q53 0 85.5 34t32.5 91z" />
    <glyph glyph-name="tmPII" horiz-adv-x="1615" 
d="M1563 1536q0 66 -46 109t-147 43q-11 0 -61 -5q-9 -65 -9 -92q0 -90 38 -135t106 -45q53 0 86 34t33 91zM1384 0l-1189 -2v1112l127 2v-1001h935v901q-144 18 -232.5 114t-88.5 258q0 184 124 296t308 112q147 0 228 -70.5t81 -187.5q0 -100 -62 -164.5t-173 -64.5
q-113 0 -180.5 72t-67.5 188q0 34 10 82q-69 -36 -109 -104.5t-40 -158.5q0 -130 73.5 -201t194.5 -71h61v-1112z" />
    <glyph glyph-name="tmMII" horiz-adv-x="1820" 
d="M1649 1411q53 0 85.5 34t32.5 91q0 66 -45.5 109t-146.5 43q-12 0 -62 -5q-8 -58 -8 -92q0 -90 38 -135t106 -45zM1130 0h-935v1112h127v-1001h544v673q0 63 17.5 121.5t54 111.5t103 84.5t155.5 31.5q16 0 31 -3q-86 107 -86 254q0 184 124 296t308 112q147 0 228 -70.5
t81 -187.5q0 -100 -62 -164.5t-173 -64.5q-113 0 -180.5 72t-67.5 188q0 34 10 82q-69 -36 -109 -104.5t-40 -158.5q0 -100 39.5 -183t121.5 -132q119 -73 184.5 -216t65.5 -312q0 -253 -136 -397t-405 -144zM991 784l2 -673h117q221 0 327.5 106t106.5 324q0 90 -20 172.5
t-60 152.5t-109 112t-157 42q-104 0 -155.5 -62t-51.5 -174z" />
    <glyph glyph-name="tmYII" horiz-adv-x="1923" 
d="M1870 1536q0 66 -46 109t-147 43q-11 0 -61 -5q-8 -58 -8 -92q0 -90 37.5 -135t105.5 -45q53 0 86 34t33 91zM1688 0h-916v111q-97 -131 -258 -131q-164 0 -252 105t-88 284v743h119v-743q0 -134 57 -206.5t174 -72.5q116 0 178 73.5t62 205.5v743h127v-1001h670v901
q-143 20 -230.5 116t-87.5 256q0 184 124 296t308 112q147 0 228.5 -70.5t81.5 -187.5q0 -99 -62 -164t-174 -65q-113 0 -180.5 72t-67.5 188q0 34 10 82q-69 -36 -109 -104.5t-40 -158.5q0 -130 73.5 -201t194.5 -71h58v-1112z" />
    <glyph glyph-name="tmRII" horiz-adv-x="1280" 
d="M195 0v1112h540q-149 90 -149 287q0 176 124.5 284.5t307.5 108.5q147 0 228 -70.5t81 -187.5q0 -100 -62 -164.5t-173 -64.5q-113 0 -180.5 72t-67.5 188q0 36 10 84q-69 -36 -109 -101t-40 -149q0 -132 74.5 -209.5t193.5 -77.5h143v-111h-205v-909l-247 -465h-150
l270 500v874h-462v-1001h-127zM1212 1536q0 66 -45.5 109t-146.5 43q-12 0 -62 -5q-8 -58 -8 -92q0 -90 38 -135t106 -45q53 0 85.5 34t32.5 91z" />
    <glyph glyph-name="tmLII" horiz-adv-x="1988" 
d="M283 311q0 -100 61 -160.5t162 -60.5q100 0 161.5 60.5t61.5 160.5t-61.5 160.5t-161.5 60.5q-101 0 -162 -60.5t-61 -160.5zM1817 1411q53 0 85.5 34t32.5 91q0 66 -45.5 109t-146.5 43q-12 0 -62 -5q-8 -58 -8 -92q0 -90 38 -135t106 -45zM1665 438q0 75 -19.5 149
t-51 136.5t-69.5 124.5t-76 124.5t-69.5 125t-51 137t-19.5 149.5q0 184 124 296t308 112q147 0 228 -70.5t81 -187.5q0 -100 -62 -164.5t-173 -64.5q-113 0 -180.5 72t-67.5 188q0 34 10 82q-69 -36 -109.5 -104.5t-40.5 -158.5q0 -71 27 -150t67.5 -146.5t88 -148t88 -154
t67.5 -165.5t27 -182q0 -95 -21 -175.5t-64 -145t-115.5 -101t-168.5 -36.5q-71 0 -133 21.5t-111.5 64.5t-78.5 115.5t-29 166.5l2 256q0 201 -97.5 308.5t-289.5 107.5q-97 0 -176.5 -31t-132 -83t-88.5 -121.5t-52 -144.5t-16 -155v-39q27 90 105.5 143.5t191.5 53.5
q139 0 236.5 -91.5t97.5 -240.5q0 -142 -96 -236.5t-248 -94.5q-179 0 -287 141t-108 362q0 298 151 474t424 176q131 0 230.5 -40.5t160 -113t91 -167t30.5 -208.5v-258q0 -120 62 -187t163 -67q121 0 180.5 98t59.5 248z" />
    <glyph glyph-name="tmVII" horiz-adv-x="2056" 
d="M1991 1536q0 66 -46 109t-147 43q-11 0 -61 -5q-8 -58 -8 -92q0 -90 37.5 -135t105.5 -45q53 0 86 34t33 91zM113 483q0 295 160.5 472.5t435.5 177.5q116 0 214.5 -30.5t169.5 -84.5t121 -127.5t74.5 -160t24.5 -181.5q0 -121 -36.5 -240.5t-92.5 -195.5h495v899
q-142 19 -228.5 116t-86.5 256q0 184 124 296t308 112q147 0 228 -70.5t81 -187.5q0 -100 -62 -164.5t-173 -64.5q-113 0 -180.5 72t-67.5 188q0 34 10 82q-69 -36 -109 -104.5t-40 -158.5q0 -130 73.5 -201t194.5 -71h55v-1112h-774v100q65 82 109.5 200t44.5 249
q0 215 -128 343t-351 128q-120 0 -216 -47t-153 -124.5t-87 -170.5t-30 -193v-39q27 90 105.5 143.5t191.5 53.5q139 0 236.5 -91.5t97.5 -240.5q0 -142 -95 -236.5t-247 -94.5q-179 0 -288 141t-109 362zM283 311q0 -100 62 -160.5t163 -60.5q100 0 160.5 60.5t60.5 160.5
t-61.5 160.5t-161.5 60.5q-101 0 -162 -60.5t-61 -160.5z" />
    <glyph glyph-name="tmLLLII" horiz-adv-x="1841" 
d="M1669 1411q53 0 86 34t33 91q0 66 -46 109t-147 43q-11 0 -61 -5q-8 -58 -8 -92q0 -90 37.5 -135t105.5 -45zM260 -434v131q196 -125 371 -125q131 0 303 70q10 4 46.5 19t51.5 20.5t42 14t50 13.5q-125 23 -195.5 101.5t-70.5 189.5h-663v1112h127v-1001h544v673
q0 63 17.5 121.5t54 111.5t103 84.5t155.5 31.5q26 0 47 -3q-82 99 -82 254q0 184 124 296t308 112q147 0 228.5 -70.5t81.5 -187.5q0 -99 -62 -164t-174 -65q-113 0 -180.5 72t-67.5 188q0 29 11 82q-69 -36 -109.5 -104.5t-40.5 -158.5q0 -216 135 -311
q121 -74 188.5 -218.5t67.5 -313.5q0 -253 -136 -397t-405 -144h-145q9 -244 369 -244h53v-110h-33q-72 0 -141.5 -15t-106.5 -29.5t-114 -47.5q-104 -46 -191 -69.5t-190 -23.5q-204 0 -371 105zM991 784l2 -673h117q221 0 327.5 106t106.5 324q0 90 -20 172.5t-60 152.5
t-109 112t-157 42q-104 0 -155.5 -62t-51.5 -174z" />
    <glyph glyph-name="tmLLII" horiz-adv-x="2177" 
d="M508 -20q-179 0 -287 141t-108 362q0 299 148 474.5t411 175.5q139 0 248.5 -61t156.5 -150v190h555q-149 90 -149 287q0 176 124.5 284.5t307.5 108.5q147 0 228 -70.5t81 -187.5q0 -100 -62 -164.5t-173 -64.5q-113 0 -180.5 72t-67.5 188q0 36 10 84
q-69 -36 -109 -101t-40 -149q0 -132 74.5 -209.5t193.5 -77.5h129v-111h-205v-1001h-127v1001h-463v-1001h-127v588q0 200 -107 316t-300 116q-91 0 -167 -31t-127.5 -83t-87 -121.5t-51.5 -145t-16 -154.5v-39q27 90 105.5 143.5t191.5 53.5q139 0 236.5 -91.5t97.5 -240.5
q0 -142 -96 -236.5t-248 -94.5zM283 311q0 -100 61 -160.5t162 -60.5q100 0 161.5 60.5t61.5 160.5t-61.5 160.5t-161.5 60.5q-101 0 -162 -60.5t-61 -160.5zM2109 1536q0 66 -45.5 109t-146.5 43q-12 0 -62 -5q-8 -58 -8 -92q0 -90 38 -135t106 -45q53 0 85.5 34t32.5 91z
" />
    <glyph glyph-name="tmRRII" horiz-adv-x="1718" 
d="M1706 1536q0 66 -46 109t-147 43q-11 0 -61 -5q-8 -58 -8 -92q0 -90 37.5 -135t105.5 -45q53 0 86 34t33 91zM131 -463v117q112 41 240 41q84 0 221.5 -11.5t228.5 -11.5q138 0 242.5 46t169.5 123t106 189.5t56.5 232t15.5 263.5q0 82 -6.5 148.5t-24.5 133.5t-47 112
t-78.5 73.5t-115.5 28.5q-111 0 -169.5 -80t-58.5 -199v-743h-118v743q0 132 -62 205.5t-178 73.5q-117 0 -174 -72.5t-57 -206.5v-743h-119v743q0 179 88 284.5t252 105.5q126 0 205 -59.5t104 -151.5q27 92 104 151.5t183 59.5h26q-86 104 -86 251q0 184 124 296t308 112
q147 0 228.5 -70.5t81.5 -187.5q0 -99 -62 -164t-174 -65q-113 0 -180.5 72t-67.5 188q0 29 11 82q-69 -36 -109.5 -104.5t-40.5 -158.5q0 -91 37 -172.5t106 -138.5q193 -133 193 -547q0 -159 -22.5 -296.5t-75 -262.5t-133 -213t-203.5 -140t-279 -52q-99 0 -241.5 10
t-210.5 10q-120 0 -238 -45z" />
    <glyph glyph-name="tmNNNII" horiz-adv-x="2496" 
d="M1374 -20q-159 0 -252.5 113t-93.5 310q0 159 63.5 293.5t178.5 231.5q-168 92 -367 92q-143 0 -266.5 -43.5t-209.5 -118.5t-139 -173.5t-65 -209.5q29 78 108 123t167 45q137 0 235 -91.5t98 -240.5q0 -142 -95 -236.5t-247 -94.5q-177 0 -276.5 120t-99.5 332
q0 199 103 359.5t284 251t405 90.5q269 0 473 -132q193 111 443 111h131q-69 42 -109.5 114.5t-40.5 172.5q0 176 124.5 284.5t307.5 108.5q147 0 228.5 -70.5t81.5 -187.5q0 -99 -62 -164t-174 -65q-113 0 -180.5 72t-67.5 188q0 31 11 84q-69 -36 -109.5 -101t-40.5 -149
q0 -132 74.5 -209.5t193.5 -77.5h146v-111h-205v-1001h-127v1001h-178q-199 0 -348 -73q115 -103 177 -239.5t62 -280.5q0 -191 -89.5 -309.5t-252.5 -118.5zM1374 92q108 0 163.5 86.5t55.5 229.5q0 131 -59 249t-166 203q-105 -83 -161 -202t-56 -255q0 -146 57.5 -228.5
t165.5 -82.5zM262 311q0 -100 62 -160.5t163 -60.5q100 0 161 60.5t61 160.5q0 99 -62 160t-162 61q-101 0 -162 -60.5t-61 -160.5zM2429 1536q0 66 -46 109t-147 43q-11 0 -61 -5q-8 -58 -8 -92q0 -90 37.5 -135t105.5 -45q53 0 86 34t33 91z" />
    <glyph glyph-name="tmSHII" horiz-adv-x="2404" 
d="M1671 92q71 0 123 19t94.5 64.5t64 129t21.5 203.5v491h-514v-702q0 -104 58 -154.5t153 -50.5zM2101 1112v-606q0 -141 -31.5 -244t-90 -164t-134.5 -89.5t-172 -28.5q-157 0 -248.5 84.5t-91.5 222.5v712h-381v-493q0 -141 -31.5 -244t-90 -164t-134.5 -89.5
t-172 -28.5q-157 0 -248.5 84.5t-91.5 222.5v825h127v-815q0 -104 58 -154.5t153 -50.5q56 0 100 11t83 40t65 75t40.5 119.5t14.5 170.5v604h1035q-69 42 -109.5 114.5t-40.5 172.5q0 176 124.5 284.5t307.5 108.5q147 0 228 -70.5t81 -187.5q0 -100 -62 -164.5t-173 -64.5
q-113 0 -180.5 72t-67.5 188q0 36 10 84q-69 -36 -109 -101t-40 -149q0 -132 74.5 -209.5t193.5 -77.5h4zM2337 1536q0 66 -46 109t-147 43q-11 0 -61 -5q-8 -58 -8 -92q0 -90 37.5 -135t105.5 -45q53 0 86 34t33 91z" />
    <glyph glyph-name="tmJII" horiz-adv-x="1769" 
d="M1597 1411q53 0 86 34t33 91q0 66 -45.5 109t-146.5 43q-12 0 -62 -5q-8 -58 -8 -92q0 -90 37.5 -135t105.5 -45zM1251 121q-69 0 -126 -28t-98 -72t-79.5 -98t-80.5 -108t-90 -98t-119 -72t-158 -28q-169 0 -278 105.5t-109 279.5q0 91 29 163.5t80.5 121.5t126 81.5
t162 47t191.5 14.5h314q215 0 336 95t121 263q0 103 -64.5 167.5t-179.5 64.5q-129 0 -194.5 -86t-65.5 -242v-74h-127v74q0 151 -85.5 238t-242.5 90q-132 0 -198 -56.5t-66 -152.5q0 -97 62.5 -143.5t162.5 -46.5q113 0 184 26v-112q-86 -27 -180 -27q-149 0 -253.5 79
t-104.5 224q0 136 99.5 229t283.5 93q166 0 267 -72t130 -199q23 120 96 190.5t201 77.5q-108 104 -108 254q0 184 124 296t308 112q147 0 228 -70.5t81 -187.5q0 -99 -62 -164t-174 -65q-113 0 -180 71.5t-67 188.5q0 34 10 82q-69 -36 -109.5 -104.5t-40.5 -158.5
t44.5 -166t117.5 -108q104 -37 166.5 -123t62.5 -199q0 -151 -73 -258.5t-199 -160t-293 -52.5h-305q-116 0 -200.5 -14.5t-152 -49t-102 -97.5t-34.5 -154q0 -129 72 -200.5t188 -71.5q54 0 101 17t82.5 46.5t67.5 67t62.5 79t61.5 83.5t69 79.5t81 67t102 46.5t128 17
q147 0 247 -84.5t100 -216.5q0 -144 -94.5 -228.5t-272.5 -84.5q-78 0 -139 21l2 112q64 -22 139 -22q118 0 178 48.5t60 153.5q0 89 -61 139t-163 50z" />
    <glyph glyph-name="tmSSII" horiz-adv-x="2592" 
d="M2478 1464q0 66 -45.5 109t-146.5 43q-22 0 -62 -4q-8 -58 -8 -92q0 -90 37.5 -135.5t105.5 -45.5q53 0 86 34t33 91zM2519 0h-244v-422h-127v422h-1075v100q55 89 95 208t40 235q0 215 -128 346t-351 131q-120 0 -215.5 -47t-153 -124.5t-87 -170.5t-29.5 -193v-39
q27 90 105.5 143.5t191.5 53.5q138 0 235.5 -91.5t97.5 -240.5q0 -142 -95 -236.5t-247 -94.5q-179 0 -288 141t-109 362q0 295 160.5 472.5t435.5 177.5q144 0 260.5 -47.5t190.5 -129.5t113.5 -188t39.5 -225q0 -120 -35.5 -238t-85.5 -192h533q-207 109 -207 362
q0 198 117 325.5t299 127.5h20q-125 158 -125 364q0 190 119 309t314 119q147 0 228 -70.5t81 -187.5q0 -99 -62 -164t-174 -65q-113 0 -180.5 72t-67.5 188q0 31 11 84q-72 -40 -111 -114.5t-39 -170.5q0 -251 184 -424q62 -46 91.5 -118.5t29.5 -149.5v-487h244v-113z
M2081 113h69v487q0 103 -49 159t-147 56q-135 0 -211 -96.5t-76 -243.5q0 -175 105 -268.5t309 -93.5zM305 311q0 -100 62 -160.5t163 -60.5q100 0 161 60.5t61 160.5q0 99 -62 160t-162 61q-101 0 -162 -60.5t-61 -160.5z" />
    <glyph glyph-name="tmSII" horiz-adv-x="2603" 
d="M150 483q0 297 155 473.5t428 176.5q154 0 264.5 -65.5t163.5 -182.5q32 119 116 183.5t204 64.5q165 0 258.5 -106.5t93.5 -283.5v-397q0 -122 54 -188t153 -66q62 0 109.5 28t75 76.5t41 109.5t13.5 132q0 75 -19.5 149t-51 136.5t-69.5 124.5t-76 124.5t-69.5 125
t-51 137t-19.5 149.5q0 184 124 296t308 112q147 0 228 -70.5t81 -187.5q0 -100 -62 -164.5t-173 -64.5q-113 0 -180.5 72t-67.5 188q0 34 10 82q-69 -36 -109 -104.5t-40 -158.5q0 -84 37.5 -177.5t91 -180t107 -176.5t91 -198t37.5 -214q0 -95 -21 -175.5t-63.5 -145
t-115 -101t-168.5 -36.5q-148 0 -240 91.5t-92 276.5v395q0 134 -57 206.5t-174 72.5q-116 0 -178 -73.5t-62 -205.5v-743h-127l2 645q0 177 -99.5 276t-279.5 99q-97 0 -177 -31t-134 -83t-91.5 -121.5t-54 -144.5t-16.5 -155v-39q27 90 105.5 143.5t191.5 53.5
q139 0 236.5 -91.5t97.5 -240.5q0 -142 -96 -236.5t-248 -94.5q-179 0 -287 141t-108 362zM319 311q0 -100 61.5 -160.5t162.5 -60.5q100 0 161.5 60.5t61.5 160.5t-61.5 160.5t-161.5 60.5q-101 0 -162.5 -60.5t-61.5 -160.5zM2431 1411q53 0 86 34t33 91q0 66 -46 109
t-147 43q-11 0 -61 -5q-8 -58 -8 -92q0 -90 37.5 -135t105.5 -45z" />
    <glyph glyph-name="tmHII" horiz-adv-x="3203" 
d="M3072 1411q53 0 86 34t33 91q0 66 -46 109t-147 43q-11 0 -61 -5q-8 -58 -8 -92q0 -90 37.5 -135t105.5 -45zM113 483q0 295 160.5 472.5t435.5 177.5q116 0 214.5 -30.5t169.5 -84.5t121 -127.5t74.5 -160t24.5 -181.5q0 -121 -36.5 -240.5t-92.5 -195.5h504v630
q0 179 88 284.5t252 105.5q126 0 205 -59.5t104 -151.5q27 93 104 152t182 59h27q-86 104 -86 251q0 184 124 296t308 112q147 0 228 -70.5t81 -187.5q0 -100 -62 -164.5t-173 -64.5q-113 0 -180.5 72t-67.5 188q0 34 10 82q-69 -36 -109 -104.5t-40 -158.5q0 -91 37 -172.5
t106 -138.5q193 -133 193 -547q0 -476 -231 -730.5t-687 -254.5q-407 0 -883.5 20.5t-852.5 20.5q-181 0 -299 -45v117q112 41 301 41q391 0 863 -21.5t871 -21.5q409 0 602 220t193 654q0 81 -6.5 148t-24.5 134t-47.5 112t-79 73.5t-115.5 28.5q-111 0 -169 -80t-58 -199
v-743h-119v743q0 132 -61.5 205.5t-177.5 73.5q-117 0 -174.5 -72.5t-57.5 -206.5v-743h-774v100q65 82 109.5 200t44.5 249q0 215 -128 343t-351 128q-120 0 -216 -47t-153 -124.5t-87 -170.5t-30 -193v-39q27 90 105.5 143.5t191.5 53.5q139 0 236.5 -91.5t97.5 -240.5
q0 -142 -95 -236.5t-247 -94.5q-179 0 -288 141t-109 362zM283 311q0 -100 62 -160.5t163 -60.5q100 0 160.5 60.5t60.5 160.5t-61.5 160.5t-161.5 60.5q-101 0 -162 -60.5t-61 -160.5z" />
    <glyph glyph-name="tmKSSII" horiz-adv-x="3704" 
d="M3471 1339q53 0 86 34t33 91q0 66 -45.5 109t-146.5 43q-22 0 -62 -4q-8 -58 -8 -92q0 -90 37.5 -135.5t105.5 -45.5zM3629 0h-244v-422h-127v422h-1075v100q54 87 94.5 212.5t40.5 242.5q0 214 -127.5 339.5t-351.5 125.5q-185 0 -297.5 -95t-150.5 -261h184
q81 0 152 -19.5t128.5 -58.5t91 -105.5t33.5 -152.5q0 -90 -37.5 -168t-115.5 -129t-182 -51q-126 0 -219 65.5t-139 174.5t-46 247q0 28 4 86h-282v-78q0 -103 -31 -192t-90 -157t-153.5 -107t-213.5 -39q-186 0 -285.5 95.5t-99.5 239.5q0 125 65 214.5t189 119.5v463h823
v-111h-204v-337h299q48 215 199.5 342t379.5 127q144 0 260.5 -46t190.5 -125t113.5 -183.5t39.5 -223.5t-36 -241.5t-85 -200.5h533q-207 109 -207 362q0 198 117 325.5t299 127.5h22q-125 158 -125 364q0 190 119 309t314 119q147 0 228 -70.5t81 -187.5q0 -99 -62 -164
t-174 -65q-113 0 -180 71.5t-67 188.5q0 36 10 84q-72 -40 -111 -114.5t-39 -170.5q0 -265 205 -442q50 -47 74 -113.5t24 -136.5v-487h244v-113zM3191 113h69v487q0 103 -49 159t-147 56q-135 0 -211 -96.5t-76 -243.5q0 -175 105 -268.5t309 -93.5zM467 664h377v337h-381
v-337h4zM1642 90q103 0 159.5 69.5t56.5 168.5q0 225 -283 225h-203q-4 -58 -4 -86q0 -76 15.5 -141.5t47 -119.5t86 -85t125.5 -31zM475 90q184 0 276.5 105t92.5 278v80h-377q-128 0 -193 -62t-65 -176q0 -104 73 -164.5t193 -60.5z" />
    <glyph glyph-name="tmKU" horiz-adv-x="2101" 
d="M1130 -522q-308 0 -533.5 108.5t-349.5 323t-124 516.5q0 194 61 382t148 304h137q-219 -286 -219 -686q0 -407 234 -621.5t646 -214.5q169 0 305 37t236 110.5t154.5 190t54.5 267.5q0 160 -88.5 255.5t-245.5 102.5v-78q0 -139 -52.5 -249t-164.5 -178t-270 -68
q-186 0 -285.5 95.5t-99.5 239.5q0 125 65 214.5t189 119.5v463h823v-111h-205v-337q209 -7 331 -137t122 -334q0 -172 -64.5 -309t-180.5 -225t-274.5 -134.5t-349.5 -46.5zM1051 664h376v337h-380v-337h4zM1059 90q184 0 276 105t92 278v80h-376q-128 0 -193 -62t-65 -176
q0 -104 73 -164.5t193 -60.5z" />
    <glyph glyph-name="tmNGU" horiz-adv-x="2086" 
d="M1892 -297h-118v297h-1018v113h137q208 0 317 88.5t109 263.5q0 98 -61 160.5t-162 62.5q-104 0 -163 -64.5t-59 -170.5v-21h-118v569h-443v-1001h-118v1112h884v-111h-205v-337q29 60 95.5 98.5t142.5 38.5q148 0 241 -95t93 -241q0 -255 -213 -352h532v999h127v-1409z
" />
    <glyph glyph-name="tmCU" horiz-adv-x="1603" 
d="M479 664h377v337h-381v-337h4zM487 90q184 0 276.5 105t92.5 278v80h-377q-128 0 -193 -62t-65 -176q0 -104 73 -164.5t193 -60.5zM1542 664v-111h-188v-553h-119v553h-260v-78q0 -103 -31 -192t-90 -157t-153.5 -107t-213.5 -39q-186 0 -285.5 95.5t-99.5 239.5
q0 125 65 214.5t189 119.5v463h824v-111h-205v-337h567z" />
    <glyph glyph-name="tmNYU" horiz-adv-x="2658" 
d="M293 311q0 -100 61 -162.5t162 -62.5q100 0 161.5 62.5t61.5 162.5t-62 163t-161 63q-101 0 -162 -63t-61 -163zM858 311q0 -142 -94.5 -236.5t-245.5 -94.5q-176 0 -275.5 122.5t-99.5 335.5q0 323 180.5 498.5t501.5 175.5h615v-111h-205v-426q33 62 104.5 109
t169.5 47q172 0 274.5 -119t102.5 -315q0 -277 -112 -504h563v1319h127v-1427h-33h-725q-119 -170 -308 -265.5t-440 -95.5q-525 0 -815 328v141h1491q125 211 125 506q0 157 -73 239.5t-201 82.5q-105 0 -177.5 -78.5t-72.5 -194.5v-348h-119v1001h-293q-280 0 -420 -140.5
t-151 -399.5q25 84 105 133t171 49q137 0 233.5 -91.5t96.5 -240.5zM958 -563q187 0 339 63.5t257 184.5l-1271 -2q120 -122 296 -184t379 -62z" />
    <glyph glyph-name="tmTTU" horiz-adv-x="1892" 
d="M143 543q0 160 34.5 307.5t104.5 273.5t169.5 219t237.5 146t300 53q180 0 331 -54t253.5 -148.5t159.5 -224t57 -279.5h-129q1 126 -49 236t-138 188.5t-213.5 124t-271.5 45.5q-168 0 -306 -72t-227 -194.5t-137.5 -282t-48.5 -338.5q0 -151 26.5 -288.5t84 -259.5
t140.5 -211.5t204.5 -141.5t267.5 -52q120 0 220 34.5t170 96t119 146t72 184.5t23 213q0 161 -83 259t-224 98q-105 0 -179.5 -78.5t-74.5 -194.5v-348h-127v1112h127v-537q33 62 105 109t170 47q186 0 299.5 -134.5t113.5 -334.5q0 -162 -49 -303.5t-139.5 -249
t-230.5 -169.5t-312 -62q-129 0 -240.5 30t-197 84.5t-154.5 131.5t-117 168.5t-80 198.5t-46.5 219.5t-14.5 232.5z" />
    <glyph glyph-name="tmNNU" horiz-adv-x="3971" 
d="M262 311q0 -100 62 -160.5t163 -60.5q100 0 161 60.5t61 160.5q0 99 -62 160t-162 61q-101 0 -162 -60.5t-61 -160.5zM3756 -336h-33h-872q-447 -360 -1350 -360q-430 0 -780 71.5t-615 245.5v152h2700q280 250 280 661q0 172 -54.5 303t-164.5 207t-262 76
q-142 0 -258 -64q130 -103 203 -246t73 -296q0 -198 -93 -316t-251 -118q-108 0 -187.5 61.5t-118 162.5t-38.5 228q0 145 52 281t151 235q-150 72 -315 72q-189 0 -353 -90q115 -101 177.5 -235t62.5 -285q0 -198 -93 -314t-251 -116q-109 0 -187.5 57t-117.5 154t-39 221
q0 147 65 282.5t183 237.5q-163 88 -379 88q-139 0 -260 -43.5t-206 -118.5t-137.5 -173.5t-64.5 -209.5q29 78 108 123t167 45q137 0 235 -91.5t98 -240.5q0 -142 -95 -236.5t-247 -94.5q-177 0 -276.5 120t-99.5 332q0 198 103 359t282 251.5t397 90.5q265 0 473 -127
q202 127 455 127q220 0 415 -103q160 103 367 103q150 0 268 -56.5t190 -154t109 -221.5t37 -267q0 -397 -243 -661h663v1339h127v-1448zM2279 92q107 0 164.5 87t57.5 235q0 137 -68 261t-186 210q-90 -83 -139.5 -202.5t-49.5 -250.5q0 -148 57 -244t164 -96zM1366 92
q107 0 164 85t57 233q0 127 -55.5 245.5t-159.5 206.5q-107 -87 -167 -203t-60 -247q0 -143 56.5 -231.5t164.5 -88.5zM1501 -584q750 0 1157 248l-2404 -2q278 -139 577.5 -192.5t669.5 -53.5z" />
    <glyph glyph-name="tmTU" horiz-adv-x="2244" 
d="M496 1001v-337h28h369v337h-397zM532 90q183 0 272 104.5t89 278.5v80h-369q-128 0 -193 -62t-65 -176q0 -104 73 -164.5t193 -60.5zM821 -563q348 0 482 248l-1016 -2q97 -112 232 -179t302 -67zM2091 -315h-33h-624q-151 -361 -613 -361q-216 0 -388 90t-286 238v141
h1201q41 136 41 320q0 183 -97.5 301.5t-271.5 136.5v-76q0 -103 -31 -192t-90 -157t-153.5 -107t-213.5 -39q-186 0 -285.5 95.5t-99.5 239.5q0 116 57 202t165 124v471h856v-111h-205v-339q152 -12 263.5 -88t167.5 -195t56 -268q0 -185 -37 -318h494v1319h127v-1427z" />
    <glyph glyph-name="tmNU" horiz-adv-x="2299" 
d="M895 1001v-426q33 62 104.5 109t169.5 47q87 0 157 -42t112.5 -111.5t65 -153t22.5 -172.5q0 -262 -60 -459h512v1319h127v-1427h-32h-650q-163 -359 -596 -359q-204 0 -372.5 90.5t-276.5 235.5v141h1157q66 181 66 461q0 71 -13.5 133.5t-42.5 115.5t-79.5 84
t-118.5 31q-113 0 -182.5 -77t-69.5 -195v-346h-127v1001h-463v-1001h-127v1112h922v-111h-205zM827 -561q318 0 459 246l-975 -2q92 -107 226 -175.5t290 -68.5z" />
    <glyph glyph-name="tmPU" horiz-adv-x="1579" 
d="M1384 -297h-118v297l-1071 -2v1112l127 2v-1001h935v1001h127v-1409z" />
    <glyph glyph-name="tmMU" horiz-adv-x="2482" 
d="M993 -410q110 0 203 24t167 72.5t119 128.5t52 185h-672v1112h127v-1001h545v673q0 63 17.5 121.5t54 111.5t103 84.5t155.5 31.5q109 0 200.5 -49.5t150.5 -132.5t91.5 -189t32.5 -221q0 -253 -136 -397t-405 -144h-145q-6 -102 -43 -187.5t-98 -147t-142.5 -104
t-176.5 -63t-200 -20.5q-194 0 -349 55.5t-267.5 165t-173 282t-60.5 398.5q0 214 68.5 411.5t161.5 321.5h137q-240 -314 -240 -733q0 -204 51 -356t147.5 -246.5t227.5 -140.5t297 -46zM1659 784l2 -673h117q221 0 327.5 106t106.5 324q0 90 -20 172.5t-60 152.5t-109 112
t-157 42q-104 0 -155.5 -62t-51.5 -174z" />
    <glyph glyph-name="tmYU" horiz-adv-x="1882" 
d="M1688 -297h-119v297h-797v111q-97 -131 -258 -131q-164 0 -252 105t-88 284v743h119v-743q0 -134 57 -206.5t174 -72.5q116 0 178 73.5t62 205.5v743h127v-1001h670v1001h127v-1409z" />
    <glyph glyph-name="tmRU" horiz-adv-x="2344" 
d="M1524 0h-127v1001h-463v-1001h-127v1112h922v-111h-205v-426q33 62 104.5 109t169.5 47q186 0 300 -134.5t114 -334.5q0 -129 -41 -245.5t-126 -215t-205.5 -170.5t-288 -112.5t-365.5 -40.5q-235 0 -427.5 62.5t-329 181.5t-211.5 298.5t-75 405.5q0 194 61 382t148 304
h137q-219 -286 -219 -686q0 -196 68.5 -354.5t191 -263.5t290.5 -161.5t368 -56.5q224 0 398 52.5t281.5 145.5t162.5 213.5t55 262.5q0 161 -83 259t-224 98q-105 0 -179.5 -78.5t-74.5 -194.5v-348z" />
    <glyph glyph-name="tmLU" horiz-adv-x="2535" 
d="M848 -559q362 0 477 248l-1061 -2q102 -109 250.5 -177.5t333.5 -68.5zM2341 -311h-33h-850q-62 -172 -216 -266.5t-394 -94.5q-217 0 -404 83.5t-319 244.5v141h1235q12 59 12 127v58q-136 8 -218.5 99t-82.5 267l2 256q0 201 -97.5 308.5t-289.5 107.5
q-97 0 -176.5 -31t-132 -83t-88.5 -121.5t-52 -144.5t-16 -155v-39q27 90 105.5 143.5t191.5 53.5q139 0 236.5 -91.5t97.5 -240.5q0 -142 -96 -236.5t-248 -94.5q-179 0 -287 141t-108 362q0 298 151 474t424 176q131 0 230.5 -40.5t160 -113t91 -167t30.5 -208.5v-258
q0 -123 53 -188.5t152 -65.5q73 0 125.5 36t81 100t41 138t12.5 164q0 306 -156 582h133q150 -289 150 -582q0 -100 -15.5 -185.5t-49 -160.5t-92.5 -125.5t-140 -68.5v-66q0 -59 -10 -127h729v1315h127v-1423zM283 311q0 -100 61 -160.5t162 -60.5q100 0 161.5 60.5
t61.5 160.5t-61.5 160.5t-161.5 60.5q-101 0 -162 -60.5t-61 -160.5z" />
    <glyph glyph-name="tmVU" horiz-adv-x="2000" 
d="M1806 -297h-118v297h-656v100q65 82 109.5 200t44.5 249q0 215 -128 343t-351 128q-120 0 -216 -47t-153 -124.5t-87 -170.5t-30 -193v-39q27 90 105.5 143.5t191.5 53.5q139 0 236.5 -91.5t97.5 -240.5q0 -142 -95 -236.5t-247 -94.5q-179 0 -288 141t-109 362
q0 295 160.5 472.5t435.5 177.5q116 0 214.5 -30.5t169.5 -84.5t121 -127.5t74.5 -160t24.5 -181.5q0 -121 -36.5 -240.5t-92.5 -195.5h495v999h127v-1409zM283 311q0 -100 62 -160.5t163 -60.5q100 0 160.5 60.5t60.5 160.5t-61.5 160.5t-161.5 60.5q-101 0 -162 -60.5
t-61 -160.5z" />
    <glyph glyph-name="tmLLLU" horiz-adv-x="2484" 
d="M270 379q0 -204 59 -360t168.5 -254.5t260.5 -148.5t340 -50q265 0 506 90q94 36 186 53q-123 25 -192.5 103t-69.5 188h-664v1112h127v-1001h545v673q0 63 17.5 121.5t54 111.5t103 84.5t155.5 31.5q109 0 200.5 -49.5t150.5 -132.5t91.5 -189t32.5 -221
q0 -253 -136 -397t-405 -144h-145q9 -244 368 -244h54v-110h-33q-44 0 -83 -4t-83 -16.5t-64 -18.5t-75 -26.5t-66 -24.5q-142 -52 -275 -76.5t-300 -24.5q-216 0 -391 59t-301 173t-194.5 290t-68.5 402q0 214 68.5 411.5t161.5 321.5h137q-240 -314 -240 -733zM1661 784
l2 -673h117q221 0 327.5 106t106.5 324q0 90 -20 172.5t-60 152.5t-109 112t-157 42q-104 0 -155.5 -62t-51.5 -174z" />
    <glyph glyph-name="tmLLU" horiz-adv-x="3250" 
d="M3117 309q0 -210 -109.5 -380t-302.5 -281.5t-455.5 -171.5t-570.5 -60q-215 0 -409 27.5t-365 83t-308.5 143t-236.5 201.5t-152.5 266t-53.5 330q0 187 59.5 353t148.5 292h138q-115 -156 -167 -310.5t-52 -334.5q0 -158 51 -293.5t144 -237.5t220.5 -180.5t285 -127.5
t332.5 -74t367 -25q286 0 524.5 50.5t414 147t273 246t97.5 338.5q0 142 -78.5 226t-218.5 84q-113 0 -188.5 -78t-75.5 -195v-348h-127v1001h-463v-1001h-127v588q0 200 -107 316t-300 116q-91 0 -167 -31t-127.5 -83t-87 -121.5t-51.5 -145t-16 -154.5v-39
q27 90 105.5 143.5t191.5 53.5q139 0 236.5 -91.5t97.5 -240.5q0 -142 -96 -236.5t-248 -94.5q-179 0 -287 141t-108 362q0 299 148 474.5t411 175.5q139 0 248.5 -61t156.5 -150v190h922v-111h-205v-426q32 61 106 108.5t172 47.5q183 0 296.5 -119.5t113.5 -302.5z
M918 311q0 -100 61 -160.5t162 -60.5q100 0 161.5 60.5t61.5 160.5t-61.5 160.5t-161.5 60.5q-101 0 -162 -60.5t-61 -160.5z" />
    <glyph glyph-name="tmRRU" horiz-adv-x="2304" 
d="M827 -563q300 0 449 248l-940 -2q80 -112 204.5 -179t286.5 -67zM2109 -315h-32h-662q-176 -361 -588 -361q-207 0 -366.5 89.5t-257.5 238.5v141h1126q90 230 90 635q0 83 -4.5 151t-15 138.5t-31.5 123t-51 95t-76 64.5t-104 22q-111 0 -168.5 -80t-57.5 -199v-743
h-118v743q0 132 -62 205.5t-178 73.5q-117 0 -174 -72.5t-57 -206.5v-743h-119v743q0 179 88 284.5t252 105.5q126 0 205 -59.5t104 -151.5q27 93 103.5 152t181.5 59q89 0 158.5 -36t115.5 -99t75.5 -153.5t42.5 -193.5t13 -225q0 -392 -84 -633h524v1319h127v-1427z" />
    <glyph glyph-name="tmNNNU" horiz-adv-x="3104" 
d="M285 311q0 -100 62 -160.5t163 -60.5q100 0 160.5 60.5t60.5 160.5t-61.5 160.5t-161.5 60.5q-101 0 -162 -60.5t-61 -160.5zM1051 403q0 160 53.5 301t152.5 242q-154 74 -331 74q-143 0 -266.5 -43.5t-209.5 -118.5t-139 -173.5t-65 -209.5q29 78 107.5 123t166.5 45
q137 0 235.5 -91.5t98.5 -240.5q0 -142 -95 -236.5t-247 -94.5q-177 0 -277 120t-100 332q0 149 60.5 279.5t165.5 222.5t252.5 145.5t314.5 53.5q239 0 428 -105q160 107 375 107q159 0 282 -58t198.5 -160.5t113.5 -236t38 -291.5q0 -353 -145 -596h565v1319h127v-1427
h-33h-739q-307 -361 -1001 -361q-352 0 -598 82t-416 246v141h1954q164 226 164 598q0 102 -17 192t-55.5 172t-96.5 141t-145 93.5t-196 34.5q-152 0 -271 -66q132 -103 205.5 -249t73.5 -301q0 -191 -89.5 -309.5t-252.5 -118.5q-159 0 -252.5 113t-93.5 310zM1397 92
q108 0 163.5 86.5t55.5 229.5q0 140 -68.5 266t-189.5 211q-92 -87 -138 -214.5t-46 -267.5q0 -146 57.5 -228.5t165.5 -82.5zM1137 -563q571 0 843 248l-1724 -2q298 -246 881 -246z" />
    <glyph glyph-name="tmSHU" horiz-adv-x="3270" 
d="M1671 92q71 0 123 19t94.5 64.5t64 129t21.5 203.5v491h-514v-702q0 -104 58 -154.5t153 -50.5zM2490 770q0 63 24 125.5t71 105.5h-484v-495q0 -141 -31.5 -244t-90 -164t-134.5 -89.5t-172 -28.5q-157 0 -248.5 84.5t-91.5 222.5v712h-381v-493q0 -141 -31.5 -244
t-90 -164t-134.5 -89.5t-172 -28.5q-157 0 -248.5 84.5t-91.5 222.5v825h127v-815q0 -104 58 -154.5t153 -50.5q56 0 100 11t83 40t65 75t40.5 119.5t14.5 170.5v604h1999q159 0 262 -92t103 -244q0 -90 -39 -168t-119.5 -129t-187.5 -51q-158 0 -255.5 94t-97.5 248z
M2615 772q0 -101 61.5 -166t164.5 -65t164 64.5t61 166.5t-61.5 167t-163.5 65q-103 0 -164.5 -65.5t-61.5 -166.5z" />
    <glyph glyph-name="tmJU" horiz-adv-x="2713" 
d="M1251 121q-69 0 -126 -28t-98 -72t-79.5 -98t-80.5 -108t-90 -98t-119 -72t-158 -28q-169 0 -278 105.5t-109 279.5q0 91 29 163.5t80.5 121.5t126 81.5t162 47t191.5 14.5h314q215 0 336 95t121 263q0 103 -64.5 167.5t-179.5 64.5q-129 0 -194.5 -86t-65.5 -242v-74
h-127v74q0 151 -85.5 238t-242.5 90q-132 0 -198 -56.5t-66 -152.5q0 -97 62.5 -143.5t162.5 -46.5q113 0 184 26v-112q-86 -27 -180 -27q-149 0 -253.5 79t-104.5 224q0 136 99.5 229t283.5 93q166 0 267 -72t130 -199q24 128 106 199.5t226 71.5q69 0 131 -21h903
q159 0 262 -92t103 -244q0 -90 -39 -168t-119.5 -129t-187.5 -51q-158 0 -255.5 94t-97.5 248q0 63 24 125.5t71 105.5h-502q73 -89 73 -213q0 -151 -73 -258.5t-199 -160t-293 -52.5h-305q-116 0 -200.5 -14.5t-152 -49t-102 -97.5t-34.5 -154q0 -129 72 -200.5t188 -71.5
q54 0 101 17t82.5 46.5t67.5 67t62.5 79t61.5 83.5t69 79.5t81 67t102 46.5t128 17q147 0 247 -84.5t100 -216.5q0 -144 -94.5 -228.5t-272.5 -84.5q-78 0 -139 21l2 112q64 -22 139 -22q118 0 178 48.5t60 153.5q0 89 -61 139t-163 50zM2058 772q0 -101 61.5 -166
t164.5 -65t164 64.5t61 166.5t-61.5 167t-163.5 65q-103 0 -164.5 -65.5t-61.5 -166.5z" />
    <glyph glyph-name="tmSSU" horiz-adv-x="3821" 
d="M2519 0h-244v-422h-127v422h-1075v100q55 89 95 208t40 235q0 215 -128 346t-351 131q-120 0 -215.5 -47t-153 -124.5t-87 -170.5t-29.5 -193v-39q27 90 105.5 143.5t191.5 53.5q138 0 235.5 -91.5t97.5 -240.5q0 -142 -95 -236.5t-247 -94.5q-179 0 -288 141t-109 362
q0 295 160.5 472.5t435.5 177.5q144 0 260.5 -47.5t190.5 -129.5t113.5 -188t39.5 -225q0 -120 -35.5 -238t-85.5 -192h533q-207 109 -207 362q0 198 117 325.5t299 127.5q85 0 149.5 -30t100 -79.5t52.5 -104.5t17 -114v-487h244v-113zM2081 113h69v487q0 103 -49 159
t-147 56q-135 0 -211 -96.5t-76 -243.5q0 -175 105 -268.5t309 -93.5zM305 311q0 -100 62 -160.5t163 -60.5q100 0 161 60.5t61 160.5q0 99 -62 160t-162 61q-101 0 -162 -60.5t-61 -160.5zM3041 770q0 63 23.5 125.5t70.5 105.5h-669v111h909q159 0 262 -92t103 -244
q0 -90 -39 -168t-119.5 -129t-187.5 -51q-158 0 -255.5 94t-97.5 248zM3166 772q0 -102 61 -166.5t164 -64.5t164.5 65t61.5 166t-61.5 166.5t-164.5 65.5q-102 0 -163.5 -65t-61.5 -167z" />
    <glyph glyph-name="tmSU" horiz-adv-x="3557" 
d="M1481 1133q165 0 258.5 -106.5t93.5 -283.5v-397q0 -122 54 -188t153 -66q73 0 125.5 36t81 100t41 138t12.5 164q0 247 -109 476v106h920q159 0 261.5 -92t102.5 -244q0 -90 -39 -168t-119.5 -129t-187.5 -51q-157 0 -254.5 93.5t-97.5 248.5q0 63 23.5 125.5
t70.5 105.5h-540q96 -229 96 -471q0 -90 -12 -168t-40.5 -149.5t-72 -122t-111 -80.5t-153.5 -30q-148 0 -240 91.5t-92 276.5v395q0 134 -57 206.5t-174 72.5q-116 0 -178 -73.5t-62 -205.5v-743h-127l2 645q0 177 -99.5 276t-279.5 99q-97 0 -177 -31t-134 -83
t-91.5 -121.5t-54 -144.5t-16.5 -155v-39q27 90 105.5 143.5t191.5 53.5q139 0 236.5 -91.5t97.5 -240.5q0 -142 -96 -236.5t-248 -94.5q-179 0 -287 141t-108 362q0 297 155 473.5t428 176.5q154 0 264.5 -65.5t163.5 -182.5q32 119 116 183.5t204 64.5zM319 311
q0 -100 61.5 -160.5t162.5 -60.5q100 0 161.5 60.5t61.5 160.5t-61.5 160.5t-161.5 60.5q-101 0 -162.5 -60.5t-61.5 -160.5zM2902 772q0 -102 61 -166.5t164 -64.5t164.5 65t61.5 166t-61.5 166.5t-164.5 65.5q-102 0 -163.5 -65t-61.5 -167z" />
    <glyph glyph-name="tmHU" horiz-adv-x="4081" 
d="M113 483q0 295 160.5 472.5t435.5 177.5q116 0 214.5 -30.5t169.5 -84.5t121 -127.5t74.5 -160t24.5 -181.5q0 -121 -36.5 -240.5t-92.5 -195.5h504v630q0 179 88 284.5t252 105.5q126 0 205 -59.5t104 -151.5q27 93 104 152t182 59q71 0 127 -21h885q159 0 262 -92
t103 -244q0 -90 -39 -168t-119.5 -129t-187.5 -51q-158 0 -255.5 94t-97.5 248q0 63 24 125.5t71 105.5h-496q119 -157 119 -475q0 -476 -231 -730.5t-687 -254.5q-407 0 -883.5 20.5t-852.5 20.5q-181 0 -299 -45v117q112 41 301 41q391 0 863 -21.5t871 -21.5
q409 0 602 220t193 654q0 81 -6.5 148t-24.5 134t-47.5 112t-79 73.5t-115.5 28.5q-111 0 -169 -80t-58 -199v-743h-119v743q0 132 -61.5 205.5t-177.5 73.5q-117 0 -174.5 -72.5t-57.5 -206.5v-743h-774v100q65 82 109.5 200t44.5 249q0 215 -128 343t-351 128
q-120 0 -216 -47t-153 -124.5t-87 -170.5t-30 -193v-39q27 90 105.5 143.5t191.5 53.5q139 0 236.5 -91.5t97.5 -240.5q0 -142 -95 -236.5t-247 -94.5q-179 0 -288 141t-109 362zM283 311q0 -100 62 -160.5t163 -60.5q100 0 160.5 60.5t60.5 160.5t-61.5 160.5t-161.5 60.5
q-101 0 -162 -60.5t-61 -160.5zM3426 772q0 -101 61.5 -166t164.5 -65t164 64.5t61 166.5t-61.5 167t-163.5 65q-103 0 -164.5 -65.5t-61.5 -166.5z" />
    </font>
</defs>
</svg>
