<?xml version="1.0" standalone="no"?>
<!DOCTYPE svg PUBLIC "-//W3C//DTD SVG 1.1//EN" "http://www.w3.org/Graphics/SVG/1.1/DTD/svg11.dtd" >
<svg xmlns="http://www.w3.org/2000/svg" xmlns:xlink="http://www.w3.org/1999/xlink" version="1.1">
<metadata>
Created by FontForge 20170731 at Wed Aug  3 17:50:11 2022
 By Aleksey,,,
Copyright (c) 2015 Indian Type Foundry (info@indiantypefoundry.com)
</metadata>
<defs>
<font id="HindMadurai-SemiBold" horiz-adv-x="1157" >
  <font-face 
    font-family="Hind Madurai SemiBold"
    font-weight="600"
    font-stretch="normal"
    units-per-em="2048"
    panose-1="2 0 0 0 0 0 0 0 0 0"
    ascent="1638"
    descent="-410"
    x-height="1038"
    cap-height="1380"
    bbox="-727 -807 5259.03 1970"
    underline-thickness="102"
    underline-position="-307"
    unicode-range="U+0020-FB02"
  />
<missing-glyph horiz-adv-x="1544" 
d="M1204 0h-864v1436h864v-1436zM489 1296v-1157h568v1157h-568z" />
    <glyph glyph-name=".notdef" horiz-adv-x="1544" 
d="M1204 0h-864v1436h864v-1436zM489 1296v-1157h568v1157h-568z" />
    <glyph glyph-name=".null" horiz-adv-x="0" 
 />
    <glyph glyph-name="nonmarkingreturn" horiz-adv-x="682" 
 />
    <glyph glyph-name="space" unicode=" " horiz-adv-x="507" 
 />
    <glyph glyph-name="exclam" unicode="!" horiz-adv-x="563" 
d="M399 459h-235v921h235v-921zM440 145q0 -69 -46.5 -115t-114.5 -46q-69 0 -115.5 46t-46.5 115q0 68 46.5 115t115.5 47q67 0 114 -47t47 -115z" />
    <glyph glyph-name="quotedbl" unicode="&#x22;" horiz-adv-x="720" 
d="M637 879h-211v516h211v-516zM295 879h-209v516h209v-516z" />
    <glyph glyph-name="numbersign" unicode="#" horiz-adv-x="1513" 
d="M979 0h-213l70 328h-314l-69 -328h-211l69 328h-213v190h252l72 332h-238v197h279l69 331h213l-69 -331h313l70 331h211l-70 -331h215v-197h-256l-72 -332h244v-190h-282zM877 518l69 332h-313l-70 -332h314z" />
    <glyph glyph-name="dollar" unicode="$" horiz-adv-x="1044" 
d="M586 -236h-207v226q-168 16 -285 82v264q176 -127 385 -127q94 0 151.5 46t57.5 124q0 22 -7 41.5t-16 35t-29.5 31.5t-35 26.5t-46 26t-49 23.5t-56.5 25.5t-58 25.5q-52 24 -91 46t-82 56.5t-70.5 73t-45.5 93t-18 118.5q0 159 106.5 262t288.5 123v226h209v-230
q121 -17 207 -59v-250q-70 42 -157.5 67t-170.5 25q-96 0 -150.5 -42.5t-54.5 -110.5q0 -30 14 -56.5t32.5 -45t56 -41t64.5 -35t77 -35.5q51 -22 86 -39.5t80.5 -45t75.5 -58t58 -70t41.5 -90t13.5 -109.5q0 -159 -102 -264.5t-273 -130.5v-228z" />
    <glyph glyph-name="percent" unicode="%" horiz-adv-x="1894" 
d="M674 -2h-225l759 1417h228zM825 1075q0 -151 -106.5 -257.5t-257.5 -106.5q-152 0 -258.5 106.5t-106.5 257.5q0 152 106.5 258.5t258.5 106.5q151 0 257.5 -106.5t106.5 -258.5zM297 1075q0 -66 48.5 -114t115.5 -48q66 0 114 48t48 114q0 67 -48 115.5t-114 48.5
q-67 0 -115.5 -48.5t-48.5 -115.5zM1800 348q0 -151 -106.5 -257.5t-257.5 -106.5q-152 0 -258.5 106.5t-106.5 257.5t106.5 258t258.5 107q151 0 257.5 -107t106.5 -258zM1274 348q0 -66 47.5 -114t114.5 -48q66 0 113.5 48t47.5 114q0 67 -47.5 115.5t-113.5 48.5
q-67 0 -114.5 -48t-47.5 -116z" />
    <glyph glyph-name="ampersand" unicode="&#x26;" horiz-adv-x="1488" 
d="M512 1047q0 -58 39 -117.5t117 -138.5q192 99 192 235q0 81 -48 129.5t-134 48.5q-71 0 -118.5 -41t-47.5 -116zM1483 0h-312l-100 96q-165 -112 -399 -112q-255 0 -406 111t-151 276q0 125 73.5 211t233.5 139q-77 82 -119.5 159t-42.5 164q0 172 117 269.5t303 97.5
q197 0 313.5 -102t116.5 -271q0 -122 -72 -216.5t-233 -168.5l258 -247q42 80 45 184h225q-6 -198 -108 -342zM672 193q135 0 237 57l-323 311l-19 19q-109 -37 -154.5 -85.5t-45.5 -115.5q0 -84 85.5 -135t219.5 -51z" />
    <glyph glyph-name="quotesingle" unicode="'" horiz-adv-x="380" 
d="M295 879h-209v516h209v-516z" />
    <glyph glyph-name="parenleft" unicode="(" horiz-adv-x="671" 
d="M705 -401h-267q-332 415 -332 933q0 524 320 916h260q-154 -195 -236.5 -444.5t-82.5 -479.5q0 -223 86.5 -471.5t251.5 -453.5z" />
    <glyph glyph-name="parenright" unicode=")" horiz-adv-x="671" 
d="M231 -401h-264q164 205 250 453.5t86 471.5q0 231 -81.5 480t-235.5 444h260q153 -189 236 -421t83 -495q0 -515 -334 -933z" />
    <glyph glyph-name="asterisk" unicode="*" horiz-adv-x="962" 
d="M805 692l-162 -117l-117 160q-32 50 -43 86q-12 -39 -45 -84l-119 -162l-161 117l118 162q31 42 70 68h-6q-45 0 -92 16l-191 61l64 191l188 -62q48 -15 88 -47q-16 46 -16 101v198h201v-198q0 -53 -17 -99q36 28 88 45l191 62l61 -191l-188 -61q-49 -14 -92 -14h-9
q38 -24 72 -70z" />
    <glyph glyph-name="plus" unicode="+" horiz-adv-x="1179" 
d="M1077 584h-377v-375h-227v375h-371v221h371v379h227v-379h377v-221z" />
    <glyph glyph-name="comma" unicode="," horiz-adv-x="548" 
d="M199 -258h-213l200 506h285z" />
    <glyph glyph-name="hyphen" unicode="-" horiz-adv-x="722" 
d="M623 438h-521v207h521v-207z" />
    <glyph glyph-name="period" unicode="." horiz-adv-x="456" 
d="M387 143q0 -66 -46 -112.5t-112 -46.5t-112.5 46.5t-46.5 112.5t46.5 112t112.5 46t112 -46t46 -112z" />
    <glyph glyph-name="slash" unicode="/" horiz-adv-x="903" 
d="M244 -211h-254l739 1659h256z" />
    <glyph glyph-name="zero" unicode="0" horiz-adv-x="1118" 
d="M1040 676q0 -154 -30.5 -280t-89.5 -218t-151.5 -143t-211.5 -51q-153 0 -262.5 88t-163 242.5t-53.5 361.5q0 318 125 503t354 185q231 0 357 -185t126 -503zM330 676q0 -226 60.5 -347.5t166.5 -121.5q110 0 170.5 121t60.5 348t-62 346t-169 119q-104 0 -165.5 -119.5
t-61.5 -345.5z" />
    <glyph glyph-name="one" unicode="1" horiz-adv-x="733" 
d="M598 0h-244v1073l-327 -199v256l354 209h217v-1339z" />
    <glyph glyph-name="two" unicode="2" horiz-adv-x="1019" 
d="M942 0h-874v197q110 78 208 162.5t186.5 179.5t140.5 192t52 178q0 103 -59.5 160t-171.5 57q-81 0 -169.5 -35.5t-156.5 -91.5v240q67 52 168 84.5t201 32.5q197 0 320.5 -107.5t123.5 -302.5q0 -184 -130 -370t-373 -365h534v-211z" />
    <glyph glyph-name="three" unicode="3" horiz-adv-x="974" 
d="M891 369q0 -168 -123.5 -273.5t-347.5 -105.5q-92 0 -188.5 18t-163.5 49v240q159 -86 335 -86q112 0 174 52.5t62 133.5q0 83 -69.5 130.5t-219.5 47.5h-78v207h78q109 0 182.5 47t73.5 134t-56.5 129.5t-154.5 42.5q-69 0 -144.5 -25t-133.5 -61v231q140 76 293 76
q210 0 330 -103t120 -262q0 -110 -54 -192t-157 -123q114 -28 178 -107t64 -200z" />
    <glyph glyph-name="four" unicode="4" horiz-adv-x="1134" 
d="M315 512h353v674zM913 0h-245v301h-596v211l446 829h395v-829h177v-211h-177v-301z" />
    <glyph glyph-name="five" unicode="5" horiz-adv-x="1032" 
d="M958 436q0 -204 -135 -327t-379 -123q-212 0 -354 71v236q60 -36 145 -59t168 -23q151 0 226.5 59.5t75.5 171.5q0 91 -65 142t-183 51q-80 0 -163 -21t-142 -49v776h720v-211h-479v-294q59 12 115 12q214 0 332 -110.5t118 -301.5z" />
    <glyph glyph-name="six" unicode="6" horiz-adv-x="1091" 
d="M1032 434q0 -203 -123.5 -335t-333.5 -132q-162 0 -273.5 83.5t-163.5 226t-52 333.5q0 224 80.5 397t227 268t335.5 95q107 0 201 -33v-231q-78 41 -185 41q-164 0 -265.5 -110t-131.5 -285q122 112 291 112q179 0 286 -117t107 -313zM578 188q93 0 146.5 67t53.5 177
q0 100 -53 159.5t-145 59.5q-135 0 -242 -112q11 -180 76 -265.5t164 -85.5z" />
    <glyph glyph-name="seven" unicode="7" horiz-adv-x="960" 
d="M393 0h-262l535 1128h-631v213h891v-213z" />
    <glyph glyph-name="eight" unicode="8" horiz-adv-x="1107" 
d="M1024 365q0 -173 -133.5 -278t-341.5 -105t-336.5 100.5t-128.5 271.5q0 115 56 195t155 123q-90 45 -140.5 121.5t-50.5 175.5q0 124 62 214t161 133.5t222 43.5q94 0 174 -23.5t142.5 -69.5t98 -122.5t35.5 -175.5q0 -97 -48 -171.5t-136 -119.5q209 -82 209 -313z
M332 362q0 -76 54.5 -128t164.5 -52q111 0 168 55.5t57 133.5q0 82 -57.5 137t-167.5 55q-109 -1 -164 -60t-55 -141zM354 973q0 -92 57 -141.5t144 -49.5q84 0 140.5 50t56.5 141q0 82 -47.5 134t-155.5 52q-95 0 -145 -54.5t-50 -131.5z" />
    <glyph glyph-name="nine" unicode="9" horiz-adv-x="1069" 
d="M518 676q143 0 227 108q-7 172 -67.5 261.5t-163.5 89.5q-94 0 -150.5 -61.5t-56.5 -168.5q0 -104 57 -166.5t154 -62.5zM991 733q0 -367 -163 -558t-453 -191q-137 0 -240 39v235q103 -49 217 -49q172 0 266 90.5t119 273.5q-91 -102 -280 -102q-174 0 -289 117.5
t-115 312.5q0 196 121 326.5t328 130.5q157 0 268.5 -80.5t166 -219.5t54.5 -325z" />
    <glyph glyph-name="colon" unicode=":" horiz-adv-x="546" 
d="M430 827q0 -66 -46 -111.5t-112 -45.5t-110.5 45.5t-44.5 111.5t44.5 112t110.5 46t112 -46t46 -112zM430 156q0 -66 -46 -111t-112 -45t-110.5 45t-44.5 111t44.5 111.5t110.5 45.5t112 -45.5t46 -111.5z" />
    <glyph glyph-name="semicolon" unicode=";" horiz-adv-x="548" 
d="M199 -258h-213l200 506h285zM463 827q0 -66 -47 -111.5t-113 -45.5t-111 45.5t-45 111.5q0 65 45.5 111.5t110.5 46.5q66 0 113 -46.5t47 -111.5z" />
    <glyph glyph-name="less" unicode="&#x3c;" 
d="M1063 453v-246l-961 373v235l961 373v-248l-713 -242z" />
    <glyph glyph-name="equal" unicode="=" horiz-adv-x="1179" 
d="M1077 817h-975v205h975v-205zM1077 371h-975v207h975v-207z" />
    <glyph glyph-name="greater" unicode="&#x3e;" 
d="M1057 580l-961 -373v246l711 245l-711 242v248l961 -373v-235z" />
    <glyph glyph-name="question" unicode="?" horiz-adv-x="933" 
d="M502 459h-228l-6 321q346 0 346 217q0 86 -53 137.5t-158 51.5q-142 0 -284 -92v235q129 68 317 68q194 0 312 -100.5t118 -274.5q0 -74 -24.5 -137t-63 -104.5t-87.5 -72t-95.5 -44.5t-89.5 -17zM547 145q0 -69 -47 -115t-115 -46q-69 0 -115.5 46t-46.5 115
q0 68 46.5 115t115.5 47q67 0 114.5 -47.5t47.5 -114.5z" />
    <glyph glyph-name="at" unicode="@" horiz-adv-x="1945" 
d="M1303 -326q-167 -80 -385 -80q-192 0 -349 65t-259 176.5t-157 258.5t-55 314q0 192 75.5 363.5t202.5 293.5t301 193t365 71q164 0 312.5 -54t262 -151t180.5 -244.5t67 -322.5q0 -121 -33 -224t-88 -171.5t-126.5 -107t-148.5 -38.5q-119 0 -187.5 58t-96.5 149
q-45 -100 -126.5 -153.5t-183.5 -53.5q-160 0 -253 118t-93 294q0 134 57 240t150.5 162.5t204.5 56.5q164 0 244 -142q4 44 8 136h201l-15 -133q-18 -276 -18 -322q0 -217 117 -217q78 0 129 90.5t51 241.5q0 145 -49 259t-135 184t-198 106t-243 36q-203 0 -367.5 -100
t-255 -265.5t-90.5 -359.5q0 -143 48.5 -259.5t131.5 -190.5t190.5 -114t228.5 -40q208 0 393 92zM938 199q74 0 138 55t89 156q1 15 2 43.5t2 42.5q-15 102 -66 155.5t-130 53.5q-95 0 -159 -79.5t-64 -209.5q0 -98 54.5 -157.5t133.5 -59.5z" />
    <glyph glyph-name="A" unicode="A" horiz-adv-x="1380" 
d="M512 584l-18 -60h389l-19 62q-69 222 -113 372.5t-53 189.5l-10 40q-18 -103 -176 -604zM328 0h-271l467 1380h334l467 -1380h-278l-99 313h-522z" />
    <glyph glyph-name="B" unicode="B" horiz-adv-x="1212" 
d="M702 0h-559v1380h490q222 0 344.5 -104t122.5 -270q0 -112 -61 -195.5t-158 -110.5q110 -26 182 -107t72 -220q0 -164 -115.5 -268.5t-317.5 -104.5zM600 1169h-199v-370h156q139 0 209 55.5t70 140.5q0 80 -59 127t-177 47zM612 592h-211v-381h222q247 0 247 188
q0 90 -63 141.5t-195 51.5z" />
    <glyph glyph-name="C" unicode="C" horiz-adv-x="1247" 
d="M1151 66q-125 -82 -356 -82q-200 0 -360.5 85.5t-253.5 247.5t-93 373q0 207 90 369t251 251t366 89q226 0 354 -76v-252q-87 51 -163 70.5t-181 19.5q-188 0 -314 -128.5t-126 -342.5q0 -216 125.5 -342.5t328.5 -126.5q89 0 178 27t154 76v-258z" />
    <glyph glyph-name="D" unicode="D" horiz-adv-x="1382" 
d="M594 0h-451v1380h451q153 0 284.5 -51t223 -140.5t143 -213.5t51.5 -266q0 -318 -190 -513.5t-512 -195.5zM586 1163h-178v-948h182q216 0 329 134t113 360q0 199 -119.5 326.5t-326.5 127.5z" />
    <glyph glyph-name="E" unicode="E" horiz-adv-x="1081" 
d="M967 0h-824v1380h815v-211h-555v-374h494v-209h-494v-375h564v-211z" />
    <glyph glyph-name="F" unicode="F" horiz-adv-x="1021" 
d="M883 551h-480v-551h-260v1380h809v-211h-549v-407h480v-211z" />
    <glyph glyph-name="G" unicode="G" horiz-adv-x="1419" 
d="M1290 119q-80 -58 -201 -96.5t-270 -38.5q-215 0 -380 84t-258 245.5t-93 378.5q0 159 56 293t153.5 226t232.5 143t291 51q237 0 404 -88v-264q-187 112 -400 112q-208 0 -334 -129t-126 -344q0 -219 124 -345t340 -126q109 0 207 37v326h-254v221h508v-664h-2z" />
    <glyph glyph-name="H" unicode="H" horiz-adv-x="1372" 
d="M1229 0h-260v580h-568v-580h-258v1380h258v-577h568v577h260v-1380z" />
    <glyph glyph-name="I" unicode="I" horiz-adv-x="577" 
d="M418 0h-258v1380h258v-1380z" />
    <glyph glyph-name="J" unicode="J" horiz-adv-x="776" 
d="M641 393q0 -195 -98.5 -295t-270.5 -100q-56 0 -115 11.5t-96 31.5v233q76 -49 164 -49q158 0 158 168v985h258v-985z" />
    <glyph glyph-name="K" unicode="K" horiz-adv-x="1286" 
d="M1243 0h-325l-496 684l477 696h309l-479 -692zM401 0h-258v1380h258v-1380z" />
    <glyph glyph-name="L" unicode="L" horiz-adv-x="991" 
d="M940 0h-797v1380h258v-1151h539v-229z" />
    <glyph glyph-name="M" unicode="M" horiz-adv-x="1802" 
d="M377 0h-258l110 1380h295l189 -501q48 -128 91 -254t62 -188l19 -62q63 214 176 504l192 501h295l135 -1380h-258l-49 539q-11 121 -20.5 241.5t-13.5 181.5l-3 60q-74 -212 -176 -483l-192 -519h-176l-189 519q-48 135 -88.5 254t-57.5 171l-16 52q0 -100 -26 -477z" />
    <glyph glyph-name="N" unicode="N" horiz-adv-x="1409" 
d="M401 0h-258v1380h293l332 -575q83 -142 147 -264t87 -173l22 -51q-16 172 -16 488v575h260v-1380h-295l-336 573q-80 135 -144.5 259t-88.5 180l-25 57q22 -196 22 -494v-575z" />
    <glyph glyph-name="O" unicode="O" horiz-adv-x="1480" 
d="M1393 694q0 -319 -177.5 -513.5t-474.5 -194.5t-475 194t-178 514q0 212 79.5 373t227.5 249.5t344 88.5q199 0 347.5 -88.5t227.5 -249t79 -373.5zM365 694q0 -218 102 -344.5t274 -126.5q175 0 275 126t100 345t-100.5 346t-276.5 127q-173 0 -273.5 -127.5
t-100.5 -345.5z" />
    <glyph glyph-name="P" unicode="P" horiz-adv-x="1138" 
d="M582 469h-181v-469h-258v1380h432q233 0 374 -127t141 -325q0 -211 -144 -335t-364 -124zM553 1169h-152v-491h146q141 0 210.5 68t69.5 182q0 112 -69 176.5t-205 64.5z" />
    <glyph glyph-name="Q" unicode="Q" horiz-adv-x="1492" 
d="M1393 694q0 -224 -90 -390.5t-254 -248.5l419 -243l-290 -113l-406 287h-31q-297 0 -475 194t-178 514q0 212 79.5 373t227.5 249.5t344 88.5q199 0 347.5 -88.5t227.5 -249t79 -373.5zM365 694q0 -218 102 -344.5t274 -126.5q175 0 275 126t100 345t-100.5 346
t-276.5 127q-173 0 -273.5 -127.5t-100.5 -345.5z" />
    <glyph glyph-name="R" unicode="R" horiz-adv-x="1206" 
d="M569 1167h-168v-450h172q119 0 178.5 60.5t59.5 168.5q0 106 -62.5 163.5t-179.5 57.5zM401 0h-258v1380h426q235 0 369.5 -119t134.5 -317q-1 -148 -71 -249t-191 -150l354 -545h-309l-313 504h-142v-504z" />
    <glyph glyph-name="S" unicode="S" horiz-adv-x="1060" 
d="M977 387q0 -184 -132.5 -293.5t-346.5 -109.5q-106 0 -209.5 23t-177.5 65v264q176 -127 385 -127q94 0 151.5 46t57.5 124q0 37 -16.5 66.5t-52.5 54.5t-71 42.5t-95 44.5q-22 10 -34 15q-41 19 -69.5 33.5t-66.5 37t-64 44t-53.5 52.5t-44 64t-27.5 76t-11 92
q0 177 130 283.5t345 106.5q194 0 336 -68v-250q-154 92 -327 92q-96 0 -150.5 -42.5t-54.5 -110.5q0 -35 17 -65t52.5 -56t71 -44.5t92.5 -43.5q54 -24 88.5 -41t82.5 -45t78 -58t59 -70t43 -91t14 -111z" />
    <glyph glyph-name="T" unicode="T" horiz-adv-x="1064" 
d="M1014 1167h-350v-1167h-261v1167h-350v213h961v-213z" />
    <glyph glyph-name="U" unicode="U" horiz-adv-x="1349" 
d="M1214 530q0 -269 -144.5 -408.5t-395.5 -139.5q-246 0 -392.5 138t-146.5 396v864h258v-862q0 -82 22 -141.5t62 -93t88.5 -49t108.5 -15.5q63 0 112 15.5t88.5 49.5t60.5 95.5t21 148.5v852h258v-850z" />
    <glyph glyph-name="V" unicode="V" horiz-adv-x="1333" 
d="M809 0h-295l-463 1380h281l170 -549q51 -164 92 -313.5t56 -217.5l16 -67q48 230 165 598l173 549h276z" />
    <glyph glyph-name="W" unicode="W" horiz-adv-x="1961" 
d="M717 0h-297l-369 1380h273l129 -510q34 -137 66.5 -284.5t48.5 -225.5l16 -79q65 258 159 589l140 490h209l141 -490l164 -594q51 286 127 596l125 508h262l-352 -1380h-299l-125 436q-51 174 -87.5 307t-47.5 179l-11 47q-28 -145 -143 -533z" />
    <glyph glyph-name="X" unicode="X" horiz-adv-x="1318" 
d="M375 0h-309l438 698l-418 682h301l264 -452l256 452h314l-418 -682l452 -698h-307l-293 477z" />
    <glyph glyph-name="Y" unicode="Y" horiz-adv-x="1277" 
d="M766 0h-258v504l-471 876h301l92 -200q80 -175 131 -292t63 -147l11 -30q18 77 211 469l94 200h301l-475 -868v-512z" />
    <glyph glyph-name="Z" unicode="Z" horiz-adv-x="1230" 
d="M1114 0h-997v197l659 972h-649v211h960v-190l-661 -979h688v-211z" />
    <glyph glyph-name="bracketleft" unicode="[" horiz-adv-x="702" 
d="M680 -391h-537v1839h537v-215h-301v-1407h301v-217z" />
    <glyph glyph-name="backslash" unicode="\" horiz-adv-x="903" 
d="M913 -211h-256l-741 1659h258z" />
    <glyph glyph-name="bracketright" unicode="]" horiz-adv-x="702" 
d="M559 -391h-536v217h301v1407h-301v215h536v-1839z" />
    <glyph glyph-name="asciicircum" unicode="^" horiz-adv-x="983" 
d="M309 680h-231l301 537h227l299 -537h-233l-180 346z" />
    <glyph glyph-name="underscore" unicode="_" horiz-adv-x="1130" 
d="M1083 -289h-1036v207h1036v-207z" />
    <glyph glyph-name="grave" unicode="`" horiz-adv-x="962" 
d="M705 1288h-207l-238 346h258z" />
    <glyph glyph-name="a" unicode="a" horiz-adv-x="1038" 
d="M489 174q82 0 128.5 48t46.5 126v98h-127q-97 0 -148 -39.5t-51 -101.5t38 -96.5t113 -34.5zM674 125q-30 -55 -96 -94t-175 -39q-148 0 -234.5 86t-86.5 217q0 149 110.5 232t319.5 83h152v64q0 87 -45 131.5t-154 44.5q-81 0 -162 -25.5t-143 -66.5v227
q50 31 141.5 51.5t194.5 20.5q214 0 318 -98t104 -295v-664h-244v125z" />
    <glyph glyph-name="b" unicode="b" horiz-adv-x="1218" 
d="M383 0h-248v1448h248v-567q110 172 311 172q195 0 321 -145t126 -390q0 -106 -30 -201t-85 -169.5t-140.5 -118t-189.5 -43.5q-205 0 -313 174v-160zM383 528q0 -161 73.5 -246t184.5 -85q105 0 177.5 88t72.5 229q0 156 -72.5 243t-179.5 87q-46 0 -89.5 -18t-82 -54
t-61.5 -99.5t-23 -144.5z" />
    <glyph glyph-name="c" unicode="c" horiz-adv-x="962" 
d="M885 45q-108 -63 -271 -63q-240 0 -388 151t-148 383q1 110 38 207t105.5 171.5t173 117.5t232.5 43q149 0 258 -58v-217q-104 66 -234 66q-143 0 -231.5 -90t-89.5 -240q5 -148 89 -238t230 -90q125 0 236 70v-213z" />
    <glyph glyph-name="d" unicode="d" horiz-adv-x="1216" 
d="M330 514q0 -142 71.5 -229.5t178.5 -87.5q111 0 184.5 85t73.5 246q0 81 -23 144.5t-61.5 99.5t-82 54t-89.5 18q-107 0 -179.5 -87t-72.5 -243zM1083 0h-245v162q-52 -86 -133 -131t-183 -45q-137 0 -240 75.5t-153.5 195t-50.5 261.5q0 246 126 390.5t322 144.5
q98 0 178.5 -44.5t133.5 -129.5v569h245v-1448z" />
    <glyph glyph-name="e" unicode="e" horiz-adv-x="1083" 
d="M926 57q-53 -33 -141.5 -50t-172.5 -17q-248 0 -391 147t-143 381q0 125 37 226.5t102 167.5t150.5 101.5t183.5 35.5q203 0 321.5 -123t118.5 -359q0 -56 -14 -147h-651q27 -113 112 -172.5t211 -59.5q163 0 277 82v-213zM557 856q-87 0 -152 -64.5t-83 -187.5h436v31
q-5 100 -55 160.5t-146 60.5z" />
    <glyph glyph-name="f" unicode="f" horiz-adv-x="696" 
d="M666 854h-207v-854h-246v854h-152v184h152v62q0 173 96 271.5t266 98.5q78 0 136 -18v-207q-55 21 -103 21q-71 0 -110 -38.5t-39 -129.5v-60h207v-184z" />
    <glyph glyph-name="g" unicode="g" horiz-adv-x="1169" 
d="M1049 94q0 -126 -40.5 -222.5t-111 -154.5t-159.5 -87t-193 -29q-206 0 -359 73v250q140 -98 334 -98q142 0 212.5 65.5t70.5 204.5v90q-93 -153 -295 -153q-82 0 -156 30.5t-134.5 89.5t-96 157t-35.5 222q0 225 118 372t310 147q195 0 289 -162v149h246v-944zM342 532
q0 -146 63 -222.5t162 -76.5q101 0 168.5 78.5t67.5 206.5q0 166 -65 244t-167 78q-106 0 -167.5 -83.5t-61.5 -224.5z" />
    <glyph glyph-name="h" unicode="h" 
d="M1034 0h-246v637q0 99 -50 154t-130 55q-30 0 -59.5 -8t-61 -28.5t-55 -51.5t-38.5 -83t-15 -118v-557h-246v1448h246v-586q84 189 317 189q152 0 245 -95t93 -276v-680z" />
    <glyph glyph-name="i" unicode="i" horiz-adv-x="532" 
d="M389 0h-246v1038h246v-1038zM414 1350q0 -63 -43 -106.5t-105 -43.5t-104.5 43.5t-42.5 106.5q0 62 42.5 104.5t104.5 42.5t105 -43t43 -104z" />
    <glyph glyph-name="j" unicode="j" horiz-adv-x="526" 
d="M393 -70q0 -154 -84 -243.5t-239 -89.5q-78 0 -156 32v195q74 -31 125 -31q108 0 108 141v1104h246v-1108zM418 1350q0 -63 -43.5 -106.5t-106.5 -43.5q-62 0 -104.5 43.5t-42.5 106.5q0 62 42.5 104.5t104.5 42.5q63 0 106.5 -42.5t43.5 -104.5z" />
    <glyph glyph-name="k" unicode="k" horiz-adv-x="1069" 
d="M379 0h-246v1423h246v-872l366 487h287l-381 -495l389 -543h-288l-373 537v-537z" />
    <glyph glyph-name="l" unicode="l" horiz-adv-x="532" 
d="M389 0h-246v1448h246v-1448z" />
    <glyph glyph-name="m" unicode="m" horiz-adv-x="1726" 
d="M1606 0h-248v637q0 100 -41 154.5t-119 54.5q-35 0 -69 -15t-65.5 -46t-51 -90t-19.5 -138v-557h-248v637q0 100 -40.5 154.5t-118.5 54.5q-36 0 -70 -15t-66 -46t-51.5 -90t-19.5 -138v-557h-246v1038h246v-164q42 84 118 130.5t175 46.5q112 0 187.5 -50.5
t107.5 -146.5q41 93 122.5 145t186.5 52q158 0 244 -96t86 -271v-684z" />
    <glyph glyph-name="n" unicode="n" 
d="M1034 0h-246v639q0 102 -49 154.5t-133 52.5q-96 0 -161.5 -75t-65.5 -214v-557h-246v1038h246v-178q42 92 124 141.5t195 49.5q156 0 246 -95t90 -266v-690z" />
    <glyph glyph-name="o" unicode="o" 
d="M1079 522q0 -114 -33 -212t-95 -170.5t-158 -114t-215 -41.5q-158 0 -273 70.5t-171 187.5t-56 266q0 155 60 278.5t175 196t265 72.5q161 0 276 -72.5t170 -191t55 -269.5zM336 516q0 -143 64 -239.5t180 -96.5q120 0 181.5 94t61.5 240q0 71 -13.5 130.5t-41.5 107.5
t-76.5 75t-113.5 27q-117 0 -179.5 -96.5t-62.5 -241.5z" />
    <glyph glyph-name="p" unicode="p" horiz-adv-x="1216" 
d="M379 -391h-246v1429h246v-159q110 174 317 174q202 0 322.5 -146t120.5 -383q0 -234 -120 -386t-325 -152q-209 0 -315 170v-547zM379 526q0 -158 75.5 -243.5t182.5 -85.5q111 0 180.5 85t69.5 238t-69.5 238.5t-176.5 85.5q-49 0 -94 -18.5t-83.5 -55t-61.5 -99.5
t-23 -145z" />
    <glyph glyph-name="q" unicode="q" horiz-adv-x="1216" 
d="M330 520q0 -150 72.5 -236.5t181.5 -86.5q105 0 179.5 85.5t74.5 243.5q0 82 -22.5 145t-60.5 99.5t-83 55t-94 18.5q-105 0 -176.5 -87.5t-71.5 -236.5zM1083 -391h-245v551q-53 -86 -134 -130t-180 -44q-137 0 -239.5 71.5t-154.5 192.5t-52 274q0 236 121.5 382.5
t324.5 146.5q204 0 314 -174v159h245v-1429z" />
    <glyph glyph-name="r" unicode="r" horiz-adv-x="722" 
d="M379 0h-248l2 1038h246v-184q34 90 100.5 141.5t161.5 51.5q39 0 70 -7v-237q-46 20 -105 20q-101 0 -164 -81.5t-63 -204.5v-537z" />
    <glyph glyph-name="s" unicode="s" horiz-adv-x="874" 
d="M811 299q0 -146 -104.5 -227.5t-278.5 -81.5q-93 0 -176 17.5t-135 45.5v226q61 -40 139 -66.5t158 -26.5q68 0 105.5 26t37.5 71q0 35 -30.5 65.5t-59.5 44.5t-101 44q-19 8 -28 12q-48 22 -84 45t-71 58t-53.5 83.5t-18.5 107.5q0 144 108.5 226t272.5 82
q160 0 262 -45v-218q-102 62 -256 62q-63 0 -99.5 -27t-36.5 -71q0 -17 5.5 -31.5t18.5 -27.5t25 -23t35 -22t38.5 -19t45 -20.5t45.5 -20.5q51 -25 87.5 -48.5t73.5 -58t56 -80.5t19 -102z" />
    <glyph glyph-name="t" unicode="t" horiz-adv-x="776" 
d="M707 25q-71 -35 -185 -35q-336 0 -336 340v524h-155v184h155v250h246v-250h258v-184h-258v-528q0 -65 35 -99t96 -34q79 0 144 43v-211z" />
    <glyph glyph-name="u" unicode="u" 
d="M1024 0h-248v170q-82 -180 -319 -180q-157 0 -245.5 90t-88.5 256v702h246v-645q0 -98 47.5 -149t132.5 -51q106 0 166.5 71.5t60.5 216.5v557h248v-1038z" />
    <glyph glyph-name="v" unicode="v" horiz-adv-x="1073" 
d="M668 0h-267l-374 1038h258l137 -440q41 -129 69 -230.5t36 -137.5l8 -37q20 115 116 405l144 440h254z" />
    <glyph glyph-name="w" unicode="w" horiz-adv-x="1640" 
d="M621 0h-267l-327 1038h256l94 -342q41 -148 68.5 -263t34.5 -156l7 -41q21 125 119 460l101 342h223l100 -342q44 -152 74 -267.5t38 -155.5l7 -40q21 122 121 463l98 342h246l-330 -1038h-266l-92 340q-37 134 -64 243t-35 151l-8 42q-26 -136 -106 -436z" />
    <glyph glyph-name="x" unicode="x" horiz-adv-x="1040" 
d="M309 0h-270l362 524l-340 514h277l194 -338l205 338h275l-361 -516l348 -522h-272l-205 348z" />
    <glyph glyph-name="y" unicode="y" horiz-adv-x="1058" 
d="M666 29q-82 -218 -201 -317t-275 -99q-58 0 -102 10v203q33 -8 70 -8q186 0 264 202l-410 1018h273l121 -331q55 -148 89 -249t41 -128l7 -27q20 73 131 404l108 331h258z" />
    <glyph glyph-name="z" unicode="z" horiz-adv-x="960" 
d="M877 0h-791v182l481 660h-463v196h746v-172l-483 -667h510v-199z" />
    <glyph glyph-name="braceleft" unicode="{" horiz-adv-x="743" 
d="M700 -387q-67 -23 -120 -23q-130 0 -217 97.5t-87 249.5q0 49 16.5 133.5t16.5 122.5q0 84 -45.5 146t-130.5 69q-9 1 -18.5 1t-17.5 -0.5t-9 -0.5v239q22 0 45 2q82 4 129 67t47 146q0 37 -16.5 122t-16.5 134q0 152 86.5 248t217.5 96q61 0 120 -20v-232q-32 19 -65 19
q-50 0 -81.5 -36.5t-31.5 -92.5q0 -36 15.5 -125.5t15.5 -143.5q0 -121 -68 -204.5t-174 -98.5q105 -15 173.5 -100t68.5 -207q0 -53 -15.5 -142.5t-15.5 -125.5q0 -56 31 -91.5t82 -35.5q35 0 65 18v-231z" />
    <glyph glyph-name="bar" unicode="|" horiz-adv-x="532" 
d="M383 -397h-233v1820h233v-1820z" />
    <glyph glyph-name="braceright" unicode="}" horiz-adv-x="743" 
d="M465 -63q0 -153 -86 -250t-217 -97q-52 0 -119 23v231q30 -18 63 -18q51 0 83 35.5t32 91.5q0 36 -15.5 125.5t-15.5 142.5q0 122 68.5 207t173.5 100q-106 15 -174 98.5t-68 204.5q0 54 15.5 143.5t15.5 125.5q0 56 -32 92.5t-83 36.5q-31 0 -63 -19v232q59 20 119 20
q132 0 217.5 -96t85.5 -248q0 -49 -15.5 -134t-15.5 -122q0 -84 46.5 -146.5t129.5 -66.5q20 -2 45 -2v-239h-45q-85 -7 -130.5 -69t-45.5 -146q0 -38 15.5 -122.5t15.5 -133.5z" />
    <glyph glyph-name="asciitilde" unicode="~" horiz-adv-x="1296" 
d="M455 510q-69 0 -119.5 -30.5t-102.5 -96.5l-170 137q65 90 153.5 151.5t186.5 61.5q77 0 147.5 -18.5t114.5 -41t96 -41t95 -18.5q64 0 110.5 30.5t92.5 90.5l172 -135q-139 -209 -330 -209q-69 0 -136 18.5t-110.5 41t-98 41t-101.5 18.5z" />
    <glyph glyph-name="exclamdown" unicode="&#xa1;" horiz-adv-x="563" 
d="M399 -338h-235v922h235v-922zM440 897q0 -68 -47 -115t-114 -47q-69 0 -115.5 47t-46.5 115q0 69 46.5 115.5t115.5 46.5q68 0 114.5 -46.5t46.5 -115.5z" />
    <glyph glyph-name="cent" unicode="&#xa2;" horiz-adv-x="958" 
d="M877 41q-71 -36 -162 -49v-219h-207v219q-196 34 -315 177.5t-119 346.5q2 198 117 344t317 182v224h207v-219q82 -13 162 -52v-213q-103 62 -224 62q-144 0 -235 -89.5t-92 -238.5q5 -147 91 -236.5t232 -89.5q119 0 228 64v-213z" />
    <glyph glyph-name="sterling" unicode="&#xa3;" horiz-adv-x="1091" 
d="M1020 0h-916v205q97 49 133.5 121t36.5 186q0 37 -2 55h-166v183h144q-10 78 -10 133q0 223 116 346t340 123q152 0 258 -62v-235q-97 63 -211 63q-117 0 -176 -58t-59 -181q0 -39 8 -129h352v-183h-331q2 -18 2 -55q0 -112 -34 -184t-106 -117h621v-211z" />
    <glyph glyph-name="currency" unicode="&#xa4;" horiz-adv-x="1148" 
d="M330 254l-121 -119l-148 144l121 116q-65 108 -65 240q0 134 65 239l-121 121l148 142l121 -119q109 67 248 67q131 0 241 -63l119 115l147 -142l-118 -118q65 -105 65 -236q0 -135 -69 -244l122 -118l-147 -144l-123 119q-109 -64 -244 -64q-132 0 -241 64zM324 639
q0 -106 71 -180t180 -74q108 0 179 73.5t71 178.5q0 106 -71 180t-179 74t-179.5 -73.5t-71.5 -178.5z" />
    <glyph glyph-name="yen" unicode="&#xa5;" horiz-adv-x="1261" 
d="M1118 270h-362v-270h-258v270h-359v160h359v86l-35 64h-324v159h234l-336 602h301l287 -563l299 563h299l-340 -602h235v-159h-325l-37 -64v-86h362v-160z" />
    <glyph glyph-name="brokenbar" unicode="&#xa6;" horiz-adv-x="532" 
d="M383 754h-233v686h233v-686zM383 -287h-233v686h233v-686z" />
    <glyph glyph-name="section" unicode="&#xa7;" horiz-adv-x="1159" 
d="M625 375q94 -41 129 -60q28 43 28 97q0 23 -6.5 43t-14.5 35.5t-27.5 32.5t-33.5 28t-44.5 27.5t-49 26t-59 29t-62.5 30.5q-15 7 -44.5 21.5t-43.5 21.5q-35 -49 -35 -105q0 -71 60 -118t203 -109zM1030 408q0 -65 -22.5 -128t-61.5 -108q70 -86 70 -199
q0 -174 -128.5 -271t-344.5 -97q-108 0 -211 22.5t-176 65.5v264q172 -127 385 -127q100 0 154.5 36t54.5 105q0 66 -60.5 109.5t-275.5 138.5q-68 31 -119.5 65t-94 80t-65 107t-22.5 135q0 132 90 236q-68 81 -68 186q0 169 125.5 267t337.5 98q189 0 334 -68v-250
q-69 42 -156 67t-170 25q-98 0 -149 -36t-51 -99q0 -25 10.5 -45.5t25 -35.5t47.5 -34t60.5 -32l82.5 -39t95 -47q57 -29 96.5 -52.5t81.5 -58.5t67.5 -73t41.5 -91t16 -116z" />
    <glyph glyph-name="dieresis" unicode="&#xa8;" horiz-adv-x="962" 
d="M874 1464q0 -62 -41 -102.5t-104 -40.5q-62 0 -103.5 41t-41.5 102q0 60 42 101t103 41q63 0 104 -41t41 -101zM377 1464q0 -61 -41 -102t-103 -41q-63 0 -104 40.5t-41 102.5q0 60 41 101t104 41q61 0 102.5 -41t41.5 -101z" />
    <glyph glyph-name="copyright" unicode="&#xa9;" horiz-adv-x="1570" 
d="M1004 375q-73 -43 -187 -43q-155 0 -258.5 100.5t-103.5 255.5q2 157 101.5 260t268.5 103q100 0 179 -43v-170q-68 45 -162 45q-78 0 -134 -52t-57 -143q4 -87 57 -139.5t132 -52.5q91 0 164 51v-172zM1493 690q0 -143 -56.5 -274t-151.5 -225.5t-225.5 -150.5
t-273.5 -56t-274 56t-226 150.5t-151.5 225.5t-56.5 274t56.5 274.5t151.5 226.5t226 151.5t274 56.5q190 0 353 -95.5t258.5 -259t95.5 -354.5zM254 690q0 -150 69.5 -272.5t191.5 -192t271 -69.5q226 0 379.5 153t153.5 381q0 148 -70 270.5t-192.5 192.5t-270.5 70
q-149 0 -271 -70t-191.5 -192.5t-69.5 -270.5z" />
    <glyph glyph-name="ordfeminine" unicode="&#xaa;" horiz-adv-x="780" 
d="M360 950q65 0 106.5 40.5t41.5 101.5v88h-102q-84 0 -129.5 -32.5t-45.5 -88.5q0 -51 32.5 -80t96.5 -29zM516 911q-69 -114 -229 -114q-127 0 -200 70.5t-73 183.5q0 125 94 196.5t271 71.5h129v51q0 73 -39 111.5t-131 38.5q-68 0 -137 -21t-121 -55v190
q44 25 121.5 42.5t163.5 17.5q182 0 268 -81.5t86 -248.5v-561h-203v108z" />
    <glyph glyph-name="guillemotleft" unicode="&#xab;" horiz-adv-x="1124" 
d="M750 518l299 -332h-261l-311 332l311 332h261zM625 186h-260l-312 332l312 332h260l-299 -332z" />
    <glyph glyph-name="logicalnot" unicode="&#xac;" horiz-adv-x="1193" 
d="M1108 297h-211v352h-819v203h1030v-555z" />
    <glyph glyph-name="uni00AD" unicode="&#xad;" horiz-adv-x="722" 
d="M623 438h-521v207h521v-207z" />
    <glyph glyph-name="registered" unicode="&#xae;" horiz-adv-x="974" 
d="M446 928h-102v467h137q178 0 178 -148q0 -94 -75 -131l118 -188h-124l-101 170h-31v-170zM487 1309h-41v-127h50q28 0 42.5 18t14.5 47q0 62 -66 62zM954 1145q0 -202 -132.5 -332.5t-334.5 -130.5q-203 0 -335 130.5t-132 332.5q0 204 132 335.5t335 131.5
q202 0 334.5 -132t132.5 -335zM137 1145q0 -158 96 -255t256 -97q159 0 255 97t96 255q0 159 -96 257.5t-255 98.5q-160 0 -256 -98.5t-96 -257.5z" />
    <glyph glyph-name="macron" unicode="&#xaf;" horiz-adv-x="962" 
d="M817 1366h-672v170h672v-170z" />
    <glyph glyph-name="degree" unicode="&#xb0;" horiz-adv-x="835" 
d="M774 1042q0 -149 -104 -251.5t-254 -102.5t-252.5 101.5t-102.5 250.5t104 253t253 104q151 0 253.5 -102t102.5 -253zM240 1042q0 -74 52.5 -127t125.5 -53t124.5 53t51.5 127t-52.5 126.5t-125.5 52.5t-124.5 -52.5t-51.5 -126.5z" />
    <glyph glyph-name="plusminus" unicode="&#xb1;" horiz-adv-x="1179" 
d="M1077 672h-377v-310h-227v310h-371v207h371v307h227v-307h377v-207zM1077 59h-975v207h975v-207z" />
    <glyph glyph-name="twosuperior" unicode="&#xb2;" horiz-adv-x="747" 
d="M674 803h-592v135q157 117 263 238.5t106 220.5q0 61 -36.5 93t-101.5 32q-102 0 -209 -80v186q108 68 234 68q133 0 219 -73.5t86 -203.5q0 -123 -88 -239.5t-236 -218.5h355v-158z" />
    <glyph glyph-name="threesuperior" unicode="&#xb3;" horiz-adv-x="702" 
d="M631 1042q0 -111 -81.5 -179t-223.5 -68q-63 0 -135 14t-119 39v166q117 -60 229 -60q65 0 102 30.5t37 78.5q0 106 -184 106h-37v156h37q72 0 118 27.5t46 79.5q0 100 -123 100q-46 0 -99 -18.5t-96 -49.5v176q93 56 207 56q142 0 221.5 -68.5t79.5 -175.5
q0 -80 -43.5 -132.5t-120.5 -70.5q78 -6 131.5 -61.5t53.5 -145.5z" />
    <glyph glyph-name="acute" unicode="&#xb4;" horiz-adv-x="962" 
d="M467 1288h-207l186 346h259z" />
    <glyph glyph-name="uni00B5" unicode="&#xb5;" horiz-adv-x="1167" 
d="M379 -369h-246v1407h246v-645q0 -95 59.5 -147.5t147.5 -52.5q202 0 202 288v557h246v-1038h-246v137q-69 -147 -235 -147q-95 0 -174 45v-404z" />
    <glyph glyph-name="paragraph" unicode="&#xb6;" horiz-adv-x="1175" 
d="M635 -303h-197v971q-193 0 -299 104t-106 252q0 69 25 130.5t75 113t135.5 82t196.5 30.5h170v-1683zM1036 -303h-196l2 1683h194v-1683z" />
    <glyph glyph-name="periodcentered" unicode="&#xb7;" horiz-adv-x="520" 
d="M420 569q0 -66 -46 -112.5t-112 -46.5t-113 46.5t-47 112.5t47 112t113 46t112 -46t46 -112z" />
    <glyph glyph-name="cedilla" unicode="&#xb8;" horiz-adv-x="962" 
d="M653 -254q0 -58 -21 -108t-62.5 -89.5t-108.5 -62t-154 -23.5v160q79 3 120.5 39t41.5 98q0 61 -51 136h198q37 -55 37 -150z" />
    <glyph glyph-name="onesuperior" unicode="&#xb9;" horiz-adv-x="548" 
d="M430 803h-180v686l-230 -125v174l263 150h147v-885z" />
    <glyph glyph-name="ordmasculine" unicode="&#xba;" horiz-adv-x="854" 
d="M846 1247q0 -199 -111 -327.5t-307 -128.5q-134 0 -230.5 60t-143 159t-46.5 225q0 201 114.5 332t305.5 131q199 0 308.5 -127.5t109.5 -323.5zM225 1243q0 -123 53 -204t150 -81q99 0 149 78.5t50 202.5q0 84 -18 146t-64.5 103.5t-120.5 41.5q-96 0 -147.5 -82
t-51.5 -205z" />
    <glyph glyph-name="guillemotright" unicode="&#xbb;" horiz-adv-x="1126" 
d="M1069 518l-309 -332h-260l299 332l-299 332h260zM336 186h-260l299 332l-299 332h260l309 -332z" />
    <glyph glyph-name="onequarter" unicode="&#xbc;" horiz-adv-x="1699" 
d="M463 0h-195l895 1456h193zM473 571h-180v686l-230 -124v176l263 147h147v-885zM1147 334h217v414zM1540 0h-176v186h-399v148l297 547h278v-547h115v-148h-115v-186z" />
    <glyph glyph-name="onehalf" unicode="&#xbd;" horiz-adv-x="1705" 
d="M463 0h-195l895 1456h193zM473 571h-180v686l-230 -124v176l263 147h147v-885zM1655 0h-592v135q158 117 264.5 239t106.5 220q0 60 -37 92.5t-101 32.5q-102 0 -209 -80v186q108 68 234 68q132 0 218.5 -74t86.5 -203q0 -123 -87.5 -240t-235.5 -218h352v-158z" />
    <glyph glyph-name="threequarters" unicode="&#xbe;" horiz-adv-x="1814" 
d="M573 0h-194l895 1456h194zM643 811q0 -111 -81.5 -179.5t-221.5 -68.5q-64 0 -135.5 14t-118.5 39v166q109 -59 229 -59q65 0 102.5 30t37.5 78q0 107 -185 107h-39v156h37q73 0 118.5 26t45.5 78q0 51 -33 76.5t-90 25.5q-99 0 -194 -69v178q92 53 209 53
q142 0 221.5 -68t79.5 -175q0 -81 -44 -133.5t-120 -67.5q76 -8 129 -63.5t53 -143.5zM1257 334h218v414zM1651 0h-176v186h-400v148l297 547h279v-547h114v-148h-114v-186z" />
    <glyph glyph-name="questiondown" unicode="&#xbf;" horiz-adv-x="933" 
d="M866 -287q-133 -65 -319 -65q-194 0 -311 99.5t-117 275.5q0 74 24.5 137t62.5 104.5t86.5 71.5t95 44t89.5 17l4 189h230l4 -322q-346 0 -346 -217q0 -86 53 -138t158 -52q141 0 286 94v-238zM760 899q0 -68 -46.5 -115t-115.5 -47q-68 0 -115 47.5t-47 114.5t47 114.5
t115 47.5q69 0 115.5 -47t46.5 -115z" />
    <glyph glyph-name="Agrave" unicode="&#xc0;" horiz-adv-x="1380" 
d="M512 584l-18 -60h389l-19 62q-69 222 -113 372.5t-53 189.5l-10 40q-18 -103 -176 -604zM328 0h-271l467 1380h334l467 -1380h-278l-99 313h-522zM791 1481h-207l-238 346h258z" />
    <glyph glyph-name="Aacute" unicode="&#xc1;" horiz-adv-x="1380" 
d="M512 584l-18 -60h389l-19 62q-69 222 -113 372.5t-53 189.5l-10 40q-18 -103 -176 -604zM328 0h-271l467 1380h334l467 -1380h-278l-99 313h-522zM815 1481h-207l187 346h258z" />
    <glyph glyph-name="Acircumflex" unicode="&#xc2;" horiz-adv-x="1380" 
d="M512 584l-18 -60h389l-19 62q-69 222 -113 372.5t-53 189.5l-10 40q-18 -103 -176 -604zM328 0h-271l467 1380h334l467 -1380h-278l-99 313h-522zM528 1481h-239l297 346h217l297 -346h-240l-166 202z" />
    <glyph glyph-name="Atilde" unicode="&#xc3;" horiz-adv-x="1380" 
d="M512 584l-18 -60h389l-19 62q-69 222 -113 372.5t-53 189.5l-10 40q-18 -103 -176 -604zM328 0h-271l467 1380h334l467 -1380h-278l-99 313h-522zM575 1608q-50 0 -79.5 -19.5t-67.5 -70.5l-117 108q33 68 94 114t134 46q55 0 105.5 -19.5t92.5 -39t78 -19.5q88 0 131 88
l131 -104q-37 -76 -102 -119t-148 -43q-49 0 -96.5 19.5t-86.5 39t-69 19.5z" />
    <glyph glyph-name="Adieresis" unicode="&#xc4;" horiz-adv-x="1380" 
d="M512 584l-18 -60h389l-19 62q-69 222 -113 372.5t-53 189.5l-10 40q-18 -103 -176 -604zM328 0h-271l467 1380h334l467 -1380h-278l-99 313h-522zM1096 1657q0 -62 -41.5 -103t-104.5 -41q-62 0 -103.5 41.5t-41.5 102.5q0 60 41.5 100.5t103.5 40.5q63 0 104.5 -40.5
t41.5 -100.5zM598 1657q0 -62 -41 -103t-102 -41q-63 0 -104.5 41t-41.5 103q0 60 41.5 100.5t104.5 40.5q61 0 102 -40.5t41 -100.5z" />
    <glyph glyph-name="Aring" unicode="&#xc5;" horiz-adv-x="1380" 
d="M512 584l-18 -60h389l-19 62q-69 222 -113 372.5t-53 189.5l-10 40q-18 -103 -176 -604zM328 0h-271l467 1380h334l467 -1380h-278l-99 313h-522zM954 1714q0 -106 -75 -181t-181 -75t-181 75t-75 181t75 181t181 75t181 -75t75 -181zM590 1718q0 -45 31 -78.5t77 -33.5
t77.5 33.5t31.5 78.5t-31.5 79t-77.5 34t-77 -34t-31 -79z" />
    <glyph glyph-name="AE" unicode="&#xc6;" horiz-adv-x="1878" 
d="M301 0h-272l710 1380h1016v-211h-555v-374h494v-209h-494v-375h563v-211h-815v313h-481zM610 584l-30 -60h368v727q-94 -220 -338 -667z" />
    <glyph glyph-name="Ccedilla" unicode="&#xc7;" horiz-adv-x="1247" 
d="M1151 66q-125 -82 -356 -82q-200 0 -360.5 85.5t-253.5 247.5t-93 373q0 207 90 369t251 251t366 89q226 0 354 -76v-252q-87 51 -163 70.5t-181 19.5q-188 0 -314 -128.5t-126 -342.5q0 -216 125.5 -342.5t328.5 -126.5q89 0 178 27t154 76v-258zM899 -254
q0 -58 -21 -108t-62.5 -89.5t-108.5 -62t-154 -23.5v160q79 3 120.5 39t41.5 98q0 61 -51 136h198q37 -55 37 -150z" />
    <glyph glyph-name="Egrave" unicode="&#xc8;" horiz-adv-x="1081" 
d="M967 0h-824v1380h815v-211h-555v-374h494v-209h-494v-375h564v-211zM688 1481h-207l-237 346h258z" />
    <glyph glyph-name="Eacute" unicode="&#xc9;" horiz-adv-x="1081" 
d="M967 0h-824v1380h815v-211h-555v-374h494v-209h-494v-375h564v-211zM680 1481h-207l186 346h259z" />
    <glyph glyph-name="Ecircumflex" unicode="&#xca;" horiz-adv-x="1081" 
d="M967 0h-824v1380h815v-211h-555v-374h494v-209h-494v-375h564v-211zM393 1481h-239l297 346h217l297 -346h-240l-166 202z" />
    <glyph glyph-name="Edieresis" unicode="&#xcb;" horiz-adv-x="1081" 
d="M967 0h-824v1380h815v-211h-555v-374h494v-209h-494v-375h564v-211zM948 1653q0 -62 -41 -103t-104 -41q-62 0 -104 41.5t-42 102.5q0 60 42 100.5t104 40.5q63 0 104 -40.5t41 -100.5zM451 1653q0 -61 -41.5 -102.5t-102.5 -41.5q-63 0 -104 41t-41 103q0 60 41 100.5
t104 40.5q61 0 102.5 -40.5t41.5 -100.5z" />
    <glyph glyph-name="Igrave" unicode="&#xcc;" horiz-adv-x="577" 
d="M418 0h-258v1380h258v-1380zM383 1481h-207l-237 346h258z" />
    <glyph glyph-name="Iacute" unicode="&#xcd;" horiz-adv-x="577" 
d="M418 0h-258v1380h258v-1380zM399 1481h-206l186 346h258z" />
    <glyph glyph-name="Icircumflex" unicode="&#xce;" horiz-adv-x="577" 
d="M418 0h-258v1380h258v-1380zM127 1481h-240l297 346h217l297 -346h-239l-166 202z" />
    <glyph glyph-name="Idieresis" unicode="&#xcf;" horiz-adv-x="577" 
d="M418 0h-258v1380h258v-1380zM692 1655q0 -62 -41 -103t-104 -41q-62 0 -104 41.5t-42 102.5q0 60 42 100.5t104 40.5q63 0 104 -40.5t41 -100.5zM195 1655q0 -61 -41.5 -102.5t-102.5 -41.5q-63 0 -104 41t-41 103q0 60 41 100.5t104 40.5q61 0 102.5 -40.5t41.5 -100.5z
" />
    <glyph glyph-name="Eth" unicode="&#xd0;" horiz-adv-x="1519" 
d="M731 0h-450v578h-150v210h150v592h450q153 0 284.5 -51t223 -140.5t143.5 -213.5t52 -266q0 -210 -84 -370t-244 -249.5t-375 -89.5zM856 578h-311v-363h182q216 0 330 134t114 360q0 199 -120.5 326.5t-327.5 127.5h-178v-375h311v-210z" />
    <glyph glyph-name="Ntilde" unicode="&#xd1;" horiz-adv-x="1409" 
d="M401 0h-258v1380h293l332 -575q83 -142 147 -264t87 -173l22 -51q-16 172 -16 488v575h260v-1380h-295l-336 573q-80 135 -144.5 259t-88.5 180l-25 57q22 -196 22 -494v-575zM598 1608q-50 0 -79.5 -19.5t-67.5 -70.5l-117 108q33 68 94 114t133 46q55 0 105.5 -19.5
t93 -39t78.5 -19.5q88 0 131 88l131 -104q-37 -76 -102 -119t-148 -43q-49 0 -96.5 19.5t-86.5 39t-69 19.5z" />
    <glyph glyph-name="Ograve" unicode="&#xd2;" horiz-adv-x="1480" 
d="M1393 694q0 -319 -177.5 -513.5t-474.5 -194.5t-475 194t-178 514q0 212 79.5 373t227.5 249.5t344 88.5q199 0 347.5 -88.5t227.5 -249t79 -373.5zM365 694q0 -218 102 -344.5t274 -126.5q175 0 275 126t100 345t-100.5 346t-276.5 127q-173 0 -273.5 -127.5
t-100.5 -345.5zM862 1481h-207l-237 346h258z" />
    <glyph glyph-name="Oacute" unicode="&#xd3;" horiz-adv-x="1480" 
d="M1393 694q0 -319 -177.5 -513.5t-474.5 -194.5t-475 194t-178 514q0 212 79.5 373t227.5 249.5t344 88.5q199 0 347.5 -88.5t227.5 -249t79 -373.5zM365 694q0 -218 102 -344.5t274 -126.5q175 0 275 126t100 345t-100.5 346t-276.5 127q-173 0 -273.5 -127.5
t-100.5 -345.5zM854 1481h-207l187 346h258z" />
    <glyph glyph-name="Ocircumflex" unicode="&#xd4;" horiz-adv-x="1480" 
d="M1393 694q0 -319 -177.5 -513.5t-474.5 -194.5t-475 194t-178 514q0 212 79.5 373t227.5 249.5t344 88.5q199 0 347.5 -88.5t227.5 -249t79 -373.5zM365 694q0 -218 102 -344.5t274 -126.5q175 0 275 126t100 345t-100.5 346t-276.5 127q-173 0 -273.5 -127.5
t-100.5 -345.5zM586 1481h-240l297 346h217l297 -346h-239l-166 202z" />
    <glyph glyph-name="Otilde" unicode="&#xd5;" horiz-adv-x="1480" 
d="M1393 694q0 -319 -177.5 -513.5t-474.5 -194.5t-475 194t-178 514q0 212 79.5 373t227.5 249.5t344 88.5q199 0 347.5 -88.5t227.5 -249t79 -373.5zM365 694q0 -218 102 -344.5t274 -126.5q175 0 275 126t100 345t-100.5 346t-276.5 127q-173 0 -273.5 -127.5
t-100.5 -345.5zM623 1608q-50 0 -80 -19.5t-68 -70.5l-117 108q33 68 94 114t134 46q55 0 105.5 -19.5t92.5 -39t78 -19.5q88 0 131 88l131 -104q-37 -76 -102 -119t-148 -43q-49 0 -96 19.5t-86 39t-69 19.5z" />
    <glyph glyph-name="Odieresis" unicode="&#xd6;" horiz-adv-x="1480" 
d="M1393 694q0 -319 -177.5 -513.5t-474.5 -194.5t-475 194t-178 514q0 212 79.5 373t227.5 249.5t344 88.5q199 0 347.5 -88.5t227.5 -249t79 -373.5zM365 694q0 -218 102 -344.5t274 -126.5q175 0 275 126t100 345t-100.5 346t-276.5 127q-173 0 -273.5 -127.5
t-100.5 -345.5zM1147 1657q0 -62 -41.5 -103t-104.5 -41q-62 0 -103.5 41.5t-41.5 102.5q0 60 41.5 100.5t103.5 40.5q63 0 104.5 -40.5t41.5 -100.5zM649 1657q0 -62 -41 -103t-102 -41q-63 0 -104.5 41t-41.5 103q0 60 41.5 100.5t104.5 40.5q61 0 102 -40.5t41 -100.5z
" />
    <glyph glyph-name="multiply" unicode="&#xd7;" horiz-adv-x="1054" 
d="M952 428l-157 -156l-267 265l-264 -263l-160 160l263 262l-269 269l158 157l268 -268l267 266l161 -159l-266 -267z" />
    <glyph glyph-name="Oslash" unicode="&#xd8;" horiz-adv-x="1431" 
d="M1384 694q0 -211 -79 -371t-227 -248.5t-345 -88.5q-192 0 -336 84l-63 -86h-252l160 215q-162 192 -162 495q0 212 79.5 373t227.5 249.5t344 88.5q192 0 342 -86l62 84h251l-159 -215q157 -189 157 -494zM346 694q0 -162 55 -278l529 710q-85 54 -199 54
q-178 0 -281.5 -130.5t-103.5 -355.5zM733 211q179 0 282 130t103 353q0 162 -53 277l-524 -709q77 -51 192 -51z" />
    <glyph glyph-name="Ugrave" unicode="&#xd9;" horiz-adv-x="1349" 
d="M1214 530q0 -269 -144.5 -408.5t-395.5 -139.5q-246 0 -392.5 138t-146.5 396v864h258v-862q0 -82 22 -141.5t62 -93t88.5 -49t108.5 -15.5q63 0 112 15.5t88.5 49.5t60.5 95.5t21 148.5v852h258v-850zM791 1481h-207l-238 346h258z" />
    <glyph glyph-name="Uacute" unicode="&#xda;" horiz-adv-x="1349" 
d="M1214 530q0 -269 -144.5 -408.5t-395.5 -139.5q-246 0 -392.5 138t-146.5 396v864h258v-862q0 -82 22 -141.5t62 -93t88.5 -49t108.5 -15.5q63 0 112 15.5t88.5 49.5t60.5 95.5t21 148.5v852h258v-850zM805 1481h-207l186 346h258z" />
    <glyph glyph-name="Ucircumflex" unicode="&#xdb;" horiz-adv-x="1349" 
d="M1214 530q0 -269 -144.5 -408.5t-395.5 -139.5q-246 0 -392.5 138t-146.5 396v864h258v-862q0 -82 22 -141.5t62 -93t88.5 -49t108.5 -15.5q63 0 112 15.5t88.5 49.5t60.5 95.5t21 148.5v852h258v-850zM508 1481h-240l297 346h217l297 -346h-239l-166 202z" />
    <glyph glyph-name="Udieresis" unicode="&#xdc;" horiz-adv-x="1349" 
d="M1214 530q0 -269 -144.5 -408.5t-395.5 -139.5q-246 0 -392.5 138t-146.5 396v864h258v-862q0 -82 22 -141.5t62 -93t88.5 -49t108.5 -15.5q63 0 112 15.5t88.5 49.5t60.5 95.5t21 148.5v852h258v-850zM1075 1655q0 -62 -41 -103t-104 -41q-62 0 -104 41.5t-42 102.5
q0 60 42 100.5t104 40.5q63 0 104 -40.5t41 -100.5zM578 1655q0 -61 -41 -102.5t-103 -41.5q-63 0 -104 41t-41 103q0 60 41 100.5t104 40.5q61 0 102.5 -40.5t41.5 -100.5z" />
    <glyph glyph-name="Yacute" unicode="&#xdd;" horiz-adv-x="1277" 
d="M766 0h-258v504l-471 876h301l92 -200q80 -175 131 -292t63 -147l11 -30q18 77 211 469l94 200h301l-475 -868v-512zM774 1481h-207l187 346h258z" />
    <glyph glyph-name="Thorn" unicode="&#xde;" horiz-adv-x="1132" 
d="M575 236h-174v-236h-258v1380h258v-235h168q237 0 375.5 -127t138.5 -326q0 -212 -142 -334t-366 -122zM555 934h-154v-490h162q128 0 193 67.5t65 172.5q0 50 -14 93t-44 79t-83 57t-125 21z" />
    <glyph glyph-name="germandbls" unicode="&#xdf;" horiz-adv-x="1179" 
d="M1133 309q0 -146 -97.5 -235.5t-263.5 -89.5q-148 0 -215 39v217q53 -33 96.5 -45.5t98.5 -12.5q66 0 106.5 32.5t40.5 88.5q0 39 -22.5 74t-55.5 60t-72.5 55.5t-72.5 60t-55.5 73t-22.5 93.5q0 52 21 101t46.5 80t46.5 74t21 85q0 62 -40.5 98.5t-114.5 36.5
q-201 0 -201 -209v-985h-242v971q0 215 114 328.5t320 113.5q185 0 299.5 -99t114.5 -237q0 -54 -13.5 -99.5t-32 -76t-37.5 -56.5t-32.5 -52t-13.5 -50q0 -22 20.5 -46.5t51.5 -46t67.5 -54.5t67.5 -69.5t51.5 -93.5t20.5 -124z" />
    <glyph glyph-name="agrave" unicode="&#xe0;" horiz-adv-x="1038" 
d="M489 174q82 0 128.5 48t46.5 126v98h-127q-97 0 -148 -39.5t-51 -101.5t38 -96.5t113 -34.5zM674 125q-30 -55 -96 -94t-175 -39q-148 0 -234.5 86t-86.5 217q0 149 110.5 232t319.5 83h152v64q0 87 -45 131.5t-154 44.5q-81 0 -162 -25.5t-143 -66.5v227
q50 31 141.5 51.5t194.5 20.5q214 0 318 -98t104 -295v-664h-244v125zM641 1139h-207l-237 346h258z" />
    <glyph glyph-name="aacute" unicode="&#xe1;" horiz-adv-x="1038" 
d="M489 174q82 0 128.5 48t46.5 126v98h-127q-97 0 -148 -39.5t-51 -101.5t38 -96.5t113 -34.5zM674 125q-30 -55 -96 -94t-175 -39q-148 0 -234.5 86t-86.5 217q0 149 110.5 232t319.5 83h152v64q0 87 -45 131.5t-154 44.5q-81 0 -162 -25.5t-143 -66.5v227
q50 31 141.5 51.5t194.5 20.5q214 0 318 -98t104 -295v-664h-244v125zM627 1139h-207l186 346h258z" />
    <glyph glyph-name="acircumflex" unicode="&#xe2;" horiz-adv-x="1038" 
d="M489 174q82 0 128.5 48t46.5 126v98h-127q-97 0 -148 -39.5t-51 -101.5t38 -96.5t113 -34.5zM674 125q-30 -55 -96 -94t-175 -39q-148 0 -234.5 86t-86.5 217q0 149 110.5 232t319.5 83h152v64q0 87 -45 131.5t-154 44.5q-81 0 -162 -25.5t-143 -66.5v227
q50 31 141.5 51.5t194.5 20.5q214 0 318 -98t104 -295v-664h-244v125zM356 1139h-239l297 346h217l297 -346h-240l-166 202z" />
    <glyph glyph-name="atilde" unicode="&#xe3;" horiz-adv-x="1038" 
d="M489 174q82 0 128.5 48t46.5 126v98h-127q-97 0 -148 -39.5t-51 -101.5t38 -96.5t113 -34.5zM674 125q-30 -55 -96 -94t-175 -39q-148 0 -234.5 86t-86.5 217q0 149 110.5 232t319.5 83h152v64q0 87 -45 131.5t-154 44.5q-81 0 -162 -25.5t-143 -66.5v227
q50 31 141.5 51.5t194.5 20.5q214 0 318 -98t104 -295v-664h-244v125zM401 1266q-50 0 -79.5 -19.5t-67.5 -70.5l-117 108q33 68 94 114t134 46q55 0 105.5 -19.5t92.5 -39t78 -19.5q88 0 131 88l131 -104q-37 -76 -102 -119t-148 -43q-49 0 -96.5 19.5t-86.5 39t-69 19.5z
" />
    <glyph glyph-name="adieresis" unicode="&#xe4;" horiz-adv-x="1038" 
d="M489 174q82 0 128.5 48t46.5 126v98h-127q-97 0 -148 -39.5t-51 -101.5t38 -96.5t113 -34.5zM674 125q-30 -55 -96 -94t-175 -39q-148 0 -234.5 86t-86.5 217q0 149 110.5 232t319.5 83h152v64q0 87 -45 131.5t-154 44.5q-81 0 -162 -25.5t-143 -66.5v227
q50 31 141.5 51.5t194.5 20.5q214 0 318 -98t104 -295v-664h-244v125zM926 1311q0 -62 -41.5 -103t-104.5 -41q-62 0 -103.5 41.5t-41.5 102.5q0 60 41.5 100.5t103.5 40.5q63 0 104.5 -40.5t41.5 -100.5zM428 1311q0 -62 -41 -103t-102 -41q-63 0 -104.5 41t-41.5 103
q0 60 41.5 100.5t104.5 40.5q61 0 102 -40.5t41 -100.5z" />
    <glyph glyph-name="aring" unicode="&#xe5;" horiz-adv-x="1038" 
d="M489 174q82 0 128.5 48t46.5 126v98h-127q-97 0 -148 -39.5t-51 -101.5t38 -96.5t113 -34.5zM674 125q-30 -55 -96 -94t-175 -39q-148 0 -234.5 86t-86.5 217q0 149 110.5 232t319.5 83h152v64q0 87 -45 131.5t-154 44.5q-81 0 -162 -25.5t-143 -66.5v227
q50 31 141.5 51.5t194.5 20.5q214 0 318 -98t104 -295v-664h-244v125zM784 1372q0 -106 -75 -181t-181 -75t-181 75t-75 181t75 181t181 75t181 -75t75 -181zM420 1376q0 -45 31 -78.5t77 -33.5t77.5 33.5t31.5 78.5t-31.5 79t-77.5 34t-77 -34t-31 -79z" />
    <glyph glyph-name="ae" unicode="&#xe6;" horiz-adv-x="1662" 
d="M807 188q-36 -83 -127.5 -139.5t-235.5 -56.5q-165 0 -258.5 81.5t-93.5 219.5q0 150 111 233.5t321 83.5h150v64q0 87 -45 131.5t-154 44.5q-82 0 -163 -25.5t-142 -66.5v227q52 31 137 51.5t185 20.5q118 0 200.5 -44t116.5 -122q52 76 140.5 117t195.5 41
q206 0 321 -123t115 -363q0 -52 -14 -143h-647q27 -112 112.5 -172t206.5 -60q160 0 274 82v-213q-53 -32 -137 -49.5t-164 -17.5q-123 0 -234.5 51t-170.5 147zM348 305q0 -61 38.5 -95t113.5 -34q78 0 126 48.5t48 129.5v90h-117q-100 0 -154.5 -37t-54.5 -102zM1151 856
q-87 0 -153.5 -64.5t-84.5 -187.5h435v29q-5 104 -54.5 163.5t-142.5 59.5z" />
    <glyph glyph-name="ccedilla" unicode="&#xe7;" horiz-adv-x="962" 
d="M885 45q-108 -63 -271 -63q-240 0 -388 151t-148 383q1 110 38 207t105.5 171.5t173 117.5t232.5 43q149 0 258 -58v-217q-104 66 -234 66q-143 0 -231.5 -90t-89.5 -240q5 -148 89 -238t230 -90q125 0 236 70v-213zM733 -254q0 -58 -21 -108t-62.5 -89.5t-108.5 -62
t-154 -23.5v160q79 3 120.5 39t41.5 98q0 61 -51 136h198q37 -55 37 -150z" />
    <glyph glyph-name="egrave" unicode="&#xe8;" horiz-adv-x="1083" 
d="M926 57q-53 -33 -141.5 -50t-172.5 -17q-248 0 -391 147t-143 381q0 125 37 226.5t102 167.5t150.5 101.5t183.5 35.5q203 0 321.5 -123t118.5 -359q0 -56 -14 -147h-651q27 -113 112 -172.5t211 -59.5q163 0 277 82v-213zM557 856q-87 0 -152 -64.5t-83 -187.5h436v31
q-5 100 -55 160.5t-146 60.5zM674 1139h-207l-238 346h258z" />
    <glyph glyph-name="eacute" unicode="&#xe9;" horiz-adv-x="1083" 
d="M926 57q-53 -33 -141.5 -50t-172.5 -17q-248 0 -391 147t-143 381q0 125 37 226.5t102 167.5t150.5 101.5t183.5 35.5q203 0 321.5 -123t118.5 -359q0 -56 -14 -147h-651q27 -113 112 -172.5t211 -59.5q163 0 277 82v-213zM557 856q-87 0 -152 -64.5t-83 -187.5h436v31
q-5 100 -55 160.5t-146 60.5zM688 1139h-207l187 346h258z" />
    <glyph glyph-name="ecircumflex" unicode="&#xea;" horiz-adv-x="1083" 
d="M926 57q-53 -33 -141.5 -50t-172.5 -17q-248 0 -391 147t-143 381q0 125 37 226.5t102 167.5t150.5 101.5t183.5 35.5q203 0 321.5 -123t118.5 -359q0 -56 -14 -147h-651q27 -113 112 -172.5t211 -59.5q163 0 277 82v-213zM557 856q-87 0 -152 -64.5t-83 -187.5h436v31
q-5 100 -55 160.5t-146 60.5zM395 1139h-239l297 346h217l297 -346h-240l-166 202z" />
    <glyph glyph-name="edieresis" unicode="&#xeb;" horiz-adv-x="1083" 
d="M926 57q-53 -33 -141.5 -50t-172.5 -17q-248 0 -391 147t-143 381q0 125 37 226.5t102 167.5t150.5 101.5t183.5 35.5q203 0 321.5 -123t118.5 -359q0 -56 -14 -147h-651q27 -113 112 -172.5t211 -59.5q163 0 277 82v-213zM557 856q-87 0 -152 -64.5t-83 -187.5h436v31
q-5 100 -55 160.5t-146 60.5zM973 1313q0 -62 -41.5 -103t-104.5 -41q-62 0 -103.5 41.5t-41.5 102.5q0 60 41.5 100.5t103.5 40.5q63 0 104.5 -40.5t41.5 -100.5zM475 1313q0 -62 -41 -103t-102 -41q-63 0 -104.5 41t-41.5 103q0 60 41.5 100.5t104.5 40.5q61 0 102 -40.5
t41 -100.5z" />
    <glyph glyph-name="igrave" unicode="&#xec;" horiz-adv-x="532" 
d="M389 0h-246v1038h246v-1038zM352 1139h-207l-237 346h258z" />
    <glyph glyph-name="iacute" unicode="&#xed;" horiz-adv-x="532" 
d="M389 0h-246v1038h246v-1038zM383 1139h-207l186 346h259z" />
    <glyph glyph-name="icircumflex" unicode="&#xee;" horiz-adv-x="532" 
d="M389 0h-246v1038h246v-1038zM102 1139h-239l297 346h217l297 -346h-240l-166 202z" />
    <glyph glyph-name="idieresis" unicode="&#xef;" horiz-adv-x="532" 
d="M389 0h-246v1038h246v-1038zM662 1315q0 -62 -41.5 -103t-104.5 -41q-62 0 -103.5 41.5t-41.5 102.5q0 60 41.5 100.5t103.5 40.5q63 0 104.5 -40.5t41.5 -100.5zM164 1315q0 -61 -41 -102.5t-103 -41.5q-63 0 -104 41t-41 103q0 60 41 100.5t104 40.5q61 0 102.5 -40.5
t41.5 -100.5z" />
    <glyph glyph-name="eth" unicode="&#xf0;" horiz-adv-x="1110" 
d="M1014 578q0 -278 -124 -438t-353 -160q-142 0 -249.5 62t-160.5 159.5t-53 214.5q0 187 113.5 299t285.5 112q175 0 289 -114q-28 185 -148 354l-288 -145v151l200 101q-103 108 -262 206h330q68 -45 131 -108l240 119v-150l-152 -76q95 -128 148 -281t53 -306zM535 203
q210 0 233 295q-98 116 -240 116q-92 0 -146 -56t-54 -157q0 -90 56.5 -144t150.5 -54z" />
    <glyph glyph-name="ntilde" unicode="&#xf1;" 
d="M1034 0h-246v639q0 102 -49 154.5t-133 52.5q-96 0 -161.5 -75t-65.5 -214v-557h-246v1038h246v-178q42 92 124 141.5t195 49.5q156 0 246 -95t90 -266v-690zM469 1266q-50 0 -79.5 -19.5t-67.5 -70.5l-117 108q33 68 94 114t133 46q55 0 105.5 -19.5t93 -39t78.5 -19.5
q88 0 131 88l131 -104q-37 -76 -102 -119t-148 -43q-49 0 -96.5 19.5t-86.5 39t-69 19.5z" />
    <glyph glyph-name="ograve" unicode="&#xf2;" 
d="M1079 522q0 -114 -33 -212t-95 -170.5t-158 -114t-215 -41.5q-158 0 -273 70.5t-171 187.5t-56 266q0 155 60 278.5t175 196t265 72.5q161 0 276 -72.5t170 -191t55 -269.5zM336 516q0 -143 64 -239.5t180 -96.5q120 0 181.5 94t61.5 240q0 71 -13.5 130.5t-41.5 107.5
t-76.5 75t-113.5 27q-117 0 -179.5 -96.5t-62.5 -241.5zM696 1139h-207l-237 346h258z" />
    <glyph glyph-name="oacute" unicode="&#xf3;" 
d="M1079 522q0 -114 -33 -212t-95 -170.5t-158 -114t-215 -41.5q-158 0 -273 70.5t-171 187.5t-56 266q0 155 60 278.5t175 196t265 72.5q161 0 276 -72.5t170 -191t55 -269.5zM336 516q0 -143 64 -239.5t180 -96.5q120 0 181.5 94t61.5 240q0 71 -13.5 130.5t-41.5 107.5
t-76.5 75t-113.5 27q-117 0 -179.5 -96.5t-62.5 -241.5zM707 1139h-207l186 346h258z" />
    <glyph glyph-name="ocircumflex" unicode="&#xf4;" 
d="M1079 522q0 -114 -33 -212t-95 -170.5t-158 -114t-215 -41.5q-158 0 -273 70.5t-171 187.5t-56 266q0 155 60 278.5t175 196t265 72.5q161 0 276 -72.5t170 -191t55 -269.5zM336 516q0 -143 64 -239.5t180 -96.5q120 0 181.5 94t61.5 240q0 71 -13.5 130.5t-41.5 107.5
t-76.5 75t-113.5 27q-117 0 -179.5 -96.5t-62.5 -241.5zM420 1137h-240l297 346h217l297 -346h-239l-166 202z" />
    <glyph glyph-name="otilde" unicode="&#xf5;" 
d="M1079 522q0 -114 -33 -212t-95 -170.5t-158 -114t-215 -41.5q-158 0 -273 70.5t-171 187.5t-56 266q0 155 60 278.5t175 196t265 72.5q161 0 276 -72.5t170 -191t55 -269.5zM336 516q0 -143 64 -239.5t180 -96.5q120 0 181.5 94t61.5 240q0 71 -13.5 130.5t-41.5 107.5
t-76.5 75t-113.5 27q-117 0 -179.5 -96.5t-62.5 -241.5zM467 1266q-50 0 -80 -19.5t-68 -70.5l-116 108q33 68 94 114t133 46q55 0 105.5 -19.5t93 -39t78.5 -19.5q88 0 131 88l131 -104q-37 -76 -102 -119t-148 -43q-49 0 -96.5 19.5t-86.5 39t-69 19.5z" />
    <glyph glyph-name="odieresis" unicode="&#xf6;" 
d="M1079 522q0 -114 -33 -212t-95 -170.5t-158 -114t-215 -41.5q-158 0 -273 70.5t-171 187.5t-56 266q0 155 60 278.5t175 196t265 72.5q161 0 276 -72.5t170 -191t55 -269.5zM336 516q0 -143 64 -239.5t180 -96.5q120 0 181.5 94t61.5 240q0 71 -13.5 130.5t-41.5 107.5
t-76.5 75t-113.5 27q-117 0 -179.5 -96.5t-62.5 -241.5zM993 1313q0 -62 -41 -103t-104 -41q-62 0 -104 41.5t-42 102.5q0 60 42 100.5t104 40.5q63 0 104 -40.5t41 -100.5zM496 1313q0 -61 -41 -102.5t-103 -41.5q-63 0 -104 41t-41 103q0 60 41 100.5t104 40.5
q61 0 102.5 -40.5t41.5 -100.5z" />
    <glyph glyph-name="divide" unicode="&#xf7;" horiz-adv-x="1179" 
d="M1077 586h-975v221h975v-221zM721 334q0 -56 -40.5 -96.5t-96.5 -40.5q-57 0 -97.5 40.5t-40.5 96.5t40.5 96.5t97.5 40.5q56 0 96.5 -40.5t40.5 -96.5zM721 1059q0 -55 -40.5 -96t-96.5 -41q-57 0 -97.5 40.5t-40.5 96.5t40.5 96.5t97.5 40.5q56 0 96.5 -41t40.5 -96z
" />
    <glyph glyph-name="oslash" unicode="&#xf8;" horiz-adv-x="1150" 
d="M1090 522q0 -154 -56.5 -274t-172 -192t-273.5 -72q-141 0 -244 53l-39 -53h-217l119 161q-119 143 -119 363q0 154 60.5 278t175.5 196.5t264 72.5q138 0 243 -54l39 54h220l-119 -164q119 -146 119 -369zM317 516q0 -96 31 -178l371 510q-54 31 -131 31
q-88 0 -150.5 -50.5t-91.5 -131t-29 -181.5zM590 156q133 0 201.5 100.5t68.5 257.5q0 108 -29 188l-372 -509q55 -37 131 -37z" />
    <glyph glyph-name="ugrave" unicode="&#xf9;" 
d="M1024 0h-248v170q-82 -180 -319 -180q-157 0 -245.5 90t-88.5 256v702h246v-645q0 -98 47.5 -149t132.5 -51q106 0 166.5 71.5t60.5 216.5v557h248v-1038zM682 1137h-207l-237 346h258z" />
    <glyph glyph-name="uacute" unicode="&#xfa;" 
d="M1024 0h-248v170q-82 -180 -319 -180q-157 0 -245.5 90t-88.5 256v702h246v-645q0 -98 47.5 -149t132.5 -51q106 0 166.5 71.5t60.5 216.5v557h248v-1038zM696 1139h-207l187 346h258z" />
    <glyph glyph-name="ucircumflex" unicode="&#xfb;" 
d="M1024 0h-248v170q-82 -180 -319 -180q-157 0 -245.5 90t-88.5 256v702h246v-645q0 -98 47.5 -149t132.5 -51q106 0 166.5 71.5t60.5 216.5v557h248v-1038zM410 1139h-240l297 346h217l297 -346h-240l-166 202z" />
    <glyph glyph-name="udieresis" unicode="&#xfc;" 
d="M1024 0h-248v170q-82 -180 -319 -180q-157 0 -245.5 90t-88.5 256v702h246v-645q0 -98 47.5 -149t132.5 -51q106 0 166.5 71.5t60.5 216.5v557h248v-1038zM969 1313q0 -62 -41.5 -103t-104.5 -41q-62 0 -103.5 41.5t-41.5 102.5q0 60 41.5 100.5t103.5 40.5
q63 0 104.5 -40.5t41.5 -100.5zM471 1313q0 -62 -41 -103t-102 -41q-63 0 -104.5 41t-41.5 103q0 60 41.5 100.5t104.5 40.5q61 0 102 -40.5t41 -100.5z" />
    <glyph glyph-name="yacute" unicode="&#xfd;" horiz-adv-x="1058" 
d="M666 29q-82 -218 -201 -317t-275 -99q-58 0 -102 10v203q33 -8 70 -8q186 0 264 202l-410 1018h273l121 -331q55 -148 89 -249t41 -128l7 -27q20 73 131 404l108 331h258zM666 1139h-207l186 346h258z" />
    <glyph glyph-name="thorn" unicode="&#xfe;" horiz-adv-x="1216" 
d="M379 -391h-246v1839h246v-569q110 174 317 174q202 0 322.5 -146t120.5 -383q0 -234 -120 -386t-325 -152q-209 0 -315 170v-547zM379 526q0 -158 75.5 -243.5t182.5 -85.5q111 0 180.5 85t69.5 238t-69.5 238.5t-176.5 85.5q-49 0 -94 -18.5t-83.5 -55t-61.5 -99.5
t-23 -145z" />
    <glyph glyph-name="ydieresis" unicode="&#xff;" horiz-adv-x="1058" 
d="M666 29q-82 -218 -201 -317t-275 -99q-58 0 -102 10v203q33 -8 70 -8q186 0 264 202l-410 1018h273l121 -331q55 -148 89 -249t41 -128l7 -27q20 73 131 404l108 331h258zM942 1313q0 -62 -41 -103t-104 -41q-62 0 -104 41.5t-42 102.5q0 60 42 100.5t104 40.5
q63 0 104 -40.5t41 -100.5zM444 1313q0 -62 -41 -103t-102 -41q-63 0 -104 41t-41 103q0 60 41 100.5t104 40.5q61 0 102 -40.5t41 -100.5z" />
    <glyph glyph-name="Amacron" unicode="&#x100;" horiz-adv-x="1380" 
d="M512 584l-18 -60h389l-19 62q-69 222 -113 372.5t-53 189.5l-10 40q-18 -103 -176 -604zM328 0h-271l467 1380h334l467 -1380h-278l-99 313h-522zM1034 1571h-672v170h672v-170z" />
    <glyph glyph-name="amacron" unicode="&#x101;" horiz-adv-x="1038" 
d="M489 174q82 0 128.5 48t46.5 126v98h-127q-97 0 -148 -39.5t-51 -101.5t38 -96.5t113 -34.5zM674 125q-30 -55 -96 -94t-175 -39q-148 0 -234.5 86t-86.5 217q0 149 110.5 232t319.5 83h152v64q0 87 -45 131.5t-154 44.5q-81 0 -162 -25.5t-143 -66.5v227
q50 31 141.5 51.5t194.5 20.5q214 0 318 -98t104 -295v-664h-244v125zM856 1227h-672v170h672v-170z" />
    <glyph glyph-name="Abreve" unicode="&#x102;" horiz-adv-x="1380" 
d="M512 584l-18 -60h389l-19 62q-69 222 -113 372.5t-53 189.5l-10 40q-18 -103 -176 -604zM328 0h-271l467 1380h334l467 -1380h-278l-99 313h-522zM1067 1827q0 -175 -101 -264.5t-278 -89.5q-176 0 -277.5 89.5t-101.5 264.5h193q0 -89 48.5 -141t137.5 -52t137.5 52
t48.5 141h193z" />
    <glyph glyph-name="abreve" unicode="&#x103;" horiz-adv-x="1038" 
d="M489 174q82 0 128.5 48t46.5 126v98h-127q-97 0 -148 -39.5t-51 -101.5t38 -96.5t113 -34.5zM674 125q-30 -55 -96 -94t-175 -39q-148 0 -234.5 86t-86.5 217q0 149 110.5 232t319.5 83h152v64q0 87 -45 131.5t-154 44.5q-81 0 -162 -25.5t-143 -66.5v227
q50 31 141.5 51.5t194.5 20.5q214 0 318 -98t104 -295v-664h-244v125zM899 1483q0 -175 -101 -265t-278 -90q-176 0 -277.5 90t-101.5 265h193q0 -89 48.5 -141t137.5 -52t138 52t49 141h192z" />
    <glyph glyph-name="Aogonek" unicode="&#x104;" horiz-adv-x="1366" 
d="M504 584l-19 -60h392l-19 62q-70 222 -114 372.5t-53 189.5l-9 40q-20 -103 -178 -604zM1348 -471q-80 -47 -199 -47q-134 0 -202 65.5t-68 167.5q0 160 157 295l-94 303h-522l-98 -313h-273l469 1380h334l465 -1380q-104 -60 -171 -127.5t-67 -134.5q0 -43 28.5 -66.5
t76.5 -23.5q86 0 164 55v-174z" />
    <glyph glyph-name="aogonek" unicode="&#x105;" horiz-adv-x="1032" 
d="M489 176q80 0 127.5 47t47.5 121v100h-117q-100 0 -154.5 -37t-54.5 -102q0 -61 38 -95t113 -34zM948 -471q-80 -47 -200 -47q-134 0 -201.5 65.5t-67.5 167.5q0 174 195 310v102q-36 -59 -103.5 -97t-167.5 -38q-149 0 -235 84.5t-86 216.5q0 150 111 233.5t321 83.5
h150v64q0 87 -45 131.5t-154 44.5q-82 0 -163 -25.5t-142 -66.5v227q51 30 142.5 51t193.5 21q214 0 318 -98t104 -295v-664q-104 -59 -171 -127t-67 -135q0 -44 27 -67t77 -23q82 0 164 55v-174z" />
    <glyph glyph-name="Cacute" unicode="&#x106;" horiz-adv-x="1247" 
d="M1151 66q-125 -82 -356 -82q-200 0 -360.5 85.5t-253.5 247.5t-93 373q0 207 90 369t251 251t366 89q226 0 354 -76v-252q-87 51 -163 70.5t-181 19.5q-188 0 -314 -128.5t-126 -342.5q0 -216 125.5 -342.5t328.5 -126.5q89 0 178 27t154 76v-258zM850 1481h-207l186 346
h258z" />
    <glyph glyph-name="cacute" unicode="&#x107;" horiz-adv-x="962" 
d="M885 45q-108 -63 -271 -63q-240 0 -388 151t-148 383q1 110 38 207t105.5 171.5t173 117.5t232.5 43q149 0 258 -58v-217q-104 66 -234 66q-143 0 -231.5 -90t-89.5 -240q5 -148 89 -238t230 -90q125 0 236 70v-213zM711 1137h-207l186 346h258z" />
    <glyph glyph-name="Ccaron" unicode="&#x10c;" horiz-adv-x="1247" 
d="M1151 66q-125 -82 -356 -82q-200 0 -360.5 85.5t-253.5 247.5t-93 373q0 207 90 369t251 251t366 89q226 0 354 -76v-252q-87 51 -163 70.5t-181 19.5q-188 0 -314 -128.5t-126 -342.5q0 -216 125.5 -342.5t328.5 -126.5q89 0 178 27t154 76v-258zM860 1481h-217
l-297 346h240l166 -203l166 203h239z" />
    <glyph glyph-name="ccaron" unicode="&#x10d;" horiz-adv-x="962" 
d="M885 45q-108 -63 -271 -63q-240 0 -388 151t-148 383q1 110 38 207t105.5 171.5t173 117.5t232.5 43q149 0 258 -58v-217q-104 66 -234 66q-143 0 -231.5 -90t-89.5 -240q5 -148 89 -238t230 -90q125 0 236 70v-213zM672 1139h-217l-297 346h239l166 -203l166 203h240z
" />
    <glyph glyph-name="Dcaron" unicode="&#x10e;" horiz-adv-x="1382" 
d="M594 0h-451v1380h451q153 0 284.5 -51t223 -140.5t143 -213.5t51.5 -266q0 -318 -190 -513.5t-512 -195.5zM586 1163h-178v-948h182q216 0 329 134t113 360q0 199 -119.5 326.5t-326.5 127.5zM754 1481h-217l-297 346h239l166 -203l166 203h240z" />
    <glyph glyph-name="dcaron" unicode="&#x10f;" horiz-adv-x="1460" 
d="M330 514q0 -142 71.5 -229.5t178.5 -87.5q111 0 184.5 85t73.5 246q0 81 -23 144.5t-61.5 99.5t-82 54t-89.5 18q-107 0 -179.5 -87t-72.5 -243zM1083 0h-245v162q-52 -86 -133 -131t-183 -45q-137 0 -240 75.5t-153.5 195t-50.5 261.5q0 246 126 390.5t322 144.5
q98 0 178.5 -44.5t133.5 -129.5v569h245v-1448zM1374 1032h-184l156 418h264z" />
    <glyph glyph-name="Dcroat" unicode="&#x110;" horiz-adv-x="1519" 
d="M731 0h-450v578h-150v210h150v592h450q153 0 284.5 -51t223 -140.5t143.5 -213.5t52 -266q0 -210 -84 -370t-244 -249.5t-375 -89.5zM856 578h-311v-363h182q216 0 330 134t114 360q0 199 -120.5 326.5t-327.5 127.5h-178v-375h311v-210z" />
    <glyph glyph-name="dcroat" unicode="&#x111;" horiz-adv-x="1216" 
d="M330 514q0 -142 71.5 -229.5t178.5 -87.5q111 0 184.5 85t73.5 246q0 81 -23 144.5t-61.5 99.5t-82 54t-89.5 18q-107 0 -179.5 -87t-72.5 -243zM1083 0h-245v162q-52 -86 -133 -131t-183 -45q-137 0 -240 75.5t-153.5 195t-50.5 261.5q0 246 126 390.5t322 144.5
q98 0 178.5 -44.5t133.5 -129.5v295h-342v147h342v127h245v-127h129v-147h-129v-1174z" />
    <glyph glyph-name="Emacron" unicode="&#x112;" horiz-adv-x="1081" 
d="M967 0h-824v1380h815v-211h-555v-374h494v-209h-494v-375h564v-211zM887 1575h-672v170h672v-170z" />
    <glyph glyph-name="emacron" unicode="&#x113;" horiz-adv-x="1083" 
d="M926 57q-53 -33 -141.5 -50t-172.5 -17q-248 0 -391 147t-143 381q0 125 37 226.5t102 167.5t150.5 101.5t183.5 35.5q203 0 321.5 -123t118.5 -359q0 -56 -14 -147h-651q27 -113 112 -172.5t211 -59.5q163 0 277 82v-213zM557 856q-87 0 -152 -64.5t-83 -187.5h436v31
q-5 100 -55 160.5t-146 60.5zM893 1227h-672v170h672v-170z" />
    <glyph glyph-name="Edotaccent" unicode="&#x116;" horiz-adv-x="1081" 
d="M967 0h-824v1380h815v-211h-555v-374h494v-209h-494v-375h564v-211zM715 1657q0 -61 -41.5 -102.5t-102.5 -41.5q-63 0 -104 41t-41 103q0 60 41 100.5t104 40.5q61 0 102.5 -40.5t41.5 -100.5z" />
    <glyph glyph-name="edotaccent" unicode="&#x117;" horiz-adv-x="1083" 
d="M926 57q-53 -33 -141.5 -50t-172.5 -17q-248 0 -391 147t-143 381q0 125 37 226.5t102 167.5t150.5 101.5t183.5 35.5q203 0 321.5 -123t118.5 -359q0 -56 -14 -147h-651q27 -113 112 -172.5t211 -59.5q163 0 277 82v-213zM557 856q-87 0 -152 -64.5t-83 -187.5h436v31
q-5 100 -55 160.5t-146 60.5zM719 1315q0 -61 -41.5 -102.5t-102.5 -41.5q-63 0 -104 41t-41 103q0 60 41 100.5t104 40.5q61 0 102.5 -40.5t41.5 -100.5z" />
    <glyph glyph-name="Eogonek" unicode="&#x118;" horiz-adv-x="1081" 
d="M930 -471q-83 -47 -201 -47q-134 0 -202 65.5t-68 167.5q0 156 162 285h-478v1380h815v-211h-555v-374h494v-209h-494v-375h564v-211h-70q-104 -60 -171 -127.5t-67 -134.5q0 -44 28.5 -67t78.5 -23q82 0 164 55v-174z" />
    <glyph glyph-name="eogonek" unicode="&#x119;" horiz-adv-x="1083" 
d="M557 856q-87 0 -152 -64.5t-83 -187.5h436v31q-5 100 -55 160.5t-146 60.5zM883 -440q-83 -47 -201 -47q-134 0 -202 65.5t-68 167.5q0 135 120 248q-213 24 -333.5 167t-120.5 357q0 125 37 226.5t102 167.5t150.5 101.5t183.5 35.5q203 0 321.5 -123t118.5 -359
q0 -56 -14 -147h-651q27 -113 112 -172.5t211 -59.5q163 0 277 82v-213q-44 -26 -99 -41q-215 -129 -215 -247q0 -44 28.5 -67.5t78.5 -23.5q81 0 164 56v-174z" />
    <glyph glyph-name="Ecaron" unicode="&#x11a;" horiz-adv-x="1081" 
d="M967 0h-824v1380h815v-211h-555v-374h494v-209h-494v-375h564v-211zM674 1481h-217l-297 346h239l166 -203l166 203h240z" />
    <glyph glyph-name="ecaron" unicode="&#x11b;" horiz-adv-x="1083" 
d="M926 57q-53 -33 -141.5 -50t-172.5 -17q-248 0 -391 147t-143 381q0 125 37 226.5t102 167.5t150.5 101.5t183.5 35.5q203 0 321.5 -123t118.5 -359q0 -56 -14 -147h-651q27 -113 112 -172.5t211 -59.5q163 0 277 82v-213zM557 856q-87 0 -152 -64.5t-83 -187.5h436v31
q-5 100 -55 160.5t-146 60.5zM668 1139h-217l-297 346h239l166 -203l166 203h240z" />
    <glyph glyph-name="Gbreve" unicode="&#x11e;" horiz-adv-x="1419" 
d="M1290 119q-80 -58 -201 -96.5t-270 -38.5q-215 0 -380 84t-258 245.5t-93 378.5q0 159 56 293t153.5 226t232.5 143t291 51q237 0 404 -88v-264q-187 112 -400 112q-208 0 -334 -129t-126 -344q0 -219 124 -345t340 -126q109 0 207 37v326h-254v221h508v-664h-2z
M1145 1827q0 -175 -101 -264.5t-278 -89.5q-176 0 -277.5 89.5t-101.5 264.5h193q0 -89 48.5 -141t137.5 -52t137.5 52t48.5 141h193z" />
    <glyph glyph-name="gbreve" unicode="&#x11f;" horiz-adv-x="1169" 
d="M1049 94q0 -126 -40.5 -222.5t-111 -154.5t-159.5 -87t-193 -29q-206 0 -359 73v250q140 -98 334 -98q142 0 212.5 65.5t70.5 204.5v90q-93 -153 -295 -153q-82 0 -156 30.5t-134.5 89.5t-96 157t-35.5 222q0 225 118 372t310 147q195 0 289 -162v149h246v-944zM342 532
q0 -146 63 -222.5t162 -76.5q101 0 168.5 78.5t67.5 206.5q0 166 -65 244t-167 78q-106 0 -167.5 -83.5t-61.5 -224.5zM1001 1485q0 -176 -100.5 -265.5t-277.5 -89.5q-176 0 -277.5 90t-101.5 265h192q0 -89 49 -141t138 -52t137.5 52t48.5 141h192z" />
    <glyph glyph-name="uni0122" unicode="&#x122;" horiz-adv-x="1419" 
d="M1290 119q-80 -58 -201 -96.5t-270 -38.5q-215 0 -380 84t-258 245.5t-93 378.5q0 159 56 293t153.5 226t232.5 143t291 51q237 0 404 -88v-264q-187 112 -400 112q-208 0 -334 -129t-126 -344q0 -219 124 -345t340 -126q109 0 207 37v326h-254v221h508v-664h-2z
M666 -522h-185l156 418h264z" />
    <glyph glyph-name="uni0123" unicode="&#x123;" horiz-adv-x="1169" 
d="M1049 94q0 -126 -40.5 -222.5t-111 -154.5t-159.5 -87t-193 -29q-206 0 -359 73v250q140 -98 334 -98q142 0 212.5 65.5t70.5 204.5v90q-93 -153 -295 -153q-82 0 -156 30.5t-134.5 89.5t-96 157t-35.5 222q0 225 118 372t310 147q195 0 289 -162v149h246v-944zM342 532
q0 -146 63 -222.5t162 -76.5q101 0 168.5 78.5t67.5 206.5q0 166 -65 244t-167 78q-106 0 -167.5 -83.5t-61.5 -224.5zM782 1139h-262l234 417h184z" />
    <glyph glyph-name="Imacron" unicode="&#x12a;" horiz-adv-x="577" 
d="M418 0h-258v1380h258v-1380zM625 1569h-672v170h672v-170z" />
    <glyph glyph-name="imacron" unicode="&#x12b;" horiz-adv-x="532" 
d="M389 0h-246v1038h246v-1038zM602 1227h-672v170h672v-170z" />
    <glyph glyph-name="Iogonek" unicode="&#x12e;" horiz-adv-x="577" 
d="M451 -471q-83 -47 -201 -47q-134 0 -202 65.5t-68 167.5q0 161 180 299v1366h258v-1380q-104 -60 -171 -127.5t-67 -134.5q0 -44 28.5 -67t78.5 -23q82 0 164 55v-174z" />
    <glyph glyph-name="iogonek" unicode="&#x12f;" horiz-adv-x="532" 
d="M414 1350q0 -63 -43 -106.5t-105 -43.5t-104.5 43.5t-42.5 106.5q0 62 42.5 104.5t104.5 42.5t105 -43t43 -104zM422 -471q-83 -47 -201 -47q-134 0 -202 65.5t-68 167.5q0 93 53.5 171t138.5 137v1015h246v-1038q-103 -60 -170 -127.5t-67 -134.5q0 -44 28 -67t78 -23
q82 0 164 55v-174z" />
    <glyph glyph-name="Idotaccent" unicode="&#x130;" horiz-adv-x="577" 
d="M418 0h-258v1380h258v-1380zM436 1657q0 -62 -41 -103t-102 -41q-63 0 -104.5 41t-41.5 103q0 60 41.5 100.5t104.5 40.5q61 0 102 -40.5t41 -100.5z" />
    <glyph glyph-name="dotlessi" unicode="&#x131;" horiz-adv-x="532" 
d="M389 0h-246v1038h246v-1038z" />
    <glyph glyph-name="uni0136" unicode="&#x136;" horiz-adv-x="1286" 
d="M1243 0h-325l-496 684l477 696h309l-479 -692zM553 -522h-184l155 418h264zM401 0h-258v1380h258v-1380z" />
    <glyph glyph-name="uni0137" unicode="&#x137;" horiz-adv-x="1069" 
d="M379 0h-246v1423h246v-872l366 487h287l-381 -495l389 -543h-288l-373 537v-537zM465 -522h-186l155 418h264z" />
    <glyph glyph-name="Lacute" unicode="&#x139;" horiz-adv-x="991" 
d="M940 0h-797v1380h258v-1151h539v-229zM731 1481h-207l187 346h258z" />
    <glyph glyph-name="lacute" unicode="&#x13a;" horiz-adv-x="532" 
d="M389 0h-246v1448h246v-1448zM367 1548h-207l186 346h258z" />
    <glyph glyph-name="uni013B" unicode="&#x13b;" horiz-adv-x="991" 
d="M469 -522h-184l155 418h265zM940 0h-797v1380h258v-1151h539v-229z" />
    <glyph glyph-name="uni013C" unicode="&#x13c;" horiz-adv-x="532" 
d="M389 0h-246v1448h246v-1448zM162 -522h-187l156 418h264z" />
    <glyph glyph-name="Lcaron" unicode="&#x13d;" horiz-adv-x="991" 
d="M940 0h-797v1380h258v-1151h539v-229zM733 1016h-186l155 418h265z" />
    <glyph glyph-name="lcaron" unicode="&#x13e;" horiz-adv-x="550" 
d="M389 0h-246v1448h246v-1448zM700 1034h-184l156 416h262z" />
    <glyph glyph-name="Lslash" unicode="&#x141;" horiz-adv-x="1103" 
d="M817 801l-323 -195v-377h538v-229h-799v449l-153 -93v215l153 93v716h261v-559l323 195v-215z" />
    <glyph glyph-name="lslash" unicode="&#x142;" horiz-adv-x="659" 
d="M455 0h-246v569l-152 -104v215l152 104v664h246v-494l170 117v-215l-170 -117v-739z" />
    <glyph glyph-name="Nacute" unicode="&#x143;" horiz-adv-x="1409" 
d="M401 0h-258v1380h293l332 -575q83 -142 147 -264t87 -173l22 -51q-16 172 -16 488v575h260v-1380h-295l-336 573q-80 135 -144.5 259t-88.5 180l-25 57q22 -196 22 -494v-575zM844 1481h-207l186 346h258z" />
    <glyph glyph-name="nacute" unicode="&#x144;" 
d="M1034 0h-246v639q0 102 -49 154.5t-133 52.5q-96 0 -161.5 -75t-65.5 -214v-557h-246v1038h246v-178q42 92 124 141.5t195 49.5q156 0 246 -95t90 -266v-690zM741 1139h-206l186 346h258z" />
    <glyph glyph-name="uni0145" unicode="&#x145;" horiz-adv-x="1409" 
d="M401 0h-258v1380h293l332 -575q83 -142 147 -264t87 -173l22 -51q-16 172 -16 488v575h260v-1380h-295l-336 573q-80 135 -144.5 259t-88.5 180l-25 57q22 -196 22 -494v-575zM621 -522h-187l156 418h264z" />
    <glyph glyph-name="uni0146" unicode="&#x146;" 
d="M1034 0h-246v639q0 102 -49 154.5t-133 52.5q-96 0 -161.5 -75t-65.5 -214v-557h-246v1038h246v-178q42 92 124 141.5t195 49.5q156 0 246 -95t90 -266v-690zM489 -522h-184l156 418h264z" />
    <glyph glyph-name="Ncaron" unicode="&#x147;" horiz-adv-x="1409" 
d="M401 0h-258v1380h293l332 -575q83 -142 147 -264t87 -173l22 -51q-16 172 -16 488v575h260v-1380h-295l-336 573q-80 135 -144.5 259t-88.5 180l-25 57q22 -196 22 -494v-575zM831 1481h-217l-297 346h240l166 -203l166 203h239z" />
    <glyph glyph-name="ncaron" unicode="&#x148;" 
d="M1034 0h-246v639q0 102 -49 154.5t-133 52.5q-96 0 -161.5 -75t-65.5 -214v-557h-246v1038h246v-178q42 92 124 141.5t195 49.5q156 0 246 -95t90 -266v-690zM713 1139h-217l-297 346h239l166 -203l166 203h240z" />
    <glyph glyph-name="Omacron" unicode="&#x14c;" horiz-adv-x="1480" 
d="M1393 694q0 -319 -177.5 -513.5t-474.5 -194.5t-475 194t-178 514q0 212 79.5 373t227.5 249.5t344 88.5q199 0 347.5 -88.5t227.5 -249t79 -373.5zM365 694q0 -218 102 -344.5t274 -126.5q175 0 275 126t100 345t-100.5 346t-276.5 127q-173 0 -273.5 -127.5
t-100.5 -345.5zM1075 1569h-672v170h672v-170z" />
    <glyph glyph-name="omacron" unicode="&#x14d;" 
d="M1079 522q0 -114 -33 -212t-95 -170.5t-158 -114t-215 -41.5q-158 0 -273 70.5t-171 187.5t-56 266q0 155 60 278.5t175 196t265 72.5q161 0 276 -72.5t170 -191t55 -269.5zM336 516q0 -143 64 -239.5t180 -96.5q120 0 181.5 94t61.5 240q0 71 -13.5 130.5t-41.5 107.5
t-76.5 75t-113.5 27q-117 0 -179.5 -96.5t-62.5 -241.5zM918 1227h-672v170h672v-170z" />
    <glyph glyph-name="Ohungarumlaut" unicode="&#x150;" horiz-adv-x="1480" 
d="M1393 694q0 -319 -177.5 -513.5t-474.5 -194.5t-475 194t-178 514q0 212 79.5 373t227.5 249.5t344 88.5q199 0 347.5 -88.5t227.5 -249t79 -373.5zM365 694q0 -218 102 -344.5t274 -126.5q175 0 275 126t100 345t-100.5 346t-276.5 127q-173 0 -273.5 -127.5
t-100.5 -345.5zM1034 1481h-186l199 346h258zM674 1481h-185l185 346h239z" />
    <glyph glyph-name="ohungarumlaut" unicode="&#x151;" 
d="M1079 522q0 -114 -33 -212t-95 -170.5t-158 -114t-215 -41.5q-158 0 -273 70.5t-171 187.5t-56 266q0 155 60 278.5t175 196t265 72.5q161 0 276 -72.5t170 -191t55 -269.5zM336 516q0 -143 64 -239.5t180 -96.5q120 0 181.5 94t61.5 240q0 71 -13.5 130.5t-41.5 107.5
t-76.5 75t-113.5 27q-117 0 -179.5 -96.5t-62.5 -241.5zM887 1139h-187l199 346h258zM526 1139h-184l184 346h240z" />
    <glyph glyph-name="OE" unicode="&#x152;" horiz-adv-x="2035" 
d="M365 694q0 -219 97.5 -345t268.5 -126q173 0 269 125.5t96 345.5q0 221 -96 347t-271 126q-172 0 -268 -126.5t-96 -346.5zM1921 0h-825v119q-155 -133 -365 -133q-296 0 -469.5 193t-173.5 515t173 516.5t468 194.5q214 0 367 -131v106h817v-211h-570v-374h508v-209
h-508v-375h578v-211z" />
    <glyph glyph-name="oe" unicode="&#x153;" horiz-adv-x="1810" 
d="M336 516q0 -93 24.5 -167t79.5 -121.5t133 -47.5q120 0 182 94t62 240q0 71 -13.5 130.5t-41.5 107.5t-77 75t-114 27q-79 0 -133 -47.5t-78 -121.5t-24 -169zM1298 856q-87 0 -153 -64t-84 -188h434v43q-6 98 -56.5 153.5t-140.5 55.5zM1663 57q-55 -33 -142.5 -50
t-170.5 -17q-126 0 -230 44.5t-176 125.5q-132 -176 -373 -176q-119 0 -214 40.5t-155.5 112t-92 166t-31.5 205.5q0 237 134 392t359 155q234 0 369 -168q66 78 159 120t193 42q206 0 321.5 -123.5t115.5 -362.5q0 -59 -13 -143h-651q29 -112 115.5 -172t208.5 -60
q157 0 274 82v-213z" />
    <glyph glyph-name="Racute" unicode="&#x154;" horiz-adv-x="1206" 
d="M569 1167h-168v-450h172q119 0 178.5 60.5t59.5 168.5q0 106 -62.5 163.5t-179.5 57.5zM401 0h-258v1380h426q235 0 369.5 -119t134.5 -317q-1 -148 -71 -249t-191 -150l354 -545h-309l-313 504h-142v-504zM688 1481h-207l187 346h258z" />
    <glyph glyph-name="racute" unicode="&#x155;" horiz-adv-x="722" 
d="M379 0h-248l2 1038h246v-184q34 90 100.5 141.5t161.5 51.5q39 0 70 -7v-237q-46 20 -105 20q-101 0 -164 -81.5t-63 -204.5v-537zM541 1139h-207l186 346h258z" />
    <glyph glyph-name="uni0156" unicode="&#x156;" horiz-adv-x="1206" 
d="M569 1167h-168v-450h172q119 0 178.5 60.5t59.5 168.5q0 106 -62.5 163.5t-179.5 57.5zM516 -522h-184l155 418h265zM401 0h-258v1380h426q235 0 369.5 -119t134.5 -317q-1 -148 -71 -249t-191 -150l354 -545h-309l-313 504h-142v-504z" />
    <glyph glyph-name="uni0157" unicode="&#x157;" horiz-adv-x="722" 
d="M143 -522h-184l156 418h264zM379 0h-248l2 1038h246v-184q34 90 100.5 141.5t161.5 51.5q39 0 70 -7v-237q-46 20 -105 20q-101 0 -164 -81.5t-63 -204.5v-537z" />
    <glyph glyph-name="Rcaron" unicode="&#x158;" horiz-adv-x="1206" 
d="M569 1167h-168v-450h172q119 0 178.5 60.5t59.5 168.5q0 106 -62.5 163.5t-179.5 57.5zM401 0h-258v1380h426q235 0 369.5 -119t134.5 -317q-1 -148 -71 -249t-191 -150l354 -545h-309l-313 504h-142v-504zM727 1481h-217l-297 346h240l165 -203l166 203h240z" />
    <glyph glyph-name="rcaron" unicode="&#x159;" horiz-adv-x="722" 
d="M379 0h-248l2 1038h246v-184q34 90 100.5 141.5t161.5 51.5q39 0 70 -7v-237q-46 20 -105 20q-101 0 -164 -81.5t-63 -204.5v-537zM535 1139h-218l-297 346h240l166 -203l166 203h239z" />
    <glyph glyph-name="Sacute" unicode="&#x15a;" horiz-adv-x="1060" 
d="M977 387q0 -184 -132.5 -293.5t-346.5 -109.5q-106 0 -209.5 23t-177.5 65v264q176 -127 385 -127q94 0 151.5 46t57.5 124q0 37 -16.5 66.5t-52.5 54.5t-71 42.5t-95 44.5q-22 10 -34 15q-41 19 -69.5 33.5t-66.5 37t-64 44t-53.5 52.5t-44 64t-27.5 76t-11 92
q0 177 130 283.5t345 106.5q194 0 336 -68v-250q-154 92 -327 92q-96 0 -150.5 -42.5t-54.5 -110.5q0 -35 17 -65t52.5 -56t71 -44.5t92.5 -43.5q54 -24 88.5 -41t82.5 -45t78 -58t59 -70t43 -91t14 -111zM655 1481h-206l186 346h258z" />
    <glyph glyph-name="sacute" unicode="&#x15b;" horiz-adv-x="874" 
d="M811 299q0 -146 -104.5 -227.5t-278.5 -81.5q-93 0 -176 17.5t-135 45.5v226q61 -40 139 -66.5t158 -26.5q68 0 105.5 26t37.5 71q0 35 -30.5 65.5t-59.5 44.5t-101 44q-19 8 -28 12q-48 22 -84 45t-71 58t-53.5 83.5t-18.5 107.5q0 144 108.5 226t272.5 82
q160 0 262 -45v-218q-102 62 -256 62q-63 0 -99.5 -27t-36.5 -71q0 -17 5.5 -31.5t18.5 -27.5t25 -23t35 -22t38.5 -19t45 -20.5t45.5 -20.5q51 -25 87.5 -48.5t73.5 -58t56 -80.5t19 -102zM584 1139h-207l186 346h258z" />
    <glyph glyph-name="uni015E" unicode="&#x15e;" horiz-adv-x="1060" 
d="M977 387q0 -184 -132.5 -293.5t-346.5 -109.5q-106 0 -209.5 23t-177.5 65v264q176 -127 385 -127q94 0 151.5 46t57.5 124q0 37 -16.5 66.5t-52.5 54.5t-71 42.5t-95 44.5q-22 10 -34 15q-41 19 -69.5 33.5t-66.5 37t-64 44t-53.5 52.5t-44 64t-27.5 76t-11 92
q0 177 130 283.5t345 106.5q194 0 336 -68v-250q-154 92 -327 92q-96 0 -150.5 -42.5t-54.5 -110.5q0 -35 17 -65t52.5 -56t71 -44.5t92.5 -43.5q54 -24 88.5 -41t82.5 -45t78 -58t59 -70t43 -91t14 -111zM676 -254q0 -58 -21 -108t-62.5 -89.5t-108.5 -62t-154 -23.5v160
q79 3 120.5 39t41.5 98q0 59 -52 136h199q37 -55 37 -150z" />
    <glyph glyph-name="uni015F" unicode="&#x15f;" horiz-adv-x="874" 
d="M811 299q0 -146 -104.5 -227.5t-278.5 -81.5q-93 0 -176 17.5t-135 45.5v226q61 -40 139 -66.5t158 -26.5q68 0 105.5 26t37.5 71q0 35 -30.5 65.5t-59.5 44.5t-101 44q-19 8 -28 12q-48 22 -84 45t-71 58t-53.5 83.5t-18.5 107.5q0 144 108.5 226t272.5 82
q160 0 262 -45v-218q-102 62 -256 62q-63 0 -99.5 -27t-36.5 -71q0 -17 5.5 -31.5t18.5 -27.5t25 -23t35 -22t38.5 -19t45 -20.5t45.5 -20.5q51 -25 87.5 -48.5t73.5 -58t56 -80.5t19 -102zM596 -254q0 -58 -21 -108t-62.5 -89.5t-108.5 -62t-154 -23.5v160q79 3 120.5 39
t41.5 98q0 59 -52 136h199q37 -55 37 -150z" />
    <glyph glyph-name="Scaron" unicode="&#x160;" horiz-adv-x="1060" 
d="M977 387q0 -184 -132.5 -293.5t-346.5 -109.5q-106 0 -209.5 23t-177.5 65v264q176 -127 385 -127q94 0 151.5 46t57.5 124q0 37 -16.5 66.5t-52.5 54.5t-71 42.5t-95 44.5q-22 10 -34 15q-41 19 -69.5 33.5t-66.5 37t-64 44t-53.5 52.5t-44 64t-27.5 76t-11 92
q0 177 130 283.5t345 106.5q194 0 336 -68v-250q-154 92 -327 92q-96 0 -150.5 -42.5t-54.5 -110.5q0 -35 17 -65t52.5 -56t71 -44.5t92.5 -43.5q54 -24 88.5 -41t82.5 -45t78 -58t59 -70t43 -91t14 -111zM651 1481h-217l-297 346h240l166 -203l166 203h239z" />
    <glyph glyph-name="scaron" unicode="&#x161;" horiz-adv-x="874" 
d="M811 299q0 -146 -104.5 -227.5t-278.5 -81.5q-93 0 -176 17.5t-135 45.5v226q61 -40 139 -66.5t158 -26.5q68 0 105.5 26t37.5 71q0 35 -30.5 65.5t-59.5 44.5t-101 44q-19 8 -28 12q-48 22 -84 45t-71 58t-53.5 83.5t-18.5 107.5q0 144 108.5 226t272.5 82
q160 0 262 -45v-218q-102 62 -256 62q-63 0 -99.5 -27t-36.5 -71q0 -17 5.5 -31.5t18.5 -27.5t25 -23t35 -22t38.5 -19t45 -20.5t45.5 -20.5q51 -25 87.5 -48.5t73.5 -58t56 -80.5t19 -102zM592 1139h-217l-297 346h239l166 -203l166 203h240z" />
    <glyph glyph-name="uni0162" unicode="&#x162;" horiz-adv-x="1064" 
d="M1014 1167h-350v-1167h-261v1167h-350v213h961v-213zM674 -254q0 -58 -21 -108t-62.5 -89.5t-108.5 -62t-154 -23.5v160q79 3 120 39t41 98q0 61 -51 136h199q37 -55 37 -150z" />
    <glyph glyph-name="uni0163" unicode="&#x163;" horiz-adv-x="776" 
d="M707 25q-71 -35 -185 -35q-336 0 -336 340v524h-155v184h155v250h246v-250h258v-184h-258v-528q0 -65 35 -99t96 -34q79 0 144 43v-211zM563 -254q0 -58 -21 -108t-62.5 -89.5t-108.5 -62t-154 -23.5v160q79 3 120.5 39t41.5 98q0 61 -51 136h198q37 -55 37 -150z" />
    <glyph glyph-name="Tcaron" unicode="&#x164;" horiz-adv-x="1064" 
d="M1014 1167h-350v-1167h-261v1167h-350v213h961v-213zM643 1481h-217l-297 346h240l166 -203l165 203h240z" />
    <glyph glyph-name="tcaron" unicode="&#x165;" horiz-adv-x="776" 
d="M707 25q-71 -35 -185 -35q-336 0 -336 340v524h-155v184h155v250h246v-250h258v-184h-258v-528q0 -65 35 -99t96 -34q79 0 144 43v-211zM729 1188h-186l155 418h265z" />
    <glyph glyph-name="Umacron" unicode="&#x16a;" horiz-adv-x="1349" 
d="M1214 530q0 -269 -144.5 -408.5t-395.5 -139.5q-246 0 -392.5 138t-146.5 396v864h258v-862q0 -82 22 -141.5t62 -93t88.5 -49t108.5 -15.5q63 0 112 15.5t88.5 49.5t60.5 95.5t21 148.5v852h258v-850zM1024 1569h-672v170h672v-170z" />
    <glyph glyph-name="umacron" unicode="&#x16b;" 
d="M1024 0h-248v170q-82 -180 -319 -180q-157 0 -245.5 90t-88.5 256v702h246v-645q0 -98 47.5 -149t132.5 -51q106 0 166.5 71.5t60.5 216.5v557h248v-1038zM907 1227h-671v170h671v-170z" />
    <glyph glyph-name="Uring" unicode="&#x16e;" horiz-adv-x="1349" 
d="M1214 530q0 -269 -144.5 -408.5t-395.5 -139.5q-246 0 -392.5 138t-146.5 396v864h258v-862q0 -82 22 -141.5t62 -93t88.5 -49t108.5 -15.5q63 0 112 15.5t88.5 49.5t60.5 95.5t21 148.5v852h258v-850zM936 1714q0 -106 -75 -181t-181 -75t-181 75t-75 181t75 181t181 75
t181 -75t75 -181zM571 1718q0 -45 31.5 -78.5t77.5 -33.5t77 33.5t31 78.5t-31 79t-77 34t-77.5 -34t-31.5 -79z" />
    <glyph glyph-name="uring" unicode="&#x16f;" 
d="M1024 0h-248v170q-82 -180 -319 -180q-157 0 -245.5 90t-88.5 256v702h246v-645q0 -98 47.5 -149t132.5 -51q106 0 166.5 71.5t60.5 216.5v557h248v-1038zM840 1372q0 -106 -75 -181t-181 -75t-181 75t-75 181t75 181t181 75t181 -75t75 -181zM475 1376q0 -45 31.5 -78.5
t77.5 -33.5t77 33.5t31 78.5t-31 79t-77 34t-77.5 -34t-31.5 -79z" />
    <glyph glyph-name="Uhungarumlaut" unicode="&#x170;" horiz-adv-x="1349" 
d="M1214 530q0 -269 -144.5 -408.5t-395.5 -139.5q-246 0 -392.5 138t-146.5 396v864h258v-862q0 -82 22 -141.5t62 -93t88.5 -49t108.5 -15.5q63 0 112 15.5t88.5 49.5t60.5 95.5t21 148.5v852h258v-850zM950 1481h-186l199 346h258zM590 1481h-184l184 346h239z" />
    <glyph glyph-name="uhungarumlaut" unicode="&#x171;" 
d="M1024 0h-248v170q-82 -180 -319 -180q-157 0 -245.5 90t-88.5 256v702h246v-645q0 -98 47.5 -149t132.5 -51q106 0 166.5 71.5t60.5 216.5v557h248v-1038zM860 1139h-186l198 346h258zM500 1139h-185l185 346h239z" />
    <glyph glyph-name="Uogonek" unicode="&#x172;" horiz-adv-x="1349" 
d="M1214 530q0 -203 -84.5 -333.5t-238.5 -182.5q-234 -138 -234 -260q0 -44 28.5 -67t78.5 -23q82 0 164 55v-174q-83 -47 -201 -47q-134 0 -202 66t-68 168q0 138 127 254q-208 25 -328.5 161.5t-120.5 368.5v864h258v-862q0 -82 22 -141.5t62 -93t88.5 -49t108.5 -15.5
q63 0 112 15.5t88.5 49.5t60.5 95.5t21 148.5v852h258v-850z" />
    <glyph glyph-name="uogonek" unicode="&#x173;" 
d="M1057 -471q-83 -47 -201 -47q-134 0 -202 65.5t-68 167.5q0 169 190 305v150q-82 -180 -319 -180q-157 0 -245.5 90t-88.5 256v702h246v-645q0 -98 47.5 -149t132.5 -51q106 0 166.5 71.5t60.5 216.5v557h248v-1038q-104 -60 -171 -127.5t-67 -134.5q0 -44 28.5 -67
t78.5 -23q82 0 164 55v-174z" />
    <glyph glyph-name="Ydieresis" unicode="&#x178;" horiz-adv-x="1277" 
d="M766 0h-258v504l-471 876h301l92 -200q80 -175 131 -292t63 -147l11 -30q18 77 211 469l94 200h301l-475 -868v-512zM1042 1655q0 -62 -41 -103t-104 -41q-62 0 -103.5 41.5t-41.5 102.5q0 60 41.5 100.5t103.5 40.5q63 0 104 -40.5t41 -100.5zM545 1655
q0 -61 -41.5 -102.5t-102.5 -41.5q-63 0 -104 41t-41 103q0 60 41 100.5t104 40.5q61 0 102.5 -40.5t41.5 -100.5z" />
    <glyph glyph-name="Zacute" unicode="&#x179;" horiz-adv-x="1230" 
d="M1114 0h-997v197l659 972h-649v211h960v-190l-661 -979h688v-211zM758 1481h-207l186 346h258z" />
    <glyph glyph-name="zacute" unicode="&#x17a;" horiz-adv-x="960" 
d="M877 0h-791v182l481 660h-463v196h746v-172l-483 -667h510v-199zM616 1139h-206l186 346h258z" />
    <glyph glyph-name="Zdotaccent" unicode="&#x17b;" horiz-adv-x="1230" 
d="M1114 0h-997v197l659 972h-649v211h960v-190l-661 -979h688v-211zM788 1657q0 -62 -41 -103t-102 -41q-63 0 -104 41t-41 103q0 60 41 100.5t104 40.5q61 0 102 -40.5t41 -100.5z" />
    <glyph glyph-name="zdotaccent" unicode="&#x17c;" horiz-adv-x="960" 
d="M877 0h-791v182l481 660h-463v196h746v-172l-483 -667h510v-199zM651 1313q0 -62 -41 -103t-102 -41q-63 0 -104.5 41t-41.5 103q0 60 41.5 100.5t104.5 40.5q61 0 102 -40.5t41 -100.5z" />
    <glyph glyph-name="Zcaron" unicode="&#x17d;" horiz-adv-x="1230" 
d="M1114 0h-997v197l659 972h-649v211h960v-190l-661 -979h688v-211zM735 1481h-217l-297 346h240l166 -203l166 203h239z" />
    <glyph glyph-name="zcaron" unicode="&#x17e;" horiz-adv-x="960" 
d="M877 0h-791v182l481 660h-463v196h746v-172l-483 -667h510v-199zM627 1139h-217l-297 346h239l166 -203l166 203h240z" />
    <glyph glyph-name="florin" unicode="&#x192;" horiz-adv-x="968" 
d="M471 -115q-31 -192 -126 -300.5t-259 -108.5q-113 0 -176 26v205q66 -29 139 -29q78 0 118 56t58 170l113 690h-186v184h217l32 205q31 193 125.5 301.5t259.5 108.5q98 0 160 -21v-205q-61 21 -117 21q-79 0 -122.5 -56t-61.5 -167l-31 -187h199v-184h-227z" />
    <glyph glyph-name="uni0218" unicode="&#x218;" horiz-adv-x="1060" 
d="M977 387q0 -184 -132.5 -293.5t-346.5 -109.5q-106 0 -209.5 23t-177.5 65v264q176 -127 385 -127q94 0 151.5 46t57.5 124q0 37 -16.5 66.5t-52.5 54.5t-71 42.5t-95 44.5q-22 10 -34 15q-41 19 -69.5 33.5t-66.5 37t-64 44t-53.5 52.5t-44 64t-27.5 76t-11 92
q0 177 130 283.5t345 106.5q194 0 336 -68v-250q-154 92 -327 92q-96 0 -150.5 -42.5t-54.5 -110.5q0 -35 17 -65t52.5 -56t71 -44.5t92.5 -43.5q54 -24 88.5 -41t82.5 -45t78 -58t59 -70t43 -91t14 -111zM442 -522h-186l156 418h264z" />
    <glyph glyph-name="uni0219" unicode="&#x219;" horiz-adv-x="874" 
d="M811 299q0 -146 -104.5 -227.5t-278.5 -81.5q-93 0 -176 17.5t-135 45.5v226q61 -40 139 -66.5t158 -26.5q68 0 105.5 26t37.5 71q0 35 -30.5 65.5t-59.5 44.5t-101 44q-19 8 -28 12q-48 22 -84 45t-71 58t-53.5 83.5t-18.5 107.5q0 144 108.5 226t272.5 82
q160 0 262 -45v-218q-102 62 -256 62q-63 0 -99.5 -27t-36.5 -71q0 -17 5.5 -31.5t18.5 -27.5t25 -23t35 -22t38.5 -19t45 -20.5t45.5 -20.5q51 -25 87.5 -48.5t73.5 -58t56 -80.5t19 -102zM352 -522h-184l156 418h264z" />
    <glyph glyph-name="uni021A" unicode="&#x21a;" horiz-adv-x="1064" 
d="M428 -522h-186l157 418h263zM1014 1167h-350v-1167h-261v1167h-350v213h961v-213z" />
    <glyph glyph-name="uni021B" unicode="&#x21b;" horiz-adv-x="776" 
d="M707 25q-71 -35 -185 -35q-336 0 -336 340v524h-155v184h155v250h246v-250h258v-184h-258v-528q0 -65 35 -99t96 -34q79 0 144 43v-211zM410 -522h-185l156 418h262z" />
    <glyph glyph-name="circumflex" unicode="&#x2c6;" horiz-adv-x="962" 
d="M315 1288h-239l297 346h217l297 -346h-240l-166 203z" />
    <glyph glyph-name="caron" unicode="&#x2c7;" horiz-adv-x="962" 
d="M590 1288h-217l-297 346h239l166 -202l166 202h240z" />
    <glyph glyph-name="uni02C9" unicode="&#x2c9;" horiz-adv-x="962" 
d="M817 1366h-672v170h672v-170z" />
    <glyph glyph-name="breve" unicode="&#x2d8;" horiz-adv-x="962" 
d="M860 1634q0 -175 -101 -264.5t-278 -89.5q-176 0 -277.5 89.5t-101.5 264.5h193q0 -89 48.5 -140.5t137.5 -51.5t138 51.5t49 140.5h192z" />
    <glyph glyph-name="dotaccent" unicode="&#x2d9;" horiz-adv-x="962" 
d="M625 1466q0 -61 -41 -102t-103 -41q-63 0 -104 40.5t-41 102.5q0 60 41 101t104 41q61 0 102.5 -41t41.5 -101z" />
    <glyph glyph-name="ring" unicode="&#x2da;" horiz-adv-x="962" 
d="M737 1462q0 -106 -75 -181t-181 -75t-181 75t-75 181t75 181t181 75t181 -75t75 -181zM373 1466q0 -45 31 -78.5t77 -33.5t77.5 33.5t31.5 78.5t-31.5 79t-77.5 34t-77 -34t-31 -79z" />
    <glyph glyph-name="ogonek" unicode="&#x2db;" horiz-adv-x="962" 
d="M717 -444q-85 -48 -201 -48q-134 0 -202 66t-68 168q0 73 36 140.5t93.5 116.5t112.5 82.5t110 55.5l86 -110q-103 -60 -170.5 -128t-67.5 -135q0 -44 28.5 -67t78.5 -23q81 0 164 56v-174z" />
    <glyph glyph-name="tilde" unicode="&#x2dc;" horiz-adv-x="962" 
d="M369 1378q-50 0 -80 -19.5t-68 -70.5l-117 109q33 68 94 113.5t134 45.5q43 0 85 -12t68.5 -26.5t60 -26.5t62.5 -12q88 0 131 88l131 -105q-37 -76 -101.5 -119t-147.5 -43q-49 0 -96.5 19.5t-86.5 39t-69 19.5z" />
    <glyph glyph-name="hungarumlaut" unicode="&#x2dd;" horiz-adv-x="962" 
d="M618 1288h-186l199 346h258zM258 1288h-184l184 346h240z" />
    <glyph glyph-name="pi" unicode="&#x3c0;" horiz-adv-x="1222" 
d="M1196 854h-176v-854h-246v854h-307v-451q0 -115 -24 -194t-74 -124.5t-119 -65t-168 -19.5v205q77 0 108 35.5t31 140.5v473h-176v184h1151v-184z" />
    <glyph glyph-name="tmAnusvara" unicode="&#xb82;" horiz-adv-x="0" 
d="M264 1638q0 -109 -73.5 -179t-190.5 -70t-190.5 70t-73.5 179q0 108 74 178t190 70t190 -70t74 -178zM-109 1638q0 -52 29.5 -84t79.5 -32t79.5 32t29.5 84q0 51 -29.5 83t-79.5 32t-79.5 -32t-29.5 -83z" />
    <glyph glyph-name="tmVisarga" unicode="&#xb83;" horiz-adv-x="1480" 
d="M1012 909q0 -119 -80.5 -194.5t-206.5 -75.5q-127 0 -208 75.5t-81 194.5t81 195t208 76q126 0 206.5 -76t80.5 -195zM608 909q0 -55 31.5 -90t85.5 -35t85.5 35t31.5 90t-31.5 90t-85.5 35t-85.5 -35t-31.5 -90zM1417 252q0 -120 -80.5 -196t-206.5 -76
q-127 0 -207.5 76t-80.5 196q0 119 80.5 194.5t207.5 75.5q126 0 206.5 -75.5t80.5 -194.5zM1012 252q0 -55 32 -91t86 -36q53 0 85 36t32 91t-32 90t-85 35q-54 0 -86 -35t-32 -90zM639 252q0 -120 -80.5 -196t-206.5 -76q-128 0 -208.5 76t-80.5 196q0 119 81 194.5
t208 75.5q126 0 206.5 -75.5t80.5 -194.5zM233 252q0 -55 32.5 -91t86.5 -36q53 0 85 36t32 91t-32 90t-85 35q-55 0 -87 -35t-32 -90z" />
    <glyph glyph-name="tmA" unicode="&#xb85;" horiz-adv-x="2068" 
d="M49 258l-2 227h1172q14 63 14 144q0 161 -83.5 257.5t-213.5 96.5q-64 0 -98.5 -29t-34.5 -80q0 -50 33 -78t98 -28q70 0 139 27v-174q-75 -35 -172 -35q-152 0 -242 73t-90 213q0 135 95.5 221.5t257.5 86.5q125 0 228 -46.5t168.5 -124t100.5 -175.5t35 -205
q0 -77 -12 -144h221v674h240v-1159h-240v322h-272q-79 -171 -248 -266t-404 -95q-230 0 -408 83.5t-282 213.5zM743 147q281 0 406 175l-873 -3q72 -79 195 -125.5t272 -46.5z" />
    <glyph glyph-name="tmAA" unicode="&#xb86;" horiz-adv-x="2637" 
d="M1155 -346v203q128 -55 284 -87t306 -32q555 0 555 512q0 123 -48.5 206t-146.5 83q-85 0 -139 -56.5t-63 -154.5v-328h-240v322h-272q-79 -171 -248 -266t-404 -95q-230 0 -408 83.5t-282 213.5l-2 227h1172q14 63 14 144q0 161 -83.5 257.5t-213.5 96.5
q-64 0 -98.5 -29t-34.5 -80q0 -50 33 -78t98 -28q70 0 139 27v-174q-75 -35 -172 -35q-152 0 -242 73t-90 213q0 135 95.5 221.5t257.5 86.5q125 0 228 -46.5t168.5 -124t100.5 -175.5t35 -205q0 -77 -12 -144h221v674h240v-592q37 73 108.5 123.5t171.5 50.5
q115 0 199.5 -71.5t124 -180.5t39.5 -237q0 -340 -213.5 -525.5t-587.5 -185.5q-334 0 -590 113zM743 147q281 0 406 175l-873 -3q72 -79 195 -125.5t272 -46.5z" />
    <glyph glyph-name="tmI" unicode="&#xb87;" horiz-adv-x="2312" 
d="M1094 514q204 0 389 -37q18 79 18 162q0 139 -70.5 225t-199.5 86q-88 0 -134 -47t-46 -129q0 -26 10 -84h-227q-13 50 -13 98q0 155 110.5 256t289.5 101q125 1 222.5 -38.5t157.5 -109.5t90.5 -160t30.5 -196q0 -108 -30 -219q205 -71 324.5 -192t119.5 -285
q0 -174 -130.5 -280.5t-371.5 -106.5q-264 0 -526 137q-249 -137 -535 -137q-243 0 -377.5 103t-134.5 286q0 160 103.5 274t281.5 185q-79 197 -79 401q0 367 236.5 583t656.5 216q196 0 352 -45.5t265 -129t181.5 -205t106 -269.5t33.5 -326v-174h-236v174q0 782 -702 782
q-311 0 -489.5 -154t-178.5 -452q0 -178 63 -338q210 45 439 45zM1094 322q-194 0 -346 -31q140 -220 362 -361q196 141 307 361q-164 31 -323 31zM1638 -248q137 0 204 51t67 144q0 95 -77 167.5t-210 121.5q-114 -237 -319 -410q184 -74 335 -74zM573 -246q169 0 336 66
q-234 174 -374 411q-115 -45 -181.5 -116t-66.5 -166q0 -98 74 -146.5t212 -48.5z" />
    <glyph glyph-name="tmII" unicode="&#xb88;" horiz-adv-x="1585" 
d="M1143 967v-967h-242v967h-493v-967h-242v1159h1184v-192h-207zM653 393q-57 0 -97 40t-40 97t40 98.5t97 41.5q58 0 99 -41.5t41 -98.5t-41 -97t-99 -40zM1391 393q-58 0 -98 40t-40 97q0 58 40 99t98 41q57 0 97 -41.5t40 -98.5t-40 -97t-97 -40z" />
    <glyph glyph-name="tmU" unicode="&#xb89;" horiz-adv-x="1802" 
d="M473 487q313 0 313 273q0 100 -66.5 164.5t-184.5 64.5q-69 0 -109.5 -30.5t-40.5 -86.5q0 -104 141 -104q60 0 127 23v-166q-64 -31 -161 -31q-149 0 -244.5 72t-95.5 204q0 138 104 224t272 86q111 0 203 -34t152 -92t92.5 -134t32.5 -162q0 -204 -141.5 -324.5
t-370.5 -120.5h-93q-52 0 -79 -13.5t-27 -49.5t26 -51t80 -15h1373v-184h-1375q-70 0 -127.5 11t-109.5 37t-81.5 76.5t-29.5 121.5q0 86 47.5 141t122 77.5t176.5 22.5h74z" />
    <glyph glyph-name="tmUU" unicode="&#xb8a;" horiz-adv-x="2807" 
d="M1493 293q-167 0 -263.5 108.5t-96.5 280.5q0 213 128 351t338 138q113 0 197 -41t127 -108v135h838v-176h-166v-674h-211v674h-250v-674h-213v412q0 121 -81 198.5t-218 77.5q-133 0 -213 -80t-88 -210q24 48 80.5 80t122.5 32q115 0 191.5 -72t76.5 -186
q0 -117 -81.5 -191.5t-217.5 -74.5zM1372 557q0 -54 33 -84.5t86 -30.5t86 30.5t33 84.5q0 53 -33.5 85t-85.5 32t-85.5 -32t-33.5 -85zM473 487q313 0 313 273q0 100 -66.5 164.5t-184.5 64.5q-69 0 -109.5 -30.5t-40.5 -86.5q0 -104 141 -104q60 0 127 23v-166
q-64 -31 -161 -31q-149 0 -244.5 72t-95.5 204q0 138 104 224t272 86q111 0 203 -34t152 -92t92.5 -134t32.5 -162q0 -204 -141.5 -324.5t-370.5 -120.5h-93q-52 0 -79 -13.5t-27 -49.5t26 -51t80 -15h2358v-184h-2360q-70 0 -127.5 11t-109.5 37t-81.5 76.5t-29.5 121.5
q0 86 47.5 141t122 77.5t176.5 22.5h74z" />
    <glyph glyph-name="tmE" unicode="&#xb8e;" horiz-adv-x="1566" 
d="M938 340q0 -158 -106 -259t-281 -101q-213 0 -336 138.5t-123 370.5q0 324 203 497t563 173h682v-194h-203v-965h-239v965h-236q-499 0 -538 -418q31 63 98.5 102t161.5 39q147 0 250.5 -95.5t103.5 -252.5zM371 338q0 -74 47.5 -118t124.5 -44t125.5 44t48.5 118
q0 75 -48 119.5t-126 44.5q-77 0 -124.5 -44t-47.5 -120z" />
    <glyph glyph-name="tmEE" unicode="&#xb8f;" horiz-adv-x="1566" 
d="M371 338q0 -74 47.5 -118t124.5 -44t125.5 44t48.5 118q0 75 -48 119.5t-126 44.5q-77 0 -124.5 -44t-47.5 -120zM807 -399l291 483v881h-236q-499 0 -538 -418q31 63 98.5 102t161.5 39q147 0 250.5 -95.5t103.5 -252.5q0 -158 -106 -259t-281 -101q-213 0 -336 138.5
t-123 370.5q0 324 203 497t563 173h682v-194h-203v-893l-284 -471h-246z" />
    <glyph glyph-name="tmAI" unicode="&#xb90;" horiz-adv-x="1832" 
d="M1417 197h238q53 -120 53 -252q0 -80 -23 -147.5t-69 -121t-124 -84t-181 -30.5q-139 0 -245 71t-130 203q-31 -129 -130 -201.5t-257 -72.5q-190 0 -315 107t-125 288q0 233 167.5 351t489.5 118h287q221 0 319 92t98 262q0 94 -46.5 151.5t-131.5 57.5
q-97 0 -148.5 -79.5t-51.5 -219.5v-98h-238v57q0 152 -85 245.5t-239 94.5q-87 0 -135.5 -37t-48.5 -106q0 -67 47.5 -100t126.5 -33q76 0 156 22v-190q-80 -25 -180 -25q-162 0 -267.5 81.5t-105.5 242.5q0 151 110.5 243.5t282.5 92.5q180 0 294.5 -82t145.5 -224
q23 141 117.5 223.5t235.5 82.5q189 0 295 -116t106 -290q0 -259 -161 -401t-439 -142h-285q-247 0 -361 -66.5t-114 -207.5q0 -93 61 -147t156 -54q121 0 185.5 78.5t64.5 208.5v37h242v-43q0 -131 57 -206t168 -75q91 0 140 53t49 144q0 126 -56 244z" />
    <glyph glyph-name="tmO" unicode="&#xb92;" horiz-adv-x="1949" 
d="M403 -305v201q200 -127 390 -127q86 0 159 19t158 54q23 9 61 25.5t57.5 25t47.5 17.5t53 14q-137 29 -213 132.5t-76 250.5q0 195 107 365h235q-45 -92 -45 -168q0 -69 39 -111.5t105 -42.5q71 0 108 46t37 122q0 137 -89 244.5t-240 165t-336 57.5q-153 0 -282 -36.5
t-225 -117t-128 -196.5q37 54 100.5 86.5t144.5 32.5q143 0 241.5 -94t98.5 -244q0 -155 -103.5 -252.5t-279.5 -97.5q-193 0 -314.5 122.5t-121.5 333.5q0 156 69.5 282.5t189 207.5t276 124.5t334.5 43.5q208 0 379.5 -54t284 -146.5t174 -214t61.5 -257.5
q0 -154 -87 -251t-239 -97q-102 0 -173.5 51.5t-90.5 140.5q-13 -57 -13 -96q0 -120 72.5 -192t218.5 -72h148v-193h-39q-75 0 -140 -14.5t-104.5 -30.5t-138.5 -61q-132 -59 -237 -89t-238 -30q-223 0 -396 121zM360 414q0 -72 45.5 -115t122.5 -43q78 0 124 43t46 115
t-46 114.5t-124 42.5q-76 0 -122 -43t-46 -114z" />
    <glyph glyph-name="tmOO" unicode="&#xb93;" horiz-adv-x="1949" 
d="M780 -39v-170q-12 2 -45 2q-43 0 -70.5 -22.5t-27.5 -63.5q0 -43 32.5 -65.5t86.5 -22.5q25 0 51.5 4t55.5 14.5t50.5 18.5t54 25t47.5 25.5t49.5 28.5t43.5 25q145 85 242 103q-142 31 -226 158.5t-84 283.5q0 184 107 367h235q-45 -92 -45 -168q0 -69 39 -111.5
t105 -42.5q72 0 108.5 45.5t36.5 122.5q0 137 -89 244.5t-240 165t-336 57.5q-158 0 -287.5 -36.5t-224 -118t-123.5 -199.5q35 55 101 89t148 34q142 0 239 -94t97 -244q0 -155 -103.5 -252.5t-279.5 -97.5q-193 0 -314.5 122.5t-121.5 333.5q0 126 44.5 232.5t123.5 184.5
t188 132.5t239 81.5t274 27q208 0 380 -54t284.5 -146.5t173.5 -214t61 -257.5q0 -154 -87 -251t-239 -97q-102 0 -173.5 51.5t-90.5 140.5q-13 -57 -13 -96q0 -59 18 -115t53 -103.5t93.5 -76.5t132.5 -29h142v-194h-39q-23 0 -46 -2t-41 -4t-42 -9t-37 -10t-40 -14.5
t-36.5 -15t-40 -19t-38 -19t-43 -22t-42.5 -22.5q-12 -6 -79 -44t-99 -53t-92.5 -40t-116 -35.5t-112.5 -10.5q-158 0 -254.5 76.5t-96.5 210.5q0 120 78.5 193t200.5 73q54 0 100 -10zM360 414q0 -72 45.5 -115t122.5 -43q78 0 124 43t46 115t-46 114.5t-124 42.5
q-76 0 -122 -43t-46 -114z" />
    <glyph glyph-name="tmAU" unicode="&#xb94;" horiz-adv-x="4079" 
d="M403 -305v201q200 -127 390 -127q86 0 159 19t158 54q23 9 61 25.5t57.5 25t47.5 17.5t53 14q-137 29 -213 132.5t-76 250.5q0 195 107 365h235q-45 -92 -45 -168q0 -69 39 -111.5t105 -42.5q71 0 108 46t37 122q0 137 -89 244.5t-240 165t-336 57.5q-153 0 -282 -36.5
t-225 -117t-128 -196.5q37 54 100.5 86.5t144.5 32.5q143 0 241.5 -94t98.5 -244q0 -155 -103.5 -252.5t-279.5 -97.5q-193 0 -314.5 122.5t-121.5 333.5q0 156 69.5 282.5t189 207.5t276 124.5t334.5 43.5q208 0 379.5 -54t284 -146.5t174 -214t61.5 -257.5
q0 -154 -87 -251t-239 -97q-102 0 -173.5 51.5t-90.5 140.5q-13 -57 -13 -96q0 -120 72.5 -192t218.5 -72h148v-193h-39q-75 0 -140 -14.5t-104.5 -30.5t-138.5 -61q-132 -59 -237 -89t-238 -30q-223 0 -396 121zM360 414q0 -72 45.5 -115t122.5 -43q78 0 124 43t46 115
t-46 114.5t-124 42.5q-76 0 -122 -43t-46 -114zM2494 -20q-201 0 -325.5 151.5t-124.5 386.5q0 137 39.5 256.5t112.5 210t185.5 143t250.5 52.5q150 0 259 -67t156 -169v215h1012v-192h-205v-967h-241v967h-340v-967h-242v596q0 103 -42 190t-129.5 143t-205.5 56
q-125 0 -214 -63.5t-131 -165.5t-42 -230q28 70 104.5 116t172.5 46q144 0 238.5 -95.5t94.5 -252.5t-105 -258.5t-278 -101.5zM2331 338q0 -74 45 -118t118 -44t117.5 44t44.5 118q0 76 -44.5 120t-117.5 44t-118 -44t-45 -120z" />
    <glyph glyph-name="tmKA" unicode="&#xb95;" horiz-adv-x="1675" 
d="M535 967v-267h301v267h-301zM528 164q84 0 145 25t96 70.5t51 102t16 127.5v19h-316q-95 0 -149 -43.5t-54 -130.5q0 -83 57.5 -126.5t153.5 -43.5zM1159 700q206 0 321 -98t115 -262q0 -171 -99.5 -268t-276.5 -97q-49 0 -117 9v192q27 -4 67 -4q191 0 191 170
q0 86 -49 126t-154 40h-84v-19q0 -113 -31.5 -206.5t-96 -165t-171.5 -111t-248 -39.5q-209 0 -326.5 98.5t-117.5 268.5q0 116 52 204t165 128v493h977v-192h-203v-267h86z" />
    <glyph glyph-name="tmNGA" unicode="&#xb99;" horiz-adv-x="2191" 
d="M1784 1159h241v-1157h-163l-1123 -2v195h310q141 0 216.5 66t75.5 185q0 80 -49.5 129.5t-130.5 49.5q-92 0 -138 -56.5t-46 -136.5v-26h-238v561h-333v-967h-240v1159h1030v-192h-219v-320q31 77 103.5 123.5t162.5 46.5q146 0 236 -88t90 -225q0 -213 -176 -309h391
v964z" />
    <glyph glyph-name="tmCA" unicode="&#xb9a;" horiz-adv-x="1449" 
d="M1423 700v-192h-350v-19q0 -112 -33.5 -206t-99.5 -165t-172 -111t-242 -40q-209 0 -326.5 98.5t-117.5 268.5q0 116 52 204t165 128v493h977v-192h-203v-267h350zM535 967v-267h301v267h-301zM528 164q84 0 145 25t96 70.5t51 102t16 127.5v19h-316q-95 0 -149 -43.5
t-54 -130.5q0 -83 57.5 -126.5t153.5 -43.5z" />
    <glyph glyph-name="tmJA" unicode="&#xb9c;" horiz-adv-x="1832" 
d="M1346 0q-67 0 -123.5 -23.5t-98.5 -61.5t-82 -83.5t-85 -91t-96.5 -83.5t-126.5 -61.5t-165 -23.5q-203 0 -329.5 110.5t-126.5 294.5q0 231 175 346t480 115h229q225 0 349 89.5t124 267.5q0 88 -48.5 141t-137.5 53q-94 0 -143 -75.5t-49 -204.5v-103h-238v70
q0 140 -81.5 226t-235.5 87q-93 0 -143 -40t-50 -111t49.5 -104.5t126.5 -33.5q74 0 158 23v-191q-71 -22 -180 -22q-77 0 -144 19.5t-119.5 58t-83 102.5t-30.5 146q0 152 111.5 248t293.5 96q181 0 288 -79t140 -222q22 141 114.5 221t234.5 80q189 0 297 -109t108 -280
q0 -130 -52.5 -235.5t-143 -172.5t-208.5 -103t-251 -36h-236q-225 0 -344 -63t-119 -206q0 -98 61 -154.5t158 -56.5q56 0 106.5 24t91.5 62t82.5 84t89.5 91.5t102 83.5t129.5 62t164.5 24q168 0 274.5 -87t106.5 -231q0 -149 -97.5 -231t-264.5 -82q-102 0 -170 24v187
q82 -21 147 -21q170 0 170 127q0 57 -43.5 88t-115.5 31z" />
    <glyph glyph-name="tmNYA" unicode="&#xb9e;" horiz-adv-x="2580" 
d="M2130 756q160 0 261 -127.5t101 -317.5t-85.5 -348t-238 -265.5t-366 -166.5t-465.5 -59q-266 0 -488.5 63.5t-386.5 185t-255.5 310t-91.5 426.5q0 201 62 386.5t157 315.5h258q-236 -324 -236 -702q0 -159 49.5 -290t138 -223t212 -155.5t269.5 -93t312 -29.5
q265 0 469 74t322.5 220.5t118.5 346.5q0 115 -53.5 180.5t-141.5 65.5q-93 0 -149 -68t-56 -184v-301h-235v967h-238q-253 0 -386.5 -108t-151.5 -314q32 64 102 103.5t162 39.5q146 0 248 -95t102 -253t-105.5 -259t-281.5 -101q-208 0 -329.5 138.5t-121.5 370.5
q0 321 200.5 495.5t557.5 174.5h682v-192h-205v-389q37 74 109.5 126t173.5 52zM885 338q0 -75 47.5 -119.5t124.5 -44.5t124.5 44.5t47.5 119.5q0 76 -47.5 120t-124.5 44t-124.5 -44t-47.5 -120z" />
    <glyph glyph-name="tmTTA" unicode="&#xb9f;" horiz-adv-x="1658" 
d="M1618 0h-1452v1159h242v-958h1210v-201z" />
    <glyph glyph-name="tmNNA" unicode="&#xba3;" horiz-adv-x="3397" 
d="M528 -20q-197 0 -316.5 129.5t-119.5 357.5q0 154 61.5 286t171 226t267.5 147.5t344 53.5q275 0 491 -123q203 123 461 123t469 -127q204 106 469 106h545v-192h-205v-967h-241v967h-91q-173 0 -305 -52q101 -102 156 -229.5t55 -263.5q0 -207 -110 -324.5t-279 -117.5
q-167 0 -278 116.5t-111 323.5q0 297 213 504q-135 61 -289 61q-153 0 -284 -61q104 -102 160.5 -233.5t56.5 -272.5q0 -206 -108.5 -322t-278.5 -116q-171 0 -281.5 117t-110.5 323q0 137 55 266.5t156 233.5q-143 65 -319 65q-258 0 -424.5 -120t-196.5 -318
q36 62 105 101.5t157 39.5q144 0 241 -96t97 -252q0 -158 -104.5 -259t-278.5 -101zM2351 174q76 0 118 66.5t42 181.5q0 108 -42.5 206t-119.5 175q-81 -74 -120.5 -174.5t-39.5 -206.5q0 -116 43 -182t119 -66zM1432 174q79 0 118 65.5t39 178.5q0 107 -42 207t-120 176
q-157 -160 -157 -383q0 -112 41.5 -178t120.5 -66zM365 338q0 -74 45 -118t116 -44q73 0 118.5 44t45.5 118q0 75 -45.5 119.5t-118.5 44.5t-117 -44t-44 -120z" />
    <glyph glyph-name="tmTA" unicode="&#xba4;" horiz-adv-x="1654" 
d="M557 967v-267h307v267h-307zM535 164q90 0 155.5 25t102.5 70.5t54 102t17 127.5v19h-344q-95 0 -149 -43.5t-54 -130.5q0 -83 60 -126.5t158 -43.5zM1561 190q0 -289 -182 -454.5t-543 -165.5q-73 0 -207.5 8t-192.5 8q-210 0 -377 -80v207q151 68 377 68q75 0 204 -9.5
t196 -9.5q253 0 367 108t114 323q0 119 -53 203t-162 106v-13q0 -237 -145 -379.5t-425 -142.5q-210 0 -330 98t-120 269q0 121 56.5 211t180.5 129v485h986v-192h-203v-271q116 -11 205.5 -55.5t144 -114t82 -154.5t27.5 -182z" />
    <glyph glyph-name="tmNA" unicode="&#xba8;" horiz-adv-x="1730" 
d="M983 967v-404q37 74 109.5 126t173.5 52q117 0 204.5 -68t129.5 -173.5t42 -229.5q0 -328 -206 -514t-592 -186q-73 0 -206.5 8t-191.5 8q-225 0 -401 -92v207q89 44 183 62t218 18q74 0 202 -8.5t196 -8.5q274 0 413.5 128t139.5 380q0 120 -52 193.5t-157 73.5
q-94 0 -149.5 -67.5t-55.5 -184.5v-287h-242v967h-338v-967h-241v1159h1028v-192h-207z" />
    <glyph glyph-name="tmNNNA" unicode="&#xba9;" horiz-adv-x="2473" 
d="M1434 -20q-174 0 -284 114t-110 322q0 303 205 508q-138 61 -309 61q-262 0 -436 -131.5t-193 -341.5q26 74 100 125t171 51q144 0 238.5 -95.5t94.5 -252.5q0 -158 -104.5 -259t-278.5 -101q-197 0 -316.5 129.5t-119.5 357.5q0 205 106.5 367.5t300.5 254t441 91.5
q280 0 490 -123q193 102 446 102h571v-192h-204v-967h-242v967h-119q-156 0 -274 -45q101 -104 156 -235t55 -269q0 -203 -106.5 -320.5t-278.5 -117.5zM1432 174q80 0 119.5 65.5t39.5 176.5t-43.5 212t-124.5 177q-78 -74 -115.5 -176t-37.5 -213q0 -114 42 -178t120 -64z
M365 338q0 -74 45 -118t116 -44q73 0 118.5 44t45.5 118q0 75 -45.5 119.5t-118.5 44.5t-117 -44t-44 -120z" />
    <glyph glyph-name="tmPA" unicode="&#xbaa;" horiz-adv-x="1714" 
d="M1548 0h-1382v1159h246v-960h891v960h245v-1159z" />
    <glyph glyph-name="tmMA" unicode="&#xbae;" horiz-adv-x="1873" 
d="M1171 -2l-1005 2v1157h242v-964h417v604q0 169 103 275t297 106q125 0 228 -51.5t168.5 -137t101.5 -193.5t36 -225q0 -275 -152.5 -424t-435.5 -149zM1067 793v-600h80q192 0 281.5 91.5t89.5 286.5q0 77 -16.5 148t-49.5 132t-91 97.5t-132 36.5q-162 0 -162 -192z" />
    <glyph glyph-name="tmYA" unicode="&#xbaf;" horiz-adv-x="2027" 
d="M1858 0h-1035v143q-45 -73 -119 -118t-174 -45q-164 0 -267 104.5t-103 282.5v792h239v-786q0 -94 48.5 -146.5t142.5 -52.5q93 0 141.5 53.5t48.5 147.5v784h242v-960h594v960h246z" />
    <glyph glyph-name="tmRA" unicode="&#xbb0;" horiz-adv-x="1271" 
d="M166 0v1159h1079v-192h-203v-891l-284 -475h-269l312 514v852h-393v-967h-242z" />
    <glyph glyph-name="tmRRA" unicode="&#xbb1;" horiz-adv-x="1738" 
d="M104 -489v204q93 39 176.5 56.5t198.5 17.5q64 0 192.5 -9t190.5 -9q92 0 167 21.5t127.5 58.5t92 93.5t63.5 119t39 143t20 157.5t5 171q0 100 -10 176.5t-34 141.5t-69.5 99.5t-111.5 34.5q-77 0 -121.5 -52.5t-44.5 -137.5v-797h-237v797q0 91 -45 140.5t-125 49.5
q-79 0 -123.5 -49t-44.5 -139v-799h-242v784q0 187 99 291.5t282 104.5q70 0 127 -19t94.5 -51.5t60.5 -69.5t35 -79q24 92 102.5 155.5t200.5 63.5q93 0 169 -33t128 -91.5t87 -140t51 -176.5t16 -204q0 -112 -10.5 -211t-35.5 -197.5t-64 -179.5t-99 -151t-137 -118
t-182 -75t-230 -27q-68 0 -196 9t-185 9q-176 0 -377 -83z" />
    <glyph glyph-name="tmLA" unicode="&#xbb2;" horiz-adv-x="2043" 
d="M92 518q0 140 43 260t123.5 210t204.5 141t278 51q267 0 417.5 -150t148.5 -412v-233q2 -100 45.5 -155.5t128.5 -55.5q58 0 100 28.5t65.5 79t34.5 112t11 136.5q0 182 -47 333.5t-138 295.5h250q172 -294 172 -629q0 -253 -116.5 -401.5t-333.5 -148.5
q-187 0 -296.5 112.5t-109.5 306.5l2 217q0 174 -82.5 271.5t-255.5 97.5q-101 0 -183 -37t-133.5 -101t-78.5 -146t-27 -175q28 70 104.5 116t172.5 46q144 0 239 -95.5t95 -252.5t-105 -258.5t-278 -101.5q-201 0 -326 151.5t-125 386.5zM379 338q0 -74 45.5 -118
t118.5 -44t117.5 44t44.5 118q0 76 -44.5 120t-117.5 44t-118.5 -44.5t-45.5 -119.5z" />
    <glyph glyph-name="tmLLA" unicode="&#xbb3;" horiz-adv-x="2134" 
d="M543 -20q-201 0 -326 151.5t-125 386.5q0 137 39.5 256.5t112.5 210t185.5 143t250.5 52.5q150 0 259.5 -67t156.5 -169v215h1011v-192h-204v-967h-242v967h-340v-967h-242v596q0 103 -42 190t-129.5 143t-205.5 56q-125 0 -214 -63.5t-131 -165.5t-42 -230
q28 70 104.5 116t172.5 46q144 0 239 -95.5t95 -252.5t-105 -258.5t-278 -101.5zM379 338q0 -74 45.5 -118t118.5 -44t117.5 44t44.5 118q0 76 -44.5 120t-117.5 44t-118.5 -44.5t-45.5 -119.5z" />
    <glyph glyph-name="tmLLLA" unicode="&#xbb4;" horiz-adv-x="1873" 
d="M242 -459l2 201q194 -121 381 -121q70 0 127.5 14.5t142.5 47.5q126 45 182 57q-120 23 -183 89t-63 161v8l-665 2v1157h242v-964h417v604q0 169 103 275t297 106q125 0 228 -51.5t168.5 -137t101.5 -193.5t36 -225q0 -275 -152.5 -424t-435.5 -149h-98v-8
q0 -96 58 -139.5t200 -43.5h127v-192h-24q-117 0 -199.5 -18.5t-192.5 -69.5q-115 -51 -208.5 -75.5t-206.5 -24.5q-212 0 -385 114zM1067 793v-600h80q192 0 281.5 91.5t89.5 286.5q0 77 -16.5 148t-49.5 132t-91 97.5t-132 36.5q-162 0 -162 -192z" />
    <glyph glyph-name="tmVA" unicode="&#xbb5;" horiz-adv-x="2105" 
d="M1698 1159h241v-1159h-870v162q125 174 125 395q0 191 -113.5 309.5t-328.5 118.5q-107 0 -191.5 -36.5t-137.5 -99.5t-80.5 -145.5t-27.5 -177.5q28 70 104.5 116t172.5 46q144 0 239 -95.5t95 -252.5t-105 -258.5t-278 -101.5q-201 0 -326 151.5t-125 386.5
q0 137 43.5 256.5t125.5 210t209 143t284 52.5q152 0 279 -48t213 -131.5t133 -198t46 -245.5q0 -210 -100 -362h373v964zM379 338q0 -74 45.5 -118t118.5 -44t117.5 44t44.5 118q0 76 -44.5 120t-117.5 44t-118.5 -44.5t-45.5 -119.5z" />
    <glyph glyph-name="tmSHA" unicode="&#xbb6;" horiz-adv-x="2365" 
d="M1737 174q115 0 175 80.5t60 267.5v436h-393v-630q0 -78 43 -116t115 -38zM2214 1159v-637q0 -267 -127.5 -404.5t-357.5 -137.5q-185 0 -288.5 94t-103.5 250v634h-299v-436q0 -267 -126.5 -404.5t-356.5 -137.5q-186 0 -288.5 93.5t-102.5 250.5v835h242v-831
q0 -78 42 -116t115 -38q115 0 175.5 80t60.5 268v637h1415z" />
    <glyph glyph-name="tmSSA" unicode="&#xbb7;" horiz-adv-x="2672" 
d="M2628 0h-215v-401h-234v401h-1098v162q53 78 86 182.5t33 210.5q0 191 -113.5 310.5t-328.5 119.5q-107 0 -191.5 -36.5t-137 -99.5t-80 -145.5t-27.5 -177.5q29 70 105 116t173 46q144 0 239 -95.5t95 -252.5t-106 -258.5t-279 -101.5q-133 0 -235.5 69.5t-158.5 191.5
t-57 277q0 137 43.5 256.5t125.5 210t209.5 143t285.5 52.5q151 0 278 -48t212.5 -131.5t133 -198.5t46.5 -247q0 -206 -99 -360h436q-184 109 -184 340q0 202 126 332t335 130q178 0 272.5 -96.5t94.5 -249.5v-456h215v-195zM2165 195h16v464q0 148 -137 148
q-103 0 -162 -79.5t-59 -195.5q0 -158 90 -247.5t252 -89.5zM385 338q0 -74 46 -118t118 -44q74 0 118 43.5t44 118.5q0 76 -44.5 120t-117.5 44t-118.5 -44.5t-45.5 -119.5z" />
    <glyph glyph-name="tmSA" unicode="&#xbb8;" horiz-adv-x="2627" 
d="M1516 1180q171 0 273.5 -108.5t102.5 -287.5v-399q3 -101 47.5 -156t128.5 -55q58 0 100 28.5t65.5 81t34.5 116t11 141.5q0 172 -47.5 320.5t-136.5 297.5h250q170 -297 170 -618q0 -255 -116 -408t-333 -153q-187 0 -296 112.5t-109 306.5v400q0 90 -43.5 139
t-122.5 49q-77 0 -124.5 -49t-47.5 -139v-799h-242l2 639q0 154 -92.5 250t-263.5 96q-96 0 -173.5 -37t-126.5 -101t-75 -146t-26 -175q29 70 105 116t173 46q144 0 239 -95.5t95 -252.5t-106 -258.5t-279 -101.5q-133 0 -235.5 69.5t-158.5 191.5t-57 277q0 188 71 336
t214.5 237t339.5 89q158 0 274.5 -68.5t176.5 -189.5q33 120 121 189t217 69zM389 338q0 -74 46 -118t118 -44q73 0 118.5 44t45.5 118q0 75 -45.5 119.5t-118.5 44.5q-72 0 -118 -44.5t-46 -119.5z" />
    <glyph glyph-name="tmHA" unicode="&#xbb9;" horiz-adv-x="3270" 
d="M92 518q0 137 43.5 256.5t125.5 210t209 143t284 52.5q152 0 279 -48t213 -131.5t133 -198t46 -245.5q0 -210 -100 -362h375v589q0 187 99 291.5t282 104.5q135 0 214.5 -64t102.5 -155q24 92 102.5 155.5t200.5 63.5q93 0 169 -33t128 -91.5t87 -140t51 -176.5t16 -204
q0 -173 -29.5 -318.5t-97 -269t-169.5 -209.5t-253 -134t-342 -48q-376 0 -875 19t-862 19q-283 0 -479 -83v204q174 74 477 74q371 0 870.5 -19.5t868.5 -19.5q145 0 256.5 37.5t185 104t120 166t66 216t19.5 261.5q0 100 -10 176.5t-34 141.5t-69.5 99.5t-111.5 34.5
q-77 0 -120.5 -52.5t-43.5 -137.5v-797h-240v797q0 91 -45 140.5t-125 49.5q-79 0 -123 -49t-44 -139v-799h-873v162q125 174 125 395q0 191 -113.5 309.5t-328.5 118.5q-107 0 -191.5 -36.5t-137.5 -99.5t-80.5 -145.5t-27.5 -177.5q28 70 104.5 116t172.5 46
q144 0 239 -95.5t95 -252.5t-105 -258.5t-278 -101.5q-201 0 -326 151.5t-125 386.5zM379 338q0 -74 45.5 -118t118.5 -44t117.5 44t44.5 118q0 76 -44.5 120t-117.5 44t-118.5 -44.5t-45.5 -119.5z" />
    <glyph glyph-name="tmmAA" unicode="&#xbbe;" horiz-adv-x="1271" 
d="M1042 0h-241v967h-393v-967h-242v1159h1079v-192h-203v-967z" />
    <glyph glyph-name="tmmI" unicode="&#xbbf;" horiz-adv-x="571" 
d="M406 0h-240v1147q0 141 -81.5 221t-227.5 80q-94 0 -150.5 -38.5t-56.5 -113.5q0 -63 40.5 -100t116.5 -37v-147q-167 0 -278 80t-111 215q0 152 121.5 243.5t315.5 91.5q253 0 402 -136.5t149 -358.5v-1147z" />
    <glyph glyph-name="tmmII" unicode="&#xbc0;" horiz-adv-x="0" 
d="M-14 1563q0 58 -48.5 92.5t-140.5 34.5q-23 0 -35 -2q-2 -14 -2 -48q0 -84 34 -129t95 -45q44 0 70.5 27t26.5 70zM-233 1159l-52 -59q-93 0 -171.5 20.5t-140 60.5t-96 105t-34.5 148q0 191 148.5 309.5t375.5 118.5q171 0 273 -82.5t102 -218.5q0 -116 -77 -188.5
t-208 -72.5q-129 0 -206.5 80t-77.5 195q0 31 6 65q-127 -77 -127 -233q0 -118 78 -183t207 -65z" />
    <glyph glyph-name="tmmU" unicode="&#xbc1;" horiz-adv-x="0" 
d="M51 793q0 47 14.5 94.5t38.5 79.5h-550v192h872q176 0 292 -96t116 -260q0 -157 -109.5 -261t-286.5 -104q-172 0 -279 94.5t-108 260.5zM279 803q0 -74 45.5 -121t121.5 -47t122 47t46 121t-46 120t-122 46t-121.5 -46t-45.5 -120z" />
    <glyph glyph-name="tmmUU" unicode="&#xbc2;" horiz-adv-x="0" 
d="M1083 518h-227q115 194 115 400q0 157 -99 251.5t-264 94.5q-187 0 -276 -105h51q162 0 264.5 -83t102.5 -234q0 -138 -87.5 -229t-242.5 -91q-171 0 -273 112.5t-104 291.5q0 27 2 41h-426v192h473q65 134 200.5 209.5t317.5 75.5q266 0 421 -145.5t153 -380.5
q0 -231 -101 -400zM420 705q60 0 94.5 36.5t34.5 94.5q0 128 -170 131h-123q-2 -14 -2 -43q0 -101 44.5 -160t121.5 -59z" />
    <glyph glyph-name="tmmE" unicode="&#xbc6;" horiz-adv-x="1687" 
d="M1522 0h-242v1098q0 179 -91 281t-261 102q-130 0 -237 -60t-177.5 -163.5t-108.5 -241t-38 -293.5q0 -115 22 -205q33 89 120 143t191 54q154 0 260.5 -103t106.5 -264q0 -162 -104.5 -267.5t-280.5 -105.5q-113 0 -206.5 42.5t-157.5 114.5t-108 169t-64 203t-21 219
q0 154 32.5 295t99.5 260.5t161.5 208t225.5 138.5t284 50q274 0 434 -155t160 -418v-1102zM506 346q0 -75 45.5 -123.5t122.5 -48.5q78 0 124 48.5t46 123.5q0 77 -46 125.5t-124 48.5q-77 0 -122.5 -49t-45.5 -125z" />
    <glyph glyph-name="tmmEE" unicode="&#xbc7;" horiz-adv-x="1378" 
d="M860 -25q-162 0 -301.5 62t-239.5 172t-157 268.5t-58 345.5q1 188 59 347.5t158.5 268t238.5 169.5t296 61q172 0 288 -102t116 -258q0 -158 -105 -254t-260 -94q-158 1 -254 91.5t-96 231.5q0 27 2 39q-86 -75 -142.5 -205.5t-56.5 -294.5q0 -178 55 -303.5t144 -197.5
q-2 8 -2 30q0 142 94 237t256 95q155 0 260 -95.5t105 -252.5q0 -160 -108 -260.5t-292 -100.5zM707 334q0 -76 44.5 -119t120.5 -43q74 0 119 43t45 119q0 75 -45.5 118.5t-120.5 43.5q-74 0 -118.5 -43t-44.5 -119zM1036 1311q0 76 -45 119t-119 43q-76 0 -120.5 -43
t-44.5 -119q0 -75 44.5 -118.5t118.5 -43.5t120 44t46 118z" />
    <glyph glyph-name="tmmAI" unicode="&#xbc8;" horiz-adv-x="2545" 
d="M1831 418q0 -193 -104.5 -315.5t-282.5 -122.5q-173 0 -284 123t-111 341q0 137 42 264t121 226q-142 51 -319 51q-242 0 -403 -121.5t-181 -312.5q28 63 98.5 100t165.5 37q153 0 250 -95t97 -253q0 -157 -105 -258.5t-278 -101.5q-201 0 -323 141t-122 368
q0 202 100.5 359t284 244.5t420.5 87.5q261 0 477 -101q160 101 363 101q324 0 508 -180.5t184 -479.5q0 -257 -135 -520h-250q143 277 143 520q0 209 -115 337t-335 128q-89 0 -168 -31q124 -106 192 -245.5t70 -290.5zM1602 422q0 123 -51 227.5t-148 179.5
q-127 -155 -127 -391q0 -120 44 -192t122 -72q80 0 120 69t40 179zM371 338q0 -74 46 -118t118 -44q74 0 118.5 43.5t44.5 118.5q0 76 -44.5 120t-118.5 44q-72 0 -118 -44.5t-46 -119.5z" />
    <glyph glyph-name="tmmO" unicode="&#xbca;" horiz-adv-x="4163" 
d="M2179 184q0 -40 -26 -67t-64 -27q-40 0 -66 27t-26 67q0 37 26.5 63.5t65.5 26.5q38 0 64 -26.5t26 -63.5zM1970 338q0 -39 -25.5 -64.5t-64.5 -25.5q-40 0 -65 25t-25 65q0 39 25.5 64.5t64.5 25.5q38 0 64 -26t26 -64zM1864 575q0 -38 -25 -63t-65 -25q-39 0 -65 25
t-26 63q0 40 26.5 66.5t64.5 26.5q39 0 64.5 -26.5t25.5 -66.5zM2439 152q0 -40 -26 -65.5t-66 -25.5t-65 25.5t-25 65.5t25 65t65 25t66 -25t26 -65zM1894 834q0 -38 -26.5 -64.5t-63.5 -26.5q-40 0 -67 26.5t-27 64.5t27 64t67 26q37 0 63.5 -26t26.5 -64zM2687 260
q0 -39 -26.5 -64.5t-65.5 -25.5t-64.5 25.5t-25.5 64.5q0 38 26 64t64 26t65 -26t27 -64zM2058 1059q0 -40 -25 -66t-65 -26t-65 26t-25 66q0 39 25.5 64.5t64.5 25.5t64.5 -25.5t25.5 -64.5zM2834 461q0 -38 -25.5 -64t-62.5 -26q-40 0 -66 26t-26 64q0 40 26 66t66 26
q37 0 62.5 -26.5t25.5 -65.5zM2300 1147q0 -40 -25 -65t-65 -25t-65 25t-25 65t25 65t65 25t65 -25t25 -65zM2855 735q0 -39 -25.5 -64.5t-64.5 -25.5q-40 0 -65 25t-25 65t25 65t65 25q39 0 64.5 -25.5t25.5 -64.5zM2558 1116q0 -37 -25 -63.5t-63 -26.5q-39 0 -65.5 26.5
t-26.5 63.5q0 40 26 66t66 26q38 0 63 -26t25 -66zM2753 977q0 -39 -25.5 -64.5t-65.5 -25.5q-38 0 -64 26t-26 64q0 40 26 66t64 26q40 0 65.5 -26t25.5 -66zM1522 0h-242v1098q0 179 -91 281t-261 102q-130 0 -237 -60t-177.5 -163.5t-108.5 -241t-38 -293.5
q0 -115 22 -205q33 89 120 143t191 54q154 0 260.5 -103t106.5 -264q0 -162 -104.5 -267.5t-280.5 -105.5q-113 0 -206.5 42.5t-157.5 114.5t-108 169t-64 203t-21 219q0 154 32.5 295t99.5 260.5t161.5 208t225.5 138.5t284 50q274 0 434 -155t160 -418v-1102zM506 346
q0 -75 45.5 -123.5t122.5 -48.5q78 0 124 48.5t46 123.5q0 77 -46 125.5t-124 48.5q-77 0 -122.5 -49t-45.5 -125zM3918 0h-242v967h-393v-967h-242v1159h1080v-192h-203v-967z" />
    <glyph glyph-name="tmmOO" unicode="&#xbcb;" horiz-adv-x="3794" 
d="M1808 184q0 -40 -26 -67t-64 -27q-40 0 -66 27t-26 67q0 37 26.5 63.5t65.5 26.5q38 0 64 -26.5t26 -63.5zM1599 338q0 -39 -25.5 -64.5t-64.5 -25.5q-40 0 -65 25t-25 65q0 39 25.5 64.5t64.5 25.5q38 0 64 -26t26 -64zM1493 575q0 -38 -25 -63t-65 -25q-38 0 -64 25
t-26 63q0 40 26 66.5t64 26.5q39 0 64.5 -26.5t25.5 -66.5zM2068 152q0 -40 -26 -65.5t-66 -25.5t-65 25.5t-25 65.5t25 65t65 25t66 -25t26 -65zM1524 834q0 -38 -26.5 -64.5t-63.5 -26.5q-40 0 -67.5 26.5t-27.5 64.5t27.5 64t67.5 26q37 0 63.5 -26t26.5 -64zM2316 260
q0 -39 -26.5 -64.5t-65.5 -25.5t-64.5 25.5t-25.5 64.5q0 38 26 64t64 26t65 -26t27 -64zM1688 1059q0 -40 -25.5 -66t-65.5 -26t-65 26t-25 66q0 39 25.5 64.5t64.5 25.5t65 -25.5t26 -64.5zM2464 461q0 -38 -25.5 -64t-62.5 -26q-40 0 -66 26t-26 64q0 40 26 66t66 26
q37 0 62.5 -26.5t25.5 -65.5zM1929 1147q0 -40 -25 -65t-65 -25t-65 25t-25 65t25 65t65 25t65 -25t25 -65zM2484 735q0 -39 -25.5 -64.5t-64.5 -25.5q-40 0 -65 25t-25 65t25 65t65 25q39 0 64.5 -25.5t25.5 -64.5zM2187 1116q0 -37 -25 -63.5t-63 -26.5q-39 0 -65.5 26.5
t-26.5 63.5q0 40 26 66t66 26q38 0 63 -26t25 -66zM2382 977q0 -39 -25.5 -64.5t-64.5 -25.5q-38 0 -64 26t-26 64q0 40 26 66t64 26q40 0 65 -26t25 -66zM860 -25q-162 0 -301.5 62t-239.5 172t-157 268.5t-58 345.5q1 188 59 347.5t158.5 268t238.5 169.5t296 61
q172 0 288 -102t116 -258q0 -158 -105 -254t-260 -94q-158 1 -254 91.5t-96 231.5q0 27 2 39q-86 -75 -142.5 -205.5t-56.5 -294.5q0 -178 55 -303.5t144 -197.5q-2 8 -2 30q0 142 94 237t256 95q155 0 260 -95.5t105 -252.5q0 -160 -108 -260.5t-292 -100.5zM707 334
q0 -76 44.5 -119t120.5 -43q74 0 119 43t45 119q0 75 -45.5 118.5t-120.5 43.5q-74 0 -118.5 -43t-44.5 -119zM1036 1311q0 76 -45 119t-119 43q-76 0 -120.5 -43t-44.5 -119q0 -75 44.5 -118.5t118.5 -43.5t120 44t46 118zM3547 0h-242v967h-393v-967h-241v1159h1079v-192
h-203v-967z" />
    <glyph glyph-name="tmmAU" unicode="&#xbcc;" horiz-adv-x="5062" 
d="M2175 184q0 -40 -26 -67t-64 -27q-40 0 -66 27t-26 67q0 37 26.5 63.5t65.5 26.5q38 0 64 -26.5t26 -63.5zM1966 338q0 -39 -25.5 -64.5t-64.5 -25.5q-40 0 -65 25t-25 65q0 39 25.5 64.5t64.5 25.5q38 0 64 -26t26 -64zM1860 575q0 -38 -25.5 -63t-65.5 -25
q-38 0 -64 25t-26 63q0 40 26 66.5t64 26.5q40 0 65.5 -26.5t25.5 -66.5zM2435 152q0 -40 -26 -65.5t-66 -25.5t-65 25.5t-25 65.5t25 65t65 25t66 -25t26 -65zM1890 834q0 -38 -26.5 -64.5t-63.5 -26.5q-40 0 -67 26.5t-27 64.5t27 64t67 26q37 0 63.5 -26t26.5 -64z
M2683 260q0 -39 -26.5 -64.5t-65.5 -25.5t-64.5 25.5t-25.5 64.5q0 38 26 64t64 26t65 -26t27 -64zM2054 1059q0 -40 -25 -66t-65 -26t-65 26t-25 66q0 39 25.5 64.5t64.5 25.5t64.5 -25.5t25.5 -64.5zM2830 461q0 -38 -25.5 -64t-62.5 -26q-40 0 -66 26t-26 64q0 40 26 66
t66 26q37 0 62.5 -26.5t25.5 -65.5zM2296 1147q0 -40 -25 -65t-65 -25t-65 25t-25 65t25 65t65 25t65 -25t25 -65zM2851 735q0 -39 -25.5 -64.5t-64.5 -25.5q-40 0 -65 25t-25 65t25 65t65 25q39 0 64.5 -25.5t25.5 -64.5zM2554 1116q0 -37 -25 -63.5t-63 -26.5
q-39 0 -65.5 26.5t-26.5 63.5q0 40 26 66t66 26q38 0 63 -26t25 -66zM2748 977q0 -39 -25.5 -64.5t-64.5 -25.5q-38 0 -64 26t-26 64q0 40 26 66t64 26q40 0 65 -26t25 -66zM1522 0h-242v1098q0 179 -91 281t-261 102q-130 0 -237 -60t-177.5 -163.5t-108.5 -241t-38 -293.5
q0 -115 22 -205q33 89 120 143t191 54q154 0 260.5 -103t106.5 -264q0 -162 -104.5 -267.5t-280.5 -105.5q-113 0 -206.5 42.5t-157.5 114.5t-108 169t-64 203t-21 219q0 154 32.5 295t99.5 260.5t161.5 208t225.5 138.5t284 50q274 0 434 -155t160 -418v-1102zM506 346
q0 -75 45.5 -123.5t122.5 -48.5q78 0 124 48.5t46 123.5q0 77 -46 125.5t-124 48.5q-77 0 -122.5 -49t-45.5 -125zM3463 -20q-201 0 -325.5 151.5t-124.5 386.5q0 137 39.5 256.5t112 210t185 143t250.5 52.5q150 0 259.5 -67t156.5 -169v215h1012v-192h-205v-967h-242v967
h-340v-967h-241v596q0 103 -42 190t-129.5 143t-205.5 56q-125 0 -214 -63.5t-131 -165.5t-42 -230q28 71 104 116.5t172 45.5q144 0 239 -95.5t95 -252.5t-105 -258.5t-278 -101.5zM3299 338q0 -74 45.5 -118t118.5 -44t117.5 44t44.5 118q0 76 -44.5 120t-117.5 44
t-118.5 -44.5t-45.5 -119.5z" />
    <glyph glyph-name="tmVirama" unicode="&#xbcd;" horiz-adv-x="0" 
d="M154 1448q0 -66 -44.5 -112t-107.5 -46q-64 0 -109 46t-45 112q0 61 45 105t109 44q63 0 107.5 -44.5t44.5 -104.5z" />
    <glyph glyph-name="tmOm" unicode="&#xbd0;" horiz-adv-x="2150" 
d="M1835 -238q-73 -87 -132.5 -148.5t-144 -127t-169.5 -105t-199 -65t-244 -25.5q-374 0 -599.5 180.5t-225.5 469.5q0 114 41 202t114 142q-145 106 -145 317q0 136 73.5 246t202 180.5t298 108t364.5 37.5q163 0 312.5 -31t265 -86.5t201.5 -128t131.5 -160t45.5 -178.5
q0 -129 -74 -212t-202 -83q-89 0 -150.5 45.5t-74.5 122.5q-11 -43 -11 -86q0 -87 53.5 -144t139 -80.5t201.5 -23.5h194v-168h-24q-24 0 -49 -11.5t-43 -23.5t-49.5 -46t-46 -51.5t-54.5 -66.5zM975 -129v338q0 106 62 173t182 67q57 0 112 -19q2 150 92 299h195
q-37 -83 -37 -141q0 -60 33 -96.5t90 -36.5q62 0 92.5 39t30.5 104q0 116 -106 208t-278 140.5t-374 48.5q-178 0 -326 -29.5t-258.5 -96.5t-148.5 -164q34 42 88 68t117 26q121 0 203.5 -79.5t82.5 -207.5q0 -158 -116 -236q73 -70 73 -178v-227h191zM1139 205v-334h39
q110 0 159 57.5t49 167.5q0 94 -38.5 154.5t-120.5 60.5q-88 0 -88 -106zM946 -532q109 0 204 21.5t164 54t138.5 87.5t117 105t109.5 125q68 78 91 96q15 11 30 18q-142 9 -256 74q-14 -143 -105 -233t-245 -90l-588 -2v370q0 54 -30 86.5t-78 32.5q-80 0 -127 -78
t-47 -198q0 -222 168 -345.5t454 -123.5zM360 510q0 -60 39 -96.5t103 -36.5q67 0 106 36.5t39 96.5q0 63 -38.5 98t-106.5 35q-65 0 -103.5 -36t-38.5 -97zM1210 715q0 -52 -36 -88.5t-87 -36.5q-52 0 -88 36t-36 89q0 50 36 85.5t88 35.5q51 0 87 -35.5t36 -85.5z" />
    <glyph glyph-name="tmAUlengthmark" unicode="&#xbd7;" horiz-adv-x="2134" 
d="M543 -20q-201 0 -326 151.5t-125 386.5q0 137 39.5 256.5t112.5 210t185.5 143t250.5 52.5q150 0 259.5 -67t156.5 -169v215h1011v-192h-204v-967h-242v967h-340v-967h-242v596q0 103 -42 190t-129.5 143t-205.5 56q-125 0 -214 -63.5t-131 -165.5t-42 -230
q28 70 104.5 116t172.5 46q144 0 239 -95.5t95 -252.5t-105 -258.5t-278 -101.5zM379 338q0 -74 45.5 -118t118.5 -44t117.5 44t44.5 118q0 76 -44.5 120t-117.5 44t-118.5 -44.5t-45.5 -119.5z" />
    <glyph glyph-name="tmZero" unicode="&#xbe6;" horiz-adv-x="1253" 
d="M1143 580q0 -271 -138.5 -435.5t-377.5 -164.5t-377.5 164.5t-138.5 435.5q0 270 138.5 434t377.5 164t377.5 -164t138.5 -434zM346 580q0 -186 71.5 -297t209.5 -111q94 0 158 53t93 143t29 212q0 184 -70.5 294.5t-209.5 110.5q-138 0 -209.5 -111.5t-71.5 -293.5z" />
    <glyph glyph-name="tmOne" unicode="&#xbe7;" horiz-adv-x="1675" 
d="M535 967v-267h301v267h-301zM528 164q84 0 145 25t96 70.5t51 102t16 127.5v19h-316q-95 0 -149 -43.5t-54 -130.5q0 -83 57.5 -126.5t153.5 -43.5zM1159 700q206 0 321 -98t115 -262q0 -171 -99.5 -268t-276.5 -97q-49 0 -117 9v192q27 -4 67 -4q191 0 191 170
q0 86 -49 126t-154 40h-84v-19q0 -113 -31.5 -206.5t-96 -165t-171.5 -111t-248 -39.5q-209 0 -326.5 98.5t-117.5 268.5q0 116 52 204t165 128v493h977v-192h-203v-267h86z" />
    <glyph glyph-name="tmTwo" unicode="&#xbe8;" horiz-adv-x="1802" 
d="M473 487q313 0 313 273q0 100 -66.5 164.5t-184.5 64.5q-69 0 -109.5 -30.5t-40.5 -86.5q0 -104 141 -104q60 0 127 23v-166q-64 -31 -161 -31q-149 0 -244.5 72t-95.5 204q0 138 104 224t272 86q111 0 203 -34t152 -92t92.5 -134t32.5 -162q0 -204 -141.5 -324.5
t-370.5 -120.5h-93q-52 0 -79 -13.5t-27 -49.5t26 -51t80 -15h1373v-184h-1375q-70 0 -127.5 11t-109.5 37t-81.5 76.5t-29.5 121.5q0 86 47.5 141t122 77.5t176.5 22.5h74z" />
    <glyph glyph-name="tmThree" unicode="&#xbe9;" horiz-adv-x="1880" 
d="M977 967v-320q31 77 103.5 123.5t162.5 46.5q146 0 236 -88t90 -225q0 -213 -176 -309h440v-193l-1094 -2v195h310q141 0 216.5 66t75.5 185q0 80 -49.5 129.5t-130.5 49.5q-92 0 -138 -56.5t-46 -136.5v-26h-238v561h-333v-967h-240v1159h1030v-192h-219z" />
    <glyph glyph-name="tmFour" unicode="&#xbea;" horiz-adv-x="1792" 
d="M1456 1159h240v-651h-623v-19q0 -112 -33.5 -206t-99.5 -165t-172 -111t-242 -40q-209 0 -326.5 98.5t-117.5 268.5q0 116 52 204t165 128v493h956v-192h-182v-267h383v459zM535 967v-267h301v267h-301zM528 164q84 0 145 25t96 70.5t51 102t16 127.5v19h-316
q-95 0 -149 -43.5t-54 -130.5q0 -83 57.5 -126.5t153.5 -43.5z" />
    <glyph glyph-name="tmFive" unicode="&#xbeb;" horiz-adv-x="2449" 
d="M1710 0h-242v967h-393v-967h-241v1159h1079v-192h-203v-389q37 75 108.5 126.5t172.5 51.5q162 0 263 -127t101 -318q0 -190 -72 -348.5t-205.5 -270t-331 -173.5t-439.5 -62q-265 0 -486.5 79t-376 222t-240 348t-85.5 451q0 244 83.5 449t236.5 351t379 228t501 82
q334 0 592 -96v-195q-111 44 -270 70.5t-322 26.5q-292 0 -509.5 -113.5t-333.5 -320.5t-116 -482q0 -210 68.5 -381t192.5 -285.5t299 -176.5t387 -62q384 0 593 175t209 480q0 115 -54 180.5t-142 65.5q-92 0 -147.5 -68t-55.5 -184v-301z" />
    <glyph glyph-name="tmSix" unicode="&#xbec;" horiz-adv-x="2596" 
d="M2564 0h-649v162q69 58 112.5 138.5t43.5 176.5q0 102 -59.5 159.5t-166.5 57.5q-125 0 -186.5 -92t-61.5 -262v-340h-239l2 342q0 85 -36.5 125.5t-115.5 40.5h-135v-19q0 -112 -33.5 -206t-99.5 -165t-172 -111t-242 -40q-209 0 -326.5 98.5t-117.5 268.5q0 116 52 204
t165 128v493h977v-192h-203v-267h133q165 0 244 -82q47 131 147 201t252 70q110 0 198.5 -33.5t144 -90t84.5 -127.5t28 -149q0 -163 -109 -294h369v-195zM535 967v-267h301v267h-301zM528 164q84 0 145 25t96 70.5t51 102t16 127.5v19h-316q-95 0 -149 -43.5t-54 -130.5
q0 -83 57.5 -126.5t153.5 -43.5z" />
    <glyph glyph-name="tmSeven" unicode="&#xbed;" horiz-adv-x="1566" 
d="M938 340q0 -158 -106 -259t-281 -101q-213 0 -336 138.5t-123 370.5q0 324 203 497t563 173h682v-194h-203v-965h-239v965h-236q-499 0 -538 -418q31 63 98.5 102t161.5 39q147 0 250.5 -95.5t103.5 -252.5zM371 338q0 -74 47.5 -118t124.5 -44t125.5 44t48.5 118
q0 75 -48 119.5t-126 44.5q-77 0 -124.5 -44t-47.5 -120z" />
    <glyph glyph-name="tmEight" unicode="&#xbee;" horiz-adv-x="2068" 
d="M813 795q0 -95 49 -162h365v29q0 138 -60 229.5t-176 91.5q-84 0 -131 -53t-47 -135zM768 225q346 0 430 244l-930 -2q81 -104 211.5 -173t288.5 -69zM1903 0h-240v469h-231q-55 -208 -229 -319t-439 -111q-123 0 -236 30t-202 81.5t-157.5 114t-119.5 134.5l-2 234h588
q-55 67 -55 170q0 164 105.5 270.5t285.5 106.5q99 0 180.5 -30t136.5 -80t93.5 -117.5t55.5 -140.5t17 -150v-29h209v526h240v-1159z" />
    <glyph glyph-name="tmNine" unicode="&#xbef;" horiz-adv-x="2709" 
d="M535 967v-267h301v267h-301zM1720 176q73 0 112.5 49.5t39.5 124.5q0 79 -55.5 117.5t-149.5 40.5h-129q-6 -44 -6 -90q0 -111 49.5 -176.5t138.5 -65.5zM1073 489q0 -112 -33.5 -206t-99.5 -165t-172 -111t-242 -40q-209 0 -326.5 98.5t-117.5 268.5q0 116 52 204
t165 128v493h977v-192h-203v-267h291q73 154 222 245t353 91q197 0 348 -75.5t232 -210.5t80 -308q0 -267 -121 -458h-244q60 101 95.5 221t35.5 237q0 182 -114.5 291t-315.5 109q-207 0 -317 -142h59q182 0 299 -92.5t117 -257.5q0 -158 -101 -264t-270 -106
q-194 0 -305.5 122t-113.5 318q0 44 6 88h-236v-19zM528 164q84 0 145 25t96 70.5t51 102t16 127.5v19h-316q-95 0 -149 -43.5t-54 -130.5q0 -83 57.5 -126.5t153.5 -43.5z" />
    <glyph glyph-name="tmTen" unicode="&#xbf0;" horiz-adv-x="1757" 
d="M1094 1540h266q258 -479 258 -903q0 -146 -26 -263.5t-78.5 -206.5t-140 -138t-204.5 -49q-122 0 -200.5 63.5t-102.5 155.5q-12 -42 -35 -79t-60.5 -69.5t-94.5 -51.5t-127 -19q-183 0 -282 104t-99 291v784h242v-797q0 -91 44.5 -139.5t123.5 -48.5q80 0 125 48.5
t45 139.5v797h237v-797q0 -84 45.5 -136t124.5 -52q217 0 217 463q0 159 -45.5 337.5t-103.5 310t-129 255.5z" />
    <glyph glyph-name="tmOnehundred" unicode="&#xbf1;" horiz-adv-x="1900" 
d="M1868 1159v-192h-203l4 -967h-244v967h-229q-79 0 -121.5 -43.5t-42.5 -126.5v-797h-239v786q0 94 -50.5 147.5t-144.5 53.5t-143 -53.5t-49 -147.5v-786h-240v795q0 176 108.5 280.5t274.5 104.5q155 0 247 -64.5t115 -154.5q66 198 303 198h654z" />
    <glyph glyph-name="tmOnethousand" unicode="&#xbf2;" horiz-adv-x="2263" 
d="M535 967v-267h301v267h-301zM528 164q84 0 145 25t96 70.5t51 102t16 127.5v25h-316q-94 0 -148.5 -46.5t-54.5 -133.5q0 -83 57.5 -126.5t153.5 -43.5zM2023 700v-186h-186v-164q163 -15 254.5 -112t91.5 -256q0 -201 -137 -326t-381 -125q-51 0 -144 6t-132 6
q-155 0 -265 -49v166q104 43 267 43q51 0 139.5 -6t134.5 -6q167 0 250.5 79t83.5 214q0 92 -42 148t-120 71q-7 -381 -364 -381q-161 0 -249.5 75t-88.5 197q0 106 83 182t240 76h182v162h-567v-25q0 -112 -33.5 -206t-99.5 -165t-172 -111t-242 -40q-209 0 -326.5 98.5
t-117.5 268.5q0 116 52 204t165 128v493h977v-192h-203v-267h950zM1475 -23q41 0 71 13t48 34t28.5 52t14 61.5t3.5 69.5h-163q-68 0 -108 -28t-40 -85q0 -55 41 -86t105 -31z" />
    <glyph glyph-name="tmDay" unicode="&#xbf3;" horiz-adv-x="1951" 
d="M1948 0h-879v162q125 174 125 395q0 191 -113.5 309.5t-328.5 118.5q-107 0 -191.5 -36.5t-137.5 -99.5t-80.5 -145.5t-27.5 -177.5q28 70 104.5 116t172.5 46q144 0 239 -95.5t95 -252.5t-105 -258.5t-278 -101.5q-201 0 -326 151.5t-125 386.5q0 137 43.5 256.5
t125.5 210t209 143t284 52.5q152 0 279 -48t213 -131.5t133 -198t46 -245.5q0 -210 -100 -362h623v-195zM379 338q0 -74 45.5 -118t118.5 -44t117.5 44t44.5 118q0 76 -44.5 120t-117.5 44t-118.5 -44.5t-45.5 -119.5z" />
    <glyph glyph-name="tmMonth" unicode="&#xbf4;" horiz-adv-x="2514" 
d="M1700 1288q46 0 72 32t26 81q0 68 -53.5 106.5t-149.5 46.5q-14 -49 -14 -112q0 -73 32 -113.5t87 -40.5zM1411 1444q0 51 8 92q-133 -50 -133 -186q0 -105 62 -187q129 -29 224 -120.5t141 -213t46 -258.5q0 -275 -152.5 -424t-435.5 -149l-1005 2v1157h242v-964h417
v604q0 148 80.5 249t233.5 125q-43 81 -43 177q0 156 113 251t280 111q54 82 145 130t215 48q138 0 227 -58.5t122 -162.5q15 103 92 157t204 54v-174h-28q-50 0 -83.5 -16t-50 -49.5t-22.5 -71t-6 -92.5v-293h-193v278q0 119 -73 196t-191 77q-88 0 -147 -35
q132 -29 203 -106.5t71 -190.5q0 -114 -72 -186t-202 -72q-131 0 -210 82.5t-79 218.5zM1067 793v-600h80q192 0 281.5 91.5t89.5 286.5q0 77 -16.5 148t-49.5 132t-91 97.5t-132 36.5q-162 0 -162 -192z" />
    <glyph glyph-name="tmYear" unicode="&#xbf5;" horiz-adv-x="4958" 
d="M670 518q0 137 43.5 256.5t125 210t209 143t285.5 52.5q152 0 279.5 -48t213 -131.5t132 -198t45.5 -245.5q0 -214 -98 -362h368v964h1080v-192h-201v-385q37 73 107.5 123.5t170.5 50.5q162 0 263.5 -127.5t101.5 -319.5q0 -222 -131 -399t-370 -293.5t-573 -178
t-741 -61.5q-334 0 -620.5 45.5t-521.5 140.5t-401 234t-256.5 333t-90.5 431q0 278 143 502.5t400 374t614.5 229.5t786.5 80q367 0 679.5 -41t573 -128t448.5 -216t303 -311t140 -408l22 -186q14 -127 59.5 -193.5t135.5 -66.5q205 0 205 428q2 115 -24.5 271.5
t-69.5 262.5h235q42 -124 65 -270t23 -268q0 -100 -14 -189.5t-47 -171t-82 -140t-123.5 -93.5t-167.5 -35q-98 0 -173 33.5t-123 95t-76.5 139t-39.5 174.5l-18 160q-17 156 -80.5 285.5t-162 226t-236.5 171t-296 123.5t-349 80.5t-387.5 44.5t-419.5 13
q-299 0 -558.5 -39t-471 -118.5t-362 -195t-232.5 -274.5t-82 -350q0 -149 43 -277t121.5 -226.5t193 -177.5t253.5 -133.5t307 -91t349.5 -53t384.5 -16.5q356 0 641.5 44.5t494 132t321 226t112.5 318.5q0 115 -54 180.5t-142 65.5q-83 0 -136.5 -56.5t-64.5 -154.5v-342
h-242v967h-395v-967h-868v162q58 78 91.5 180.5t33.5 214.5q0 191 -114 309.5t-329 118.5q-106 0 -190.5 -36.5t-137.5 -100t-80.5 -146.5t-27.5 -180q27 71 103.5 118.5t174.5 47.5q144 0 239 -95.5t95 -252.5t-105 -258.5t-278 -101.5q-133 0 -236 69.5t-159 191.5
t-57 277zM958 338q0 -74 45.5 -118t118.5 -44t117.5 44t44.5 118q0 76 -45 120t-119 44q-72 0 -117 -44.5t-45 -119.5z" />
    <glyph glyph-name="tmDebit" unicode="&#xbf6;" horiz-adv-x="2361" 
d="M2195 -406h-155h-549q-76 -175 -246.5 -267.5t-415.5 -92.5q-218 0 -388.5 83t-272.5 214l-2 227h1128q13 67 13 133v109h-1141v1159h246v-960h891v960h245v-1268q0 -61 -10 -133h412v1401h245v-1565zM834 -578q278 0 395 172l-834 -2q70 -80 184 -125t255 -45z" />
    <glyph glyph-name="tmCredit" unicode="&#xbf7;" horiz-adv-x="3289" 
d="M3256 0h-725v162h-2q105 141 105 319q0 163 -114.5 264t-291.5 101q-103 0 -185.5 -39t-135.5 -109q20 2 61 2q185 0 304.5 -95t119.5 -263q0 -157 -105 -261t-276 -104q-172 0 -284.5 111t-129.5 291q-94 -73 -163 -172.5t-97 -200.5v-6h-239v965h-236q-499 0 -538 -418
q31 63 98.5 102t161.5 39q147 0 250.5 -95.5t103.5 -252.5q0 -158 -106 -259t-281 -101q-213 0 -336 138.5t-123 370.5q0 324 203 497t563 173h682v-194h-203v-580q110 145 287 233q59 186 220.5 304t387.5 118q146 0 266.5 -45t199.5 -122t122 -178.5t41 -213.5
q0 -158 -72 -286h467v-195zM2011 174q72 0 116 48t44 120q0 77 -59.5 119.5t-163.5 44.5q-53 0 -121 -14q-2 -16 -2 -54q0 -119 47.5 -191.5t138.5 -72.5zM371 338q0 -74 47.5 -118t124.5 -44t125.5 44t48.5 118q0 75 -48 119.5t-126 44.5q-77 0 -124.5 -44t-47.5 -120z" />
    <glyph glyph-name="tmAsabove" unicode="&#xbf8;" horiz-adv-x="3825" 
d="M3793 0h-215v-401h-232v401h-1099v162h-2q96 129 96 295q0 122 -65.5 203t-182.5 116q12 -92 12 -194q0 -86 -15.5 -169.5t-49.5 -162.5t-83.5 -138.5t-124 -95.5t-163.5 -36q-184 0 -294.5 122.5t-112.5 319.5q0 221 149 378t399 187q-86 211 -267 324.5t-443 113.5
q-169 0 -309 -54.5t-234.5 -149.5t-146.5 -226.5t-52 -283.5q0 -106 19 -187q29 96 117 153.5t202 57.5q169 0 275 -107.5t106 -273.5q0 -161 -109.5 -270t-289.5 -109q-112 0 -206 41.5t-158.5 112t-109.5 165t-66 200t-21 217.5q0 190 66.5 355t189.5 288.5t311 194.5
t418 71q356 0 601.5 -165t342.5 -470q243 -32 384 -178t138 -350q0 -145 -65 -262h432q-185 110 -185 340q0 202 126 332t335 130q178 0 272.5 -96.5t94.5 -249.5v-456h215v-195zM489 354q0 -80 50 -130t133 -50q81 0 131.5 50t50.5 130t-50.5 130.5t-131.5 50.5
q-83 0 -133 -50.5t-50 -130.5zM1667 186q105 0 160 105t55 291q0 113 -18 215q-172 -14 -272.5 -113.5t-100.5 -263.5q0 -107 46 -170.5t130 -63.5zM3332 195h14v464q0 148 -137 148q-103 0 -161 -79.5t-58 -195.5q0 -158 89.5 -247.5t252.5 -89.5z" />
    <glyph glyph-name="tmRupee" unicode="&#xbf9;" horiz-adv-x="2662" 
d="M1710 0h-242v967h-393v-967h-241v1159h1058v-192h-182v-389q37 75 108.5 126.5t172.5 51.5q162 0 263 -127t101 -318q0 -185 -73.5 -342t-208 -269.5t-333 -175.5t-440.5 -63q-264 0 -484 78.5t-373 219.5t-237.5 344t-84.5 446q0 241 82.5 443t233.5 344.5t373.5 222
t492.5 79.5q169 0 307 -24q46 111 151.5 170t245.5 59q212 0 334.5 -109.5t122.5 -299.5q0 -155 -99 -277h265v-192h-521v174q132 132 132 291q0 102 -62 159.5t-174 57.5q-111 0 -173.5 -70t-72.5 -180q-192 47 -456 47q-284 0 -497.5 -109t-329.5 -312t-116 -474
q0 -202 69.5 -370t193 -283t297.5 -178.5t380 -63.5q186 0 338.5 47.5t255.5 133.5t159 207t56 265q0 115 -54 180.5t-142 65.5q-92 0 -147.5 -68t-55.5 -184v-301z" />
    <glyph glyph-name="tmNumber" unicode="&#xbfa;" horiz-adv-x="1730" 
d="M983 967v-404q37 74 109.5 126t173.5 52q117 0 204.5 -68t129.5 -173.5t42 -229.5q0 -328 -206 -514t-592 -186q-73 0 -206.5 8t-191.5 8q-225 0 -401 -92v207q89 44 183 62t218 18q74 0 202 -8.5t196 -8.5q274 0 413.5 128t139.5 380q0 120 -52 193.5t-157 73.5
q-94 0 -149.5 -67.5t-55.5 -184.5v-287h-242v967h-338v-967h-241v1159h1028v-192h-207z" />
    <glyph glyph-name="zerowidthnonjoiner" unicode="&#x200c;" horiz-adv-x="0" 
d="M49 -471h-96v2132h96v-2132z" />
    <glyph glyph-name="zerowidthjoiner" unicode="&#x200d;" horiz-adv-x="0" 
d="M49 -471h-96v1771l-141 -149l-68 68l190 190l-194 195l67 67l195 -194l197 194l65 -65l-196 -197l196 -195l-67 -67l-148 153v-1771z" />
    <glyph glyph-name="endash" unicode="&#x2013;" horiz-adv-x="1124" 
d="M1024 457h-922v188h922v-188z" />
    <glyph glyph-name="emdash" unicode="&#x2014;" horiz-adv-x="1701" 
d="M1599 463h-1497v188h1497v-188z" />
    <glyph glyph-name="quoteleft" unicode="&#x2018;" horiz-adv-x="479" 
d="M324 915h-281l266 506h207z" />
    <glyph glyph-name="quoteright" unicode="&#x2019;" horiz-adv-x="479" 
d="M254 915h-209l193 506h280z" />
    <glyph glyph-name="quotesinglbase" unicode="&#x201a;" horiz-adv-x="479" 
d="M201 -258h-209l194 506h281z" />
    <glyph glyph-name="quotedblleft" unicode="&#x201c;" horiz-adv-x="825" 
d="M319 915h-276l274 506h201zM678 915h-260l246 506h200z" />
    <glyph glyph-name="quotedblright" unicode="&#x201d;" horiz-adv-x="825" 
d="M246 915h-201l186 506h258zM592 915h-201l199 506h276z" />
    <glyph glyph-name="quotedblbase" unicode="&#x201e;" horiz-adv-x="825" 
d="M201 -258h-201l186 506h258zM547 -258h-201l197 506h276z" />
    <glyph glyph-name="dagger" unicode="&#x2020;" horiz-adv-x="1118" 
d="M1047 852h-381v-852h-222v852h-372v205h372v323h222v-323h381v-205z" />
    <glyph glyph-name="daggerdbl" unicode="&#x2021;" horiz-adv-x="1161" 
d="M1069 332h-381v-332h-221v332h-375v205h375v315h-375v205h375v323h221v-323h381v-205h-381v-315h381v-205z" />
    <glyph glyph-name="bullet" unicode="&#x2022;" horiz-adv-x="888" 
d="M717 729q0 -115 -78.5 -193.5t-192.5 -78.5q-118 0 -195 78t-77 194t77 194t193 78t194.5 -78.5t78.5 -193.5z" />
    <glyph glyph-name="ellipsis" unicode="&#x2026;" horiz-adv-x="1751" 
d="M422 143q0 -66 -46 -112.5t-112 -46.5t-113 46.5t-47 112.5t47 112t113 46t112 -46t46 -112zM1034 143q0 -66 -45.5 -112.5t-111.5 -46.5t-113 46.5t-47 112.5t47 112t113 46t111.5 -46t45.5 -112zM1647 143q0 -66 -46 -112.5t-112 -46.5t-113 46.5t-47 112.5t47 112
t113 46t112 -46t46 -112z" />
    <glyph glyph-name="perthousand" unicode="&#x2030;" horiz-adv-x="2736" 
d="M670 -2h-226l760 1417h228zM821 1075q0 -151 -106.5 -257.5t-257.5 -106.5t-258 106.5t-107 257.5q0 152 107 258.5t258 106.5t257.5 -106.5t106.5 -258.5zM295 1075q0 -66 47.5 -114t114.5 -48t114 48t47 114q0 68 -47 116t-114 48t-114.5 -48t-47.5 -116zM1796 348
q0 -151 -106.5 -257.5t-257.5 -106.5t-258 106.5t-107 257.5t107 258t258 107t257.5 -107t106.5 -258zM1270 348q0 -66 48 -114t114 -48q67 0 115 48t48 114q0 68 -48 116t-115 48q-66 0 -114 -48.5t-48 -115.5zM2658 348q0 -151 -106.5 -257.5t-257.5 -106.5
q-152 0 -258.5 106.5t-106.5 257.5t106.5 258t258.5 107q151 0 257.5 -107t106.5 -258zM2132 348q0 -66 47.5 -114t114.5 -48q66 0 114 48t48 114q0 67 -48 115.5t-114 48.5q-67 0 -114.5 -48t-47.5 -116z" />
    <glyph glyph-name="guilsinglleft" unicode="&#x2039;" horiz-adv-x="704" 
d="M328 518l299 -332h-260l-312 332l312 332h260z" />
    <glyph glyph-name="guilsinglright" unicode="&#x203a;" horiz-adv-x="702" 
d="M649 518l-311 -332h-260l299 332l-299 332h260z" />
    <glyph glyph-name="fraction" unicode="&#x2044;" horiz-adv-x="577" 
d="M-102 0h-195l895 1456h193z" />
    <glyph glyph-name="Euro" unicode="&#x20ac;" horiz-adv-x="1249" 
d="M1167 47q-60 -32 -125 -47.5t-170 -15.5q-214 0 -369 119.5t-216 324.5h-195v158h166q-2 25 -2 73q0 32 4 86h-168v160h197q60 214 217.5 332.5t361.5 118.5q182 0 299 -66v-248q-107 80 -260 80q-118 0 -206.5 -56t-135.5 -161h383v-160h-426q-6 -43 -6 -88q0 -25 4 -71
h428v-158h-387q45 -104 133 -159.5t203 -55.5q155 0 270 82v-248z" />
    <glyph glyph-name="indianrupee" unicode="&#x20b9;" horiz-adv-x="1130" 
d="M1040 840h-211q-21 -156 -125.5 -250t-285.5 -111l399 -479h-311l-379 477v199h186q228 0 267 164h-453v190h442q-61 160 -260 160h-182v190h913v-190h-319q69 -69 94 -160h225v-190z" />
    <glyph glyph-name="uni20BA" unicode="&#x20ba;" horiz-adv-x="1198" 
d="M446 0h-167v481l-162 -82v197l162 82v178l-162 -82v197l162 82v288h245v-161l199 100v-197l-199 -100v-180l199 100v-196l-199 -101v-391q118 26 208 104.5t136.5 189t46.5 234.5h240q0 -148 -48.5 -281.5t-137 -236.5t-224.5 -164t-299 -61z" />
    <glyph glyph-name="uni20BD" unicode="&#x20bd;" horiz-adv-x="1146" 
d="M567 1139h-123v-461h117q144 0 212.5 62t68.5 171q0 108 -67 168t-208 60zM854 166h-410v-166h-258v166h-180v180h180v152h-180v180h180v663h402q246 0 374 -115.5t128 -305.5q0 -200 -133.5 -311t-362.5 -111h-150v-152h410v-180z" />
    <glyph glyph-name="uni2113" unicode="&#x2113;" horiz-adv-x="1048" 
d="M541 952v-282q101 61 154 154t53 198q0 67 -25.5 108t-75.5 41q-106 0 -106 -219zM958 55q-110 -65 -272 -65q-184 0 -287.5 102.5t-103.5 296.5v2q-54 -4 -82 -4q-79 0 -141 19v204q70 -20 139 -20q30 0 84 4v369q0 92 17.5 167t55 135t103 93t154.5 33q165 0 249 -98
t84 -255q0 -191 -109.5 -352.5t-307.5 -241.5v-18q0 -236 200 -236q112 0 217 68v-203z" />
    <glyph glyph-name="trademark" unicode="&#x2122;" horiz-adv-x="1497" 
d="M758 678h-164l57 702h187l90 -243q32 -81 53.5 -146t26.5 -89l6 -25q22 78 90 260l94 243h186l66 -702h-164l-20 264q-5 67 -5.5 129.5t1.5 91.5l2 29q-21 -96 -80 -252l-94 -252h-148l-90 252q-24 68 -43 131t-26 92l-7 29q10 -102 0 -252zM354 678h-166v557h-174v145
h512v-145h-172v-557z" />
    <glyph glyph-name="uni2126" unicode="&#x2126;" horiz-adv-x="1609" 
d="M713 0h-615v213h285q-103 81 -159 206.5t-56 285.5q0 318 171 509t466 191q299 0 469 -190t170 -510q0 -160 -56.5 -285.5t-160.5 -206.5h284v-213h-614v213q135 31 202.5 164t67.5 328q0 217 -93.5 339.5t-268.5 122.5q-172 0 -266.5 -123t-94.5 -339q0 -191 69 -325
t200 -167v-213z" />
    <glyph glyph-name="partialdiff" unicode="&#x2202;" horiz-adv-x="1101" 
d="M1004 584q0 -282 -125 -442t-351 -160q-109 0 -196 36t-142.5 99t-84.5 146t-29 179q0 130 59 231t154.5 153.5t206.5 52.5q144 0 245 -82q-58 175 -195 327t-308 256h342q181 -131 302.5 -357.5t121.5 -438.5zM530 203q109 0 174.5 90.5t69.5 271.5q-90 101 -235 101
q-92 0 -151.5 -64t-59.5 -170q0 -102 53.5 -165.5t148.5 -63.5z" />
    <glyph glyph-name="uni2206" unicode="&#x2206;" horiz-adv-x="1345" 
d="M70 0v180l440 1200h334l434 -1200v-180h-1208zM457 545l-113 -334h657l-112 334l-215 645q-51 -148 -217 -645z" />
    <glyph glyph-name="product" unicode="&#x220f;" horiz-adv-x="1284" 
d="M444 51q0 -207 -86.5 -318.5t-265.5 -111.5q-72 0 -141 25v227q52 -27 100 -27q71 0 102 47.5t31 149.5v1337h961v-1749h-260v1526h-441v-1106z" />
    <glyph glyph-name="summation" unicode="&#x2211;" horiz-adv-x="958" 
d="M336 -197h663v-213h-938v213l326 697l-326 667v213h938v-213h-661l319 -667z" />
    <glyph glyph-name="minus" unicode="&#x2212;" horiz-adv-x="1179" 
d="M1077 586h-975v219h975v-219z" />
    <glyph glyph-name="uni2215" unicode="&#x2215;" horiz-adv-x="899" 
d="M121 0h-195l895 1456h195z" />
    <glyph glyph-name="uni2219" unicode="&#x2219;" horiz-adv-x="589" 
d="M455 690q0 -66 -47 -113t-113 -47t-113 47t-47 113t47 113t113 47t113 -47t47 -113z" />
    <glyph glyph-name="radical" unicode="&#x221a;" horiz-adv-x="1634" 
d="M1028 -395h-303l-403 1112h-263l50 196h421l187 -544q47 -135 86.5 -266t56.5 -194.5t19 -74.5l5 27q6 27 17 76t26 111.5t38.5 149.5t50.5 175l452 1476h261z" />
    <glyph glyph-name="infinity" unicode="&#x221e;" horiz-adv-x="1703" 
d="M850 559q-30 -35 -53 -59t-61 -55t-75 -49.5t-88.5 -32t-107.5 -13.5q-178 0 -273.5 91.5t-95.5 254.5q0 160 102.5 258.5t274.5 98.5q118 0 205.5 -54t173.5 -153q35 42 69.5 75t82.5 66.5t108 51.5t127 18q175 0 272 -92t97 -252t-103.5 -259.5t-273.5 -99.5
q-120 0 -209 53.5t-172 151.5zM313 702q0 -71 45.5 -115t122.5 -44q126 0 236 164q-61 70 -116.5 110.5t-119.5 40.5q-79 0 -123.5 -42.5t-44.5 -113.5zM985 698q44 -48 73 -74.5t74.5 -50.5t90.5 -24q79 0 121 41t42 117q0 67 -43 112t-118 45q-41 0 -78.5 -15t-68 -43
t-50.5 -51.5t-43 -56.5z" />
    <glyph glyph-name="integral" unicode="&#x222b;" horiz-adv-x="659" 
d="M459 -10q0 -175 -96.5 -273t-266.5 -98q-74 0 -135 19v204q53 -20 102 -20q150 0 150 168v1087q0 174 96 272.5t266 98.5q78 0 136 -18v-207q-53 20 -103 20q-71 0 -110 -38.5t-39 -129.5v-1085z" />
    <glyph glyph-name="approxequal" unicode="&#x2248;" horiz-adv-x="1228" 
d="M430 858q-63 0 -112 -30t-95 -91l-157 127q62 86 144 142.5t175 56.5q71 0 137.5 -18t107.5 -39.5t89.5 -39.5t89.5 -18q60 0 102.5 29t85.5 86l160 -125q-128 -195 -309 -195q-64 0 -126.5 18t-103.5 39.5t-92.5 39.5t-95.5 18zM430 442q-64 0 -112.5 -28.5t-94.5 -89.5
l-157 127q62 84 144 140t175 56q71 0 137.5 -17.5t107.5 -38.5t89.5 -38.5t89.5 -17.5q60 0 102.5 28.5t85.5 85.5l160 -127q-126 -192 -309 -192q-64 0 -126.5 17.5t-103.5 38.5t-92.5 38.5t-95.5 17.5z" />
    <glyph glyph-name="notequal" unicode="&#x2260;" horiz-adv-x="1179" 
d="M1077 371h-569l-78 -170h-139l78 170h-267v200h361l117 252h-478v199h570l78 170h137l-78 -170h268v-199h-360l-117 -252h477v-200z" />
    <glyph glyph-name="lessequal" unicode="&#x2264;" horiz-adv-x="1169" 
d="M1067 973l-834 -127l834 -127v-217l-975 186v318l975 184v-217zM1067 199h-975v200h975v-200z" />
    <glyph glyph-name="greaterequal" unicode="&#x2265;" horiz-adv-x="1169" 
d="M1077 1006v-318l-975 -186v217l834 127l-834 127v217zM1077 199h-975v200h975v-200z" />
    <glyph glyph-name="lozenge" unicode="&#x25ca;" horiz-adv-x="1206" 
d="M334 690l65 -119q64 -111 114.5 -205t69.5 -132l19 -39q60 126 207 376l68 119l-68 119q-65 111 -117 205.5t-71 133.5l-19 38q-60 -127 -203 -377zM733 0h-266l-389 690l389 690h266l395 -690z" />
    <glyph glyph-name="dottedcircle" unicode="&#x25cc;" horiz-adv-x="1351" 
d="M586 184q0 -40 -26 -67t-64 -27q-40 0 -66.5 27t-26.5 67q0 37 27 63.5t66 26.5q38 0 64 -26.5t26 -63.5zM377 338q0 -39 -25.5 -64.5t-64.5 -25.5q-40 0 -65 25t-25 65q0 39 25.5 64.5t64.5 25.5q38 0 64 -26t26 -64zM270 575q0 -38 -25 -63t-65 -25q-38 0 -64 25
t-26 63q0 40 26 66.5t64 26.5q39 0 64.5 -26.5t25.5 -66.5zM846 152q0 -40 -26 -65.5t-66 -25.5t-65 25.5t-25 65.5t25 65t65 25t66 -25t26 -65zM301 834q0 -38 -26.5 -64.5t-63.5 -26.5q-40 0 -67 26.5t-27 64.5t27 64t67 26q37 0 63.5 -26t26.5 -64zM1094 260
q0 -39 -27 -64.5t-66 -25.5t-64.5 25.5t-25.5 64.5q0 38 26 64t64 26q39 0 66 -26t27 -64zM465 1059q0 -40 -25 -66t-65 -26t-65 26t-25 66q0 39 25.5 64.5t64.5 25.5t64.5 -25.5t25.5 -64.5zM1241 461q0 -38 -25.5 -64t-62.5 -26q-40 0 -66 26t-26 64q0 40 26 66t66 26
q37 0 62.5 -26.5t25.5 -65.5zM707 1147q0 -40 -25.5 -65t-65.5 -25t-65 25t-25 65t25 65t65 25t65.5 -25t25.5 -65zM1262 735q0 -39 -26 -64.5t-65 -25.5q-40 0 -65 25t-25 65t25 65t65 25q39 0 65 -25.5t26 -64.5zM965 1116q0 -37 -25 -63.5t-63 -26.5q-39 0 -66 26.5
t-27 63.5q0 40 26.5 66t66.5 26q38 0 63 -26t25 -66zM1159 977q0 -39 -25.5 -64.5t-64.5 -25.5q-38 0 -64 26t-26 64q0 40 26 66t64 26q40 0 65 -26t25 -66z" />
    <glyph glyph-name="fi" unicode="&#xfb01;" horiz-adv-x="1130" 
d="M459 0h-246v854h-152v184h152v62q0 174 97 272t270 98q177 0 346 -79v-207q-175 82 -316 82q-75 0 -113 -38t-38 -130v-60h563v-1038h-246v854h-317v-854z" />
    <glyph glyph-name="fl" unicode="&#xfb02;" horiz-adv-x="1150" 
d="M666 854h-207v-854h-246v854h-152v184h152v62q0 175 96.5 272.5t268.5 97.5q118 0 222 -30.5t218 -87.5v-1352h-248v1243q-84 23 -149 23q-80 0 -121 -36t-41 -132v-60h207v-184z" />
    <glyph glyph-name="tmKSSA" horiz-adv-x="3872" 
d="M3828 0h-217v-401h-232v401h-1098v162h-2q54 77 86.5 183t32.5 214q0 191 -113.5 308.5t-328.5 117.5q-160 0 -261.5 -75t-140.5 -210h164q115 0 207 -38.5t149.5 -120.5t57.5 -197q0 -158 -104 -261t-279 -103q-205 0 -327 146t-124 382h-229v-19q0 -112 -33.5 -206
t-99.5 -165t-172 -111t-242 -40q-209 0 -326.5 98.5t-117.5 268.5q0 116 52 204t165 128v493h977v-192h-203v-267h252q52 215 216.5 347.5t420.5 132.5q152 0 279.5 -47.5t213.5 -130.5t133 -197.5t46 -245.5q0 -205 -97 -364h435q-185 110 -185 340q0 202 126.5 332
t336.5 130q176 0 270.5 -96.5t94.5 -249.5v-456h217v-195zM3365 195h14v464q0 71 -33.5 109.5t-101.5 38.5q-103 0 -162 -79.5t-59 -195.5q0 -158 89.5 -247.5t252.5 -89.5zM532 967v-267h299v267h-299zM1749 176q74 0 117 46.5t43 121.5q0 80 -56.5 121t-154.5 43h-170
q0 -148 57 -240t164 -92zM524 164q85 0 146 25t95.5 70.5t50 102t15.5 127.5v19h-315q-95 0 -149 -43.5t-54 -130.5q0 -83 57.5 -126.5t153.5 -43.5z" />
    <glyph glyph-name="ITF" horiz-adv-x="3280" 
d="M2626 0h-426v1380h426v-1380zM569 0h-426v1380h426v-1380zM1083 977h-426v403h426v-403zM1597 0h-426v1380h426v-1380zM2111 977h-425v403h425v-403zM3140 487h-428v404h428v-404zM3140 977h-428v403h428v-403z" />
    <glyph glyph-name="tmKI" horiz-adv-x="2191" 
d="M1399 1159v-192h-326v-267h86q206 0 321 -98t115 -262q0 -171 -99.5 -268t-276.5 -97q-49 0 -117 9v192q27 -4 67 -4q191 0 191 170q0 86 -49 126t-154 40h-84v-19q0 -113 -31.5 -206.5t-96 -165t-171.5 -111t-248 -39.5q-209 0 -326.5 98.5t-117.5 268.5q0 116 52 204
t165 128v493h805q-94 59 -94 174q0 97 61.5 168.5t158 106t212.5 34.5q254 0 415.5 -138t161.5 -357v-1147h-239v1147q0 137 -91 219t-247 82q-91 0 -147 -38.5t-56 -111.5q0 -63 41.5 -101t118.5 -38zM535 967v-267h301v267h-301zM528 164q84 0 145 25t96 70.5t51 102
t16 127.5v19h-316q-95 0 -149 -43.5t-54 -130.5q0 -83 57.5 -126.5t153.5 -43.5z" />
    <glyph glyph-name="tmNGI" horiz-adv-x="2762" 
d="M1999 1159h26v-1157h-163l-1123 -2v195h310q141 0 216.5 66t75.5 185q0 80 -49.5 129.5t-130.5 49.5q-92 0 -138 -56.5t-46 -136.5v-26h-238v561h-333v-967h-240v1159h1030v-192h-219v-320q31 77 103.5 123.5t162.5 46.5q146 0 236 -88t90 -225q0 -213 -176 -309h391v837
q-83 35 -128.5 106.5t-45.5 168.5q0 152 121 243.5t315 91.5q253 0 402 -136.5t149 -358.5v-1147h-240v1147q0 141 -81.5 221t-227.5 80q-94 0 -150.5 -38.5t-56.5 -113.5q0 -63 41 -100t117 -37z" />
    <glyph glyph-name="tmCI" horiz-adv-x="1929" 
d="M1364 700v-192h-313v-12q0 -158 -59 -275t-184.5 -185.5t-307.5 -68.5q-208 0 -324.5 100t-116.5 267q0 119 55.5 208t174.5 128v489h547q-97 59 -97 174q0 146 122.5 227.5t316.5 81.5q266 0 424.5 -134t158.5 -367v-1141h-239v1141q0 143 -90.5 225t-251.5 82
q-96 0 -152.5 -38.5t-56.5 -111.5q0 -64 41 -101.5t118 -37.5h113v-192h-192v-267h313zM526 967v-267h289v267h-289zM500 164q84 0 147 26t98.5 72.5t52.5 103t17 123.5v19h-317q-95 0 -149 -43.5t-54 -130.5q0 -85 58 -127.5t147 -42.5z" />
    <glyph glyph-name="tmNYI" horiz-adv-x="3106" 
d="M2198 1159v-192h-351v-389q37 74 109.5 126t173.5 52q160 0 261 -127.5t101 -317.5t-85.5 -348t-238 -265.5t-366 -166.5t-465.5 -59q-266 0 -488.5 63.5t-386.5 185t-255.5 310t-91.5 426.5q0 201 62 386.5t157 315.5h258q-236 -324 -236 -702q0 -159 49.5 -290
t138 -223t212 -155.5t269.5 -93t312 -29.5q265 0 469 74t322.5 220.5t118.5 346.5q0 115 -53.5 180.5t-141.5 65.5q-93 0 -149 -68t-56 -184v-301h-235v967h-238q-253 0 -386.5 -108t-151.5 -314q32 64 102 103.5t162 39.5q146 0 248 -95t102 -253t-105.5 -259t-281.5 -101
q-208 0 -329.5 138.5t-121.5 370.5q0 321 200.5 495.5t557.5 174.5h535q-93 58 -93 174q0 97 62 168.5t161 106t220 34.5q192 0 347 -74t244 -207.5t89 -301.5v-1059h-240v1059q0 175 -122.5 282t-315.5 107q-99 0 -158 -38t-59 -112q0 -64 40.5 -101.5t117.5 -37.5z
M885 338q0 -75 47.5 -119.5t124.5 -44.5t124.5 44.5t47.5 119.5q0 76 -47.5 120t-124.5 44t-124.5 -44t-47.5 -120z" />
    <glyph glyph-name="tmTTI" horiz-adv-x="1794" 
d="M1761 0h-217v-401h-231v401h-1147v1159h242v-958h485q-174 109 -174 334q0 202 126 332t335 130q176 0 270 -96.5t94 -249.5v-450h74v-2h143v-199zM956 532q0 -146 76.5 -232.5t218.5 -98.5h64v458q0 70 -34.5 109t-102.5 39q-103 0 -162.5 -79.5t-59.5 -195.5z" />
    <glyph glyph-name="tmNNI" horiz-adv-x="3926" 
d="M528 -20q-197 0 -316.5 129.5t-119.5 357.5q0 154 61.5 286t171 226t267.5 147.5t344 53.5q275 0 491 -123q203 123 461 123t469 -127q204 106 469 106h78q-46 28 -71 74.5t-25 103.5q0 138 116.5 221.5t303.5 83.5q244 0 385 -133t141 -360v-1149h-240v1149
q0 137 -73 218t-211 81q-85 0 -138 -39.5t-53 -110.5q0 -63 41 -101t117 -38h133v-192h-164v-967h-241v967h-91q-173 0 -305 -52q101 -102 156 -229.5t55 -263.5q0 -207 -110 -324.5t-279 -117.5q-167 0 -278 116.5t-111 323.5q0 297 213 504q-135 61 -289 61
q-153 0 -284 -61q104 -102 160.5 -233.5t56.5 -272.5q0 -206 -108.5 -322t-278.5 -116q-171 0 -281.5 117t-110.5 323q0 137 55 266.5t156 233.5q-143 65 -319 65q-258 0 -424.5 -120t-196.5 -318q36 62 105 101.5t157 39.5q144 0 241 -96t97 -252q0 -158 -104.5 -259
t-278.5 -101zM2351 174q76 0 118 66.5t42 181.5q0 108 -42.5 206t-119.5 175q-81 -74 -120.5 -174.5t-39.5 -206.5q0 -116 43 -182t119 -66zM1432 174q79 0 118 65.5t39 178.5q0 107 -42 207t-120 176q-157 -160 -157 -383q0 -112 41.5 -178t120.5 -66zM365 338
q0 -74 45 -118t116 -44q73 0 118.5 44t45.5 118q0 75 -45.5 119.5t-118.5 44.5t-117 -44t-44 -120z" />
    <glyph glyph-name="tmTI" horiz-adv-x="2174" 
d="M2003 0h-240v1147q0 137 -93 219t-249 82q-92 0 -148 -38.5t-56 -111.5q0 -64 41 -101.5t118 -37.5v-192h-274v-271q116 -11 205.5 -55.5t144 -114t82 -154.5t27.5 -182q0 -289 -182 -454.5t-543 -165.5q-73 0 -207.5 8t-192.5 8q-210 0 -377 -80v207q151 68 377 68
q75 0 204 -9.5t196 -9.5q253 0 367 108t114 323q0 119 -53 203t-162 106v-13q0 -237 -145 -379.5t-425 -142.5q-210 0 -330 98t-120 269q0 121 56.5 211t180.5 129v485h762q-94 59 -94 174q0 144 125.5 226.5t306.5 82.5q256 0 420 -138t164 -357v-1147zM557 967v-267h307
v267h-307zM535 164q90 0 155.5 25t102.5 70.5t54 102t17 127.5v19h-344q-95 0 -149 -43.5t-54 -130.5q0 -83 60 -126.5t158 -43.5z" />
    <glyph glyph-name="tmNI" horiz-adv-x="2258" 
d="M1335 1159v-192h-352v-404q37 74 109.5 126t173.5 52q117 0 204.5 -68t129.5 -173.5t42 -229.5q0 -328 -206 -514t-592 -186q-73 0 -206.5 8t-191.5 8q-225 0 -401 -92v207q89 44 183 62t218 18q74 0 202 -8.5t196 -8.5q274 0 413.5 128t139.5 380q0 120 -52 193.5
t-157 73.5q-94 0 -149.5 -67.5t-55.5 -184.5v-287h-242v967h-338v-967h-241v1159h880q-94 59 -94 174q0 97 62 168.5t162.5 106t224.5 34.5q192 0 349.5 -69t250 -198.5t92.5 -295.5v-1079h-240v1079q0 168 -127 268.5t-323 100.5q-101 0 -161 -38.5t-60 -111.5
q0 -63 40.5 -101t116.5 -38z" />
    <glyph glyph-name="tmPI" horiz-adv-x="2285" 
d="M1530 1159h18v-1159h-1382v1159h246v-960h891v833q-82 33 -126 105t-44 170q0 152 121 243.5t315 91.5q253 0 402 -136.5t149 -358.5v-1147h-240v1147q0 141 -82 221t-229 80q-93 0 -149 -38.5t-56 -113.5q0 -64 41.5 -100.5t124.5 -36.5z" />
    <glyph glyph-name="tmMI" horiz-adv-x="2398" 
d="M1530 1079q110 -83 169.5 -219t59.5 -289q0 -275 -152.5 -424t-435.5 -149l-1005 2v1157h242v-964h417v604q0 169 103 275t297 106h28q-26 57 -26 127q0 139 125 238t340 99q251 0 395.5 -136t144.5 -359v-1147h-237v1147q0 142 -78 221.5t-223 79.5q-117 0 -181.5 -50
t-64.5 -141q0 -112 82 -178zM1067 793v-600h80q192 0 281.5 91.5t89.5 286.5q0 77 -16.5 148t-49.5 132t-91 97.5t-132 36.5q-162 0 -162 -192z" />
    <glyph glyph-name="tmYI" horiz-adv-x="2598" 
d="M2433 0h-240v1147q0 141 -81.5 221t-227.5 80q-94 0 -150.5 -38.5t-56.5 -113.5q0 -63 41 -100t119 -37h25l-4 -1159h-1035v143q-45 -73 -119 -118t-174 -45q-164 0 -267 104.5t-103 282.5v792h239v-786q0 -94 48.5 -146.5t142.5 -52.5q93 0 141.5 53.5t48.5 147.5v784
h242v-960h594v833q-82 35 -125 106t-43 169q0 152 120.5 243.5t313.5 91.5q253 0 402 -136.5t149 -358.5v-1147z" />
    <glyph glyph-name="tmRI" horiz-adv-x="1810" 
d="M166 0v1159h610q-96 58 -96 174q0 141 120.5 225t299.5 84q244 0 382 -139.5t138 -365.5v-1137h-240v1137q0 138 -69.5 224.5t-208.5 86.5q-85 0 -138 -39.5t-53 -110.5q0 -63 41.5 -101t118.5 -38h119v-192h-148v-891l-284 -475h-269l312 514v852h-393v-967h-242z" />
    <glyph glyph-name="tmLI" horiz-adv-x="2594" 
d="M1454 1257q0 178 119.5 281.5t318.5 103.5q251 0 394 -136t143 -359v-1147h-240v1147q0 141 -78 221t-217 80q-96 0 -153.5 -49.5t-57.5 -141.5q0 -57 25 -131t61 -149.5t72 -155t61 -171.5t25 -175q0 -231 -115 -363t-329 -132q-188 0 -299 112.5t-111 306.5v248
q0 84 -12.5 143t-42 104.5t-83.5 68t-134 22.5q-211 0 -339 -128t-140 -335q26 72 99.5 119t172.5 47q144 0 239 -95.5t95 -252.5q0 -158 -104.5 -259t-278.5 -101q-198 0 -318 140.5t-121 375.5q0 145 51 271t141.5 217t221.5 143.5t285 52.5q245 0 374 -137.5t126 -393.5
v-264q3 -100 48.5 -155.5t131.5 -55.5q104 0 155.5 84.5t51.5 216.5q0 76 -24.5 159t-59.5 157l-70 148t-59.5 157.5t-24.5 160.5zM707 338q0 75 -45.5 119.5t-118.5 44.5t-117.5 -44t-44.5 -120q0 -74 44.5 -118t117.5 -44t118.5 44t45.5 118z" />
    <glyph glyph-name="tmVI" horiz-adv-x="2676" 
d="M2511 0h-240v1147q0 141 -81.5 221t-227.5 80q-94 0 -150.5 -38.5t-56.5 -113.5q0 -63 41 -100t117 -37h26v-1159h-870v162q125 174 125 395q0 191 -113.5 309.5t-328.5 118.5q-107 0 -191.5 -36.5t-137.5 -99.5t-80.5 -145.5t-27.5 -177.5q28 70 104.5 116t172.5 46
q144 0 239 -95.5t95 -252.5t-105 -258.5t-278 -101.5q-201 0 -326 151.5t-125 386.5q0 137 43.5 256.5t125.5 210t209 143t284 52.5q152 0 279 -48t213 -131.5t133 -198t46 -245.5q0 -210 -100 -362h373v835q-85 35 -129.5 106.5t-44.5 170.5q0 152 121 243.5t315 91.5
q253 0 402 -136.5t149 -358.5v-1147zM379 338q0 -74 45.5 -118t118.5 -44t117.5 44t44.5 118q0 76 -44.5 120t-117.5 44t-118.5 -44.5t-45.5 -119.5z" />
    <glyph glyph-name="tmLLLI" horiz-adv-x="2398" 
d="M1550 1063q100 -85 154.5 -216t54.5 -276q0 -275 -152.5 -424t-435.5 -149h-98v-8q0 -96 58 -139.5t200 -43.5h127v-192h-24q-117 0 -199.5 -18.5t-192.5 -69.5q-115 -51 -208.5 -75.5t-206.5 -24.5q-212 0 -385 114l2 201q194 -121 381 -121q70 0 127.5 14.5t142.5 47.5
q126 45 182 57q-120 23 -183 89t-63 161v8l-665 2v1157h242v-964h417v604q0 169 103 275t297 106h6q-37 56 -37 125q0 108 66 186t171.5 115.5t235.5 37.5q255 0 410 -143t155 -366v-1133h-239v1133q0 144 -86 229.5t-240 85.5q-120 0 -181 -45t-61 -131q0 -72 31.5 -116.5
t93.5 -92.5zM1067 793v-600h80q192 0 281.5 91.5t89.5 286.5q0 77 -16.5 148t-49.5 132t-91 97.5t-132 36.5q-162 0 -162 -192z" />
    <glyph glyph-name="tmLLI" horiz-adv-x="2664" 
d="M543 -20q-201 0 -326 151.5t-125 386.5q0 137 39.5 256.5t112.5 210t185.5 143t250.5 52.5q150 0 259.5 -67t156.5 -169v215h546q-94 59 -94 174q0 141 119.5 225t298.5 84q243 0 378.5 -139t135.5 -366v-1137h-239v1137q0 90 -26.5 157.5t-89.5 110.5t-157 43
q-83 0 -136.5 -39.5t-53.5 -110.5q0 -64 41 -101.5t118 -37.5h115v-192h-149v-967h-242v967h-340v-967h-242v596q0 103 -42 190t-129.5 143t-205.5 56q-125 0 -214 -63.5t-131 -165.5t-42 -230q28 70 104.5 116t172.5 46q144 0 239 -95.5t95 -252.5t-105 -258.5t-278 -101.5
zM379 338q0 -74 45.5 -118t118.5 -44t117.5 44t44.5 118q0 76 -44.5 120t-117.5 44t-118.5 -44.5t-45.5 -119.5z" />
    <glyph glyph-name="tmRRI" horiz-adv-x="2287" 
d="M2116 0h-240v1133q0 146 -80.5 230.5t-241.5 84.5q-105 0 -170 -45t-65 -131q0 -52 20.5 -88.5t65.5 -75.5q109 -77 162 -227t53 -346q0 -112 -10.5 -211t-35.5 -197.5t-64 -179.5t-99 -151t-137 -118t-182 -75t-230 -27q-68 0 -196 9t-185 9q-176 0 -377 -83v204
q93 39 176.5 56.5t198.5 17.5q64 0 192.5 -9t190.5 -9q92 0 167 21.5t127.5 58.5t92 93.5t63.5 119t39 143t20 157.5t5 171q0 100 -10 176.5t-34 141.5t-69.5 99.5t-111.5 34.5q-77 0 -121.5 -52.5t-44.5 -137.5v-797h-237v797q0 91 -45 140.5t-125 49.5q-79 0 -123.5 -49
t-44.5 -139v-799h-242v784q0 187 99 291.5t282 104.5q70 0 127 -19t94.5 -51.5t60.5 -69.5t35 -79q22 82 88 143t168 74q-35 53 -35 129q0 160 132.5 247.5t334.5 87.5q261 0 411.5 -142t150.5 -367v-1133z" />
    <glyph glyph-name="tmNNNI" horiz-adv-x="2983" 
d="M1434 -20q-174 0 -284 114t-110 322q0 303 205 508q-138 61 -309 61q-262 0 -436 -131.5t-193 -341.5q26 74 100 125t171 51q144 0 238.5 -95.5t94.5 -252.5q0 -158 -104.5 -259t-278.5 -101q-197 0 -316.5 129.5t-119.5 357.5q0 205 106.5 367.5t300.5 254t441 91.5
q280 0 490 -123q193 102 446 102h98q-94 59 -94 174q0 141 119.5 225t298.5 84q244 0 382 -139.5t138 -365.5v-1137h-240v1137q0 138 -69.5 224.5t-208.5 86.5q-85 0 -138 -39.5t-53 -110.5q0 -63 41.5 -101t118.5 -38h119v-192h-145v-967h-242v967h-119q-156 0 -274 -45
q101 -104 156 -235t55 -269q0 -203 -106.5 -320.5t-278.5 -117.5zM1432 174q80 0 119.5 65.5t39.5 176.5t-43.5 212t-124.5 177q-78 -74 -115.5 -176t-37.5 -213q0 -114 42 -178t120 -64zM365 338q0 -74 45 -118t116 -44q73 0 118.5 44t45.5 118q0 75 -45.5 119.5
t-118.5 44.5t-117 -44t-44 -120z" />
    <glyph glyph-name="tmSHI" horiz-adv-x="2922" 
d="M2757 0h-238v1137q0 138 -70 224.5t-211 86.5q-83 0 -135.5 -39.5t-52.5 -110.5q0 -64 39.5 -101.5t116.5 -37.5h8v-637q0 -267 -127.5 -404.5t-357.5 -137.5q-185 0 -288.5 94t-103.5 250v634h-299v-436q0 -267 -126.5 -404.5t-356.5 -137.5q-186 0 -288.5 93.5
t-102.5 250.5v835h242v-831q0 -78 42 -116t115 -38q115 0 175.5 80t60.5 268v637h1114q-94 59 -94 174q0 141 119.5 225t299.5 84q243 0 381 -139.5t138 -365.5v-1137zM1737 174q115 0 175 80.5t60 267.5v436h-393v-630q0 -78 43 -116t115 -38z" />
    <glyph glyph-name="tmJI" horiz-adv-x="2365" 
d="M1346 0q-67 0 -123.5 -23.5t-98.5 -61.5t-82 -83.5t-85 -91t-96.5 -83.5t-126.5 -61.5t-165 -23.5q-203 0 -329.5 110.5t-126.5 294.5q0 231 175 346t480 115h229q225 0 349 89.5t124 267.5q0 88 -48.5 141t-137.5 53q-94 0 -143 -75.5t-49 -204.5v-103h-238v70
q0 140 -81.5 226t-235.5 87q-93 0 -143 -40t-50 -111t49.5 -104.5t126.5 -33.5q74 0 158 23v-191q-71 -22 -180 -22q-77 0 -144 19.5t-119.5 58t-83 102.5t-30.5 146q0 152 111.5 248t293.5 96q181 0 288 -79t140 -222q20 129 98 207.5t201 91.5q-32 56 -32 131
q0 146 119.5 239.5t324.5 93.5q253 0 394 -139t141 -364v-1139h-240v1137q0 146 -73.5 228.5t-219.5 82.5q-98 0 -160.5 -44t-62.5 -126q0 -95 78 -150q90 -51 138 -138.5t48 -198.5q0 -130 -52.5 -235.5t-143 -172.5t-208.5 -103t-251 -36h-236q-225 0 -344 -63t-119 -206
q0 -98 61 -154.5t158 -56.5q56 0 106.5 24t91.5 62t82.5 84t89.5 91.5t102 83.5t129.5 62t164.5 24q168 0 274.5 -87t106.5 -231q0 -149 -97.5 -231t-264.5 -82q-102 0 -170 24v187q82 -21 147 -21q170 0 170 127q0 57 -43.5 88t-115.5 31z" />
    <glyph glyph-name="tmSSI" horiz-adv-x="3164" 
d="M2587 0h-174v-401h-234v401h-1098v162q53 78 86 182.5t33 210.5q0 191 -113.5 310.5t-328.5 119.5q-107 0 -191.5 -36.5t-137 -99.5t-80 -145.5t-27.5 -177.5q29 70 105 116t173 46q144 0 239 -95.5t95 -252.5t-106 -258.5t-279 -101.5q-133 0 -235.5 69.5t-158.5 191.5
t-57 277q0 137 43.5 256.5t125.5 210t209.5 143t285.5 52.5q151 0 278 -48t212.5 -131.5t133 -198.5t46.5 -247q0 -206 -99 -360h436q-184 109 -184 340q0 202 126 332t335 130h10q-49 90 -49 205q0 196 133 318t350 122q126 0 224 -37.5t159.5 -105.5t93 -158.5
t31.5 -199.5v-1141h-239v1141q0 307 -267 307q-120 0 -187 -69t-67 -187q0 -182 107 -322q68 -89 68 -219v-456h174v-195zM2165 195h16v464q0 148 -137 148q-103 0 -162 -79.5t-59 -195.5q0 -158 90 -247.5t252 -89.5zM385 338q0 -74 46 -118t118 -44q74 0 118 43.5
t44 118.5q0 76 -44.5 120t-117.5 44t-118.5 -44.5t-45.5 -119.5z" />
    <glyph glyph-name="tmSI" horiz-adv-x="3170" 
d="M102 518q0 188 71 336t214.5 237t339.5 89q158 0 274.5 -68.5t176.5 -189.5q33 120 121 189t217 69q171 0 273.5 -108.5t102.5 -287.5v-399q3 -100 49.5 -155.5t131.5 -55.5q109 0 158.5 81t49.5 210q0 80 -26 159.5t-63.5 147t-74.5 137.5t-63 157t-26 179
q0 183 122.5 290t323.5 107q246 0 385 -137t139 -358v-1147h-239v1147q0 139 -74 220t-209 81q-99 0 -159 -53.5t-60 -151.5q0 -67 27 -143.5t65 -148t76 -146.5t65 -164.5t27 -175.5q0 -230 -115 -357.5t-331 -127.5q-188 0 -299 112.5t-111 306.5v400q0 90 -43.5 139
t-122.5 49q-77 0 -124.5 -49t-47.5 -139v-799h-242l2 639q0 154 -92.5 250t-263.5 96q-96 0 -173.5 -37t-126.5 -101t-75 -146t-26 -175q29 70 105 116t173 46q144 0 239 -95.5t95 -252.5t-106 -258.5t-279 -101.5q-133 0 -235.5 69.5t-158.5 191.5t-57 277zM389 338
q0 -74 46 -118t118 -44q73 0 118.5 44t45.5 118q0 75 -45.5 119.5t-118.5 44.5q-72 0 -118 -44.5t-46 -119.5z" />
    <glyph glyph-name="tmHI" horiz-adv-x="3817" 
d="M92 518q0 137 43.5 256.5t125.5 210t209 143t284 52.5q152 0 279 -48t213 -131.5t133 -198t46 -245.5q0 -210 -100 -362h375v589q0 187 99 291.5t282 104.5q135 0 214.5 -64t102.5 -155q22 82 88 143t168 74q-35 53 -35 129q0 108 63.5 185t167 113.5t234.5 36.5
q261 0 414.5 -145.5t153.5 -370.5v-1126h-240v1126q0 147 -83 234.5t-245 87.5q-104 0 -168.5 -45t-64.5 -131q0 -90 80 -158q111 -75 166 -227.5t55 -351.5q0 -173 -29.5 -318.5t-97 -269t-169.5 -209.5t-253 -134t-342 -48q-376 0 -875 19t-862 19q-283 0 -479 -83v204
q174 74 477 74q371 0 870.5 -19.5t868.5 -19.5q145 0 256.5 37.5t185 104t120 166t66 216t19.5 261.5q0 100 -10 176.5t-34 141.5t-69.5 99.5t-111.5 34.5q-77 0 -120.5 -52.5t-43.5 -137.5v-797h-240v797q0 91 -45 140.5t-125 49.5q-79 0 -123 -49t-44 -139v-799h-873v162
q125 174 125 395q0 191 -113.5 309.5t-328.5 118.5q-107 0 -191.5 -36.5t-137.5 -99.5t-80.5 -145.5t-27.5 -177.5q28 70 104.5 116t172.5 46q144 0 239 -95.5t95 -252.5t-105 -258.5t-278 -101.5q-201 0 -326 151.5t-125 386.5zM379 338q0 -74 45.5 -118t118.5 -44
t117.5 44t44.5 118q0 76 -44.5 120t-117.5 44t-118.5 -44.5t-45.5 -119.5z" />
    <glyph glyph-name="tmKSSI" horiz-adv-x="4362" 
d="M3787 0h-176v-401h-232v401h-1098v162h-2q54 77 86.5 183t32.5 214q0 191 -113.5 308.5t-328.5 117.5q-160 0 -261.5 -75t-140.5 -210h164q115 0 207 -38.5t149.5 -120.5t57.5 -197q0 -158 -104 -261t-279 -103q-205 0 -327 146t-124 382h-229v-19q0 -112 -33.5 -206
t-99.5 -165t-172 -111t-242 -40q-209 0 -326.5 98.5t-117.5 268.5q0 116 52 204t165 128v493h977v-192h-203v-267h252q52 215 216.5 347.5t420.5 132.5q152 0 279.5 -47.5t213.5 -130.5t133 -197.5t46 -245.5q0 -205 -97 -364h435q-185 110 -185 340q0 202 126.5 332
t336.5 130h16q-57 93 -57 209q0 194 137 315t351 121q241 0 372 -140.5t131 -360.5v-1141h-239v1141q0 139 -66.5 223t-200.5 84q-119 0 -186 -70t-67 -190q0 -165 106 -318q68 -89 68 -219v-456h176v-195zM3365 195h14v464q0 71 -33.5 109.5t-101.5 38.5q-103 0 -162 -79.5
t-59 -195.5q0 -158 89.5 -247.5t252.5 -89.5zM532 967v-267h299v267h-299zM1749 176q74 0 117 46.5t43 121.5q0 80 -56.5 121t-154.5 43h-170q0 -148 57 -240t164 -92zM524 164q85 0 146 25t95.5 70.5t50 102t15.5 127.5v19h-315q-95 0 -149 -43.5t-54 -130.5
q0 -83 57.5 -126.5t153.5 -43.5z" />
    <glyph glyph-name="tmKII" horiz-adv-x="1691" 
d="M535 967v-267h301v267h-301zM528 164q84 0 145 25t96 70.5t51 102t16 127.5v19h-316q-95 0 -149 -43.5t-54 -130.5q0 -83 57.5 -126.5t153.5 -43.5zM1159 700q206 0 321 -98t115 -262q0 -171 -99.5 -268t-276.5 -97q-49 0 -117 9v192q27 -4 67 -4q191 0 191 170
q0 86 -49 126t-154 40h-84v-19q0 -113 -31.5 -206.5t-96 -165t-171.5 -111t-248 -39.5q-209 0 -326.5 98.5t-117.5 268.5q0 116 52 204t165 128v493h530q-165 87 -165 275q0 191 148.5 309.5t375.5 118.5q171 0 273 -82.5t102 -218.5q0 -116 -77 -188.5t-208 -72.5
q-129 0 -207 80t-78 195q0 31 6 65q-127 -77 -127 -233q0 -118 78 -183t207 -65h119v-192h-203v-267h86zM1376 1563q0 58 -48 92.5t-140 34.5q-23 0 -35 -2q-2 -14 -2 -48q0 -84 34 -129t95 -45q44 0 70 27t26 70z" />
    <glyph glyph-name="tmNGII" horiz-adv-x="2244" 
d="M2081 1466q44 0 70 27t26 70q0 58 -47.5 92.5t-138.5 34.5q-25 0 -35 -2q-4 -28 -4 -48q0 -84 34 -129t95 -45zM977 967v-320q31 77 103.5 123.5t162.5 46.5q146 0 236 -88t90 -225q0 -213 -176 -309h391v806q-154 39 -238 149.5t-84 268.5q0 199 149.5 321t377.5 122
q171 0 272.5 -82.5t101.5 -218.5q0 -116 -76 -188.5t-206 -72.5t-208.5 80t-78.5 195q0 31 6 65q-127 -77 -127 -225q0 -123 82 -189.5t203 -66.5h67v-1157h-163l-1123 -2v195h310q141 0 216.5 66t75.5 185q0 80 -49.5 129.5t-130.5 49.5q-92 0 -138 -56.5t-46 -136.5v-26
h-238v561h-333v-967h-240v1159h1030v-192h-219z" />
    <glyph glyph-name="tmCII" horiz-adv-x="1548" 
d="M1423 700v-192h-350v-19q0 -112 -33.5 -206t-99.5 -165t-172 -111t-242 -40q-209 0 -326.5 98.5t-117.5 268.5q0 116 52 204t165 128v493h522q-166 88 -166 275q0 191 149 309.5t376 118.5q171 0 272.5 -82.5t101.5 -218.5q0 -116 -76.5 -188.5t-207.5 -72.5
q-129 0 -207 80t-78 195q0 31 6 65q-127 -77 -127 -233q0 -118 78 -183t207 -65h127v-192h-203v-267h350zM535 967v-267h301v267h-301zM528 164q84 0 145 25t96 70.5t51 102t16 127.5v19h-316q-95 0 -149 -43.5t-54 -130.5q0 -83 57.5 -126.5t153.5 -43.5zM1368 1563
q0 58 -48 92.5t-140 34.5q-23 0 -35 -2q-2 -14 -2 -48q0 -84 34 -129t95 -45q44 0 70 27t26 70z" />
    <glyph glyph-name="tmNYII" horiz-adv-x="2594" 
d="M2130 756q160 0 261 -127.5t101 -317.5t-85.5 -348t-238 -265.5t-366 -166.5t-465.5 -59q-266 0 -488.5 63.5t-386.5 185t-255.5 310t-91.5 426.5q0 201 62 386.5t157 315.5h258q-236 -324 -236 -702q0 -159 49.5 -290t138 -223t212 -155.5t269.5 -93t312 -29.5
q265 0 469 74t322.5 220.5t118.5 346.5q0 115 -53.5 180.5t-141.5 65.5q-93 0 -149 -68t-56 -184v-301h-235v967h-238q-253 0 -386.5 -108t-151.5 -314q32 64 102 103.5t162 39.5q146 0 248 -95t102 -253t-105.5 -259t-281.5 -101q-208 0 -329.5 138.5t-121.5 370.5
q0 321 200.5 495.5t557.5 174.5h229q-165 87 -165 275q0 191 148.5 309.5t375.5 118.5q171 0 273 -82.5t102 -218.5q0 -116 -77 -188.5t-208 -72.5q-129 0 -207 80t-78 195q0 31 6 65q-127 -77 -127 -233q0 -118 78 -183t207 -65h125v-192h-205v-389q37 74 109.5 126
t173.5 52zM885 338q0 -75 47.5 -119.5t124.5 -44.5t124.5 44.5t47.5 119.5q0 76 -47.5 120t-124.5 44t-124.5 -44t-47.5 -120zM2146 1563q0 58 -48 92.5t-140 34.5q-23 0 -35 -2q-2 -14 -2 -48q0 -84 34 -129t95 -45q44 0 70 27t26 70z" />
    <glyph glyph-name="tmTTII" horiz-adv-x="1656" 
d="M1378 870q0 61 -49 93t-133 32q-70 0 -125 -18q-2 -10 -2 -27q0 -88 47.5 -146.5t132.5 -58.5q60 0 94.5 35.5t34.5 89.5zM1624 0h-1458v1159h242v-958h475q-119 73 -182.5 191t-63.5 274q0 121 45 220t121.5 162.5t177 97.5t213.5 34q170 0 275.5 -88.5t105.5 -225.5
q0 -129 -84 -216t-227 -87q-81 0 -147 27t-107 72.5t-63.5 99.5t-24.5 112q-74 -93 -74 -223q0 -195 138 -322.5t360 -127.5h278v-201z" />
    <glyph glyph-name="tmNNII" horiz-adv-x="3516" 
d="M528 -20q-197 0 -316.5 129.5t-119.5 357.5q0 154 61.5 286t171 226t267.5 147.5t344 53.5q275 0 491 -123q203 123 461 123t469 -127q204 106 469 106h78q-166 88 -166 275q0 191 148.5 309.5t375.5 118.5q171 0 273 -82.5t102 -218.5q0 -116 -76.5 -188.5t-207.5 -72.5
q-129 0 -207 80t-78 195q0 31 6 65q-127 -77 -127 -233q0 -118 78 -183t207 -65h139v-192h-205v-967h-241v967h-91q-173 0 -305 -52q101 -102 156 -229.5t55 -263.5q0 -207 -110 -324.5t-279 -117.5q-167 0 -278 116.5t-111 323.5q0 297 213 504q-135 61 -289 61
q-153 0 -284 -61q104 -102 160.5 -233.5t56.5 -272.5q0 -206 -108.5 -322t-278.5 -116q-171 0 -281.5 117t-110.5 323q0 137 55 266.5t156 233.5q-143 65 -319 65q-258 0 -424.5 -120t-196.5 -318q36 62 105 101.5t157 39.5q144 0 241 -96t97 -252q0 -158 -104.5 -259
t-278.5 -101zM2351 174q76 0 118 66.5t42 181.5q0 108 -42.5 206t-119.5 175q-81 -74 -120.5 -174.5t-39.5 -206.5q0 -116 43 -182t119 -66zM1432 174q79 0 118 65.5t39 178.5q0 107 -42 207t-120 176q-157 -160 -157 -383q0 -112 41.5 -178t120.5 -66zM365 338
q0 -74 45 -118t116 -44q73 0 118.5 44t45.5 118q0 75 -45.5 119.5t-118.5 44.5t-117 -44t-44 -120zM3451 1563q0 58 -48.5 92.5t-140.5 34.5q-22 0 -34 -2q-2 -14 -2 -48q0 -84 34 -129t95 -45q44 0 70 27t26 70z" />
    <glyph glyph-name="tmTII" horiz-adv-x="1687" 
d="M557 967v-267h307v267h-307zM535 164q90 0 155.5 25t102.5 70.5t54 102t17 127.5v19h-344q-95 0 -149 -43.5t-54 -130.5q0 -83 60 -126.5t158 -43.5zM1561 190q0 -289 -182 -454.5t-543 -165.5q-73 0 -207.5 8t-192.5 8q-210 0 -377 -80v207q151 68 377 68q75 0 204 -9.5
t196 -9.5q253 0 367 108t114 323q0 119 -53 203t-162 106v-13q0 -237 -145 -379.5t-425 -142.5q-210 0 -330 98t-120 269q0 121 56.5 211t180.5 129v485h545q-166 88 -166 275q0 191 149 309.5t376 118.5q171 0 272.5 -82.5t101.5 -218.5q0 -116 -76.5 -188.5t-207.5 -72.5
q-129 0 -207 80t-78 195q0 31 6 65q-127 -77 -127 -233q0 -118 78 -183t207 -65h113v-192h-203v-271q116 -11 205.5 -55.5t144 -114t82 -154.5t27.5 -182zM1411 1563q0 58 -48 92.5t-140 34.5q-23 0 -35 -2q-2 -14 -2 -48q0 -84 34 -129t95 -45q44 0 70 27t26 70z" />
    <glyph glyph-name="tmNII" horiz-adv-x="1744" 
d="M983 967v-404q37 74 109.5 126t173.5 52q117 0 204.5 -68t129.5 -173.5t42 -229.5q0 -328 -206 -514t-592 -186q-73 0 -206.5 8t-191.5 8q-225 0 -401 -92v207q89 44 183 62t218 18q74 0 202 -8.5t196 -8.5q274 0 413.5 128t139.5 380q0 120 -52 193.5t-157 73.5
q-94 0 -149.5 -67.5t-55.5 -184.5v-287h-242v967h-338v-967h-241v1159h592q-166 88 -166 275q0 191 148.5 309.5t375.5 118.5q171 0 273 -82.5t102 -218.5q0 -116 -77 -188.5t-208 -72.5q-129 0 -206.5 80t-77.5 195q0 31 6 65q-127 -77 -127 -233q0 -118 77.5 -183
t206.5 -65h109v-192h-207zM1300 1563q0 58 -48 92.5t-140 34.5q-23 0 -35 -2q-2 -14 -2 -48q0 -84 34 -129t95 -45q44 0 70 27t26 70z" />
    <glyph glyph-name="tmPII" horiz-adv-x="1777" 
d="M1696 1563q0 58 -47.5 92.5t-139.5 34.5q-22 0 -34 -2q-5 -35 -5 -48q0 -83 34.5 -128.5t94.5 -45.5q44 0 70.5 27t26.5 70zM1548 0h-1382v1159h246v-960h891v802q-154 39 -238 149.5t-84 268.5q0 199 150 321t378 122q171 0 272 -82.5t101 -218.5q0 -116 -76.5 -188.5
t-206.5 -72.5q-129 0 -207.5 80t-78.5 195q0 31 6 65q-127 -77 -127 -225q0 -123 82 -189.5t205 -66.5h69v-1159z" />
    <glyph glyph-name="tmMII" horiz-adv-x="1916" 
d="M1753 1466q44 0 70 27t26 70q0 58 -47 92.5t-139 34.5q-23 0 -35 -2q-4 -28 -4 -48q0 -84 34 -129t95 -45zM1171 -2l-1005 2v1157h242v-964h417v604q0 169 103 275t297 106h12q-102 105 -102 247q0 132 69.5 232t188 152.5t268.5 52.5q171 0 273 -82.5t102 -218.5
q0 -116 -76.5 -188.5t-206.5 -72.5q-129 0 -208 80t-79 195q0 23 7 63q-127 -83 -127 -237q0 -104 46 -183.5t124 -127.5q116 -81 179.5 -221t63.5 -298q0 -275 -152.5 -424t-435.5 -149zM1067 793v-600h80q192 0 281.5 91.5t89.5 286.5q0 77 -16.5 148t-49.5 132t-91 97.5
t-132 36.5q-162 0 -162 -192z" />
    <glyph glyph-name="tmYII" horiz-adv-x="2097" 
d="M2015 1563q0 58 -47.5 92.5t-138.5 34.5q-25 0 -35 -2q-4 -28 -4 -48q0 -84 34 -129t95 -45q44 0 70 27t26 70zM1858 0h-1035v143q-45 -73 -119 -118t-174 -45q-164 0 -267 104.5t-103 282.5v792h239v-786q0 -94 48.5 -146.5t142.5 -52.5q93 0 141.5 53.5t48.5 147.5v784
h242v-960h594v805q-151 39 -233.5 149t-82.5 266q0 199 149.5 321t377.5 122q171 0 273 -82.5t102 -218.5q0 -116 -76.5 -188.5t-206.5 -72.5t-208.5 80t-78.5 195q0 31 6 65q-127 -77 -127 -225q0 -123 82 -189.5t203 -66.5h66z" />
    <glyph glyph-name="tmRII" horiz-adv-x="1425" 
d="M166 0v1159h629q-166 88 -166 275q0 191 148.5 309.5t375.5 118.5q171 0 273 -82.5t102 -218.5q0 -116 -77 -188.5t-208 -72.5q-129 0 -207 80t-78 195q0 25 7 65q-127 -77 -127 -233q0 -118 77.5 -183t206.5 -65h123v-192h-203v-891l-284 -475h-269l312 514v852h-393
v-967h-242zM1341 1563q0 58 -48 92.5t-140 34.5q-23 0 -35 -2q-2 -14 -2 -48q0 -84 34 -129t95 -45q44 0 70 27t26 70z" />
    <glyph glyph-name="tmLII" horiz-adv-x="2148" 
d="M379 338q0 -74 45.5 -118t118.5 -44t117.5 44t44.5 118q0 76 -44.5 120t-117.5 44t-118.5 -44.5t-45.5 -119.5zM2015 1466q44 0 69 26t25 71q0 57 -47.5 92t-138.5 35q-23 0 -35 -2q-2 -14 -2 -50q0 -84 34 -128t95 -44zM1692 469q0 82 -33 177t-79.5 184t-93 180
t-79.5 194t-33 197q0 144 73.5 250t194.5 158.5t273 52.5q172 0 276.5 -83t104.5 -218q0 -116 -76 -189.5t-207 -73.5q-129 0 -208 80t-79 195q0 37 9 74q-127 -76 -127 -244q0 -70 33 -162.5t80 -185.5t94.5 -189t80.5 -202t33 -195q0 -230 -115.5 -359.5t-328.5 -129.5
q-187 0 -299.5 112.5t-112.5 306.5l2 217q0 174 -82.5 271.5t-255.5 97.5q-101 0 -183 -37t-133.5 -101t-78.5 -146t-27 -175q28 70 104.5 116t172.5 46q144 0 239 -95.5t95 -252.5t-105 -258.5t-278 -101.5q-201 0 -326 151.5t-125 386.5q0 140 43 260t123.5 210t204.5 141
t278 51q267 0 417.5 -150t148.5 -412v-233q2 -99 48.5 -155t131.5 -56q73 0 120.5 42t66 105.5t18.5 147.5z" />
    <glyph glyph-name="tmVII" horiz-adv-x="2179" 
d="M2093 1563q0 58 -47.5 92.5t-138.5 34.5q-25 0 -35 -2q-4 -28 -4 -48q0 -84 34 -129t95 -45q44 0 70 27t26 70zM92 518q0 137 43.5 256.5t125.5 210t209 143t284 52.5q152 0 279 -48t213 -131.5t133 -198t46 -245.5q0 -210 -100 -362h373v806q-154 39 -237 149.5
t-83 268.5q0 199 149.5 321t377.5 122q171 0 272.5 -82.5t101.5 -218.5q0 -116 -76 -188.5t-206 -72.5t-208.5 80t-78.5 195q0 31 6 65q-127 -77 -127 -225q0 -123 82 -189.5t203 -66.5h65v-1159h-870v162q125 174 125 395q0 191 -113.5 309.5t-328.5 118.5
q-107 0 -191.5 -36.5t-137.5 -99.5t-80.5 -145.5t-27.5 -177.5q28 70 104.5 116t172.5 46q144 0 239 -95.5t95 -252.5t-105 -258.5t-278 -101.5q-201 0 -326 151.5t-125 386.5zM379 338q0 -74 45.5 -118t118.5 -44t117.5 44t44.5 118q0 76 -44.5 120t-117.5 44t-118.5 -44.5
t-45.5 -119.5z" />
    <glyph glyph-name="tmLLLII" horiz-adv-x="1939" 
d="M1759 1466q44 0 70 27t26 70q0 58 -47 92.5t-139 34.5q-23 0 -35 -2q-4 -28 -4 -48q0 -84 34 -129t95 -45zM242 -459l2 201q194 -121 381 -121q70 0 127.5 14.5t142.5 47.5q126 45 182 57q-120 23 -183 89t-63 161v8l-665 2v1157h242v-964h417v604q0 169 103 275t297 106
h16q-100 107 -100 247q0 132 69.5 232t188 152.5t268.5 52.5q171 0 273 -82.5t102 -218.5q0 -116 -76.5 -188.5t-206.5 -72.5q-129 0 -207.5 80t-78.5 195q0 29 6 63q-127 -83 -127 -237q0 -105 45.5 -185.5t122.5 -128.5h-2q116 -83 178.5 -220.5t62.5 -295.5
q0 -275 -152.5 -424t-435.5 -149h-98v-8q0 -96 58 -139.5t200 -43.5h127v-192h-24q-117 0 -199.5 -18.5t-192.5 -69.5q-115 -51 -208.5 -75.5t-206.5 -24.5q-212 0 -385 114zM1067 793v-600h80q192 0 281.5 91.5t89.5 286.5q0 77 -16.5 148t-49.5 132t-91 97.5t-132 36.5
q-162 0 -162 -192z" />
    <glyph glyph-name="tmLLII" horiz-adv-x="2289" 
d="M543 -20q-201 0 -326 151.5t-125 386.5q0 137 39.5 256.5t112.5 210t185.5 143t250.5 52.5q150 0 259.5 -67t156.5 -169v215h563q-166 88 -166 275q0 191 148.5 309.5t375.5 118.5q171 0 273 -82.5t102 -218.5q0 -116 -77 -188.5t-208 -72.5q-129 0 -206.5 80t-77.5 195
q0 31 6 65q-127 -77 -127 -233q0 -118 78 -183t207 -65h120v-192h-204v-967h-242v967h-340v-967h-242v596q0 103 -42 190t-129.5 143t-205.5 56q-125 0 -214 -63.5t-131 -165.5t-42 -230q28 70 104.5 116t172.5 46q144 0 239 -95.5t95 -252.5t-105 -258.5t-278 -101.5z
M379 338q0 -74 45.5 -118t118.5 -44t117.5 44t44.5 118q0 76 -44.5 120t-117.5 44t-118.5 -44.5t-45.5 -119.5zM2206 1563q0 58 -48.5 92.5t-140.5 34.5q-23 0 -35 -2q-2 -14 -2 -48q0 -84 34 -129t95 -45q44 0 70.5 27t26.5 70z" />
    <glyph glyph-name="tmRRII" horiz-adv-x="1824" 
d="M1769 1563q0 58 -47 92.5t-139 34.5q-23 0 -35 -2q-4 -28 -4 -48q0 -84 34 -129t95 -45q44 0 70 27t26 70zM104 -489v204q93 39 176.5 56.5t198.5 17.5q64 0 192.5 -9t190.5 -9q92 0 167 21.5t127.5 58.5t92 93.5t63.5 119t39 143t20 157.5t5 171q0 100 -10 176.5
t-34 141.5t-69.5 99.5t-111.5 34.5q-77 0 -121.5 -52.5t-44.5 -137.5v-797h-237v797q0 91 -45 140.5t-125 49.5q-79 0 -123.5 -49t-44.5 -139v-799h-242v784q0 187 99 291.5t282 104.5q70 0 127 -19t94.5 -51.5t60.5 -69.5t35 -79q24 88 98.5 151.5t190.5 67.5
q-100 103 -100 245q0 132 69.5 232t188 152.5t268.5 52.5q171 0 273 -82.5t102 -218.5q0 -116 -76.5 -188.5t-206.5 -72.5t-208.5 80t-78.5 195q0 23 7 63q-127 -83 -127 -237q0 -100 45.5 -174.5t122.5 -139.5q94 -82 140 -225.5t46 -326.5q0 -112 -10.5 -211t-35.5 -197.5
t-64 -179.5t-99 -151t-137 -118t-182 -75t-230 -27q-68 0 -196 9t-185 9q-176 0 -377 -83z" />
    <glyph glyph-name="tmNNNII" horiz-adv-x="2635" 
d="M1434 -20q-174 0 -284 114t-110 322q0 303 205 508q-138 61 -309 61q-262 0 -436 -131.5t-193 -341.5q26 74 100 125t171 51q144 0 238.5 -95.5t94.5 -252.5q0 -158 -104.5 -259t-278.5 -101q-197 0 -316.5 129.5t-119.5 357.5q0 205 106.5 367.5t300.5 254t441 91.5
q280 0 490 -123q193 102 446 102h127q-166 88 -166 275q0 191 148.5 309.5t375.5 118.5q171 0 273 -82.5t102 -218.5q0 -116 -77 -188.5t-208 -72.5q-129 0 -206.5 80t-77.5 195q0 31 6 65q-127 -77 -127 -233q0 -118 78 -183t207 -65h116v-192h-204v-967h-242v967h-119
q-156 0 -274 -45q101 -104 156 -235t55 -269q0 -203 -106.5 -320.5t-278.5 -117.5zM1432 174q80 0 119.5 65.5t39.5 176.5t-43.5 212t-124.5 177q-78 -74 -115.5 -176t-37.5 -213q0 -114 42 -178t120 -64zM365 338q0 -74 45 -118t116 -44q73 0 118.5 44t45.5 118
q0 75 -45.5 119.5t-118.5 44.5t-117 -44t-44 -120zM2550 1563q0 58 -48.5 92.5t-140.5 34.5q-22 0 -34 -2q-3 -21 -3 -48q0 -84 34.5 -129t95.5 -45q44 0 70 27t26 70z" />
    <glyph glyph-name="tmSHII" horiz-adv-x="2512" 
d="M1737 174q115 0 175 80.5t60 267.5v436h-393v-630q0 -78 43 -116t115 -38zM2214 1159v-637q0 -267 -127.5 -404.5t-357.5 -137.5q-185 0 -288.5 94t-103.5 250v634h-299v-436q0 -267 -126.5 -404.5t-356.5 -137.5q-186 0 -288.5 93.5t-102.5 250.5v835h242v-831
q0 -78 42 -116t115 -38q115 0 175.5 80t60.5 268v637h1081q-166 88 -166 275q0 191 148.5 309.5t375.5 118.5q171 0 273 -82.5t102 -218.5q0 -116 -76.5 -188.5t-207.5 -72.5q-129 0 -207 80t-78 195q0 31 6 65q-127 -77 -127 -233q0 -118 78 -183t207 -65h6zM2427 1563
q0 58 -48.5 92.5t-140.5 34.5q-22 0 -34 -2q-2 -14 -2 -48q0 -84 34 -129t95 -45q44 0 70 27t26 70z" />
    <glyph glyph-name="tmJII" horiz-adv-x="1861" 
d="M1726 1466q44 0 70.5 27t26.5 70q0 58 -47.5 92.5t-139.5 34.5q-22 0 -34 -2q-5 -35 -5 -48q0 -84 34 -129t95 -45zM1346 0q-67 0 -123.5 -23.5t-98.5 -61.5t-82 -83.5t-85 -91t-96.5 -83.5t-126.5 -61.5t-165 -23.5q-203 0 -329.5 110.5t-126.5 294.5q0 231 175 346
t480 115h229q225 0 349 89.5t124 267.5q0 88 -48.5 141t-137.5 53q-94 0 -143 -75.5t-49 -204.5v-103h-238v70q0 140 -81.5 226t-235.5 87q-93 0 -143 -40t-50 -111t49.5 -104.5t126.5 -33.5q74 0 158 23v-191q-71 -22 -180 -22q-77 0 -144 19.5t-119.5 58t-83 102.5
t-30.5 146q0 152 111.5 248t293.5 96q181 0 288 -79t140 -222q19 121 89.5 197t181.5 98q-117 102 -117 251q0 132 69.5 232t188 152.5t268.5 52.5q171 0 273 -82.5t102 -218.5q0 -116 -76.5 -188.5t-206.5 -72.5t-208 80t-78 195q0 29 6 63q-127 -83 -127 -237
q0 -93 50 -160t128 -100q101 -45 156 -138t55 -212q0 -130 -52.5 -235.5t-143 -172.5t-208.5 -103t-251 -36h-236q-225 0 -344 -63t-119 -206q0 -98 61 -154.5t158 -56.5q56 0 106.5 24t91.5 62t82.5 84t89.5 91.5t102 83.5t129.5 62t164.5 24q168 0 274.5 -87t106.5 -231
q0 -149 -97.5 -231t-264.5 -82q-102 0 -170 24v187q82 -21 147 -21q170 0 170 127q0 57 -43.5 88t-115.5 31z" />
    <glyph glyph-name="tmSSII" horiz-adv-x="2674" 
d="M2603 1513q0 57 -47.5 92t-138.5 35q-23 0 -35 -2q-4 -28 -4 -49q0 -84 34 -128t95 -44q44 0 70 26t26 70zM2628 0h-215v-401h-234v401h-1098v162q53 78 86 182.5t33 210.5q0 191 -113.5 310.5t-328.5 119.5q-107 0 -191.5 -36.5t-137 -99.5t-80 -145.5t-27.5 -177.5
q29 70 105 116t173 46q144 0 239 -95.5t95 -252.5t-106 -258.5t-279 -101.5q-133 0 -235.5 69.5t-158.5 191.5t-57 277q0 137 43.5 256.5t125.5 210t209.5 143t285.5 52.5q151 0 278 -48t212.5 -131.5t133 -198.5t46.5 -247q0 -206 -99 -360h436q-184 109 -184 340
q0 200 124.5 331t324.5 131q-146 150 -146 357q0 202 147.5 330t379.5 128q171 0 272.5 -82.5t101.5 -218.5q0 -116 -76 -189t-206 -73q-129 0 -208 80t-79 195q0 31 6 61q-61 -42 -94 -108t-33 -148q0 -122 56 -225t161 -201q97 -97 97 -252v-456h215v-195zM2165 195h16
v464q0 148 -137 148q-103 0 -162 -79.5t-59 -195.5q0 -158 90 -247.5t252 -89.5zM385 338q0 -74 46 -118t118 -44q74 0 118 43.5t44 118.5q0 76 -44.5 120t-117.5 44t-118.5 -44.5t-45.5 -119.5z" />
    <glyph glyph-name="tmSII" horiz-adv-x="2715" 
d="M102 518q0 188 71 336t214.5 237t339.5 89q158 0 274.5 -68.5t176.5 -189.5q33 120 121 189t217 69q171 0 273.5 -108.5t102.5 -287.5v-399q3 -101 47.5 -156t128.5 -55q73 0 120.5 42t66 105.5t18.5 147.5q0 82 -32.5 177t-79.5 184t-93.5 180t-79 194t-32.5 197
q0 144 73.5 250t194.5 158.5t273 52.5q171 0 275.5 -83t104.5 -218q0 -116 -76 -189.5t-206 -73.5q-129 0 -208 80t-79 195q0 41 8 74q-129 -75 -129 -244q0 -70 33 -162.5t80.5 -185.5t95 -189t80.5 -202t33 -195q0 -230 -115 -359.5t-328 -129.5q-187 0 -296 112.5
t-109 306.5v400q0 90 -43.5 139t-122.5 49q-77 0 -124.5 -49t-47.5 -139v-799h-242l2 639q0 154 -92.5 250t-263.5 96q-96 0 -173.5 -37t-126.5 -101t-75 -146t-26 -175q29 70 105 116t173 46q144 0 239 -95.5t95 -252.5t-106 -258.5t-279 -101.5q-133 0 -235.5 69.5
t-158.5 191.5t-57 277zM389 338q0 -74 46 -118t118 -44q73 0 118.5 44t45.5 118q0 75 -45.5 119.5t-118.5 44.5q-72 0 -118 -44.5t-46 -119.5zM2597 1466q44 0 69 26t25 71q0 57 -47.5 92t-138.5 35q-23 0 -35 -2q-2 -14 -2 -50q0 -84 34 -128t95 -44z" />
    <glyph glyph-name="tmHII" horiz-adv-x="3340" 
d="M3203 1466q45 0 70.5 26.5t25.5 70.5q0 58 -47 92.5t-139 34.5q-23 0 -35 -2q-4 -28 -4 -48q0 -83 34.5 -128.5t94.5 -45.5zM92 518q0 137 43.5 256.5t125.5 210t209 143t284 52.5q152 0 279 -48t213 -131.5t133 -198t46 -245.5q0 -210 -100 -362h375v589q0 187 99 291.5
t282 104.5q135 0 214.5 -64t102.5 -155q24 88 98 151.5t189 67.5q-98 105 -98 245q0 132 69.5 232t188 152.5t268.5 52.5q171 0 272 -82.5t101 -218.5q0 -116 -76.5 -188.5t-206.5 -72.5q-129 0 -208 80t-79 195q0 33 6 63q-59 -37 -92.5 -98.5t-33.5 -138.5
q0 -163 151 -299q104 -79 154.5 -227t50.5 -340q0 -173 -29.5 -318.5t-97 -269t-169.5 -209.5t-253 -134t-342 -48q-376 0 -875 19t-862 19q-283 0 -479 -83v204q174 74 477 74q371 0 870.5 -19.5t868.5 -19.5q145 0 256.5 37.5t185 104t120 166t66 216t19.5 261.5
q0 100 -10 176.5t-34 141.5t-69.5 99.5t-111.5 34.5q-77 0 -120.5 -52.5t-43.5 -137.5v-797h-240v797q0 91 -45 140.5t-125 49.5q-79 0 -123 -49t-44 -139v-799h-873v162q125 174 125 395q0 191 -113.5 309.5t-328.5 118.5q-107 0 -191.5 -36.5t-137.5 -99.5t-80.5 -145.5
t-27.5 -177.5q28 70 104.5 116t172.5 46q144 0 239 -95.5t95 -252.5t-105 -258.5t-278 -101.5q-201 0 -326 151.5t-125 386.5zM379 338q0 -74 45.5 -118t118.5 -44t117.5 44t44.5 118q0 76 -44.5 120t-117.5 44t-118.5 -44.5t-45.5 -119.5z" />
    <glyph glyph-name="tmKSSII" horiz-adv-x="3874" 
d="M3707 1417q44 0 70 26t26 70q0 57 -48 92t-140 35q-23 0 -35 -2q-2 -14 -2 -49q0 -84 34 -128t95 -44zM3828 0h-217v-401h-232v401h-1098v162h-2q54 77 86.5 183t32.5 214q0 191 -113.5 308.5t-328.5 117.5q-160 0 -261.5 -75t-140.5 -210h164q115 0 207 -38.5
t149.5 -120.5t57.5 -197q0 -158 -104 -261t-279 -103q-205 0 -327 146t-124 382h-229v-19q0 -112 -33.5 -206t-99.5 -165t-172 -111t-242 -40q-209 0 -326.5 98.5t-117.5 268.5q0 116 52 204t165 128v493h977v-192h-203v-267h252q52 215 216.5 347.5t420.5 132.5
q152 0 279.5 -47.5t213.5 -130.5t133 -197.5t46 -245.5q0 -205 -97 -364h435q-185 110 -185 340q0 201 124.5 331.5t326.5 130.5q-146 150 -146 357q0 203 147 330.5t380 127.5q171 0 273 -82.5t102 -218.5q0 -116 -76.5 -189t-206.5 -73t-208.5 80t-78.5 195q0 31 6 61
q-60 -40 -93.5 -106.5t-33.5 -149.5q0 -122 56 -224.5t159 -201.5q97 -97 97 -252v-456h217v-195zM3365 195h14v464q0 71 -33.5 109.5t-101.5 38.5q-103 0 -162 -79.5t-59 -195.5q0 -158 89.5 -247.5t252.5 -89.5zM532 967v-267h299v267h-299zM1749 176q74 0 117 46.5
t43 121.5q0 80 -56.5 121t-154.5 43h-170q0 -148 57 -240t164 -92zM524 164q85 0 146 25t95.5 70.5t50 102t15.5 127.5v19h-315q-95 0 -149 -43.5t-54 -130.5q0 -83 57.5 -126.5t153.5 -43.5z" />
    <glyph glyph-name="tmKU" horiz-adv-x="2291" 
d="M1229 -510q-247 0 -450 65t-349 188t-226.5 309.5t-80.5 420.5q0 194 61 372.5t156 313.5h260q-235 -328 -235 -686q0 -194 64.5 -345.5t180.5 -247.5t273 -145.5t346 -49.5q335 0 521.5 137t186.5 385q0 118 -55.5 197.5t-165.5 97.5v-13q0 -237 -144.5 -379.5
t-424.5 -142.5q-210 0 -330.5 98t-120.5 269q0 123 59 213.5t187 128.5v483h977v-192h-203v-269q116 -9 206 -51.5t146 -109.5t84.5 -151t28.5 -181q0 -329 -254 -522t-698 -193zM1178 967v-267h301v267h-301zM1147 164q90 0 156 25t103.5 70.5t55 102.5t17.5 127v19h-344
q-95 0 -149 -43.5t-54 -130.5q0 -83 59.5 -126.5t155.5 -43.5z" />
    <glyph glyph-name="tmNGU" horiz-adv-x="2191" 
d="M2028 -293h-238v295l-1051 -2v195h310q141 0 216.5 66t75.5 185q0 80 -49.5 129.5t-130.5 49.5q-92 0 -138 -56.5t-46 -136.5v-26h-238v561h-333v-967h-240v1159h1030v-192h-219v-320q31 77 103.5 123.5t162.5 46.5q146 0 236 -88t90 -225q0 -213 -176 -309h391v964h241
v-1063h3v-389z" />
    <glyph glyph-name="tmCU" horiz-adv-x="1718" 
d="M535 967v-267h301v267h-301zM528 164q84 0 145 25t96 70.5t51 102t16 127.5v19h-316q-95 0 -149 -43.5t-54 -130.5q0 -83 57.5 -126.5t153.5 -43.5zM1686 700v-192h-199v-508h-238v508h-176v-19q0 -112 -33.5 -206t-99.5 -165t-172 -111t-242 -40q-209 0 -326.5 98.5
t-117.5 268.5q0 116 52 204t165 128v493h977v-192h-203v-267h613z" />
    <glyph glyph-name="tmNYU" horiz-adv-x="2738" 
d="M381 352q0 -75 47.5 -119.5t124.5 -44.5t124.5 44.5t47.5 119.5q0 76 -47.5 120t-124.5 44t-124.5 -44t-47.5 -120zM946 354q0 -158 -105.5 -259t-281.5 -101q-208 0 -329 139t-121 371q0 320 199 487.5t558 167.5h682v-192h-205v-389q37 74 109.5 126t173.5 52
q166 0 267.5 -131.5t101.5 -333.5q0 -257 -82 -461h414v1329h245v-1491h-153h-592q-125 -184 -340.5 -284.5t-525.5 -100.5q-498 0 -857 318l-2 229h1555q92 185 92 457q0 121 -51.5 193.5t-149.5 72.5q-93 0 -149 -68t-56 -184v-301h-235v967h-238q-503 0 -538 -408
q32 64 102 103.5t162 39.5q146 0 248 -95t102 -253zM967 -528q379 0 575 196l-1200 -2q268 -194 625 -194z" />
    <glyph glyph-name="tmTTU" horiz-adv-x="2205" 
d="M129 580q0 179 38.5 338t118.5 292.5t195 230.5t276 151.5t353 54.5q217 0 390.5 -56.5t289.5 -160t178 -249.5t62 -325h-242q0 275 -180 435.5t-498 160.5q-145 0 -266 -43.5t-208 -122t-147 -187t-89 -239.5t-29 -280q0 -187 47 -347t135.5 -279.5t224.5 -187
t305 -67.5q138 0 245 45t172.5 124t98.5 179.5t33 218.5q0 129 -62 208t-177 79q-93 0 -149 -68t-56 -184v-301h-242v1159h242v-571q35 71 106.5 119.5t173.5 48.5q119 0 213.5 -66t145.5 -176.5t51 -243.5q0 -126 -31.5 -239.5t-96.5 -210t-158 -167t-223.5 -110
t-285.5 -39.5q-185 0 -341 54t-268 151.5t-190.5 232t-116.5 295.5t-38 343z" />
    <glyph glyph-name="tmNNU" horiz-adv-x="4065" 
d="M365 338q0 -74 45 -118t116 -44q73 0 118.5 44t45.5 118q0 75 -45.5 119.5t-118.5 44.5t-117 -44t-44 -120zM3893 -338h-155h-709q-418 -418 -1458 -418q-439 0 -822 80.5t-663 245.5v254h2783q211 239 211 641q0 108 -24 199.5t-72 164.5t-129.5 114.5t-188.5 41.5
q-93 0 -172 -31q117 -104 181.5 -240t64.5 -284q0 -211 -108.5 -330.5t-280.5 -119.5t-280.5 125.5t-108.5 334.5q0 141 44 271.5t128 230.5q-121 43 -248 43q-153 0 -284 -61q104 -102 160.5 -233.5t56.5 -272.5q0 -206 -108.5 -322t-278.5 -116q-171 0 -281.5 117
t-110.5 323q0 137 55 266.5t156 233.5q-143 65 -319 65q-258 0 -424.5 -120t-196.5 -318q36 62 105 101.5t157 39.5q144 0 241 -96t97 -252q0 -158 -104.5 -259t-278.5 -101q-197 0 -316.5 129.5t-119.5 357.5q0 154 61.5 286t171 226t267.5 147.5t344 53.5q275 0 491 -123
q203 123 461 123q217 0 412 -95q161 95 360 95q160 0 288 -55.5t209 -153t124 -226.5t43 -280q0 -382 -166 -641h487v1335h248v-1497zM2351 174q74 0 117 69.5t43 186.5q0 118 -50 221.5t-139 179.5q-65 -74 -99 -175.5t-34 -213.5q0 -121 40 -194.5t122 -73.5zM1432 174
q79 0 118 65.5t39 178.5q0 107 -42 207t-120 176q-157 -160 -157 -383q0 -112 41.5 -178t120.5 -66zM1571 -569q739 0 1106 231l-2341 -2q491 -229 1235 -229z" />
    <glyph glyph-name="tmTU" horiz-adv-x="2353" 
d="M569 967v-267h305v267h-305zM545 164q90 0 155.5 25t102.5 70.5t54 102t17 127.5v19h-342q-95 0 -148.5 -43.5t-53.5 -130.5q0 -83 58.5 -126.5t156.5 -43.5zM809 -502q284 0 434 170l-919 -2q89 -77 213 -122.5t272 -45.5zM2200 -332h-156h-533q-95 -166 -269.5 -261
t-432.5 -95q-224 0 -410 81t-305 208l-2 229h1249q48 119 48 270q0 158 -71.5 261t-203.5 135v-7q0 -237 -144.5 -379.5t-424.5 -142.5q-211 0 -332 98.5t-121 268.5q0 121 57 210t181 130v485h987v-192h-203v-275q235 -35 369.5 -197.5t134.5 -396.5q0 -141 -37 -268h371
v1329h248v-1491z" />
    <glyph glyph-name="tmNU" horiz-adv-x="2379" 
d="M983 967v-389q37 74 109.5 126t173.5 52q111 0 197 -70t130.5 -181.5t44.5 -240.5q0 -239 -63 -434h393v1329h246v-1491h-154h-557q-201 -360 -667 -360q-214 0 -388.5 81t-285.5 212v229h1169q64 175 64 430q0 125 -55.5 209t-151.5 84q-94 0 -149.5 -67.5t-55.5 -184.5
v-301h-242v967h-338v-967h-241v1159h1028v-192h-207zM840 -506q264 0 401 174l-862 -2q187 -172 461 -172z" />
    <glyph glyph-name="tmPU" horiz-adv-x="1714" 
d="M1548 -293h-237v293h-1145v1159h246v-960h891v960h245v-1452z" />
    <glyph glyph-name="tmMU" horiz-adv-x="2576" 
d="M1044 -358q215 0 345 94.5t143 261.5l-664 2v1157h242v-964h418v604q0 169 102.5 275t296.5 106q125 0 228 -51.5t169 -137t102 -193.5t36 -225q0 -275 -152.5 -424t-435.5 -149h-109q-14 -253 -206 -402t-515 -149q-284 0 -491.5 115.5t-315.5 328t-108 500.5
q0 214 67 421.5t171 346.5h258q-120 -160 -187 -360.5t-67 -407.5q0 -360 178 -554.5t495 -194.5zM1769 793v-600h80q192 0 281.5 91.5t89.5 286.5q0 77 -16.5 148t-49.5 132t-91 97.5t-132 36.5q-162 0 -162 -192z" />
    <glyph glyph-name="tmYU" horiz-adv-x="2027" 
d="M1858 0v-293h-238v293h-797v143q-45 -73 -119 -118t-174 -45q-164 0 -267 104.5t-103 282.5v792h239v-786q0 -94 48.5 -146.5t142.5 -52.5q93 0 141.5 53.5t48.5 147.5v784h242v-960h594v960h246z" />
    <glyph glyph-name="tmRU" horiz-adv-x="2484" 
d="M1690 0h-242v967h-395v-967h-242v1159h1079v-192h-200v-379q35 71 106.5 119.5t173.5 48.5q119 0 213.5 -66t145.5 -176.5t51 -243.5q0 -242 -135 -424t-386 -281.5t-585 -99.5q-539 0 -842 265t-303 741q0 193 61 372t156 314h260q-235 -332 -235 -686
q0 -258 110.5 -441.5t313 -276.5t479.5 -93q262 0 456 72t299 209.5t105 324.5q0 129 -62.5 208t-177.5 79q-93 0 -148.5 -68t-55.5 -184v-301z" />
    <glyph glyph-name="tmLU" horiz-adv-x="2652" 
d="M887 -514q334 0 456 182l-1009 -2q93 -78 237.5 -129t315.5 -51zM2486 -332h-153h-736q-69 -178 -249 -274t-461 -96q-242 0 -450 85.5t-333 219.5l-2 229h1301q6 38 6 78v74q-157 22 -246.5 131t-89.5 284l2 217q0 174 -82.5 271.5t-255.5 97.5q-101 0 -183 -37
t-133.5 -101t-78.5 -146t-27 -175q28 70 104.5 116t172.5 46q144 0 239 -95.5t95 -252.5t-105 -258.5t-278 -101.5q-201 0 -326 151.5t-125 386.5q0 140 43 260t123.5 210t204.5 141t278 51q267 0 417.5 -150t148.5 -412v-233q2 -100 45.5 -155.5t128.5 -55.5q58 0 100 28.5
t65.5 79t34.5 112t11 136.5q0 182 -47 333.5t-138 295.5h250q172 -294 172 -629q0 -199 -74 -336.5t-215 -187.5v-96q0 -28 -4 -78h605v1327h245v-1491zM379 338q0 -74 45.5 -118t118.5 -44t117.5 44t44.5 118q0 76 -44.5 120t-117.5 44t-118.5 -44.5t-45.5 -119.5z" />
    <glyph glyph-name="tmVU" horiz-adv-x="2105" 
d="M1939 -293h-237v293h-633v162q125 174 125 395q0 191 -113.5 309.5t-328.5 118.5q-107 0 -191.5 -36.5t-137.5 -99.5t-80.5 -145.5t-27.5 -177.5q28 70 104.5 116t172.5 46q144 0 239 -95.5t95 -252.5t-105 -258.5t-278 -101.5q-201 0 -326 151.5t-125 386.5
q0 137 43.5 256.5t125.5 210t209 143t284 52.5q152 0 279 -48t213 -131.5t133 -198t46 -245.5q0 -210 -100 -362h373v964h241v-1452zM379 338q0 -74 45.5 -118t118.5 -44t117.5 44t44.5 118q0 76 -44.5 120t-117.5 44t-118.5 -44.5t-45.5 -119.5z" />
    <glyph glyph-name="tmLLLU" horiz-adv-x="2564" 
d="M365 377q0 -377 201 -567.5t558 -190.5q95 0 188 13.5t143.5 27t125.5 37.5q124 34 178 45q-116 23 -176.5 88.5t-60.5 159.5v8l-664 2v1157h242v-964h418v604q0 169 102.5 275t296.5 106q125 0 228 -51.5t168.5 -137t101.5 -193.5t36 -225q0 -275 -152 -424t-435 -149
h-101v-8q0 -96 59 -139.5t199 -43.5h127v-192h-24q-110 0 -194.5 -17t-205.5 -59q-155 -56 -293 -85t-307 -29q-469 0 -735 249.5t-266 702.5q0 212 66 419.5t169 346.5h260q-120 -159 -186.5 -359t-66.5 -407zM1759 793v-600h80q192 0 281.5 91.5t89.5 286.5
q0 77 -16.5 148t-49.5 132t-91 97.5t-132 36.5q-162 0 -162 -192z" />
    <glyph glyph-name="tmLLU" horiz-adv-x="3274" 
d="M3170 307q0 -212 -114 -385.5t-312.5 -287t-465.5 -175t-576 -61.5q-263 0 -492.5 37t-429 119.5t-342 204.5t-224 301t-81.5 401q0 199 61.5 383.5t155.5 314.5h260q-235 -327 -235 -698q0 -135 37.5 -250.5t104.5 -203.5t163 -158t209.5 -117.5t248 -79.5t274.5 -46
t292 -14q203 0 384.5 28.5t335 87t265 142t174 200t62.5 255.5q0 111 -56.5 179.5t-152.5 68.5q-94 0 -150.5 -68t-56.5 -184v-301h-242v967h-340v-967h-241v596q0 103 -42 190t-129.5 143t-205.5 56q-125 0 -214 -63.5t-131 -165.5t-42 -230q28 71 104 116.5t172 45.5
q144 0 239 -95.5t95 -252.5t-105 -258.5t-278 -101.5q-201 0 -326 151.5t-125 386.5q0 137 39.5 256.5t112.5 210t185.5 143t250.5 52.5q150 0 259.5 -67t156.5 -169v215h1012v-192h-205v-389q35 74 107.5 126t174.5 52q168 0 273.5 -130t105.5 -319zM985 338
q0 -74 45.5 -118t118.5 -44t117.5 44t44.5 118q0 76 -44.5 120t-117.5 44t-118.5 -44.5t-45.5 -119.5z" />
    <glyph glyph-name="tmRRU" horiz-adv-x="2355" 
d="M823 -506q248 0 387 172h-813q155 -172 426 -172zM2189 -332h-155h-559q-196 -360 -656 -360q-201 0 -372 81t-277 212l-2 229h1130q82 212 82 610q0 80 -3.5 143t-12 128.5t-25 112.5t-41.5 85.5t-62 58t-85 19.5q-77 0 -121.5 -52.5t-44.5 -137.5v-797h-237v797
q0 91 -45 140.5t-125 49.5q-79 0 -123.5 -49t-44.5 -139v-799h-242v784q0 187 99 291.5t282 104.5q70 0 127 -19t94.5 -51.5t60.5 -69.5t35 -79q24 92 101.5 155.5t199.5 63.5q102 0 181.5 -41t130 -109.5t83.5 -166t46.5 -202.5t13.5 -227q0 -361 -78 -604h398v1329h247
v-1491z" />
    <glyph glyph-name="tmNNNU" horiz-adv-x="3158" 
d="M371 338q0 -74 45 -118t116 -44q74 0 119 44t45 118q0 75 -45.5 119.5t-118.5 44.5q-72 0 -116.5 -44.5t-44.5 -119.5zM1049 432q0 144 43.5 274.5t126.5 231.5q-124 47 -277 47q-264 0 -439 -133.5t-190 -345.5q24 76 99 129t174 53q143 0 238.5 -96t95.5 -252
q0 -158 -104.5 -259t-280.5 -101q-197 0 -316.5 129.5t-120.5 357.5q0 205 106.5 367.5t300.5 254t441 91.5q241 0 440 -97q159 97 363 97q163 0 292 -56.5t212 -158t126.5 -239.5t43.5 -304q0 -347 -127 -592h450v1329h246v-1491h-156h-647q-161 -196 -424.5 -290.5
t-605.5 -94.5q-320 0 -576.5 70t-488.5 225v252h1954q131 218 131 592q0 94 -14 176t-45.5 154.5t-79.5 124t-121 81t-164 29.5q-97 0 -176 -31q119 -107 183.5 -244.5t64.5 -283.5q0 -208 -107.5 -328t-279.5 -120t-281.5 121.5t-109.5 330.5zM1440 174q75 0 117 69.5
t42 186.5q0 113 -50.5 217t-143.5 182q-127 -154 -127 -395q0 -121 39.5 -190.5t122.5 -69.5zM1159 -528q504 0 746 196l-1583 -2q328 -194 837 -194z" />
    <glyph glyph-name="tmSHU" horiz-adv-x="3319" 
d="M1737 174q115 0 175 80.5t60 267.5v436h-393v-630q0 -78 43 -116t115 -38zM2466 793q0 47 14.5 94.5t38.5 79.5h-305v-445q0 -267 -127.5 -404.5t-357.5 -137.5q-185 0 -288.5 94t-103.5 250v634h-299v-436q0 -267 -126.5 -404.5t-356.5 -137.5q-186 0 -288.5 93.5
t-102.5 250.5v835h242v-831q0 -78 42 -116t115 -38q115 0 175.5 80t60.5 268v637h2042q176 0 291.5 -96t115.5 -260q0 -157 -109 -261t-286 -104q-172 0 -279 94.5t-108 260.5zM2693 803q0 -74 46 -121t122 -47t122 47t46 121t-46 120t-122 46t-122 -46t-46 -120z" />
    <glyph glyph-name="tmJU" horiz-adv-x="2787" 
d="M1346 0q-67 0 -123.5 -23.5t-98.5 -61.5t-82 -83.5t-85 -91t-96.5 -83.5t-126.5 -61.5t-165 -23.5q-203 0 -329.5 110.5t-126.5 294.5q0 231 175 346t480 115h229q225 0 349 89.5t124 267.5q0 88 -48.5 141t-137.5 53q-94 0 -143 -75.5t-49 -204.5v-103h-238v70
q0 140 -81.5 226t-235.5 87q-93 0 -143 -40t-50 -111t49.5 -104.5t126.5 -33.5q74 0 158 23v-191q-71 -22 -180 -22q-77 0 -144 19.5t-119.5 58t-83 102.5t-30.5 146q0 152 111.5 248t293.5 96q181 0 288 -79t140 -222q22 141 114.5 221t234.5 80q81 0 145 -21h862
q176 0 292 -96t116 -260q0 -157 -109.5 -261t-286.5 -104q-172 0 -279 94.5t-108 260.5q0 46 14.5 94t39.5 80h-318q37 -78 37 -176q0 -130 -52.5 -235.5t-143 -172.5t-208.5 -103t-251 -36h-236q-225 0 -344 -63t-119 -206q0 -98 61 -154.5t158 -56.5q56 0 106.5 24
t91.5 62t82.5 84t89.5 91.5t102 83.5t129.5 62t164.5 24q168 0 274.5 -87t106.5 -231q0 -149 -97.5 -231t-264.5 -82q-102 0 -170 24v187q82 -21 147 -21q170 0 170 127q0 57 -43.5 88t-115.5 31zM2163 803q0 -74 46 -121t122 -47t122 47t46 121t-46 120t-122 46t-122 -46
t-46 -120z" />
    <glyph glyph-name="tmSSU" horiz-adv-x="3932" 
d="M2628 0h-215v-401h-234v401h-1098v162q53 78 86 182.5t33 210.5q0 191 -113.5 310.5t-328.5 119.5q-107 0 -191.5 -36.5t-137 -99.5t-80 -145.5t-27.5 -177.5q29 70 105 116t173 46q144 0 239 -95.5t95 -252.5t-106 -258.5t-279 -101.5q-133 0 -235.5 69.5t-158.5 191.5
t-57 277q0 137 43.5 256.5t125.5 210t209.5 143t285.5 52.5q151 0 278 -48t212.5 -131.5t133 -198.5t46.5 -247q0 -206 -99 -360h436q-184 109 -184 340q0 202 126 332t335 130q178 0 272.5 -96.5t94.5 -249.5v-456h215v-195zM2165 195h16v464q0 148 -137 148
q-103 0 -162 -79.5t-59 -195.5q0 -158 90 -247.5t252 -89.5zM385 338q0 -74 46 -118t118 -44q74 0 118 43.5t44 118.5q0 76 -44.5 120t-117.5 44t-118.5 -44.5t-45.5 -119.5zM3078 793q0 47 14.5 94.5t38.5 79.5h-551v192h873q176 0 291.5 -96t115.5 -260q0 -157 -109 -261
t-286 -104q-172 0 -279 94.5t-108 260.5zM3305 803q0 -74 46 -121t122 -47t122 47t46 121t-46 120t-122 46t-122 -46t-46 -120z" />
    <glyph glyph-name="tmSU" horiz-adv-x="3581" 
d="M1516 1180q171 0 273.5 -108.5t102.5 -287.5v-399q3 -101 47.5 -156t128.5 -55q58 0 100 28.5t65.5 81t34.5 116t11 141.5q0 218 -88 424v194h912q176 0 291.5 -96t115.5 -260q0 -157 -109 -261t-286 -104q-172 0 -279 94.5t-108 260.5q0 47 14.5 94.5t38.5 79.5h-346
q80 -204 80 -426q0 -255 -116 -408t-333 -153q-187 0 -296 112.5t-109 306.5v400q0 90 -43.5 139t-122.5 49q-77 0 -124.5 -49t-47.5 -139v-799h-242l2 639q0 154 -92.5 250t-263.5 96q-96 0 -173.5 -37t-126.5 -101t-75 -146t-26 -175q29 70 105 116t173 46
q144 0 239 -95.5t95 -252.5t-106 -258.5t-279 -101.5q-133 0 -235.5 69.5t-158.5 191.5t-57 277q0 188 71 336t214.5 237t339.5 89q158 0 274.5 -68.5t176.5 -189.5q33 120 121 189t217 69zM389 338q0 -74 46 -118t118 -44q73 0 118.5 44t45.5 118q0 75 -45.5 119.5
t-118.5 44.5q-72 0 -118 -44.5t-46 -119.5zM2955 803q0 -74 46 -121t122 -47t122 47t46 121t-46 120t-122 46t-122 -46t-46 -120z" />
    <glyph glyph-name="tmHU" horiz-adv-x="4184" 
d="M92 518q0 137 43.5 256.5t125.5 210t209 143t284 52.5q152 0 279 -48t213 -131.5t133 -198t46 -245.5q0 -210 -100 -362h375v589q0 187 99 291.5t282 104.5q135 0 214.5 -64t102.5 -155q24 92 102.5 155.5t200.5 63.5q77 0 138 -21h866q176 0 291.5 -96t115.5 -260
q0 -157 -109 -261t-286 -104q-172 0 -279 94.5t-108 260.5q0 47 14.5 94.5t38.5 79.5h-323q92 -168 92 -432q0 -173 -29.5 -318.5t-97 -269t-169.5 -209.5t-253 -134t-342 -48q-376 0 -875 19t-862 19q-283 0 -479 -83v204q174 74 477 74q371 0 870.5 -19.5t868.5 -19.5
q145 0 256.5 37.5t185 104t120 166t66 216t19.5 261.5q0 100 -10 176.5t-34 141.5t-69.5 99.5t-111.5 34.5q-77 0 -120.5 -52.5t-43.5 -137.5v-797h-240v797q0 91 -45 140.5t-125 49.5q-79 0 -123 -49t-44 -139v-799h-873v162q125 174 125 395q0 191 -113.5 309.5
t-328.5 118.5q-107 0 -191.5 -36.5t-137.5 -99.5t-80.5 -145.5t-27.5 -177.5q28 70 104.5 116t172.5 46q144 0 239 -95.5t95 -252.5t-105 -258.5t-278 -101.5q-201 0 -326 151.5t-125 386.5zM379 338q0 -74 45.5 -118t118.5 -44t117.5 44t44.5 118q0 76 -44.5 120t-117.5 44
t-118.5 -44.5t-45.5 -119.5zM3557 803q0 -74 46 -121t122 -47t122 47t46 121t-46 120t-122 46t-122 -46t-46 -120z" />
    <glyph glyph-name="tmKSSU" horiz-adv-x="5117" 
d="M3828 0h-217v-401h-232v401h-1098v162h-2q54 77 86.5 183t32.5 214q0 191 -113.5 308.5t-328.5 117.5q-160 0 -261.5 -75t-140.5 -210h164q115 0 207 -38.5t149.5 -120.5t57.5 -197q0 -158 -104 -261t-279 -103q-205 0 -327 146t-124 382h-229v-19q0 -112 -33.5 -206
t-99.5 -165t-172 -111t-242 -40q-209 0 -326.5 98.5t-117.5 268.5q0 116 52 204t165 128v493h977v-192h-203v-267h252q52 215 216.5 347.5t420.5 132.5q152 0 279.5 -47.5t213.5 -130.5t133 -197.5t46 -245.5q0 -205 -97 -364h435q-185 110 -185 340q0 202 126.5 332
t336.5 130q176 0 270.5 -96.5t94.5 -249.5v-456h217v-195zM3365 195h14v464q0 71 -33.5 109.5t-101.5 38.5q-103 0 -162 -79.5t-59 -195.5q0 -158 89.5 -247.5t252.5 -89.5zM532 967v-267h299v267h-299zM1749 176q74 0 117 46.5t43 121.5q0 80 -56.5 121t-154.5 43h-170
q0 -148 57 -240t164 -92zM524 164q85 0 146 25t95.5 70.5t50 102t15.5 127.5v19h-315q-95 0 -149 -43.5t-54 -130.5q0 -83 57.5 -126.5t153.5 -43.5zM4264 793q0 47 14.5 94.5t38.5 79.5h-551v192h873q176 0 291.5 -96t115.5 -260q0 -157 -109 -261t-286 -104
q-172 0 -279 94.5t-108 260.5zM4491 803q0 -74 46 -121t122 -47t122 47t46 121t-46 120t-122 46t-122 -46t-46 -120z" />
    <glyph glyph-name="tmKUU" horiz-adv-x="2596" 
d="M2564 0h-649v162q69 58 112.5 138.5t43.5 176.5q0 102 -59.5 159.5t-166.5 57.5q-125 0 -186.5 -92t-61.5 -262v-340h-239l2 342q0 85 -36.5 125.5t-115.5 40.5h-135v-19q0 -112 -33.5 -206t-99.5 -165t-172 -111t-242 -40q-209 0 -326.5 98.5t-117.5 268.5q0 116 52 204
t165 128v493h977v-192h-203v-267h133q165 0 244 -82q47 131 147 201t252 70q110 0 198.5 -33.5t144 -90t84.5 -127.5t28 -149q0 -163 -109 -294h369v-195zM535 967v-267h301v267h-301zM528 164q84 0 145 25t96 70.5t51 102t16 127.5v19h-316q-95 0 -149 -43.5t-54 -130.5
q0 -83 57.5 -126.5t153.5 -43.5z" />
    <glyph glyph-name="tmNGUU" horiz-adv-x="2770" 
d="M580 -416v201q516 -156 989 -156q426 0 641 152t215 438q0 122 -49 203.5t-146 81.5q-95 0 -150 -67.5t-55 -184.5v-461h-237v211l-1049 -2v195h310q141 0 216.5 66t75.5 185q0 80 -49.5 129.5t-130.5 49.5q-92 0 -138 -56.5t-46 -136.5v-26h-238v561h-333v-967h-240
v1159h1030v-192h-219v-320q31 77 103.5 123.5t162.5 46.5q146 0 236 -88t90 -225q0 -213 -176 -309h391v964h241v-631q37 75 108.5 127t172.5 52q116 0 201 -70.5t124.5 -178t39.5 -235.5q0 -368 -286 -579t-816 -211q-275 0 -512.5 37t-476.5 114z" />
    <glyph glyph-name="tmCUU" horiz-adv-x="2801" 
d="M2372 721v-193h-289v-342q37 77 102 128t166 51q161 0 255.5 -120t94.5 -308q0 -224 -148.5 -393.5t-411.5 -260t-603 -90.5q-238 0 -450 46.5t-388 141t-303 229.5t-197.5 320.5t-70.5 405.5q0 225 74.5 436.5t189.5 388.5h260q-132 -205 -207 -406.5t-75 -418.5
q0 -188 60.5 -344.5t168 -267t254.5 -187t319.5 -113t364.5 -36.5q267 0 473.5 63t325.5 187.5t119 293.5q0 108 -48.5 169t-134.5 61q-90 0 -140 -67t-50 -185v-139h-238v757h-176v-18q0 -112 -33.5 -206t-99.5 -165t-172 -111t-242 -40q-210 0 -328 98t-118 268
q0 116 52.5 204t166.5 130v471h977v-192h-203v-246h703zM1130 967v-246h302v246h-302zM1124 184q84 0 145 25t96 71t51 102.5t16 127.5v18h-316q-95 0 -149 -43.5t-54 -130.5q0 -83 57.5 -126.5t153.5 -43.5z" />
    <glyph glyph-name="tmNYUU" horiz-adv-x="3467" 
d="M455 338q0 -75 47.5 -119.5t124.5 -44.5t124.5 44.5t47.5 119.5q0 76 -47.5 120t-124.5 44t-124.5 -44t-47.5 -120zM1020 340q0 -158 -104.5 -259t-280.5 -101q-208 0 -330.5 139t-122.5 370q0 321 201 495.5t559 174.5h680v-192h-203v-389q35 74 107 126t174 52
q166 0 268.5 -132t102.5 -333q0 -257 -82 -461h413v1329h1032v-192h-204v-967h-242v967h-340v-1299h-156h-589q-125 -184 -341 -284.5t-526 -100.5q-501 0 -856 318l-2 229h1555q92 185 92 457q0 121 -52.5 193.5t-150.5 72.5q-92 0 -147.5 -68t-55.5 -184v-301h-237v967
h-236q-252 0 -385.5 -107.5t-152.5 -310.5q33 62 102.5 100.5t159.5 38.5q146 0 248 -95t102 -253zM1040 -528q379 0 578 196l-1200 -2q268 -194 622 -194z" />
    <glyph glyph-name="tmTTUU" horiz-adv-x="2035" 
d="M1126 0h-241v1159h241v-645q36 72 108 120t175 48q119 0 212.5 -66t143.5 -175.5t50 -241.5q0 -151 -49 -279.5t-143 -225.5t-242.5 -152.5t-336.5 -55.5q-183 0 -334.5 56t-258 155t-180 235.5t-108 296t-34.5 338.5q0 180 36 339t113 296t189.5 235t275 154t359.5 56
q172 0 326.5 -37t271.5 -103t185.5 -166.5t68.5 -220.5q0 -132 -84.5 -220.5t-233.5 -88.5t-234 85t-85 226q0 80 35 153t96 128q-154 49 -346 49q-150 0 -271.5 -45t-206.5 -124.5t-142.5 -191.5t-84 -243t-26.5 -281q0 -146 25.5 -277t80 -242.5t133 -193t189.5 -127.5
t245 -46q128 0 229 39t165 109t97.5 163t33.5 203q0 128 -60.5 207t-175.5 79q-93 0 -150 -69t-57 -185v-227zM1638 999q56 0 87.5 34t31.5 89q0 124 -145 209q-94 -94 -94 -205q0 -60 32 -93.5t88 -33.5z" />
    <glyph glyph-name="tmNNUU" horiz-adv-x="4706" 
d="M365 338q0 -74 45 -118t116 -44q73 0 118.5 44t45.5 118q0 75 -45.5 119.5t-118.5 44.5t-117 -44t-44 -120zM3887 -338h-156h-702q-418 -418 -1458 -418q-436 0 -817 81t-662 245v254h2777q211 239 211 641q0 108 -24 199.5t-72 164.5t-129.5 114.5t-188.5 41.5
q-93 0 -172 -31q117 -104 181.5 -240t64.5 -284q0 -211 -108.5 -330.5t-280.5 -119.5t-280.5 125.5t-108.5 334.5q0 141 44 271.5t128 230.5q-121 43 -248 43q-153 0 -284 -61q104 -102 160.5 -233.5t56.5 -272.5q0 -206 -108.5 -322t-278.5 -116q-171 0 -281.5 117
t-110.5 323q0 137 55 266.5t156 233.5q-143 65 -319 65q-258 0 -424.5 -120t-196.5 -318q36 62 105 101.5t157 39.5q144 0 241 -96t97 -252q0 -158 -104.5 -259t-278.5 -101q-197 0 -316.5 129.5t-119.5 357.5q0 154 61.5 286t171 226t267.5 147.5t344 53.5q275 0 491 -123
q203 123 461 123q217 0 412 -95q161 95 360 95q160 0 288 -55.5t209 -153t124 -226.5t43 -280q0 -382 -166 -641h481v1335h1035v-192h-205v-967h-242v967h-340v-1305zM2351 174q74 0 117 69.5t43 186.5q0 118 -50 221.5t-139 179.5q-65 -74 -99 -175.5t-34 -213.5
q0 -121 40 -194.5t122 -73.5zM1432 174q79 0 118 65.5t39 178.5q0 107 -42 207t-120 176q-157 -160 -157 -383q0 -112 41.5 -178t120.5 -66zM1571 -569q739 0 1106 231l-2335 -2q495 -229 1229 -229z" />
    </font>
</defs>
</svg>
